<mxfile host="app.diagrams.net" agent="Mozilla/5.0 (Macintosh; Intel Mac OS X 10_15_7) AppleWebKit/537.36 (KHTML, like Gecko) Chrome/133.0.0.0 Safari/537.36" version="26.0.14">
  <diagram name="Page-1" id="0fClWKSZyphtORJdL-KK">
    <mxGraphModel dx="1714" dy="831" grid="0" gridSize="10" guides="1" tooltips="1" connect="1" arrows="1" fold="1" page="0" pageScale="1" pageWidth="850" pageHeight="1100" math="0" shadow="0">
      <root>
        <mxCell id="0" />
        <mxCell id="1" parent="0" />
        <mxCell id="S_jD0EZDXr-HNpG7lVB_-33" value="" style="rounded=1;whiteSpace=wrap;html=1;" vertex="1" parent="1">
          <mxGeometry x="-35" y="149" width="891" height="307" as="geometry" />
        </mxCell>
        <mxCell id="S_jD0EZDXr-HNpG7lVB_-27" value="" style="rounded=1;whiteSpace=wrap;html=1;" vertex="1" parent="1">
          <mxGeometry x="182" y="488" width="457" height="244" as="geometry" />
        </mxCell>
        <mxCell id="S_jD0EZDXr-HNpG7lVB_-11" value="" style="rounded=0;whiteSpace=wrap;html=1;" vertex="1" parent="1">
          <mxGeometry x="524.5" y="269" width="94.5" height="60" as="geometry" />
        </mxCell>
        <mxCell id="aneznqL54y_J0FIeiLzQ-10" style="edgeStyle=orthogonalEdgeStyle;rounded=0;orthogonalLoop=1;jettySize=auto;html=1;entryX=0;entryY=0.5;entryDx=0;entryDy=0;" parent="1" source="aneznqL54y_J0FIeiLzQ-3" target="aneznqL54y_J0FIeiLzQ-6" edge="1">
          <mxGeometry relative="1" as="geometry" />
        </mxCell>
        <mxCell id="aneznqL54y_J0FIeiLzQ-11" style="edgeStyle=orthogonalEdgeStyle;rounded=0;orthogonalLoop=1;jettySize=auto;html=1;entryX=0;entryY=0.5;entryDx=0;entryDy=0;" parent="1" source="aneznqL54y_J0FIeiLzQ-3" target="aneznqL54y_J0FIeiLzQ-9" edge="1">
          <mxGeometry relative="1" as="geometry" />
        </mxCell>
        <mxCell id="aneznqL54y_J0FIeiLzQ-3" value="Customer" style="verticalLabelPosition=bottom;aspect=fixed;html=1;shape=mxgraph.salesforce.customer_360;" parent="1" vertex="1">
          <mxGeometry x="-16" y="276" width="45" height="40.95" as="geometry" />
        </mxCell>
        <mxCell id="aneznqL54y_J0FIeiLzQ-13" style="edgeStyle=orthogonalEdgeStyle;rounded=0;orthogonalLoop=1;jettySize=auto;html=1;entryX=0;entryY=0.5;entryDx=0;entryDy=0;" parent="1" source="aneznqL54y_J0FIeiLzQ-6" target="aneznqL54y_J0FIeiLzQ-12" edge="1">
          <mxGeometry relative="1" as="geometry" />
        </mxCell>
        <mxCell id="aneznqL54y_J0FIeiLzQ-6" value="Web" style="shape=image;verticalLabelPosition=bottom;labelBackgroundColor=default;verticalAlign=top;aspect=fixed;imageAspect=0;image=https://www.ringcentral.com/gb/en/blog/wp-content/uploads/2021/01/what-is-a-web-application-640x427.jpg;" parent="1" vertex="1">
          <mxGeometry x="94" y="220" width="52.46" height="35" as="geometry" />
        </mxCell>
        <mxCell id="aneznqL54y_J0FIeiLzQ-14" style="edgeStyle=orthogonalEdgeStyle;rounded=0;orthogonalLoop=1;jettySize=auto;html=1;entryX=0;entryY=0.75;entryDx=0;entryDy=0;" parent="1" source="aneznqL54y_J0FIeiLzQ-9" target="aneznqL54y_J0FIeiLzQ-12" edge="1">
          <mxGeometry relative="1" as="geometry" />
        </mxCell>
        <mxCell id="aneznqL54y_J0FIeiLzQ-9" value="Mobile" style="shape=image;verticalLabelPosition=bottom;labelBackgroundColor=default;verticalAlign=top;aspect=fixed;imageAspect=0;image=https://assets.dryicons.com/uploads/icon/svg/5113/85fd9c05-37dd-4e61-9345-f67be3cb3328.svg;" parent="1" vertex="1">
          <mxGeometry x="94" y="331" width="46" height="46" as="geometry" />
        </mxCell>
        <mxCell id="S_jD0EZDXr-HNpG7lVB_-3" value="" style="edgeStyle=orthogonalEdgeStyle;rounded=0;orthogonalLoop=1;jettySize=auto;html=1;entryX=0;entryY=0.401;entryDx=0;entryDy=0;entryPerimeter=0;" edge="1" parent="1" source="aneznqL54y_J0FIeiLzQ-12" target="S_jD0EZDXr-HNpG7lVB_-8">
          <mxGeometry relative="1" as="geometry">
            <mxPoint x="332" y="296.5" as="targetPoint" />
          </mxGeometry>
        </mxCell>
        <mxCell id="aneznqL54y_J0FIeiLzQ-12" value="Rest API" style="rounded=1;whiteSpace=wrap;html=1;" parent="1" vertex="1">
          <mxGeometry x="238" y="271.71000000000004" width="67" height="49.53" as="geometry" />
        </mxCell>
        <mxCell id="aneznqL54y_J0FIeiLzQ-15" value="" style="shape=image;verticalLabelPosition=bottom;labelBackgroundColor=default;verticalAlign=top;aspect=fixed;imageAspect=0;image=https://innowise.com/wp-content/uploads/2022/08/Pic-3-1.png;" parent="1" vertex="1">
          <mxGeometry x="195" y="321.24" width="38" height="34.2" as="geometry" />
        </mxCell>
        <mxCell id="aneznqL54y_J0FIeiLzQ-23" value="" style="shape=image;verticalLabelPosition=bottom;labelBackgroundColor=default;verticalAlign=top;aspect=fixed;imageAspect=0;image=data:image/png,iVBORw0KGgoAAAANSUhEUgAAAIwAAACECAYAAABCk8NTAAAMTGlDQ1BJQ0MgUHJvZmlsZQAASImVVwdYU1cbPndkQggQiICMsJcgIiOAjBBWANlbVEISIIwYE4KKGylWsG4RwVHRKoiCowJSXKhVK0Vx7+JARanFWtzKf0IALf3H83/Pc+5973u+857v++654wBA7+JLpbmoJgB5knxZTLA/Kyk5hUXqAQhAARWQAYUvkEs5UVHhANrw+e/2+hr0hnbZQan1z/7/alpCkVwAABIFcbpQLsiD+EcA8FaBVJYPAFEKefNZ+VIlXgexjgwGCHGNEmeqcKsSp6vwxUGfuBguxI8AIKvz+bJMADT6IM8qEGRCHTrMFjhJhGIJxH4Q++TlzRBCvAhiG+gD56Qr9dnpX+lk/k0zfUSTz88cwapcBo0cIJZLc/lz/s9y/G/Ly1UMz2ENm3qWLCRGmTOs26OcGWFKrA7xW0l6RCTE2gCguFg46K/EzCxFSLzKH7URyLmwZoAJ8SR5bixviI8R8gPCIDaEOEOSGxE+5FOUIQ5S+sD6oRXifF4cxHoQ14jkgbFDPsdlM2KG572WIeNyhvinfNlgDEr9z4qceI5KH9POEvGG9DHHwqy4RIipEAcUiBMiINaAOEKeExs25JNamMWNGPaRKWKUuVhALBNJgv1V+lh5hiwoZsh/d558OHfseJaYFzGEL+VnxYWoaoU9EvAH44e5YH0iCSd+WEckTwofzkUoCghU5Y6TRZL4WBWP60nz/WNUY3E7aW7UkD/uL8oNVvJmEMfJC2KHxxbkw8Wp0sdLpPlRcao48cpsfmiUKh58HwgHXBAAWEABWzqYAbKBuKO3qRdeqXqCAB/IQCYQAYchZnhE4mCPBB5jQSH4HSIRkI+M8x/sFYECyH8axSo58QinOjqAjKE+pUoOeAxxHggDufBaMagkGYkgATyCjPgfEfFhE8AccmFT9v97fpj9wnAgEz7EKIZnZNGHPYmBxABiCDGIaIsb4D64Fx4Oj36wOeNs3GM4jy/+hMeETsIDwlVCF+HmdHGRbFSUk0EX1A8aqk/61/XBraCmK+6Pe0N1qIwzcQPggLvAeTi4L5zZFbLcobiVVWGN0v5bBl/doSE/ihMFpYyh+FFsRo/UsNNwHVFR1vrr+qhiTR+pN3ekZ/T83K+qL4TnsNGe2LfYQewMdgI7h7ViTYCFHcOasXbsiBKPrLhHgytueLaYwXhyoM7oNfPlziorKXeqc+px+qjqyxfNzlc+jNwZ0jkycWZWPosDvxgiFk8icBzHcnZydgVA+f1Rvd5eRQ9+VxBm+xduyW8AeB8bGBj46QsXegyA/e7wlXD4C2fDhp8WNQDOHhYoZAUqDlceCPDNQYdPnz4wBubABubjDNyAF/ADgSAURII4kAymweiz4DqXgVlgHlgMSkAZWAXWg0qwFWwHNWAvOACaQCs4AX4G58FFcBXchqunGzwHfeA1+IAgCAmhIQxEHzFBLBF7xBlhIz5IIBKOxCDJSBqSiUgQBTIPWYKUIWuQSmQbUovsRw4jJ5BzSCdyE7mP9CB/Iu9RDFVHdVAj1Aodj7JRDhqGxqFT0Ux0JlqIFqMr0Aq0Gt2DNqIn0PPoVbQLfY72YwBTw5iYKeaAsTEuFomlYBmYDFuAlWLlWDVWj7XA+3wZ68J6sXc4EWfgLNwBruAQPB4X4DPxBfhyvBKvwRvxU/hl/D7eh38m0AiGBHuCJ4FHSCJkEmYRSgjlhJ2EQ4TT8FnqJrwmEolMojXRHT6LycRs4lzicuJmYgPxOLGT+JDYTyKR9En2JG9SJIlPyieVkDaS9pCOkS6RuklvyWpkE7IzOYicQpaQi8jl5N3ko+RL5CfkDxRNiiXFkxJJEVLmUFZSdlBaKBco3ZQPVC2qNdWbGkfNpi6mVlDrqaepd6iv1NTUzNQ81KLVxGqL1CrU9qmdVbuv9k5dW91Onaueqq5QX6G+S/24+k31VzQazYrmR0uh5dNW0GppJ2n3aG81GBqOGjwNocZCjSqNRo1LGi/oFLolnUOfRi+kl9MP0i/QezUpmlaaXE2+5gLNKs3Dmtc1+7UYWhO0IrXytJZr7dY6p/VUm6RtpR2oLdQu1t6ufVL7IQNjmDO4DAFjCWMH4zSjW4eoY63D08nWKdPZq9Oh06erreuim6A7W7dK94huFxNjWjF5zFzmSuYB5jXm+zFGYzhjRGOWjakfc2nMG72xen56Ir1SvQa9q3rv9Vn6gfo5+qv1m/TvGuAGdgbRBrMMthicNugdqzPWa6xgbOnYA2NvGaKGdoYxhnMNtxu2G/YbGRsFG0mNNhqdNOo1Zhr7GWcbrzM+atxjwjDxMRGbrDM5ZvKMpcvisHJZFaxTrD5TQ9MQU4XpNtMO0w9m1mbxZkVmDWZ3zanmbPMM83XmbeZ9FiYWky3mWdRZ3LKkWLItsyw3WJ6xfGNlbZVotdSqyeqptZ41z7rQus76jg3Nxtdmpk21zRVboi3bNsd2s+1FO9TO1S7Lrsrugj1q72Yvtt9s3zmOMM5jnGRc9bjrDuoOHIcChzqH+45Mx3DHIscmxxfjLcanjF89/sz4z06uTrlOO5xuT9CeEDqhaELLhD+d7ZwFzlXOVybSJgZNXDixeeJLF3sXkcsWlxuuDNfJrktd21w/ubm7ydzq3XrcLdzT3De5X2frsKPYy9lnPQge/h4LPVo93nm6eeZ7HvD8w8vBK8drt9fTSdaTRJN2THrobebN997m3eXD8knz+d6ny9fUl+9b7fvAz9xP6LfT7wnHlpPN2cN54e/kL/M/5P+G68mdzz0egAUEB5QGdARqB8YHVgbeCzILygyqC+oLdg2eG3w8hBASFrI65DrPiCfg1fL6Qt1D54eeClMPiw2rDHsQbhcuC2+ZjE4Onbx28p0IywhJRFMkiORFro28G2UdNTPqp2hidFR0VfTjmAkx82LOxDJip8fujn0d5x+3Mu52vE28Ir4tgZ6QmlCb8CYxIHFNYlfS+KT5SeeTDZLFyc0ppJSElJ0p/VMCp6yf0p3qmlqSem2q9dTZU89NM5iWO+3IdPp0/vSDaYS0xLTdaR/5kfxqfn86L31Tep+AK9ggeC70E64T9oi8RWtETzK8M9ZkPM30zlyb2ZPlm1We1SvmiivFL7NDsrdmv8mJzNmVM5CbmNuQR85Lyzss0ZbkSE7NMJ4xe0an1F5aIu2a6Tlz/cw+WZhspxyRT5U35+vAH/12hY3iG8X9Ap+CqoK3sxJmHZytNVsyu32O3Zxlc54UBhX+MBefK5jbNs903uJ59+dz5m9bgCxIX9C20Hxh8cLuRcGLahZTF+cs/rXIqWhN0V9LEpe0FBsVLyp++E3wN3UlGiWykutLvZZu/Rb/Vvxtx7KJyzYu+1wqLP2lzKmsvOzjcsHyX76b8F3FdwMrMlZ0rHRbuWUVcZVk1bXVvqtr1mitKVzzcO3ktY3rWOtK1/21fvr6c+Uu5Vs3UDcoNnRVhFc0b7TYuGrjx8qsyqtV/lUNmww3Ldv0ZrNw86UtflvqtxptLdv6/nvx9ze2BW9rrLaqLt9O3F6w/fGOhB1nfmD/ULvTYGfZzk+7JLu6amJqTtW619buNty9sg6tU9T17Endc3FvwN7meof6bQ3MhrJ9YJ9i37P9afuvHQg70HaQfbD+R8sfNx1iHCptRBrnNPY1ZTV1NSc3dx4OPdzW4tVy6CfHn3a1mrZWHdE9svIo9Wjx0YFjhcf6j0uP957IPPGwbXrb7ZNJJ6+cij7VcTrs9Nmfg34+eYZz5thZ77Ot5zzPHf6F/UvTebfzje2u7Yd+df31UIdbR+MF9wvNFz0utnRO6jx6yffSicsBl3++wrty/mrE1c5r8dduXE+93nVDeOPpzdybL28V3Ppwe9Edwp3Su5p3y+8Z3qv+zfa3hi63riP3A+63P4h9cPuh4OHzR/JHH7uLH9Melz8xeVL71Plpa09Qz8VnU551P5c+/9Bb8rvW75te2Lz48Q+/P9r7kvq6X8peDvy5/JX+q11/ufzV1h/Vf+913usPb0rf6r+tecd+d+Z94vsnH2Z9JH2s+GT7qeVz2Oc7A3kDA1K+jD/4K4AB5dYmA4A/dwFASwaAAfeN1Cmq/eGgIao97SAC/wmr9pCD5gZAPfynj+6FfzfXAdi3AwArqE9PBSCKBkCcB0AnThxpw3u5wX2n0ohwb/B95Kf0vHTwb0y1J/0q7tFnoFR1AaPP/wKDOILRNNsP+QAAAIplWElmTU0AKgAAAAgABAEaAAUAAAABAAAAPgEbAAUAAAABAAAARgEoAAMAAAABAAIAAIdpAAQAAAABAAAATgAAAAAAAACQAAAAAQAAAJAAAAABAAOShgAHAAAAEgAAAHigAgAEAAAAAQAAAIygAwAEAAAAAQAAAIQAAAAAQVNDSUkAAABTY3JlZW5zaG90hjiRfQAAAAlwSFlzAAAWJQAAFiUBSVIk8AAAAdZpVFh0WE1MOmNvbS5hZG9iZS54bXAAAAAAADx4OnhtcG1ldGEgeG1sbnM6eD0iYWRvYmU6bnM6bWV0YS8iIHg6eG1wdGs9IlhNUCBDb3JlIDYuMC4wIj4KICAgPHJkZjpSREYgeG1sbnM6cmRmPSJodHRwOi8vd3d3LnczLm9yZy8xOTk5LzAyLzIyLXJkZi1zeW50YXgtbnMjIj4KICAgICAgPHJkZjpEZXNjcmlwdGlvbiByZGY6YWJvdXQ9IiIKICAgICAgICAgICAgeG1sbnM6ZXhpZj0iaHR0cDovL25zLmFkb2JlLmNvbS9leGlmLzEuMC8iPgogICAgICAgICA8ZXhpZjpQaXhlbFlEaW1lbnNpb24+MTMyPC9leGlmOlBpeGVsWURpbWVuc2lvbj4KICAgICAgICAgPGV4aWY6UGl4ZWxYRGltZW5zaW9uPjE0MDwvZXhpZjpQaXhlbFhEaW1lbnNpb24+CiAgICAgICAgIDxleGlmOlVzZXJDb21tZW50PlNjcmVlbnNob3Q8L2V4aWY6VXNlckNvbW1lbnQ+CiAgICAgIDwvcmRmOkRlc2NyaXB0aW9uPgogICA8L3JkZjpSREY+CjwveDp4bXBtZXRhPgqQvFohAAAAHGlET1QAAAACAAAAAAAAAEIAAAAoAAAAQgAAAEIAABSHPVKjWAAAFFNJREFUeAHsXPdzG3d2f+iFYAFBsICkqEJ1qhfLsmVbutwkl8vNzSSZ/IP57SYzGY8n8dk5nWNbsi1ZjZRtFVMSqcJOghV1F8jn8xYgARCUiIslgeYuBWix+92C9z773ueVLxx5LGIvtgQ2KQGHDZhNSsoephKwAWMDoSYJ2ICpSVz2YBswNgZqkoANmJrEZQ+2AWNjoCYJ2ICpSVz2YBswNgZqkoANmJrEZQ+2AWNjoCYJ2ICpSVz2YBswNgZqkoANmJrEZQ+2AWNjoCYJ2ICpSVz2YBswNgZqkoANmJrEZQ+2AWNjoCYJ2ICpSVz2YBswNgZqkoANmJrEZQ+2AWNjoCYJ2ICpSVz2YBswxABnZjneABg4BczxJi70+r6LDZjCPL6csSB5c0nyuTSknXupxPPcbeYVZ/KqeYAAiMPpEaenSVzeVguYCpqtCZztDRhVNhWfFyPxUMzkiOSMOCxOpgCYCqXqHFGMzgJSmRzABeS8CjBOtzg8IfE07RVfywAMDM6pL+dLQVmvO7c9YPKwJvm8IZn5r8VYugPALAINhuoLtmGd3giSXDon5oo1hjON14+il7P8nMMbEndLv/jCR/SlgOERDhsw64Rb9xug7BysSS6XkszMf0t24RrcUgLapuWgISiHAsGRNwCWpCE5AEYNDr5k+SjrWyuQXF5xBjvE1/WueMOHxdu4pzDWBkzdY6PaDVKpudyK5LKzkpn9XIzFW7AuJoYWoVB+FK2LmTYll7Je1YBSPIJncAZaxdPcL8GefxB3qFec7mBh98uOLJ6hPv/f1i4pD0tiZqfFSA6LMf+dmMsPoKXqYOFmBUwC1iUDwIDDbKx2h+ThcrwRWJW2Y+JvOy1OXxgWy4Xzb3xUfUKk/K62MWDgXvKmGKkRySxeF3PpgeRTYxvrU90RyPFKFpzYhOvaAFiUL6Iih9sv/u6L4us4K55AlzhcfuzY2mDhV9vegAF3yS7/IKmZPwMEMwDBClRaXal5E2Q3C4u0DMCAx1QzRAohvKkratkl/vbzyl0ccEW/BuuyvQED65Iz5mFdbklq+r/AXZIAgbkhYOiGyF/yILzVrItlbwA2hNGepl0guu+It+WguIM9OCcioi2ceyFQiss2tTB0R1kxUy8kC8CkZy5DHkiuwGxsZGEYGZngL2pdcuvdkW4Bb2EY7Ws7LsG+P4gLvMVJV5QvWK2KqKuohK30/zYEDNO0NCYIpVeGEBkNirFwG1sYHVVZgARGUya4C0GDOJy4Wl3WVgE1d0A8ILoEjI9EFzzG4XCvjbcBsyq3LbJC9ZJ/gI8Yy5Jism75LtzMU91W9UsAIHRBRiILrwXArCGkdBWk1odIqFX8PRfF2zoAV9SN3ByyvPgD4gp8tzo/qnrdOt34K7IwJZp8qbABFjODcHpW0rOfIeq5B280v3pEmUvCKfMEDPkLXRI4TKnKV6+IFWcwipzLbgl0XxJ3026NishdSsevXkRXNt5TPq6+Pv1qAAO1rko2nTEkmTZkBUr2eJzSEvKJ2+UUZyEbn8suQPnPAZj/AS95BKPDgiONQIUSmdhDZETLwrxLDtFRxQjNtyjRDR8QX/QkrMsR8Jg2yRh5WYRVyuL4xqBHAj63eN3Mw1hLZRa5uL3e///1AIbKBWjIN2bmkzIZX5GJ2aQ0BX3S39MsoYBHfF6XKtzMjGuxMRv/Glnb5ziGQKiEgmVdNDpaQiiNsLoEk2t6Zc7FB6LbcV4CsQ+1Ip0y3DK/kpYn40uyCO6zo6NB2sMBaW0M6HFOXMph15LWZPjm1wgUkXTWkOVkRr77cUJuPJiW2fmMdEaCcmJ/mxzZ3SrdbQ0KCyPxAPmX2yC8P2j+pdr90mLlaV1YCmDdqEpkxOMciIQ8kUMgubQuR8FbvDI6tSLXfpqU+yMLMreYllg0ICf2tsk7hzosS+MhcO3iYzW5v9ZtVKouQEs6a8pUPCH3R+fkmx+n5M7Ps5JImrKzq1HePRqV9wa6pL+7SQlodvkmCo1XJZeAdcku8XGvuE8CEBarUDMiaIqXKhsIoutu7BVf7APxNu9Toss7ujcal0+vjcjd4XlYuZSEm7xybE+rvDvQLnt7WyQaDorHCfdUuG7l1cuuUWcftrRLwvOvFiOHouDcUkpuwar8x+VhmYRlWUlTdTnZt6NJLhzrkHOHOmVnZwiWArwC0VEm/gWsC1sZ0PtSDTCwKFm6IoKlpAxQgKiq0RVsE0/rQRQXfyduf7tGSjRED57H5S83RuXOw7iMTCTUmjQ3uCQW8cq/XNorJ/e1S4Mfrqzglpzrrl9nKCm5nS0NGLIWkts4wHLj/pQC5vZDWBb0q3g8bgCkQU7si8j5I+1wR43SHCSJRWU6fhWvKwBLFrURAKJCYRoZgbMYKAPQujhKUKKrGM9Uv7fjDFzRCaT/B8B7QziPUw3R3GJSHo8vwC1NyeBwXMamk2KaJkDilJMHonJyf1RO7YtKc4NPfLjPrUSAtyxgcnAZhmHKxNyKPBpbkM+vPZOfRubBYUzxgiNEw345P9Ahpw60yfE9EWRcwRnQgmkmfpbMwvdwSbfx5FtIqFSY1o0QFZnMvVRUpXmE5lw8DRLo+z0io9Mgui3caD2H8C85mBkDgLsJi3cdQL55fxZEPKVusyXklsO7wvK7cztkV1eTRJsD4nKB01SAtuShrqvVLQcYcgsuGcOQ2cWUKuXK4LiMjC8rwTSRhu/vCcnRPWFYlhisTKO0NHjViJiZSYDlKizHPfAXJOsYrfCtuFinBkisupFyFxYaSxco1oWmKHfLXvF3vIfcyz4luqUK5y3yPudwfyMTi3Ll7oT88Dguj14sIbx3SFuzD1ymSd470imnYG0YyXkKIXfpeUovWy/rWwowSnKhDEZD0widBx/NADAzMvjznCRShuZaIi1+OQ2rcgavvT0tavZdjGOR+jdSo6gbfaa9u/lMvPypLoCF4ZYJskvrokXG0uiItSI3lNuCnEvneRQZ94C7RIG69REPQWPCyjC8vv80rvd54/6MzC2kxMQ5mxo8cE0R3GtUDvaFAaIA8jQoI9Dd1Qs6qtzHFgIMIxfSWDy5C0lEQ3H5z6+f6FO7uGyBpbMtKMf3heXCkS45vjcibmTq+MQ6QELyaMU0EsOSmvwYvGQC2kSyrlQzBAxe2iTFrC7yJwWPtSY2dv8HItrj0rDjnyzLwminWojMc+GPrjOD8Hzw0ax8OTiGyGlOxmcSur09DEvT0yS/P98Hch6WcCigFq+evdOWAAzNO3WbQui8lEzL1aFJuQ5C+TOiESbGzJxDetuDMoBcy0cnYkiUNUqkiYW/4tPKzroZyaIMkJn5HKH0HABkqHLW0ECwQMV0R7BWWjcqIIqKpxVxehvFo4XFE+iiO4m9tCylqCs9m7WuIMfbDNzTs6ll+eI2QAPwMNymewo3euUAIrnTB9vl/aMx8YMEu90AOgFch8ipe8BQWRR6FgSXeZbhFwty+caY5lmS6SyiDJe0QOgnYFHIB84d7tTkmMUFoEwcDCcjWUwjYaHRmEejt4H5R/grwqmoZpJdbfBGZKThdEFhHCtwRa5AFH0u7yPnsh85l1jBAlGzr1pIr52SNp3y3U/TSCrOyNCjOUR3VumAITct4m/P9CrY6Z5YyrAu/3JAvurKv/T+LQEYs5Bnuf1wWj795qk8h0mnsHNQMC3L4d0t8tHxHtm/owUEEp36LBoVlY20P3tf0vNXkFe5LfnECPyaVTsqEyb0ngcoGUrnERmVZnYJCUcgLK5QDH26J8XFnAsyuptfYIswN8nlDcty2ikPXyzL5VuI6p4syovphDhhvSJI7vW0B+Qf4Z5O7W9HKcMLl0qw2IDZpJz1uV7NswwOz8ithyC5II4JWAAmu6LNfjnaH0bKvZBBZYhqFWpWBc1EXS6XANn9swJGK9PMvVQsbIzS6AguTslupeHwBNG+0AwO04kQHd3/BUBWnGb9R3Ac7ZNpwtwktD3kHV6ZBdhJhL/HdxkCYZ9eyChAgz6HnNNUQFQO72yF5SzkafSs9QGc+rQw6kbAS/H/JPIswy/m5S/fvwDRXUAonQEo8EQiND2G0Pnc4XY5ixoNXRM5wdoTaQmY84zMbFzS05+gu24Q+4uT1Mp1ayIByOgoD/6ivVTr9IMNCpLSa5Sfo+yTHg+nB1fmbMD9tZ+TQNdHsEweEF6H8jEmG7/9YVLuPl7QPA3dbgzE/eDOFvnNqZjsijUjegqKC9e1TqfvZZd50x/qFjAZuBsWEq+jiPf10Lg8HluSOAp5WbQNdLQGEFU0Q6jdWonW5BcsyypvIefQxSFmZtaaGTD7BSKf+wU8lbAXHQqWw8gILxYcVw9fp43NK0zdGBJyjKq87WeQDT4C7nNA75GcjNHTNELsEVS0vxqagHual6dYD/jdEkVqYD++3zuHO+Q0eFnQ57GIcB24p7oCjKU7hKF40phnuTcyJ9fvIeWPdP9yEml8KLABbQoWwW1DHqNdWpusXhcLAkWF8kx44Z+ReiYZTIE1Fm+jmPhMrUQJXDAGg5iZRb8uAcP1jQGzDkEbbuBpXeA97qadKE5+KJ7QLri0SMFSWIcxG7ywkpGh4VmUNpAVxsORSAGw+BphuKPje1vl7MEowNOqeZqiuy1+yw0v/hp31A1gIF8s4C2Q9PxyWkPPP6GQ+GwqIctwFdzHELS3IyR/fL8PxcR2lADcymVoWYoznC1hMjtL4oroKnFP0vH/RZj8TMPpMrDwkgylGR0xPOd1rBvhntoXooRui+fAuqf1gDWRrfNdgKUNG1mhti5QVDrLCMlMFnWwKfnk6hNkhpMyA07Dk5AI7+oKyb9e7JeBXa3ig6UpFiqLx9d+k/+/I+oKMFY/SxpFu2klt3eRyV1YxtxnyJiW5BBqMO8f7ZL9vc3w9Q2W8NS/l4uPRUmgAIDBvKPFO+isY+5lAeDAVJLKRQGDI8Bh2F1Xy0J86M9+AHC6jo8QKHDBiWwB8SMEZ63JHdqBUhPnJpXfJ0HB4YwCmTJ4hJTBNygj3EUZYSqeRo2JeRqPHOunNW3TrHCD34syAkJuy1bVcru/yNi6AAytigGhTc8nZHRiST4HwR1CRtRyQ3kJ+l0aMrMB6dKpHs2zaMipYKEcyhXB+IqZXVamsws3NVnHyjRBVDEU22hhuAtKx6uWJYe2B3IeDcOpeSy8EwejqcaYBLsw8zFyHEQXGVzNCOuQ8jdeH1u0mIrrf3XnORrAJuXHJwtWUhL7W0JeRIOt8vfv9EpvNISHx7+axS4/2ev/9BYBQ0FRVCCmENQiai534Msv3xqTJ2OLGjUwg9va5JE+tClcAsGlWY5FkM8oElzrcD1Hqaj0zAiljcRjnXeUjX+LqxAMllJLx+o6NhO0m1oKw/JwLTlUxlmgXAMM4IIIzt28R/yxC9pUxWmyViW7HNSV1+L1+ceH5gFC7i+REX7wdFHGZpIgvA4l+nuRZ/rwWBcsTkRC6KdhtEiEvklr89YBQ3NMt3MHeRYWEm+gFWApgboPQMTG6YHdYS0mUkhdEbQUeAtTN1Ylvl4RdEn8nZfM4k385ssQprfeg1A3CYjV875khcrF6VZ5Dy0TT49pJU5kgz2RI+jv/QiFyTZsasCO9fdY/exFwp+AhZlTInwHeRo2kzMZSUtDEszi6iHkaZpRhed26+ybvUb1K29269sBjD7NEDqe0iQ6/Flj+dNfH4Hozss0fDcXuqHOiF/+7nS3psxD6Lxn1z2fplc9UZxkr9NI5i5DqfeQWxnfrDw2NU6zwHBHBvkVLIyCBdlaayIbwmc0VfmjZ6BMZIOxffOLZWX4sLD6/s2P4/LFzTHkoZZlHvknWqEdsLbH4J7+AOLf247mczZg4W/zoNz83VQb+XYAAwnzgeT786klfZo+uTqKnMSKpDKIdwCkWCQgHxxHHuJAOxJZ+J0V5jToivRbvPxp4g8EmZkJZHc/1WkkSngrvz1Bu8qB1nbyvvTsqytr+3QN2zndJMcCJcBSJMpOL0g4+mT8sUuYU31IrYtOwF9HdCvOV/LRuiTsI+6NoBmdXAQBnpNPv30hj9FLw+2hgFsjpz9e6IOVCeOhYmP7NgLMUzQYsXr78ZVRCGgFfAZfH4Bhjei3Z2Lof40iSddqhc+rwn0VYNASyWapeTR6p/ETHmxlqFwIGIVt6Q5rG7PDLFAqG64cg6iKE9o4EzKPJKJSI4DC3dgtHsxN8nd+IO4GREXowFtLJJZeY+N1CzDWg0Rr8nwaDxNyUR9/9VQePluEhXFgqoxT+jBt5Z8/6JMBNJbH2kLbATAUmmV+SXaZ+v/3z4blIUheEv24fChbkYM4vLtZLp7oRqtlTKu3xRzExiK39uRQXMyZyzpZDT4JG0l4LZBRKQoUJmn40n3FbdiLtgcTjVbGygMALYXdnKRfWLgbTz4TfPydGMUSXRG4i7f9NMLoC0jQ4ZemvJidgOr03/rkEywm7u32z1NyZWhMvv9pVsbRDsHvwFzU/r4m+bdLu2VPd7M0BnyF6xRv8vX+/5ZcUvFLsbnIkClkdf+K6IjFxXuYy2OCH3DGIhNXJHnn0cq4G/2vLY3+1cRV8QzV/ieHYVjN33shAJShFlyDBRgeRe3zU3ELAIwfQ+RPrxpLg2jlvCaOYiheGEJF0g1pv4wmE6FCVKHdTZhqAs7iazuFqnQjipOsZP8tbsJyR0uwXqOwvJzbxL6f8bmkNmEFEBmRv5xCTuYsOvXYBmG1dr7c4vLb/lLLWwcMvwg7/9nnwi57AodRU5JkEks/OtJOIEX+HhJ2bJpmOLk+AaZDK94snsSN8HB4K7UwFUP5EWBgoi+XGYMru4ZZBV9aSTgFFmGFPwBZG8Nxb/qzHygkuoKdaNc8q7+Q6Wnsx2XWWiuqXOUlm/QKmN6b1SDgO8yt4rSZe6PzeuvNiJC6kYO5eDKG9tOoNo/r1Fv9Wm8OMP8HAAD//4TaULwAABmUSURBVO2d53NcV3LFG5iIQc45UWASg5izRKXdVUlalctVrv3gKper/H+57A+u2vKW17v2StpdiQq0AiXmnECBRM4ZGEz279zBiOBKIggK0mBAPBFp5s2793Wf23263+1WXorDsnwkkkmbW4jZrQcT9sW1Abt0d8J6h+csycxCQa/VlAft+O5a27+l2p5vqzCfJ9/y8vJWddYSQzI+ZfG5axabvmiJ6StmS4ZIJXg/lrDEfMxSsaQZ//KC5eYt67CCxtfMV9hkHn8Zc9KHlnzwCWfpxk8l7XrXuF28M4ochm1wbN7JJVTgsW2t5fbqvkbb0lxmDZWF5vd6LD9/5eM84XR+8LS8tQAYzS6JsIYn5u1e/5SdvjRgV+5N2NhUxOIoKujPt46mEtuzudKO7ayzuoqQlRYGVhU0KcZPxkYsOvmZxWdvWHL+AXrPKASwRHg/ErfEQsI4lbfyzV+50/xVL/BznwNLXr6PO8l85gdl/ugbAFUrdno+aiOT8/bF1UG7AGA6e2csGk9aQcBju54rt31bquzQ9lorLw5aKOBd1Xt/dEKP/2vNAEZiSyK8eCJhp8732udXh+wylmZ+Ie7ugInac41F9uLeOju4rdY2N5axwrA0UtAKdfR9IkmlEpaM9tvC6LuWmLtnqejEImCYGWMn5uKAiC+ZvTwP//xW2P6OBWsOW76/CgV6Fuexgsk4sHBtrnl/YNrO3x6yTy8N2u3uKcbMsyDWta4yZP/4yw6sa5WVFvjNFq2Ku+/vu5Gf+LU1AxjdpwMNwusdmbGbDyYxy0N2r2/aBkbD7t3SQp/VVxbY0V1p99RWV+pW20NL8PTSSiXnLB6+b5GRP1ki3IMVWXBgTDGfVBxXFAZQYYE3z/ILqnBFm6yg9kXzlW6zfE+Ql/NXPLiAuIDVuj84bRfvjtpnVwZtYCxss+GYBfwe27mpHKtSbXtxxRk3tNqueKWTXlOAyUxeVmYI93Sxc9TO3xq1a99M2AzcIZ5IugW2u6MCE11ph7E0dfjzUNC3iJkVrO7MYM4hmCWigxafv23R0VOWiAzzbkII5gcWAKUmcUXJmIxLwHzlmy1Qd9j8xVvMU1DP2CsDixaGjlnc0PD4vJ29NYJ1GQU0Y1wrz4pCPmuqKbTju2rsxK46qygpsAJ/9tyQm+zitzUJGK28KKtaRFj+/Mtrg5DBKRudWsBUmxUG860Zgb6yr8Fe6Kiy5xpKnKDTq28FoNHFnF1jvLmrFpu57MhuKj7Ny2lXlIoCFLmiuM71Wn6o1vzV+ywE0c33Fqatiz05YAQW3Z++7vZOQPDH7LPLw9Y9NItliVqowGft9SX2+sFG29FWbi21xeb1YNUcn1rBvS3V8ir+viYBo/uTQMVp+kfnEOyknbk+bLfw7f3OPSWtGMFuhgjv31YFp6khkiqwQnz8yny7FJdEhUlHdmNTZ7EkuKMELhB8pLBoyYgiI1xRCt7iLwUse8xfsdv85TvhUFr1cJcVAkbAGMSynLs5xNeIfTMwZ3O4OygZBLfCkftD22sg94VWjLVJH9kHi+axZgGzKCUXPUnAZ64P2dcI9xwuKiwlokytvN1EECdeqONnlTVUFZnPu0iEMxd47E+BEguCr4mN/cViU2cImUU48T0AJinrsgiYPF+ReYqaLNT0C/OVdEB0y5wrSrujJ1OmFkEMy9k/NoflHLEviYiudI7h9fKIhrxWXhSwN4422eHna6yJewn4vGjoya792NtcxTfXPGAkZHGasekIRFh5mkG7eV9EeB6emSLM9Ftjdche29+Ee6qEFIcAEtbACenxwta1U8kI4Ju12Oj75F/OgpIIACJ0lnWRKyKcThHe+sq3EELvIoQ+YN6CWsaGNznLwhiPHwbwMQ7/xck3yfVcuTdmn1wYsL6ROZucjTqQb2sttRdfqLXt5Jmaq4sdmXduaAMwK4W73IbyNCkbwozffDBuX90chdMoT7NASEqugojiAG5J7mn/1iorI0cThCQup0nn9uAricigxcZPkX+57JSbVFREki41L+BgsbwhC9QctEDtQfMWtsJdipa4vuUBI7c3D3Een12ws1jJixDcS53jFsGCBXweOEuRm/vL++qtorjAioJyrZr+ckhcqSx//Plr3sIsvUWBQ2T4qxtD9iUuSsKfmsV9IN7CAq/tIAz9uxdbbVN9sVURWSwXvQgwieiQxWZvWWLqK7jKXXctuaIE+R+5I/yQc0UF9S9aoPog1yRhmI8FW4Eyk8y7f3zObsPF3v28124Cdt2HMta1FUF761iT7dtcbe0NpZDb1c9iL5Xhj/09pwDjXAhKFgfo7J1y7ulOz7T1QYRlvitLA7a1pcSO7KiBOKYtjZ8VnF6nf7ta5Y4ShNKdFpk8jfvpIlk3gjWD1xBCK++Sguh6Qs2E0EfNX7YN69IMUERyodbLAYbr6AhH4zYAWK7cG3ccrLN32iZnIrhNI81f6tyoCG5zTZGVYBmXs4ruoln8llOAScspnRkdn17ArKdJsPIXM/CNBDmTgD/PjpHYO7G7jiiqFCIZdGb/u4oAMIkFQukrFh79X7PYJFwlzGtcXzmXcNLyAjy3qtgB0f2leYLVuKKCbxW6bDQGYBZicVIBYZdPOntjlHzLqMWV7udRR01FgMcctYC7zpoJnZ0bWg6EWQRKZugcBIxohohw0uUtLt8b5TFCOk8zPKFwOGXVFQXu2dPrBxptKw/rastCixZhiZUhOkrEJiC6FywCYFKJCF8ARWCJiuh6CaH3QnT3WLByDwk7XUPWZfkDKLo59o3M2g2I+qnz/dbVP2PjEHcvRL21tsheUmSHFewA1AGfzzyKqXPgyEnAZOSqB5b9o7N2u2cScz/K0+5J97eEX14SdNlgZYT3kVoPBfyWdk9pV5EilI5HehxgYmOncE9xQIJ1mRMnClqer9wC9SctULHLvKE6wLI8iQatbmoLEOYZsrhnbw2TqR6xq2Sqp4mGBNfNzcWkACoIneuI7grdPNPWagmYMze4Bn/mNGAc3+BZj3jC1yjn6xvDLl8zh5WQCyop9LhnMb8+3kq4XWRl5Dny3OpHtbij+Px1XNIli0+ec9ZF2xbiACbPX2Pe0uesoOFV85NzeZhreZxSBRbZFsOSLFgXDxPfP9PDnEZsARKtnJGehb11rMUOkWdpqytxWxSeiA+tIeDkNGAkR4FG0dMIIXY6IzxEnmbSeobnHbFsJ2I6sLWSHEcjnEbJNrkLcizxWYtOfGLxmasuu6utC8kohBdX5CvfBdE9Zr5Qm3kC5URFAkrm64e0lwaMnjzfYE/L+18+sJvKTI/xEBNu8lxDse1jHge2Eg2R+i8iU63rLsuFfmi4LL2e84BJyw3QAJzRyTCPDyYIu0fIoI6TFItYFZHT9tYSe/NIm+3aVIneAUwySjhNHoRkXXz2JoSXXAxPiJMxn+UH6+EuBy1Yd4JUPbxFCTpHL5YDTNq+KAN98c6w/e7UXeshegsDwmo4lMByAjLeVL1o6XKA4H4fJtcJYB4qK4JbuXh3BBc1ZNfYhKVnMS90lNmLuxsgmFgYpJCMz1h8oR/A/BnO0mkWB0COu5SZv54QuoJNUTyJxjSkLYA+5I5vf8m88J2fsna3u8ftg3PdbM2Y4VFACr5Sa3t4SPo8DxPdg0RHcJe/1ncuvgZeWDeAyfAHDA0P9uZIu8+yr2YOopvPc5mQNRG6VrBbTUcCsMRJ0kUnPrPEbDcJOhHdUrYqtFiw/iXzFrfjiioduNKuyH3sCb7p2VSKxxgLbIiacj8V6rfCV7RLsKpUYXnm2ABMRhJZ/6noSc+fwpBN0Q89JtD+V3EJVghguePIbmyK7Qyzwy7v4sWi+Mp2WbD6kAMLSZen4BfiR+nHGJk56O/0/tt8l8XNunB+5ATWkYV5KAnFKo7YQkAFkvReEr0vYpoELBewLl9AeB/AXWaxMB4LEhEFag6ZN1jLHpfFjKvjGSu0BCAkPT7WZnFKAq0eVC6bHV48fy3/WJeAybin76jabWWIsPflC4uOfUoIPQ4BDrJVodkK6o6zx2XHoxuiHGBWqj5Amf730Jvxd/pS35nRSi+e9fPXKWC+X66KjpKJaQeWhZGPsS5ReMsmQuhXzF/UjnWpQrO5kXH9/jv86V99NgAjIsGRTMzAV9joPXbGouMXAUc5m6F2EkK/QpkIT4qXPCv66UWfmyM8A4DJ+AdyNao7mjkPf7kGf+k1b9F2nkLrWdF+XEZmd1vuu42fEorPBGBEQiEr5F56LDL+V8AywFYGCuRqX3VlIp4AdUUuiBY73QDM4wD3zABG/CU+/42Fh/9EIoaYxdtkgSp20IWaoC16xsTx8NvjZPZMv/fMAMZld+fuWnjwz+RZGuEu+8xXxHZLX2nauvDIIH1sWJjHrYhnAjA8iqaq8YHF5u9bfLoL7vIcrmg3YGFvbv5KS1MeJ871/976BwzcJZWKQ3avECENwGWCbLVsAzTtLpH27c7/9a/rVbnDdQ8YFdmLv0QmvuSh4xT7W9RpAZJLCJ0mupLjhht6UjStf8Cwsy6ZDLtCexVH+0JsiPIU4ooy2y03wPKkYHFLiw1IGba3ks/lzLkuu0snhhTFarIkHh/WhQeLG1bl6VS4/i0MHEakl7Sdk1B+Hj1Wnuah4tPJd919at0DRhpLG1EMKd7n2wTdulPlz3NDPxlg5Oi0mShzaIvBWkiiakoC0JKppafowASg3D7bzKxX96cbe/FRdnqrQ3oe2gcs2bg9O4L0GqZVPwlgpBD1dlE/lxiFW15KQqtLgxakQ4F+z9ah7ZPawT/FXt+puegj0/DS9SFEP7lKSmxV77zae1cECslieo5if+RTHPK7HnYqR+kZnnFjtlCEX1Lod3J6ZHJr6I9VB4xWkRTTPTRDxd+IhalRDgV89D2pdNsUixCU2oAttT6SxyMK0kVYZtp4pF91rt7XwuPPb7/pd72e3iClazI2m7C1Ut3X3yzVBcpRVAJyhzqme31Tj5xXRG12NT1mtrdUWDFK86jGWdheOv7ifDQpN4/Fqeg0WabMRi3NV73wNHdNwcN76tU3QYnsbTapqwivgwI7XUVlsxfYNK7KR9VP1dNRSyWzD6+RMg+LLGOh9bpzsZoA15ZUnGwknJ/hWHXA6IbCWJczNwbtPz64TQFXjFUbtHdOtAOaKlpxFVlM9T8ITefq0L1KKJlDgJIC1OtF5+lLlknC0dZHfcx9cZ4sgw+LICFqBcuyyUJoW6Y2XC8FolbzN3Tp/ODrbvvkfB9NBz1uz6+K4tWQSEp8bX8zv4eYj4di+bQWVDiv4jgPf2uPrnNpKFtWQ4fe0zZMzVeHesCod53mKOBqLuqQebdnwv70OdsruP9fHm2lTspPI6GYfXqxj5olv71MW9X2+lJn5TRmhII43btasgUW26zq2rpPd22ml8+cfMxV4/wcx6oDRjfTOzJN+9AB+8NnXQguYSVYlf3U4xyhZerezTV24/64a3w4g1tQW1XnsspwBbTtkCD0ulqLPk9ZSC/mWkpW4ZcUohU5g5BlLQS45ppi20TXA3WhVNtW9Y3zcJ5W6daWcrojhNz4Eqbcwb2+SXvvywf0Z+lzZaoNVB8K0JW4TPWWU+2zzIdA0Er9kBR2/ZsxNpEXOQupni5TXCfqlCkbQSMzAKeaJ1UlyN31swG9k3EELrlhlZaMz6Qtm3rwSkY7qX5UOzKBW7KSy379YDP97IJOJrKCaqQkS1UUCriFtp1evbLcvXxN0/OvkNombS7X/etzP8ex6oAJs7Iu3h2mFceQnaH5jwQqC1AS8trJvU32iwMtdIvsp3x0zHoGuXHAodUhlyUBqGfKAG3KyosD9vaJTXaBchGdf3RHvWsMKH8/ADDU11bC3gmo1OfuzPVBdz2tfvW3DeFiTu5pQjGVtP9QAdtDwKjI7PTlAQfizXRQaKgqdN2rBI4PznbbyHgYl5RnhwG4Vvn/AHz1n9mxqcIu3B52bdRmsWReQIUtxGIm6ILVYC/taXCu7tb9CbtKzbfG1GJpbyx11Zn9NGruHpx1brOBSgYBrJRqzK+Zu4D9xuEWN57O+4rXZE1knZgWJbZl9qvDrVyX0luurYZKagip+9/WWuEaKQmcAnyMD8iyyhXKygrQsqKuO5cm9SOOVQeMzP6HCP36/TE6RIbNT6cC8Yp+bvDknkb7zWtbXHMdrZRzCP8a3ZhkUd4+3sYNeWjsTPsOQCHA/P3LHZSa0rv2Qi+Viw2urdcDQPaA96VIrTidJ/9+HSXpUN1yF9eQ0DtQ1GG6I8jNSHiamyzM+2e67dS5XqyQjwaLXqeU11jdqnX+iB7BIxT16/wT1DKJJP/XJ/foslDLtSup4R5y5StyfbJgPs5T40a1FzlE/dHnV/ttmII6NWSup0edGlDPLkQdyS2lk8RH56nnxiWd3NuAVStw7df+/NUDSlCC9vaxNjpSjLr56zPPt1W6zt9/xYVKzceRwSCtTnqQneSp8Y/vrnfdw2XNdrZX2BBjD3COFpPcnKxnNda7BkCKHz1sf+LEteJvqwoYmU8Ru999fMe5HRE91QXFWSl9I/NuFf7DK6TmWZm66dOX+2ySjgZqD//GkVaAlG4W1Ds0bWUCzMk0YD652GsvAza5qfsAphvAiE+8wYqTVejCZd3umXKAkgAFRtUl1SCog9tr7VeHWp2LkYnPAOYjQKj2ZlKUlKq2GxrzvTP3Xct2AebYznoHmP8+/Y3rQK6WaGpmpHqneVziYa7tZ+V+cLbHtbRX96sPAOIM47TT2VNt3qWwAcArSyJu9IdP7zl3+jacroQmjpLXHz/v4ryAvXO83T6Gz6jkVwqX1dpLo6F/f++ms8SHAK1cslyv+vnKKr8M8P74f10u6lOxnnr8jkzNOyogkOk6CjRa6ordPWo+4ltPe6wqYOSb1VbsX9+7YZcXIyTk7njJAqvqCCvwV5hdNTWUULSad2HmpawXOqqtByX/FeH3ABitjl/jks5RZC+X9MoSwAyMzbrC+n95Zydty8LwkV67Q4MhuT511AxTmDbPlwrXdrRXcv165z6+BQwu6TNahGiV70Eh6ipeCgFVAdpvT92BN82qKMSBTRbm3S+66DlT75r/CDBqaBThXo/SgUGmXi5ua0sZ5bBV9iGAUXuyLfwtd6FO3uOkF9TgUJ29f/9xJ/OL25vHAAyKVDmvXJ6aIQkw6oJ+l3vRIpJVleX6t3dvOkAcoPGQeJhKggfGF9x8BJjffthpEyy81+nzp/tQLz1FgVo0aoGi+iwV0/3TG9sc39G4T3usKmDER9TV+rcfEh3NR52JFIOXUNT6Qit+JwARYVPb0XsIphH+sKmxxNocwUy51ahi9gjNeCRwkcw+OM3LCK+QaEEuSZWNEsw/v7UDMFL8jvv7HOKoxoniI4rS9Pp2fPseQtUD26g1wm2pOXRX/6T95atu1/tXJFMWaCvnBbCEmtPvP+20O92Tbs4ipXGs5m1IutyTXNJZOJUsxgKAOSILA8H+Cy5O/OYIDYLU8FBzFseRu9SXCu+lsBYI+u8AzAMWRCsrXn+L6J++1G+1RGlvHm2DLE85Aq971mtqvXq9a8y1BXn9YIuzprKSQwBB8jkJb/rPUwAGy/PSnnqsedrKayFJBwInt+Dk+5vXNrsgQWmOpz1WFTATRAJyBx9d6HGm8CWULF6iBN7HWAEpsbosiNmMO+WJU0iYajdagWtQ+CiCpihqkmsp1J3DrUWxTspRqBu2fLgsgSKat1mlBaxEmWg1f+5lRcmViITK7CqMV1dKEUaRQPEORTBn+D+mXAWUR7FsMuubGnifzyn0PX0Jl0CEIktZirJl1rV61b5dzX9uAk7djyzMLqyXLIzIfQfkee+WGtfBXKCWBdUhjqQoSXNQpCcLqghKlrcN0KjLtxZIFXKRC9T9uuaPyEBhu3Pp8BMBTB0odN1OGkJrcYijacwPuaYsj6yRPq9mkZKtyL9kLlAqmpRbr2TRrhmXJDcgKzOCydTKa0RQWtlCeS+Nf8Q3xNqxmE4YcmF6X68pGpAZVr9arfQIHEF5CoFFXwp7BQZxB4XqYvzNtSUWxA3pulpRE1gyja/rSVG15TRGxrXp2jp0nkAjMy1wiwzKbSkEZxqOSKvF2Nh0mPA46tyeIjgJP30eLoSVrJCeS6HsNOEWYMWDdD1FhVrZIp4K+8UhauEucgNSnNzEBN00lYtRVle8TBY4iMvSeVowCtmHAa9cm0BTymfFrwQuJR7d55mDxhRx7kO2+oxqt92CwcqMcg+KOAUYhdyav6zdj42UVtXCSCFKOEnBXgRdgMXQClXmN3PzUpw7kKxuRgLOhIAu9MM1iCzrMwKDBJZeaUrXK5Ob/ltAE8CUL9EgsirqKSd+JKHJxRT4aQWGAvQ5HRpPeR+5O81RytQKlhXUIQULxAKEorAgCtY4Uq4WgISt9zUfXcutVK4txeg9AVMAUzgs8skpjpzLlereNA8tHl1boa8+L3DLEmjOAo1bUHxOcxAI1MZEoNJc1X9Yc9fnFWBoTHEjLVT+dPfs5MHvWhgaQ4fGlyyXysK98RTfVhUwTzH+xkdyTAIbgMkxhWV7uhuAybYGcmz8DcDkmMKyPd0NwGRbAzk2/gZgckxh2Z7uBmCyrYEcG38DMDmmsGxPdwMw2dZAjo2/AZgcU1i2p7sBmGxrIMfG3wBMjiks29PdAEy2NZBj428AJscUlu3pbgAm2xrIsfE3AJNjCsv2dDcAk20N5Nj4/w+sMvjOJa2pwwAAAABJRU5ErkJggg==;" parent="1" vertex="1">
          <mxGeometry x="195" y="255" width="42.42" height="40" as="geometry" />
        </mxCell>
        <mxCell id="S_jD0EZDXr-HNpG7lVB_-10" value="" style="edgeStyle=orthogonalEdgeStyle;rounded=0;orthogonalLoop=1;jettySize=auto;html=1;" edge="1" parent="1" source="S_jD0EZDXr-HNpG7lVB_-8" target="S_jD0EZDXr-HNpG7lVB_-9">
          <mxGeometry relative="1" as="geometry" />
        </mxCell>
        <mxCell id="S_jD0EZDXr-HNpG7lVB_-8" value="" style="shape=image;verticalLabelPosition=bottom;labelBackgroundColor=default;verticalAlign=top;aspect=fixed;imageAspect=0;image=https://d3f1iyfxxz8i1e.cloudfront.net/courses/course_image/9f34a09e14ae.png;" vertex="1" parent="1">
          <mxGeometry x="362" y="271.12" width="103" height="61.8" as="geometry" />
        </mxCell>
        <mxCell id="S_jD0EZDXr-HNpG7lVB_-19" value="" style="edgeStyle=orthogonalEdgeStyle;rounded=0;orthogonalLoop=1;jettySize=auto;html=1;" edge="1" parent="1" source="S_jD0EZDXr-HNpG7lVB_-9" target="S_jD0EZDXr-HNpG7lVB_-18">
          <mxGeometry relative="1" as="geometry" />
        </mxCell>
        <mxCell id="S_jD0EZDXr-HNpG7lVB_-20" value="" style="edgeStyle=orthogonalEdgeStyle;rounded=0;orthogonalLoop=1;jettySize=auto;html=1;" edge="1" parent="1" source="S_jD0EZDXr-HNpG7lVB_-9" target="S_jD0EZDXr-HNpG7lVB_-18">
          <mxGeometry relative="1" as="geometry" />
        </mxCell>
        <mxCell id="S_jD0EZDXr-HNpG7lVB_-23" style="edgeStyle=orthogonalEdgeStyle;rounded=0;orthogonalLoop=1;jettySize=auto;html=1;exitX=1;exitY=0.25;exitDx=0;exitDy=0;entryX=0;entryY=0.5;entryDx=0;entryDy=0;" edge="1" parent="1" source="S_jD0EZDXr-HNpG7lVB_-9" target="S_jD0EZDXr-HNpG7lVB_-21">
          <mxGeometry relative="1" as="geometry" />
        </mxCell>
        <mxCell id="S_jD0EZDXr-HNpG7lVB_-9" value="" style="shape=image;verticalLabelPosition=bottom;labelBackgroundColor=default;verticalAlign=top;aspect=fixed;imageAspect=0;image=https://upload.wikimedia.org/wikipedia/commons/6/63/Databricks_Logo.png;" vertex="1" parent="1">
          <mxGeometry x="522" y="275.17" width="102" height="53.55" as="geometry" />
        </mxCell>
        <mxCell id="S_jD0EZDXr-HNpG7lVB_-13" value="Azure Delta Lake" style="text;html=1;align=center;verticalAlign=middle;resizable=0;points=[];autosize=1;strokeColor=none;fillColor=none;" vertex="1" parent="1">
          <mxGeometry x="520" y="329" width="110" height="26" as="geometry" />
        </mxCell>
        <mxCell id="S_jD0EZDXr-HNpG7lVB_-18" value="Reporting&lt;br&gt;SQL&lt;div&gt;Dashbaording&lt;br&gt;&lt;/div&gt;" style="whiteSpace=wrap;html=1;verticalAlign=top;labelBackgroundColor=default;" vertex="1" parent="1">
          <mxGeometry x="695.795" y="272.08500000000004" width="120" height="60" as="geometry" />
        </mxCell>
        <mxCell id="S_jD0EZDXr-HNpG7lVB_-21" value="&lt;div&gt;AI and ML&lt;/div&gt;" style="whiteSpace=wrap;html=1;verticalAlign=top;labelBackgroundColor=default;" vertex="1" parent="1">
          <mxGeometry x="695.795" y="363.995" width="120" height="60" as="geometry" />
        </mxCell>
        <mxCell id="S_jD0EZDXr-HNpG7lVB_-25" value="Azure Delta Lake" style="shape=image;verticalLabelPosition=bottom;labelBackgroundColor=default;verticalAlign=top;aspect=fixed;imageAspect=0;image=data:image/png,iVBORw0KGgoAAAANSUhEUgAABJQAAAFsCAYAAACaU+OWAAAMTGlDQ1BJQ0MgUHJvZmlsZQAASImVVwdYU1cbPndkQggQiICMsJcgIiOAjBBWANlbVEISIIwYE4KKGylWsG4RwVHRKoiCowJSXKhVK0Vx7+JARanFWtzKf0IALf3H83/Pc+5973u+857v++654wBA7+JLpbmoJgB5knxZTLA/Kyk5hUXqAQhAARWQAYUvkEs5UVHhANrw+e/2+hr0hnbZQan1z/7/alpCkVwAABIFcbpQLsiD+EcA8FaBVJYPAFEKefNZ+VIlXgexjgwGCHGNEmeqcKsSp6vwxUGfuBguxI8AIKvz+bJMADT6IM8qEGRCHTrMFjhJhGIJxH4Q++TlzRBCvAhiG+gD56Qr9dnpX+lk/k0zfUSTz88cwapcBo0cIJZLc/lz/s9y/G/Ly1UMz2ENm3qWLCRGmTOs26OcGWFKrA7xW0l6RCTE2gCguFg46K/EzCxFSLzKH7URyLmwZoAJ8SR5bixviI8R8gPCIDaEOEOSGxE+5FOUIQ5S+sD6oRXifF4cxHoQ14jkgbFDPsdlM2KG572WIeNyhvinfNlgDEr9z4qceI5KH9POEvGG9DHHwqy4RIipEAcUiBMiINaAOEKeExs25JNamMWNGPaRKWKUuVhALBNJgv1V+lh5hiwoZsh/d558OHfseJaYFzGEL+VnxYWoaoU9EvAH44e5YH0iCSd+WEckTwofzkUoCghU5Y6TRZL4WBWP60nz/WNUY3E7aW7UkD/uL8oNVvJmEMfJC2KHxxbkw8Wp0sdLpPlRcao48cpsfmiUKh58HwgHXBAAWEABWzqYAbKBuKO3qRdeqXqCAB/IQCYQAYchZnhE4mCPBB5jQSH4HSIRkI+M8x/sFYECyH8axSo58QinOjqAjKE+pUoOeAxxHggDufBaMagkGYkgATyCjPgfEfFhE8AccmFT9v97fpj9wnAgEz7EKIZnZNGHPYmBxABiCDGIaIsb4D64Fx4Oj36wOeNs3GM4jy/+hMeETsIDwlVCF+HmdHGRbFSUk0EX1A8aqk/61/XBraCmK+6Pe0N1qIwzcQPggLvAeTi4L5zZFbLcobiVVWGN0v5bBl/doSE/ihMFpYyh+FFsRo/UsNNwHVFR1vrr+qhiTR+pN3ekZ/T83K+qL4TnsNGe2LfYQewMdgI7h7ViTYCFHcOasXbsiBKPrLhHgytueLaYwXhyoM7oNfPlziorKXeqc+px+qjqyxfNzlc+jNwZ0jkycWZWPosDvxgiFk8icBzHcnZydgVA+f1Rvd5eRQ9+VxBm+xduyW8AeB8bGBj46QsXegyA/e7wlXD4C2fDhp8WNQDOHhYoZAUqDlceCPDNQYdPnz4wBubABubjDNyAF/ADgSAURII4kAymweiz4DqXgVlgHlgMSkAZWAXWg0qwFWwHNWAvOACaQCs4AX4G58FFcBXchqunGzwHfeA1+IAgCAmhIQxEHzFBLBF7xBlhIz5IIBKOxCDJSBqSiUgQBTIPWYKUIWuQSmQbUovsRw4jJ5BzSCdyE7mP9CB/Iu9RDFVHdVAj1Aodj7JRDhqGxqFT0Ux0JlqIFqMr0Aq0Gt2DNqIn0PPoVbQLfY72YwBTw5iYKeaAsTEuFomlYBmYDFuAlWLlWDVWj7XA+3wZ68J6sXc4EWfgLNwBruAQPB4X4DPxBfhyvBKvwRvxU/hl/D7eh38m0AiGBHuCJ4FHSCJkEmYRSgjlhJ2EQ4TT8FnqJrwmEolMojXRHT6LycRs4lzicuJmYgPxOLGT+JDYTyKR9En2JG9SJIlPyieVkDaS9pCOkS6RuklvyWpkE7IzOYicQpaQi8jl5N3ko+RL5CfkDxRNiiXFkxJJEVLmUFZSdlBaKBco3ZQPVC2qNdWbGkfNpi6mVlDrqaepd6iv1NTUzNQ81KLVxGqL1CrU9qmdVbuv9k5dW91Onaueqq5QX6G+S/24+k31VzQazYrmR0uh5dNW0GppJ2n3aG81GBqOGjwNocZCjSqNRo1LGi/oFLolnUOfRi+kl9MP0i/QezUpmlaaXE2+5gLNKs3Dmtc1+7UYWhO0IrXytJZr7dY6p/VUm6RtpR2oLdQu1t6ufVL7IQNjmDO4DAFjCWMH4zSjW4eoY63D08nWKdPZq9Oh06erreuim6A7W7dK94huFxNjWjF5zFzmSuYB5jXm+zFGYzhjRGOWjakfc2nMG72xen56Ir1SvQa9q3rv9Vn6gfo5+qv1m/TvGuAGdgbRBrMMthicNugdqzPWa6xgbOnYA2NvGaKGdoYxhnMNtxu2G/YbGRsFG0mNNhqdNOo1Zhr7GWcbrzM+atxjwjDxMRGbrDM5ZvKMpcvisHJZFaxTrD5TQ9MQU4XpNtMO0w9m1mbxZkVmDWZ3zanmbPMM83XmbeZ9FiYWky3mWdRZ3LKkWLItsyw3WJ6xfGNlbZVotdSqyeqptZ41z7rQus76jg3Nxtdmpk21zRVboi3bNsd2s+1FO9TO1S7Lrsrugj1q72Yvtt9s3zmOMM5jnGRc9bjrDuoOHIcChzqH+45Mx3DHIscmxxfjLcanjF89/sz4z06uTrlOO5xuT9CeEDqhaELLhD+d7ZwFzlXOVybSJgZNXDixeeJLF3sXkcsWlxuuDNfJrktd21w/ubm7ydzq3XrcLdzT3De5X2frsKPYy9lnPQge/h4LPVo93nm6eeZ7HvD8w8vBK8drt9fTSdaTRJN2THrobebN997m3eXD8knz+d6ny9fUl+9b7fvAz9xP6LfT7wnHlpPN2cN54e/kL/M/5P+G68mdzz0egAUEB5QGdARqB8YHVgbeCzILygyqC+oLdg2eG3w8hBASFrI65DrPiCfg1fL6Qt1D54eeClMPiw2rDHsQbhcuC2+ZjE4Onbx28p0IywhJRFMkiORFro28G2UdNTPqp2hidFR0VfTjmAkx82LOxDJip8fujn0d5x+3Mu52vE28Ir4tgZ6QmlCb8CYxIHFNYlfS+KT5SeeTDZLFyc0ppJSElJ0p/VMCp6yf0p3qmlqSem2q9dTZU89NM5iWO+3IdPp0/vSDaYS0xLTdaR/5kfxqfn86L31Tep+AK9ggeC70E64T9oi8RWtETzK8M9ZkPM30zlyb2ZPlm1We1SvmiivFL7NDsrdmv8mJzNmVM5CbmNuQR85Lyzss0ZbkSE7NMJ4xe0an1F5aIu2a6Tlz/cw+WZhspxyRT5U35+vAH/12hY3iG8X9Ap+CqoK3sxJmHZytNVsyu32O3Zxlc54UBhX+MBefK5jbNs903uJ59+dz5m9bgCxIX9C20Hxh8cLuRcGLahZTF+cs/rXIqWhN0V9LEpe0FBsVLyp++E3wN3UlGiWykutLvZZu/Rb/Vvxtx7KJyzYu+1wqLP2lzKmsvOzjcsHyX76b8F3FdwMrMlZ0rHRbuWUVcZVk1bXVvqtr1mitKVzzcO3ktY3rWOtK1/21fvr6c+Uu5Vs3UDcoNnRVhFc0b7TYuGrjx8qsyqtV/lUNmww3Ldv0ZrNw86UtflvqtxptLdv6/nvx9ze2BW9rrLaqLt9O3F6w/fGOhB1nfmD/ULvTYGfZzk+7JLu6amJqTtW619buNty9sg6tU9T17Endc3FvwN7meof6bQ3MhrJ9YJ9i37P9afuvHQg70HaQfbD+R8sfNx1iHCptRBrnNPY1ZTV1NSc3dx4OPdzW4tVy6CfHn3a1mrZWHdE9svIo9Wjx0YFjhcf6j0uP957IPPGwbXrb7ZNJJ6+cij7VcTrs9Nmfg34+eYZz5thZ77Ot5zzPHf6F/UvTebfzje2u7Yd+df31UIdbR+MF9wvNFz0utnRO6jx6yffSicsBl3++wrty/mrE1c5r8dduXE+93nVDeOPpzdybL28V3Ppwe9Edwp3Su5p3y+8Z3qv+zfa3hi63riP3A+63P4h9cPuh4OHzR/JHH7uLH9Melz8xeVL71Plpa09Qz8VnU551P5c+/9Bb8rvW75te2Lz48Q+/P9r7kvq6X8peDvy5/JX+q11/ufzV1h/Vf+913usPb0rf6r+tecd+d+Z94vsnH2Z9JH2s+GT7qeVz2Oc7A3kDA1K+jD/4K4AB5dYmA4A/dwFASwaAAfeN1Cmq/eGgIao97SAC/wmr9pCD5gZAPfynj+6FfzfXAdi3AwArqE9PBSCKBkCcB0AnThxpw3u5wX2n0ohwb/B95Kf0vHTwb0y1J/0q7tFnoFR1AaPP/wKDOILRNNsP+QAAAIplWElmTU0AKgAAAAgABAEaAAUAAAABAAAAPgEbAAUAAAABAAAARgEoAAMAAAABAAIAAIdpAAQAAAABAAAATgAAAAAAAACQAAAAAQAAAJAAAAABAAOShgAHAAAAEgAAAHigAgAEAAAAAQAABJSgAwAEAAAAAQAAAWwAAAAAQVNDSUkAAABTY3JlZW5zaG90tvAtbQAAAAlwSFlzAAAWJQAAFiUBSVIk8AAAAddpVFh0WE1MOmNvbS5hZG9iZS54bXAAAAAAADx4OnhtcG1ldGEgeG1sbnM6eD0iYWRvYmU6bnM6bWV0YS8iIHg6eG1wdGs9IlhNUCBDb3JlIDYuMC4wIj4KICAgPHJkZjpSREYgeG1sbnM6cmRmPSJodHRwOi8vd3d3LnczLm9yZy8xOTk5LzAyLzIyLXJkZi1zeW50YXgtbnMjIj4KICAgICAgPHJkZjpEZXNjcmlwdGlvbiByZGY6YWJvdXQ9IiIKICAgICAgICAgICAgeG1sbnM6ZXhpZj0iaHR0cDovL25zLmFkb2JlLmNvbS9leGlmLzEuMC8iPgogICAgICAgICA8ZXhpZjpQaXhlbFlEaW1lbnNpb24+MzY0PC9leGlmOlBpeGVsWURpbWVuc2lvbj4KICAgICAgICAgPGV4aWY6UGl4ZWxYRGltZW5zaW9uPjExNzI8L2V4aWY6UGl4ZWxYRGltZW5zaW9uPgogICAgICAgICA8ZXhpZjpVc2VyQ29tbWVudD5TY3JlZW5zaG90PC9leGlmOlVzZXJDb21tZW50PgogICAgICA8L3JkZjpEZXNjcmlwdGlvbj4KICAgPC9yZGY6UkRGPgo8L3g6eG1wbWV0YT4KuCwhOAAAABxpRE9UAAAAAgAAAAAAAAC2AAAAKAAAALYAAAC2AAECMkCdfeQAAEAASURBVHgB7L33cxzZeiX4AeV9FbwnQO+bbHazvZ7ee5JG0kxo9ml/Ueinjdgf91/a2NjY2d3Y0GpmtJrRM5Lea7XvZjdNNz0JQxDelvcGe84tJFkkARAgbBW+253MrKqsrMxzEzfvPfd852taQREtioAioAgoAoqAIqAIKAKKgCKgCCgCioAioAgoAorAJhFoUkJpk0jpboqAIqAIKAKKgCKgCCgCioAioAgoAoqAIqAIKAIGASWU9EZQBBQBRUARUAQUAUVAEVAEFAFFQBFQBBQBRUAR2BICSihtCS7dWRFQBBQBRUARUAQUAUVAEVAEFAFFQBFQBBQBRUAJJb0HFAFFQBFQBBQBRUARUAQUAUVAEVAEFAFFQBFQBLaEgBJKW4JLd1YEFAFFQBFQBBQBRUARUAQUAUVAEVAEFAFFQBFQQknvAUVAEVAEFAFFQBFQBBQBRUARUAQUAUVAEVAEFIEtIaCE0pbg0p0VAUVAEVAEFAFFQBFQBBQBRUARUAQUAUVAEVAElFDSe0ARUAQUAUVAEVAEFAFFQBFQBBQBRUARUAQUAUVgSwgoobQluHRnRUARUAQUAUVAEVAEFAFFQBFQBBQBRUARUAQUASWU9B5QBBQBRUARUAQUAUVAEVAEFAFFQBFQBBQBRUAR2BICSihtCS7dWRFQBBQBRUARUAQUAUVAEVAEFAFFQBFQBBQBRUAJJb0HFAFFQBFQBBQBRUARUAQUAUVAEVAEFAFFQBFQBLaEgBJKW4JLd1YEFAFFQBFQBBQBRUARUAQUAUVAEVAEFAFFQBFQQknvAUVAEVAEFAFFQBFQBBQBRUARUAQUAUVAEVAEFIEtIaCE0pbg0p0VAUVAEVAEFAFFQBFQBBQBRUARUAQUAUVAEVAElFDSe0ARUAQUAUVAEVAEFAFFQBFQBBQBRUARUAQUAUVgSwgoobQluHRnRUARUAQUAUVAEVAEFAFFQBFQBBQBRUARUAQUASWU9B5QBBQBRUARUAQUAUVAEVAEFAFFQBFQBBQBRUAR2BICSihtCS7dWRFQBBQBRUARUAQUAUVAEVAEFAFFQBFQBBQBRUAJJb0HFAFFQBFQBBQBRUARUAQUAUVAEVAEFAFFQBFQBLaEgBJKW4JLd1YEFAFFQBFQBBQBRUARUAQUAUVAEVAEFAFFQBFQQknvAUVAEVAEFAFFQBFQBBQBRUARUAQUAUVAEVAEFIEtIaCE0pbg0p0VAUVAEVAEFAFFQBFQBBQBRUARUAQUAUVAEVAElFDSe0ARUAQUAUVAEVAEFAFFQBFQBBQBRUARUAQUAUVgSwgoobQluHRnRUARUAQUAUVAEVAEFAFFQBFQBBQBRUARUAQUASWU9B5QBBQBRUARUAQUAUVAEVAEFAFFQBFQBBQBRUAR2BICSihtCS7dWRFQBBQBRUARUAQUAUVAEVAEFAFFQBFQBBQBRUAJJb0HFAFFQBFQBBQBRUARUAQUAUVAEVAEFAFFQBFQBLaEgBJKW4JLd1YEFAFFQBFQBBQBRUARUAQUAUVAEVAEFAFFQBFQQknvAUVAEVAEFAFFQBFQBBQBRUARUAQUAUVAEVAEFIEtIaCE0pbg0p0VAUVAEVAEFAFFQBFQBBQBRUARUAQUAUVAEVAElFDSe0ARUAQUAUVAEVAEFAFFQBFQBBQBRUARUAQUAUVgSwgoobQluHRnRUARUAQUAUVAEVAEFAFFQBFQBBQBRUARUAQUASWU9B5QBBQBRUARUAQUAUVAEVAEFAFFQBFQBBQBRUAR2BICSihtCS7dWRFQBBQBRUARUAQUAUVAEVAEFAFFQBFQBBQBRUAJJb0HFAFFQBFQBBQBRUARUAQUAUVAEVAEFAFFQBFQBLaEgBJKW4JLd1YEFAFFQBFQBBQBRUARUAQUAUVAEVAEFAFFQBFQQknvAUVAEVAEFAFFQBFQBBQBRUARUAQUAUVAEVAEFIEtIaCE0pbg0p0VAUVAEVAEFAFFQBFQBBQBRUARUAQUAUVAEVAElFDSe0ARqEVgZUVWpCIrlbKsrGDhGgv+EWlqliYuzTassZh1M95vwhG4aFEEFAFFQBE46AissJ3HUqlUpFwuv7BuQnve3NwsNpvNrK1tvq9FEVAEFAFFYL8RQPuNtnsF/fLqUu2jc9v00dk/R18dDfjqa2xrH32/K01/v8ERUEKpwSv4cF4eBwsggPiwMQ8dkkN8TXKo+gAyn4E64v/Vf6rbhkTCfpVyEbsXMdCorg2pxIdTsx3PKIdZmmxYYzFEEx9W1oADa/7H1+ahtvpwa8L3xdq2HnjWdw5nRelVKwKKgCLwxgiQEFpvsQgjrlksEonb1ndKpZJYS7FYNOSSRSDZ7XapXfg+SSWLWLK2rTU/X2+xvsPf1qIIKAKKgCJQJfWf9dWtPjv77WYbn5sO+vN+unm92mdfQd+8YiZ8S1iX0KVnP7+MNpiTvXa006trbluTvwDd9M1N/5w1sNqeW5PFUp0grpJS3K4SUlpXioAi8HoElFB6PUa6R50hwAdLuZiWUiEppRyWQkKK+aSUsZS44P1KKQ/SqFB9EJVXH0bm4VR9KJlByKpaCU8pjkb47EGpDirwtHq2bR5W5iHGGW0+vLCAaLLZXWJ3+cXuDGAdEBsWa9vhDIrN6XtGSNUZxHq6ioAioAjsKwIkhXK5nGQyGbOkUilJp9Nmm2su+XxeSBSRNKISyVpbqqRa0skinCzyp5ZA4nt8TYKJyqXatdPpFK/XKz6f79ma29Zrfsb9+X0tioAioAgcegTYtwb5Uy7lpGT66mn02TPYzlT77iWus9U+OvbDxip5tNo/R9uPN02/vEoy8V+rn07KyJrgfd5fNySRIZaq0QXNTeynsz13ic3hwYJ2enWxtm12r3nfTAwf+kpTABSBjRFQQmljfPTTA4gAZy+oHqo+gFJSLvBhhIePRRJhbR5MfB9LpZxb/SyP74FEwsIHlDmONROyShqZhxKu2Tx8zGzF8wcSSSXrofV8VmWlyi0ZgomzHTUzHHh4NduchlxqwroZBFOzzQ2iCQ8pkEl8aNkcbrNPs925+toH0gmfmc89PJMDWAN6SoqAIqAI7C4CJHhIAJE0ymazZuF2oVAwJBHX1vtckziyyCNLdWQpkV4mjqwzt4giS1nE1xaxxO9a3+M2i7U/19ZiEU21aiaHwyEul0s8Ho+43W6zTeKJi/U+P7M+57G0KAKKgCLQSAiU0Rcvl7JmYf+8XGYfHMoi9MHL7IuDUCKpxKXCz4zqCFEBjAyg6ohkEnvdtf10EkkoFmn0bL3aB+dnbLdxANNfN9skm1CqxBDJpmq/vtpfJ8HkMEtt9IHNDpLJzv66x0z8ms9W+/HW+1xX1VA6WWAA1n8ONQJKKB3q6q/Pi2c4WimfkFxySrLxccnGJiSfmpNiZlkK2Rg+S+HhhIcRHjx82JC0sTu94oBayEG1kNOP90jugOQxiiI8TKAoqoazVRVG1YdHNbyNsxjYofqAMiomSmwZCmdJbSm9pcoJr43aibPh1YdlqZCSIhaeE9flIh+aPDc+3DDT7fTgvILi8ITEHezF0ieeUL94wgPi8neZQQv2rM+K0rNWBBQBReANEaCKiCqjxcVFmZ2dlZmZGVlYWJB4PC6JREKSSahNQThZZA/JGaqCAoGABINBs+Z7JHBeJnus1yR+uG2tuc3j8bdryanabf6m9ZprklxUR/F8rIWqKe7HwQwJJ56H3+8359Xe3i4dHR3S1dVlFm5b5NQbQqVfUwQUAUXgwCGQzy5JDn3zXHpO8plF9M+X0A9mpAD6xFAj0YKC3dtmEDzsj5v+MNRC1pqWEi9EAJgwNkYCWCqj1e3V90kQkXwykwGrhFQFpBSjFqrvcSKZ7XJV8cSxBEmvUiGHNj2Lc6JiCgQX+uksVY4KylSeEyIMnO6QOD1t4vZ2iNvfKS5vmxlTcOygRRE47AgooXTY74ADfP2m0S9hNhoPoUKGCwkjPJCyUSwgjqA+WoH6qNoZ54wDFzxosDDcrNlIWTHDgLUhj0AMcSbi2UPK7L8aJ10TO40DrB5r9bOamQ88iQxRhSeUeXA9mwl5NoNSndXGiYl5kBnSiTMy1RmX6owNwu04K4NzJynF6zQPQTOjwgrBAwwKJTuIJqcnIg5vC5YItlvF4cZrPNT0AXaAb1w9NUVAEdg0AhaBE4vFDFlEwsjaJnFE9RFD12pJH4adcSFZRAVQrQqI+1kLCSJLfWSt+bxYa5vv8TO26VzMAGR1/fJ27WuLfCK5xIXKKS4kmnjeXPN97mftyzV/g+dPEiwUCr2wWIQYz1+LIqAIKAIHFQH2X0skY0AUFXO0l4hhqdpMMJyN0QMMT2tqArlu+tZW/xrtMK0hQCTZoNDnJG6TSYTANpsLJnFNH52KIk4NW+p/fp+TrNXjVNfWPmi/OV272obzd00fne/iPfP+s89X+/AgtTghXPVjItHEieFqn50Tw2X23Vf79xUet8Jj8dRoa4HJahBNnKh2uDExDCsLM0HsCpkxB8kwLYrAYUFACaXDUtN1cZ0rePhQ/or46QIX+CDB8yifmpV8egFk0iJUSFG8lzD78aHDmQNDuhh/IiiPoESyOxg2Vo2HZljZQZKkUp1UjRtnjPhqzDiuleRYIR83D+QCHsoMzWNxeMJYqqSSE7MhTm+7OH3tuL7qtZqwOZBnfLhpUQQUAUWgHhAg0WKRLZYH0tLSkkSjUaM+shRI3IfEERU+LS0thnSh0qfWo8jyKrLIo4Nw/SSMSCSRDOP1Wd5O3CZZxuskccbrIzllqapIJJFcCofDEolEjKqpljAjFtXB1EG4Sj0HRUAROGwIVNU+VPbQSoKKnswqgRSXQo79c/Rj0UcnwUTmhaSKw0QIIEqAE6Xor5qQMUQJmG1O/Jo+7MEgX0g8mQleKpdMyB7XHJdQyYTQavTXC1BY8TWxYHSD3QGvVEYamCWMMQkmgU0kBGwtzOQ2Q+dch+1W0es9ZAgooXTIKvwgXy4b8WzsiaSXRyW99EgysUnJJ+fQaJfA9oM8cjFsDaodV1hcIFqc3lZDJlmEUVWdZKmKLMVSdVbj4Fx3daakOuNhqZwg+131dDIzInhAF6DColy4OuOzaipeKpqZGqqXGBbnbz0uvrYT4g70iN0dxkAD16pFEVAEFIEDjgBD2KampmR8fNys5+fnTYgYlUUvkyqtra2GTCJhREKFSiJrbSmNLHXRQbns6qCkqnIiYVS7kGyigskil0ikWYoskkwkorg/zbw7OztlYGDALAyRI5nGa9eiCCgCisBeI8B+KxVHeUzuZuITkk1OSjaNthsTolTtM5OxkzYOnNBFf93FMDFDrNArFAokS3EEtZEhxldfW4qjvb6e9X/P6qdT1VRVOdFCw2yjbSYOJJWKWMyaJBMWkk0raN9JopFU8vg7xBOAhQXsLLyB3vV/Tj9RBBoAASWUGqAS6/US6ENElU6B6qP0olEh5ZLTUsR2uZgy4WCUs5rwLzyU6IFEZQ6Zf2ZPs2YA6vX61zpvPqhoSFjCg8lIiKnSogcTX5sMdZAQY2bESINhFmiHeomKJXegS1xYU8XkwIOMIX5aFAFFQBHYbwToJUQChaocayGBRBKF75M8YaHSyPIZ4poLlTtc87NGKrxm4kJSif5LtQt9mPiaxBILCSRiQNUS/Zeo1OI2iTeGzGlRBBQBRWC3EGA/3XiAQnlEBVIe9hPFHMLakD15BUbaAk8ihqdRgUPvIzs9S83CbSxGfQS7iQab8DSKJSqXEFXxzH8JCiaG/xn1EirETHI3AwPYVLjZN8fErxOLA5PiVGmRZNOiCDQKAkooNUpN1sl1VAkT+AZBdWTC2UAmpRcfSGrxEVRJI4ZgIhniCXSKN9SLda8hSkgeHXaShHjxgZ6FaiuTgCE5lkIuDnIJeAW7xUfFUutJs6b81hiOm1khndGukz8PPU1FoCEQsBQ5FmlC5c2TJ0+MIomqJIaCkSjp7e2Vvr4+syZZQpKEKqXDHNbF8DiSbVRxTU5OytOnT81r3hg08O7v7zeKJa4ZHkccLfVWQ9w8ehGKgCKwrwg866fTHwmTmrnkjGSSE5JOTBiTbWZqI3nk8beJx9cqbk5suukl5N3X897vHyduDAXMoV+eSy1JNgUlFxYm6yF55An2ixeLLzRgFEycIDem48b7VSMM9rv+9Pe3h4ASStvDT7+9BQRo3kdD7RyIkPTyiGSi4yY7G9OJmk4x/I6YNYFSUSdC2ux4zQxtNNe2wtq28HMNtytJOJNuFXgxFStVS8ygkc8um5j16qwIJMd4wBuJbWRA/G1nTLa4hgNDL0gRUAQOJAIM96LKhtnZSIYwtK02pI2qo7a2NmEoG32CqD6qzcbG8LXDXEjC0cSb/kqWB9Pc3JzBk8QcCScqu4gdCaaenh4ZHBw04XGHGTe9dkVAEdgZBAroU2YSCGejf2lm3lgw0OCa/XQHiCQnQtncSBRDVRINtWmszT66MdLemVOo06MgVA7q0zJUXRUkFKIHUymfRlsOL1h4o5aKVOSWIV2yw7ajRdy+Tkya92DdYdRLjabiqtNK1NN+QwSUUHpD4PRrW0AAAwxmfqCxdmZ5THKIvc4lp2CwHTMECVNxujjLgUbVjZhjSkKbEc51mGepN4MuZ0P44Gc61lxqHgtCByFFJnFng88SPab87WfEGx4EydRmTANp4q1FEVAEFIGdRoBEkqWuIYlEhc3CwoIhl0iOMEyLRBJ9gbiQECGRdNgJpM3Uw/LystBricSSRS7Ri8npdJpwOBJKVHpZRt7EVYsioAgoAptFoILwNWOwDXVNFtYTqfgTJMZBAhwkycFAEWFaPuNd6vKgv84FKnh00jd7+MO5H3BjyGCRKq8skjBkMQ7KJozvErPa2ZBAyOlpqxJL8FlyIoszLT6qxJJiezhvmvq9aiWU6rfu6uTMydiXJTl/R5YnvpP41E0oa5JmdsOoaGAu7QsfMWok04g+M+3TxnQzFUxSiZk0uGaKVpp5p2PjWJ7CNHESDyyveMID0jLwviGXPJDaalEEFAFFYCcRIJnEMDeGs/30009y7949E6ZFAolEh2UszZA2y0ibEwY6abC5WrDwJcb0XaJSiVgzjJALwwSJ9aVLl+TYsWMmhHBzR9a9FAFFQBEQTExiwhchbXH01TOc8AX54Qt2IUSrQ3yY6HWYTMqc6KWCVNvurdwzbL+p8OK6BM+lLHyoGA6XRVhcHhPrzein+1uOSrj9nPjDQ7CxQFRGg3lObQUv3bc+EVBCqT7rrS7OOg+5bBay2QyytmVBcOQRntWMRpIKJG+4H7LZEGSeQaOcod+Plu0hUEFIHOO3i5hhIrFUwEMrxwwcMAkUPKC8kSN4aB0Xb8sxo1hStdL28NZvKwKKgBijbYa0TUxMyMzMjFEl0SyaiiT6/NBEmkQSFypqtGwPAcvknKQSTc4ZWkjVEl+ToLMyw5HIY1ih2+1W4m57kOu3FYGGRKACLyRGD1CRRDKJIW4r5azYkVXZicQ3Li9NpOlr50XUgNP4cjYkEHt4UQx5K61aVhQRDpdNL0GxhGQ7UJzStNvlbTc+SwyHowWIFkWgXhBQQqleaqpOzpNKmQoIDKqQkgsw2164L6n5eya0jZ5IARpHRwbRYPYpA7+LdUq/pTIkzMnFx5ICoZeCX5UNhonuQLcEu94CqXTUbPM9elRpUQQUAUVgswhQKUMfH6pl6JM0OjoqY2MIZ0ZmMpJJp06dkqNHjxp1EtUzWnYHAQ5C6Lc0MjIijx8/NvVABRiJpBMnThhCj2bnXq9XybzdqQI9qiJQdwgwDKuCyUcmdcmmEN62/Mj4cTLrsjfQLn4ok/yhHpBILiWRdrF2OV7KYfI3k5yXVGzGhMbBjAoJiYaMUskXGULCBYSFGx/ZqjJsF09HD60IbAsBJZS2BZ9+uRYBNo40i04jY1t04ltkbRuFIV3CxF0zrI1EkgOzHjY7zLYx20HZrJbdQqAaBlcGuWc6DczSAe+qLFRiHAx6Qn0S6nlLgp0Xsa1hcLtVC3pcRaDREKBsn55I9Em6ffu2CbliVjISF0eOHDEhVzTeJolBcknD2nbvDmBdcKF5dyKRkOnpaaMUY3Y4y7j77NmzhlyiYkmLIqAIKAJUrtMaIbn0UHIw3ZaVEmwoEDnga0HWtnbjl8Q+epOAxFCfpF28YRAqjgxwZSjFyuUCsujNYJlDnSTgpeSHYTcmgJFYxxvoQyRHQCfhd7Em9NDbR0AJpe1jqEcAAsw+VsJsR3LxYVWVBGUSH0YONIo+hLd5YTjn8neiQbTpAGOP7xjWTRFZJnKQM2cgbc7Gp02mCRvSvIZ7r0ig4zyywvWZ2ag9PjX9OUVAEagjBBhuRfLiCXx7qEjimoWZ2kgmkbRg1jFmA1IiyUCzZ/+wbkgqMfyQZB9JJZqkM+SNirGTJ0+acDi+1qIIKAKHDwH2BfPZJSjWR0EmPTKm283NTcbT1A0yiaQS++xqQbE/90YuE0UI3KJRLJWKeanAesnt78b4CRmbI8fMhLxGFOxP3eivvh4BJZRej5Hu8ToEMENapGwzOiazD/9JcvBNaoLsvqXrogRaTpg09sxooGX/ESgjjWkSCrI4whCjs7dBJp0GqfS2tA793GSFI+GnZY8QWFUXPPu1Z4I9GF7yzX2aGaR95LNTeXZyunHYEaASJpVKGcLiiy++MISF3W6Xc+fOyZkzZ0yYFRVJWvYfAYbCPXr0SO7evSu3bt2S7u5uU0fvvvuuUZJpZr1driO27fiP/z8r1Ub9eduq7fszaHRj9xFgBAH9NeMLt7HAigKkUqjliARbBiQQ6VcSaferYFO/wCRGxUIKWfZmJRF9ajLCOdxt0t7/obEKYSa4/eobbuoCdKdDi4ASSoe26nfmwhmHXUSq+tj0DUlM34QR9CLSYIYh0zxpDOVovM04bM1YsDN4b/coKyt4WEGtlE0wbh5m6ZA+S5MdpNJleCtdAsF0drs/od9/DQIcmFdKRSllkJUvGTMhK1RzNGFw3gwzzCY708k64XkFE0ysq0qPvaF4yji3Ijo0zTgfO2L5zXm95nr048ZHgD49yWTyGUnBbYa1nT59Wjo6OozxNskkJSoOxr3ANoZqpdnZWeOvRMUSlWUk/yy10sE408Y8i2I2LcUUUq4jNBRpbjHBBsWe3Ya+kKPavjtdCGmBWTom3vZqcMi2vYRwdzNhgMeJE7+9OnXRmJWgV/UCAun4OEikEUnA21RWCjDbhqcprA88vlbci17to7+A1v69YNtND1Qm0ynkU5JYHpd8LonMb14T/hZqO23Mu5ttmuBi/2pJf3ktBJRQWgsVfW8TCKxIGekvmbkthTC3xMwtKJRGEfPbBVXSMQmCmKBsVhUvm4ByH3YpYQYkD2nt8syPyO4xjQdUQILdlyQy8IHJMmFz+vbhrA7HT66gU18u5CU7Py2J8cdSTiXRvytUCaWaAYcNA3QbBx0wNSax1EyCCQORZgffx9psY4DCwQoHJtsoFXRicjivFIiDaL4gIadDIi6nOEAqkVzScngRoF8SM4gxxI3Gz1wzrI3p6UlQMISKIW5aDh4CNE1nFriffvpJhoeHja8VzdLffvttiUQiJlTx4J11/Z9RLrYkGbTv2emnUkomjCrJTBhg0qBptf22u5CC3Wrbubba9NU1JxWauT/a9+2QTiSQyoidSaBtX8jlxWNvFr/DLkH8JicNtDQ2AvQ1LeahTJq/K8noMKwpYiCRIhJqPYIQtxZhshwtBxMBqsqSUCklY9OSTs6Jx9+LTM0nEP52FBP3LfCi1fDlg1lzh/OslFA6nPW+7as22QkQ2hYHkbTw6HdmFs7la5O2vqvV7GFqur1tjHfzAKw/SmuzySlJQqkUnf4RpFJI/B2npP3YnyIL3LHd/PlDfWxDKOWzEn90R+a++zfJjjyUwvxsFROSN1QrcQhiQ2cfBJPdHxB7EOl72zrE2dohrtZ2cbd2ibulTVwhdCrcHqNoetNBBwccnLmezuZkPJWW4XhSToeDcj4SEi8GNHYllA71/bqwsGDIiK+++soYPTOD2NWrV41nkpMk5zbJzEMN7i5fPGe7Gf42MzNjiMDr16+jmWiSwcFBef/9900mvl0+hUN5+OwCwlWePJLFL/5F0qMPpJLNoI9ktEGyAvxNW02yHsb1dj/Ssre0Vtv2FrbvnWjf2ca3wy4gYNr36oQBvvcGhZMFKfhrjSRS8v1iVIYCXrP0e33iUiL4DRCtr69k0MeLzt6AIn3EZF8OtQ4igxt8efztuA3V6+6g12YFht25zLJEF4YRUbAM/9MmjLPeR8bsE8a0G43JQb8EPb9DgoASSoekonfyMtnAlaFwWXryuSTgw1NABjFvqNc0cN5QP+Szqm7ZSbx381hUKuXSC8ZXKQfFUrlSkEj/Bwh/uyg+kEpNUJlp2WEE0MGv0NyYCqUnDyX20/eSenxf8jNTUikWVgce+E0OPDBYNzPXUIHYObjAIIBrRwAEU7hFnCCVPD0D4u0eMEST3bW1GSsOcZLFkpm5fhxLyFQ6K7FCUd5uj8jbbVAwKKG0w5VfP4ejyTMzhd28eVMePHgg0WhUurq6jLlzf3+/hEKh+rmYQ36mVCotLS2ZeiS5xLp86623TPgb65LEoJadQ6CYRhKMpXlZvvWtxO5gMP/wtlRyOTD3JfMjbHe5GOUplaho103b7sXkAQgmZwjmyBFMGLR1iqezR3y9g2ZigaqlrRSSSZlSWR5ikuAxluFoUi62h+RMS1BIKLmVUNoKnHW1L8OmsqkZEEnDEp37CSrSJnFBiU6/JDdsKewOT11dz2E+2RKiQXKZJaiVJiWTWkTGt4hRKrX2XIGK0Y1uonrUHub746BcuxJKB6Um6ug8irmo5JCCfubeP0g29tRkcQt3XjCEUh1dhp7qKgLM/FHILkts9o7E5m6LM9gjoe63pOP4v0Nolc/MYilYO48AfZTK+Zws3f5eoj9dk8StH6QYXUL4G3w3NizQLyFcwebziz3SIv7j5yR4+qKETpw1s9oMpTBk1IbHIG8FvyQskyCRHsVT8nApJssId3MhHOKDrlZ5px0phDHgUIXSa4Bs0I+ZIYzhUp9++qlRtwwNDcn58+eFaei11B8CJAiXl5fl3r178t1330lbW5tRKH3wwQeGHNSwxR2sU7SrZbTvqalxEErXZeHLf4EKdUbKifizCYOqXunV3zQhzAwjBbHk6gKZNHhSWi5dNaSSu4WqklWF06tffeEdmoKnimWZB5H17dySjMfTksjm5b3eNnkLEwa9Ho8qlF5ArHFe0CuzVEhXlUlLj2FrMCnh9mMmzM0FJXqzTQmIeqztFDI006g7GZ1A9rc+6Rz6hbh87cjMF6jHy9FzbjAElFBqsArdi8tJzP4kS2OfSiY2Lg7EX7f1v28MuFWZtBfo7/xvmPA3qM7Y6Uig85GKjovT3yU9Z/8HccO00eEO7/yP6hENoWMyeiSikhofkXmEv6Ue3JH8xBPzWXUOex2gaKgKsqcJM9Z2r9+Ew/kvviORc5el5fRb1c9e449RQJjbEvxx7i8n5NZCTBK5gpTxcx6XQz40hFLEEEo2DmC0HDoExsfHDfFARYsDBOaHH35ovJP8fv+hw6IRLtgQyPDRmZ6eNubqIyMjwix9f/InfyJ9fX2qONvhSrZCm63wt6Wvfi+J29dlBXWAuJX1fw3trQlxQ4KGZihOHVArufsHpfWdj6Xt6s+gToAiAZ9tVKhMKiKs/W40IT8txmQ2lZVkHka/5Yp81Ncmlzoi0gVCicbcWhoPASbKYajb4sQ3iCaII7ytVfzhXnjwtBk1SzXRR+Ndd6NfEbM055BRe3HmnmlCPME+iXRdFl9osNEvXa+vDhBQQqkOKumgnOJKpSjFLFQM41/J/KPfghmHOiIyJBGYOas53EGppTc/j2I+IbnUrCw8/RYPq4qE+65IuOcd8SFjn5ZdRAAd/zxMXKMIi4j9+L0k7t6U4vIiQiSyz2azX/frzfBRcg8dl/CFd6Tj6ifGY8keCGI2+9UBA2fGM1ArLEGNNAZfjeFYSkajKWPcaodvk8/tkI9WCSV6bCih9Dr0G+tzeu6kUim5c+eOUSdRyTI4OCiXL182md0a62oP39Wwbhn+Rk8srqk440KTdS07j0AJfnl5ZPNc+u5zWb7+teQmn0gJSqUVhjdvohg1KtryECYM2t79RPxHjosLSiUmbFhLiVoCmZQEaTULT7zbIJMeYMIgVyib9p0/97P+DrncGZE2hNo5lFDaRA3U3y7M5hZfuCtpJMrhZECkA1mXEebmQDY3LfWNQAmZtWPwU8qklhCSnoWf0ocSaj9nrEY0CVJ91229n70SSvVeg3t4/iWkm0/iIbU09gX8k76S7uO/lHDXeWQbiKBfg0wkWuoegTIeVotPv5I0QhkrMO3uPPMfpe3oL+r+ug76BVQwiC8h/C2K8IjF619KEjPZxYW5jWeyay8Ks9rNCFXzHT0p4Xc+lNZLH4hv4BhmIzGTjc+sYrw7GOaWycJTIyU/LkRlOZOXYqk6Y+5Eamuf1ykfg1B6Fx5KHHBoljcLvcOxZla30dFR4530xRdfGAXLO+9A/YasYFS0aKl/BKhW+vLLL+XhQyQEgE/We++9J5988kn9X9gBvoLUzITEkIhh4d9+LdknIwh/i23pbGnc7ek/Il2//A8SPnMJPksIf3vJA4nte7ZckqcIY/5uflmmExmJZ3JQvFrPgBX5kyOdcqWzRYLwzdIsb1uqgrrZeXHyG6iTvhQnwt/9wW6JtJ+oZgusmyvQE10PgQq8sfKY2I8tjcni1G1phUF3pOuSeIP9OrG/Hmj6/p4goITSnsDcGD+ST83J3MP/LhlkBaMpd/vAhzCGOwqzP9cLg9bGuNrDeRU0ckzHnkhi8RHi7+9Iy5GPpXXoE/GGjyCTmJqt79ZdwQHeCkil3PK8pOG7Ef3xmiQf3pHs6CO8DyNXfP66wjAJF9QkvoEhCV98VwKnLoi37yjCJpCeGkqlWmXSA4RCUJk0n85JHqatFaSVZiGhFPC65JNuEErw2aA6yWSce92P6+cNgwAVLJ9//rkw5I0+SvTYOXPmjDFu1oxuDVPN8uTJExP6RtP1EydOmKxv3d3d4vNpO78btVzMIAEGjLrjUKJGb34r8RvfyApNujcKf6s5kWYqihD+1vr2VShRr4j/5EUYdYegVKqaKzPMrQS16z0kV3iEtn0MnkmpfFEK8FF6Xlbk3x/tlncwYeDGZINOFjxHphG2OCGYzyzI0vT3Ep+/LS3wTQqE+8SNDMwa5tYINcyuIDN35oV+SstzD9AvD4gnOCDt/R+Jw6WJMhqjluvzKpRQqs962/OzpnFzJjomkzf/EzJUZRGPPSChjnMwhuvc83PRH9xFBNgpLcK8c+GRzI78QTwtgwh7gy/PkY/E6W3fxR/WQxMBeiqVkGI6+uiuyf4Wu/aFFONRhL9Zaac3xsnhRehbOCSBk2fFf+qiBM6+Lc5IhzR7fPDUEBi05mUYYW4PEQYxgdnrchlEVg1Z5XbYJORzyyerIW9KJm2Md6N9SuNmhkH94z/+oySTSWPazHAoeuxoaSwESBaOjY3Jv/zLv0gwGDQZ3y5duiQdHR2NdaEH5mowEETChSzCmZn9bfGLqlF3CUolTiZsZtKgGaqi8PHjEjpzQfzn3xF396Bp31eabZLGMaJQF16bj8oICKVEFkkfasgqo1HCP//xeI+829mKyQL48GnK8QNzd+zEiRTgnZRYvIf+233YF0xJZ/9l8Yd6VLmyE+AesGPkMlFJIpIgGZ9Fpje/9Bz/SzMe04xvB6yiDtHpKKF0iCp7O5eaT81Lcv6uTP30dzDgjkjH4MdYtyL1qMZkbwfXg/hdZgjJJqZlaeoHZDnOidPXId3n/kfxhPoP4uk22DlRqVQRzmYnRh/CqPszST/4yfhumJnsGvJnrQt3uF3iCvjFh0Ghp2dAnEdPi/foWXH2HZcYjjuczMj3CIWIY7CRLZZeGcN4nXZpD3rkg45WudyqZuxrYdzI78ViMXn69Kn85je/EQ9Me3/5y19Ke3u7qBF349U6ffLm5+fl+++RZTIaNV4rNOg+cuRI413sAbkiJsCogLTNLS9ICl5K83/475K8d0vK6aSA/XntWTYj5DTU2yPe7h5xdiID3Pl3xX30nJTdPhlDBrcfkalzOpGVWLZgVKdV3Wn1sM3NTVCTi/zV0T55t6NFyaTXol1/OxgPzAlMQmUXEe4u0tp5BuqkVqNQrr+r0TPeCIEyJvlLxazMPb0pedgldA79HBP9IJg9LRt9TT9TBHYNASWUdg3axjpwCjMe8Zmb8E/6XHxQJ3XBV8dmdyEuWz01Gqumq1eTzyyaWS5mfFtBHR+58j+LF+GNWvYGAWYI4qAjOT4sizDqXnh4XxahKmrOJMRfSIoDAxMblpfLM0IJfjeuSIvYWjukqf+ElLCMOYMyhgRDY7G0FDF4scLcao8RgCF3b9hvwt3Oh4O1H+n2IUBgYmLC+Opcv37dKFX+4i/+whBLNHbV0ngIkEB88OCBDA8PC7d/9atfmfC3xrvSg3VFJSiViiCRFn/4Uubu/CjTY0+lDONuWzYlvnJWHAg9t1yPas+8GYxQqKcLymG07ci26Bw4ISuYLFho7ZXRikMeppGtlWFuq554td9lwgWn0yb/4UiPvI1w5rWOX7u/btcXAiQr0/FxmXn8a5BJK+ILtEswgkkltz7H66smN3e2xiYBk78z499LNhVFcqQrEmg9YbyUNncE3UsR2FkElFDaWTwb9mjLMGqOTV6TLMLe2Gh1Dv1xw16rXphIMRdH5+SpLE/dxCxIToY++F9Mtre1soYpXruDAE3Ry8jWM377lozcvif3R2fFsTgpnZCyB0EquZFCtsk4Iz3/fYfHLe5gAJ5XIYQo+oxpa6a1S5Y7jsitliGZAalULL5KRFlHCHtccqw1KJdaQ3IyqOnhLVwOy/revXvy448/yuzsrFGq/Nmf/RkGJ69mCjwseDT6ddIviyTijRs3jKfS3/7t3xq/LK3z3a95EgDR2Wl58nhUrn9/V/KzE+KKzkpHZk78xZQ4kVX35dIEj7twTzfUwkFM6NllxeOVJMy57/WdlUkoiRebvC+EMNd+34lwZmbw/PP+LnkL6lMllGrRqf9t2lIkl4dl4v5/EY8vJC2dJ8VjogiqHlv1f4V6BWshMDdxQ9LJRfT5hiTUdhbjM83KvBZO+t7uI6CE0u5j3BC/MD/8O4lNIJ08JJZBEEqtfVcb4rr0ItZGoFzMwNxxSeaRzS+bXpCBK/+TBDvPi92ls11rI7bz75agUqJh9tcPFuTWaFSiiYKspKPiTs3IseE/SMfSsLhWSlK128bvw0DbCQ8lDjY88ERxIGSJ78U9AZnFbOXdgbdkwd++oQdsO/yTLnZF5HQoIAM+DWfd+Vo92EekMonkQhl+LENDQ/LRRx8poXSwq2xbZ5fL5Yxn1jfffCN37tyRv/7rv5Zz586ZEEc18d0WtK/9Mk20h+eTcn8qLj8Ox+F5k5bm1LL4p29I18IDGYyNmrb9GfGDDYa8Rfp6TRvPyZ0KFEsxT1C+7zohszBfzvjW9zn0uRzS4nfLH3e3y7lIUAml19ZQfe1QzMclsfRIph//RoKhTmnrOS8Op0+abaoura+a3NrZLs7cBaE0D3P+IHxtL0qk89LWDqB7KwI7hIASSjsEZKMfZvb+P0j06TfwTPIYQincdbHRL/lQX1+lDENPkEo05k4i7K3n/F9LqPsS1C+9hxqXvbh4+l6UkHUtni/LdLIs300U5cE8zLpLTaiTnDTBeHPg8b9K1/R1aYWKzA2fKwekzySPXH4fQhPD8E3wiw1Zgcp4bwok4JNAh0z0X5BkoA1HfzZEeeVy+oJe+aCvXQb9XmnD97UcLgRILFy7ds2YNB87dkzefvttJZQa+BagCXsmkzFZ/eilREXahQsXTLijqpR2p+LZvmcRkhbPV+T2XEEeLpRlfGkFkwcVacpnxD57WzrRth+b+E6CxaR40L6zNIE8srthyg2FkgvhbmzHMwhHn0dI0/Wuk7Ic6ZWyn+372iUC9WlfxCfvtbfIcahP138KrP19ffdgI5BLz8OQ+6HMjf1ewq0D0tl3CfeMQ/2TDna1bfvsYovDxpi7jLY83HVZ2vo+3PYx9QCKwJsgoITSm6B2CL8zfefvQCh9JW5k+mLIW6jj7CFE4ZBdMmZQpx9DmTZ/X9qP/xwd2XfE337mkIGw95fLmesUBhePl4vyNcikubgIErKtFgxHEAq3ApP8CGayj9/7B2lDmuAABh1NCE1yYaDgb2uFbwLUSQ6nZGHEei/UK3daj0oRPhsVd8A60CvrpqYVOQr/pD8f7JF2hM556OCq5VAh8Pnnn8u3334rTB/PVPIkF1Sp0ti3AL04Pv30U/nyyy/lvffek/PnzwvJRCWUdr7eSSYR76lUSR4sF+T2VEWmYsisWl4NXkYY3ApU4N6ZnyTy8HdyPD4inZl5fElAJrnEiYQLgdYWoz7lsaadfhmH6nS477ykQSY1OdafBOjye+RMR1jojdfn0zCona/d/Tziikmkkli8L/NPv5BI+zHpGngbJ6S04X7Wyl78djI2gWxv01ApLUhL9zuwI/nlXvys/oYi8AoCSii9Aom+sRYCEzf/D1ka/YO4fG0SRuhTS8+VtXbT9xoMgamHv5Hl6ZsS7D4vrQMfSat6Z+1qDZcx2MjA4+j2AmeuSzK8UIHJKhRLGHCwb1gd3K8g9DQnrqURCY9+JoPzd6QPZpwOe7N4Earm72jHwMIhKZdPRpDhZSLSL3ORPvhtgEyyO9c8fwiZxIMMbydbAvLv4LERdDrEjpAKLYcLAaaQ/+yzz6Szs1POnj1rCAYlFhr/Hvj9738vf/jDH+TkyZPy1ltvydWrV8WO8CotO4cACaAcJgqmkiV5vFSS+3MlWUhi8qCAD1as9h2bCHW2p+bEsfBYjo59Kr3ztzFhkBGvUZ8i2QLWebdXFqEWn0BK+OlwryTCXVJ0ejGpsPYkgA2TDQMhn1zpajHq03aQU1oaCYEVSS49lvjCXfTXbsA/6QQIJe2jN1INr3ctVCgllp9KOrUobb0fSPfxP19vV31fEdhVBJRQ2lV4G+fg4z/8r7IAtYrTA7O/nrel/cgnjXNxeiXrIjD14J9kcfJ78UaOSNvRP5au03+17r76wZsjwMEGs67FcwhzS5Tk89GcjCAUIpnmjDY+xHiDaZ+bsDTbquum7LLI/EM5+eRTOTHzg/gdTcjACP+kzg7JuLwy543InZYBiYcw2PAzdTAGG2SO1ijNeL8ziBlsGHL/UWebeHQwuQZKjf/Wr3/9ayGp1IIsUhcvXpRf/vKXqlRp/Go3dc567+vrk8uXL8svfvEL0cx+O1vxOUwULKRLcnM6L/dnSjI6VxYEueFH0J7z39W2ne27CEKYy3npfvDfpGf8S+lPT0kEhJAXkwUll0eWvAhjxuTeTOugRMPd8FYCQbSOeT4nIWjIfSISkI+624RkUsChZOHO1u5+Hw19h/m7UJPfMUtLx3Hp7L9snvmqMN3vutnd31+avSfxpVHJwF+zfeAT6T3x73f3B/XoisA6CCihtA4w+vaLCJBQmn/0G7FhVqy17x3pOqqyyhcRasxXJJSWpq5LoPOMtA5+Iu3H/rQxL3Sfr6oMMimLAceN8ax8/TgjI08LEo1Xqsqk1XMjoWR30XgboW0+BxRJZWkqJaUfJpxHxv9Nel1lcSNkrdTWIY/bj8o0VEkZb4uUHW5ZoTHnOmQS33ZgEHO5s0XOIbvbUYRVONYZnOwzTPrzu4wACaXf/e534vP55NKlS/KXf/mXSijtMuYH4fAkk/71X/9Vjh8/buqdZuyqUNq5mmGY20S0AAPuvHx+Jy1P4YmXTHGm4Hmx2dG+O5vEHXBg4g5+Sdh2QHHSPndDLk99IW2+ZnF2dCDErVVmwj2y0HYESqWAlO0IX8OzgcTUWsWGz/wep5xF2/4zGHL7kCnOqe37WlDV8XtQukVHoVC6h/4aPPDgp9XafVacroDYbGurkuv4YvXUaxCoEkpjSJ6zbAilHiWUatDRzb1EQAmlvUS7jn/r6fX/TeZAKDGYvw0Z3npO/kUdX42e+usQKMPHIZ9FlrexLyGnHUFmmbelZeBDLB+/7qv6+RYRoGdSPFOWx7M5ufY4Kz8M5yW+XJJcblWatHo8Ej82qJAc7mYs1QGH3VGR0OQfMOj4Snr9K+Jqa5FCV78hk+LGU8PNqe8Nz8iJULkA0kl/3NMmp6BwijidGJ+sPTjZ8ED6Yd0j8Nvf/tYQSpzVJqH0q1/9CgOStcNo6v5i9QIkn8+bLG9ff/21/PDDD8Y/ifVOM3YllHbmBskWyhJNF+XWWE5ujkKd9CQvsWQFCRZePD6j1UgqOb02cbjYvjdLU2FWQqkHcmru3yQUcom9t1/mkVghhiWDzJ2QJm3YvrMZd6F9PwJ10tmWkFxuDYsDb2r7/iL29f9qRdKxcYnDQ2lx4hvxI8tba9cZcXvCuKc0vLH+63f9K1iY/klii6NSyCVAKP2RKKG0Plb6ye4ioITS7uLbMEenhxIJpVI+JW3970n/GYQ+6aCzYer35QthxpDY3G2Jzz2QQj4B76SPpKXvfQmpd9bLUG37daFckSfzefnNrYTcGy3I5AxMt8ElmVC3DY5us6/AnLUittQNceXvSHvEJq5uGG8fOSNN8Epq4mBjEyXkdUk3wt0+7myFOsknttcQUJs4pO5SpwhQqfLP//zPJvMXvXT+5m/+xhBKGjZRpxX6mtOORqNy+/ZtuXPnjkxOTsqVK1eMh9K5c+eUSHwNdpv5eAUTcPNxKpPS8m+3QCg9LkgJRBJskjYsTc0rwB/tuysucEoCqXRd3N2tYh86LU0Id8OMwobftz6kOinotstVhLqdxGRBr9ezjo7J+oau6xOBGkJpEoRSsAOE0mlxeSIghjd3r9TndetZz05cl+jCsMkA3HHkZ0oo6S2xbwgoobRv0NfXD9cSSpGuCzB++wXCb0KY/dCHVX3V5ObO1iKUEvDoKYJEbBn8ACql95RQ2hx8W9prOpqX2wh1+/V3KZmCb1Imi2HIi9EQrxyvqbkobn9cQl2TYqsMi21lXgKhQXGFh8QWHpRyCf4cGLWsIJSO4RZrFUY9OBD+cDQckEvtYRnweaFOYpphVSethddheK+WUDp16pQJeYtEIuLxaFaoRqx/i1C6d++eTE1NGf8kemcpobT92mazmy2W5d5EVn53IyEjkyWZW2abvPFkQVNTBXxRSjzBZfG1TIrHPS/2XFrcLcfF3XlBypUm47dXwUQE2/b12ndm7eyH79IxqJNOhoLS6XEh3G1zkwzbv3o9wt4i8CKh5HC6JQCz9nAb7hmolLQ0LgLTY9/I8vxjtAMV6Rz8YyWUGreqD/yVKaF04KvoYJzgxK3/BA+l34IFz8D4dwDpKd8Sf8tRxPq3HowT1LPYUQQyiUlZfPqdZOIT6LyWJDLwPgilq0oo7SjKmKnGoOP74ZR89yAtX93OwYR7IzJpBYbcJYS9FeChFMXf3xwIpScYoMyijvLi8p4CyXQSywnMgpekXIbSyQw6XiWWbPBM8oBMaoM66UwkKG8hHMKL1+qdtMMVXGeHo48OSSWGQvX09BjFClPId8C7RUvjITA/Py/ffPONjI7CfyUeN+qkCxcuKKG0A1VdQuM+B3XStUcZ+YevEghzW4Had/0Dk0hi++7wJJGtc1H8rdPiDU9h4i4hpaxT3MELaPOvYLIAhFJpBe17yWSEYzIHslTVeYMVMyHAdtzntME3KWh88TpcLpNoYePg5/XPTT856AjUEkrf4n4oGSKpvfei+AKduK/goailoRCoIGa2BGuK2afXEfI2BkV6Mwiln4NQ+suGuk69mPpBQAml+qmrfT3TyR//L5kf/mf0W0pGQuuC2S8zvfkjQ/t6Xvrju4NAfOGBTNz9r+i85tDBDUuk/12J9CqhtJNocwDAQcf//fmyfH47LQtLFSm+5Kvx/Pc4UKjAXyOJmeslaRt8iAHHLP4W85JNJCWXKsJOowWfnZNQx0cIR2UH0mYGGZUSyCXEWXBG27wBAZLb5ZAOn1vehTqpD6RSGMok+mqoNuk54odxi6njuVDd5na7JRwOy8cffyynT58+jHA0/DWPjY3J3//93wuVSlShkUw6f/68Eko7UPN5kD4/PU3Lt/cz8vnNrGTyK2iD1z9ws72ACbqERHpGJNgxjfZ9yUzgFXNo45NF8QQuSrD9A7E5IzDK9yCYDsejEhUTB2zfV6hIxUPFZmuWsNspQ1AnnQp4ZcjnEfuqb5K27+vjX9+fPCeUlqa+k1Ihjb6BS0goBZCcw+VCmKQqj+u7il86+1wmKqnYpMSWxiSTWkT/zS4dQ1AoHVd/25eg0pd7hIASSnsEdL3/DAmlxdE/GDKpUi6gA5OXzqGfSaj9NDo4fjyrdO6r3uuY57+yUgY5MQf/pHsw5P7cdEJcSE8chil3uOddVSjtYCVnCxWJZUryf/4+Kt/cgwk6Zq/X89ZothUx2IhLoG1Wgp1TGGzM4XUSg4mSZGIZySULqCs31ElHsc8VfNYDJROk7iCtSA5UMJJh+BszUtsx4OgHiTToc8lxDDZCSCHtNFmCdvDi9FB1iQDJpM8++8xkeaPCLZFIyM9+9jNj0M3Mb2rQXZfVuuZJz83NyYMHD+TTTz81ijSSh2fOnJGzZ88qobQmYpt/k6KhTL4in91PyncglH58lDeTBVUV0YvH4URBU3MJbfoMCKMpCbTPItNbHG14BkQSngvJvOTxnHC4u8UbPAH10jlM8nThO05DIFGFasKbcfAmNPhtSLDQg/b9BMikTkwcRNC+syiZ9CLujfXKIpQeyDKyvJXLObHDZ8sX6BA/Qt9CLYPaR2+QCmdoWwkTvanYtERhSUEyuWzGZAVM8sOUWwmlBqnp+rsMJZTqr8725YxJKC0/+VzcvnYpZGOSSUxLez8UK51noYrow4yZSmr3pWJ28EcZ2lbGzFZs/q4kFh9LOvoUUmmkKoYaLYgQx3DPO0oo7SDeS5h1frKYl//8WUJuYsCxUZff7spgsDEOldgTLBMY2NMjqSTFXBEKpRxIQHx/BRngPB34ezyGsNSLqLd+dCI5mHg+lPCgPkMIhTjnd8sxr1OCCHPj7LUWRYAIkFD68ssvpauryxhzj4yMyNWrVw2h1NfHmW7NGFTvd0oJisVCoWCMuEkoUaVEZUsgEBD6ZlGNph5K26vlMhileKYi/+16XK49yMg4/JPAz65ZjDLJlTSq09aBYbTbWbTvCGfD3qmlNNr3LJRKJJ0cyPwWhgL1AxBOJxEKR7sBTuRV228b2nFODBz3u+QoJguOgFhyIwxGp/rWhL3B3qwSSonFB7I0fQ39cfQFXH5MOBVAKnVJe89FE/am/oj1X+3s9+Uyy8i+PC5Lsw/F7UUmP4Q0ZtLLSJj0kRJK9V/FdXsFSijVbdXt7YkbQmn8K6Qj7UXcLmfOZsTpDhsfpVZ469jsatq6tzWy87+WTc5KKjqCzG73Ucdp+PS0wZA7YX5ICaWdx/vJQl6uj6XlsxtZefx03Vg3/PAKwh2i0n3mB6iP5qBCSpmZaPok5dN5qJM4gw2FEt5ttjkR+uY1YW+e0BkMQCIglWi0zU+bpBsZfy4E3Fg7pAUz1ySTlE7a+bqt1yOSUPrqq69kaGgIs6AlmZhAhqlQSAYGBuS992DKj20t9Y3AwsKCIZGY2W1pacn4Y2UyGUMgKqG0M3VbQLjbcqokf/dVTH54mJUlmHGvrT5dwXM2ZsLcwj0TUCfNgwwg81RhkfkSAABAAElEQVT1vUsspMyEAdWlVIFTleQJDIondAqTBm9Jkw1Z2zBpwPa9xWGTPo8DqlO071AmeUAqaBjzztTnwT/Ki4SSBySDN9gpcaSTdzi9JvTN6Q6aCIODfy16hhshQDUSQ90Y8lZAwhyny2fCXuPLT6Wl9z0llDYCTz/bVQSUUNpVeBvn4CSUok9BKIWPoFNjMzHaDI2yIza7rf99KJc6MCMSaJwLPkRXwjC3cjEHVdIDic78ZOrWAbIwDPVZankED65FVSjt8P3A2ed7k1n5/Z2k/PSwIFNzpXV/wWYviS+yKEcufQuT1gX8/ZF8WgHZVzKDDZJKxdyL3/eCTKJSyentxeyVF2FuTngmBeWYPwBCySd+KJNcTPOmRRGoQYCE0tdffy004qanTjqdFoZG2ZEd6sMPPxSqlIJB+HFoqTsEGBaVy+VkeHhYfvjhB0mlUuL1eo1vEjO8UamkhNLOVGsOiqK5OMKZP41CfZoDWbd2sgWGu7Ft7zp+V/xtMzDejlXDlI0vUlmSi2kzYWCdFUklmzOA/tYAngUXjGLJ7vCLy+6UQbTt54Mh6YF/UlCzuVmQHZL1i4RSkGFubUOyPPsAEwNZqFhaMBncIx5/G/oDTkNOHhJgGuoyOZmfy8QlER2HhUEZ9Qo/NZsdfcE0Mr2NgFC6qoRSQ9V4fV2MEkr1VV/7dra1hBLD3uyY9Zgb/RIMOVKXd5yRcMc5o1batxPUH35jBGi8nU/Py9LkD7I0dROGoKdQn6hTpChegCotDqJJFUpvDO+aX8T8s1wfyco/XIubcIil6DrxEPi205OHV9mCHHnrhrgCC0gbnTchKiSRsvBPymeR7QPk0oulGX+jyNwWOm4GHV5XSN7vRThLuAsDjgBmwTHb/eIX9JUiYELeLEKpu7vbmHJ//vnnJqU8zZq5kHTQUn8IFOH4z6xuN27cML5JDGvjQiPuW7duybfffquE0g5VazpfluloUf7330Xlx5EcfE7Wbm0ZuhxoW5T+Mw/EHZ4Rm3vZEErlYlkKuQL88eChlKb69MVicwSQ1bPTeCl5EObc4muRC6098n77ACYK7PDK08mCFxFr9FcvEkqR9qPS1n0OYVFPsDwFATEprV2nJdJ+TFyYLNSsb/V5P6Ti04ZMSixPoB4xmd97AeqkIhTqUSWU6rNKG+qslVBqqOrcvYupJZR8UCl5At1QtDySdOwp/FvmMcs2CI+XU5DZ9sAM0Ld7J6JH3lEESvkkwhdh7gdlUg6kUqVSNIqzQOtxEBktMv/kM2HGNyWUdg52GrOWoBb47nFG/v6bhMxCnRRPIAPbS4VjApttRS6fdMjJo3nxdj6RqIzJdOaJMeMuZHP4+8tIkYRS4VVCqhnhETaQSs02lziQ8aUv3C1nO07K1Z7L4nN4xamphF9CXF/WKpQY9nbkyBF5/PixSStPpVJPT48hIXp7e43njiJWHwhQjUQy6ebNm7K8vAyFQpMhkljHLS0tcu3aNfnmm2+UUNqh6lxOF2VsLi//zx8ScneMEwCvEkoMU2tvbZKjA0V5+3xa4vbHMluEIriUgEk6iKQMsrvFc1LIvBoOTT8l2gw0U33q8IgHE3xnOk7Ie32XpQsTfkEkStFymBB4mVA6Jh3I8FZA/y6TnDd+O8wCaINRtz/YBaVSu1G3HCaE6vlaS4ggyKUXJYFQt2xyAWQyQhoDnRKAEi2fi8PTdk4JpXqu4AY5dyWUGqQid/syagmlQOsJCbQcxwzasiSXR2Vp4nt0bJwwiuyQYNspkE1dCH9Tr43drpPtHJ9hbpzZyMTGTR3GFx6a+HpvuE9aeq4YwpDHnxv7VAml7QC9xncrYJQYEvHNw4z8v18nZGmxLKn0i4QSySSfu0lawk3yp2/75dJJu5SdMXmafSwP4nckVUDK2FQcxulpmOQjywdmtNcu1YFMExRJLph0Hgfp+/HQH0kvCOEWT0RsCF9VF6W1kTuM79YSSidPnjQGzbFYTMbHx42ChebNHR0dhniwwt+odtNyMBFgmBuVSfTCGh0dlXv37onf7zdKM4Y1tre3mxOnKk0JpZ2rw+loQe5PZeUfv0jJo4mqv13t0RmR5nKC1DvulEtYrmCZKY/K4/QDmcs+lXhqSdLJpOSQcIHt+0aFYXAMexloGZJzPZfkNDLv9qB999jd8FDSv82NsGucz14llDr7LpnLK+QSkk7MQtnyFGrmuDFxphdqINIPUtIFtXI1C2DjYNFYV8KM2jThjsOEO5+JSQVZ3lo6T8JsvRP+SQHJYEI/FZtSQqmxqr0ur0YJpbqstr0/6VcIJZBKKybLFNnxCYnO3oVaYtyQSfTeae17f+9PUn9x0wjQdLsAb6TFp9ckHZ+E306XkCgMYrFBvWJJopVQ2jSkm96RGYCSubIhlP4zFEpRGLZmkBHIKpy5diBp4lCPQz4455ZLQ14Z7ECK6KayzORnZTg1JsPx2wipABm4FH8NofTsqCbMLQAvhS6oCd/re1fO4e/UDzWhHaSSFkWACJBQIrFw9OhRsQglkhJJDG5JStDImZnBqFRiivn3339fnE6ngndAEchmYQgN4+3vv/9eHj58KFSWsV4ZusiMffTGYlFCaWcrcGQ+JzfHMvL77zPyZPrFcOSmphUJBpqks80mf/VeSC4PecTvaZZcJSuLhUX5PnZdniw/hpE31AhUKBlCia576xcqzpxQovowafDO4MdyrvuiHAkhKyOTNCiptD5wDfPJ+oQSvXaoPE9EJySJ0LdMalHcnpAEW/pNkh2adWs5mAisgDximFsSyiSGLnoxaR9qRYQIVIgOJw35bUooHcyqO5RnpYTSoaz2rV/0WoQSj8K0pKVCCuFvD2EgOYzUuFlxIVTK33LMEBMOmHa7vG3PCIqt/7J+YycRIAmYSy/AzHnaEIAFyGUpnycJ6A31w+yzOmNt/aYSShYSO7culVcklinJ10gn/V9AKCXiFclmqwMGkkkujM+P9jrkwlG3vH/aI11hp4S91YFfspTGoGNZHiceyujSI3kyOyLpVAJqwfymTtCOGUk3ZrVOob7PYDkBpWHEEzYDj00dQHdqaAQsQonqlRMnThiFEgerzPjGsCmGv1HlQnNnmnMfP37cKF6Ycp5qF5IUWvYfAZKAi4uLMj09bcy2GeZGdRn9khjG2NXV9cJJKqH0AhzbfkF10rePU/L1jzmZnHuuHuVEQSTYLCf6HHLxmAtkkk96W0j6NBnlQQb9p0epEXkceyTDi/dleQHqg0R80+dD8uhI+0k5BiUq2/dufxeUqGFVoW4awXrdcX1CybqifDYG8mHBhL+VinmTaj7YAnN3ZINzuUNq1G0Btc9rkkj0NS3AaJuKMqrLioW0GUMxxI3qMjtCFy1lmSqU9rnC9OefIaCE0jModGMjBNYjlKzvFLLL8FKaQXjUQ8yoofOKWRFmCvMEe0FWnAebHjDZ4az9db2XCDDDDNMQl00Gt/j8PeN/lVwahe/VSWOqHmpnivlXva+UUNr5eiqCUFpCSumv76flv4JQSiZXEAdfJZRIJrWEmuXnl73y9nGvnOx2I0Mbg9KqoWs8mzLqcio3Jw+XH8r1iW9lYXlGUskYPtl4Frv2Svy+VulDiMRHRz6SIXiitUK5ROKg9ndq99ftw4HAeoSSdfXxeNxkfaNKiZ48JJpILNHAm6oX+vHYbKp4s/DayzUJIy5lZAjL5/Ny9+5doyYjCTg4OGi8r86ePSuh0Kvh6Eoo7WxN/Tieli/uJ+X6vaLMIqSZpbl5RQK+Zjk56JSPznrk5+f8aNsRrlajIGLbniplZDT5RG4u3ZInkw9kYWkKz248v1G3mylUF7ch5O1s72W52HkOkwZHoUK1v/A7mzmO7lNPCLyeUOLVlIpZqJQmTPhbKj4DcqIbmZsR/hZm+Buzv9mq9wn6Alr2HoEqmYQQt2zUEElUJxVyaXEikUp7zzkok1oxlnrRH00Jpb2vJ/3FtRFQQmltXPTdlxB4HaFEpRJZdWPynJo16pcszAAZ3x/CTJk/MoSZkN6Xjqov9wKBSplp5TE7lZhCvUxIJo4OKjquTsxchjqqdeOAaqVpjVh6JZR2voZIKM0nivLVvYz8f9/C3yC1IoXCCv5WVuT8UadcPeOWcwMe6cbMdcDNDt6LnTsMGyWLOp3PLMjjpRG5M3lDhufuYyBZNPW6mTO2o/Pog3qwC7NdF7rfkiu974ofxq5q1L0Z9Bp3n9cRSvTjIVmRSCQMoURvpZmZGdy/BUMoUbE0MDDQuAAd4Ctj3dDviqqkp0+fmhBF1lUkEjHhiVScUUnmoEzmpaKE0kuAbPPlD6Np+cOdpNx5VAThXyWUAL0Mdtnlz64E5Ey/W7qhPGXTXkvis20vYeInBSVqNB+V78a/k3szd2Q5MQPy9tVsb2udJvtcTvgnhZBS/DwSMLzV+7b0BXpM+77W/vpeIyCwOUKJk4pFpJ6n6iUJTyWSFewL2hE+5fG1IaSqXbz+DqOAaQRU6u0asjDeTsNgm0QSvZPAQiM8MYI6aRNfsPsFZZJ1bUooWUjoer8RUEJpv2ugTn7/dYRS7WXkMzCUjMNYcu4eUt4uIrUt0peDTOJC4sKOgawTi+lN1X5Rt3cMAcbMV/BAKuYRDoXZDmZwYzY+bjPrl8vbihC3PvGFkWYYIYnrFSWU1kPmzd8vlFZkLl6UL++l5R9BKGUzKyCNkPEnbJOPznvkjy54pSPkFK+TSo8XyaTaX82AwF2EWeNPM7fkLrL0LSGUMYOsLhx4VGezN57RboZ3kgPS6ZMd5+RK/1U5gnuBSiWSSrWDnNrf1O3GRuB1hFLt1VOtREKJIXCTk5MSDoeNUomEElVL1qKKpVrUdnabCjGSRvS4ikajhuRjNr6FhQXjbUUyifXBMLfOzs51f1wJpXWheaMPvn2cln/+KSmPRguSSFbEjQQLx1fD3D4565NOtO/2DczsSSyxDb81d0fuYhmdfyRx9KuyCH1hQo3NqJWoOB1AttaTUCmdwcRRD3wSg+h/URGl7fsbVesB/tLmCCXrAhhKRSIiCz+lHLZLhYwhK1zGWwkePegH2DHBpGW3EaCilFl6MwhvQ3ZH9M+Zta2QzxjFmBuTvh6QfFw7EEFAsvjlooTSy4jo6/1CQAml/UK+zn53K4SSCa9CpyeGjlBi/gGMg0cM286UpSbECllIQu1nNQRuF+8BEkl5kEiJhQeSij4BobSEDgNmodCpbD/yMR5SvcAfHUtInNd6SFmnpoSShcTOrUkozSAL0JcIeSOhVMivSEvAJh9c8Mg7xz1yrs+D7GsMhVifTOLZcNBRxqBjJjkno9ExuQViiUbdCZC4nInk3+HrCuvejxmwNsjePxr4CBmCThnPDdsaHZfXHUs/r38EtkIocVDL8CqGvzG86tGjR8ZniQoYGnZzYYiV2+2uf2AO6BXQ14peSayD4eFhQyjRx4p+Vp988okMDQ2ZEESSehtl41NCaWcr+KuHKfntzYSMPi1KEe19V4dN/hzZOj887YMy1P5KGPN6v56GmmQaiu8bmDAYgZ3A9PIT05eqoH3fTIizDapjKlEvYMLgXPd5OYcQdwc8E2147mtpJAS2Riix7Tb9A/QRSC4lYk+RKYzhVUmYdWNCIDJgssA1EkIH8VpYBySQaLi9NHPPZN1zecMIQew14W3PvK1IAq/TH1RC6SDW7OE8JyWUDme9b/mqt0IoWQfPI4sY1Up5qChyqTmjkqmUS2g03TB/bhM3pLVuf6dJUc/3tGwPgRJmL4v5mGSTs0aNRHVYuZwzhJHDFRLXKua+0ABmn16Mw17vl5VQWg+ZN38/jwHG9HJBvgKh9E/XEnKkwyEne51yGWRSf6tTWgNbUwil4YsQQ6dkCkbr8xh8LGHWMYqZrij+9qIgFQtQqpFgWq8Yo27cD4Otx+QkCKXz8DyjUbcXBKSWw4XAVgglCxkaPjOTGIkNqmNmZ2EiivArZn9ra2szyhh6LHHxenXW28LtTdeZTMaEHBJnLvSyokk6C1VhFub9/f1GNbaZ31FCaTMobX6fLx5UCaVYogw/I5tcOYkw5n4PDLNdIHOgD1pncPjyL5QxMZeGemEGapIZtO+zWBKYLGLbvsA+VT4FwmrjhAx2ZHrrQGjz0baTIJUuyACUyW1InKKlkRDYGqFUe+UMrSrkEsawm2olm62aAIS+XS6ETbrg32NDX4BqZu2n1yL3Ztskg+llRSIpn4EiCZgXC1n00Uomi5sH4W0uZN7jBLANSVReV5RQeh1C+vleIaCE0l4hXee/8yaEUu0lZxKTUCoNYxlDIwqiA+E6nkCn+JBZjOnqnVBJsPFsBrFkZS+o/b5ur4UAZpnwEKJktgI8SSBlYYyejj0BxjEpF3Mg7BAXj1DDAMgCl68DIYevGrKudWTrPSWULCR2bk2F0lS0KDeGM/LZ7aS8f8Yjbw25ZbDDLR7Hq55Jm/nlCmYcC/AxiyPkbRnZXGYw2JiFZ9YUlEs5ZAsp4zPYukoZ90sBpC7X9OqoYIbMKArxI05IqvtbBuX9gQ/lKNadyPhHBdPGOqnNnJ3uUy8IvAmhVHttJDhoAk21DLdJdFAtw7AreviQ7KBiictaXj61x9Lt5wgwtI0kHfEkeUdsx8bGDIlHgom49vT0GIwZ2sZQt60UJZS2gtbr9/3qITyUbifEZW+SY91O+aNzPgm67Xi9dWUQlahs35Mgj9i2L2PSaDY5I+PLI5JMI5wdWXaNWpUDVS5o30vsF4CMqrbvCKmGUqkN6uSjUIe/C0+l4zTqNupkbd1fX5v1sMebE0rW1TGTWIEWCbmU8VhKLE/AtLsLk79ItIC+OUkOJxZj3A3SyQaiUsvrEMDfLoi5qgUFPS7LGPsUEKYMqwNM/HEpgdBj3ysQqWZwcyPccCtFCaWtoKX77iYCSijtJroNdOztEkqcBSmXsiA5skY9k1weNkqaImZGOPvhQVYSPwaxAaQxp7+PltcjQCKAGfWyyWlJLY8aXIvodDJbB9VfXpB1bpBIVbLOY9KOrmW8vdEvKaG0ETpv9hkJpflEQWZjBZmLFU0mt54I6gyeSTaaKb1h4eDBDCgwmMiDQMrjby6PkAkSTVxyeB3D39s8CN0YBiZxzJBl0InMg3i0Zrn96DD2RPrlSs/bcgG+G/RTqs1C9Ianpl+rEwS2SyjRnDubzZqFPj4jIyPGX4kkCNVJTFd/7Ngxs2zk6VMncO3ZaVIFRhKJeNIEnX5JJOUsso5YMsOex+MxyjC7vaoy2OwJKqG0WaQ2t9+tJ2m5MZaWkz1uOdLmrHomIVvn68KY1zv6c8IIxCInBTAozaIvxXa7gAQNBXgmJkAsRdGmLyG8PYr2PYlBaw77UKFawqSTHW25B744Pxv8mbyFRAxhD1QQayTiWO8c9P2DjMD2CSWqmCsgPLjOpBYQhjVu+pKMKsiA+DCkEu4Zp8tvwrFoEr2RXcJBRmuvzo1YFgpJEEdLkoIROvvnJaiRiDM9LGkD4vXDCJ3RA8jgRrU4szRupSihtBW0dN/dREAJpd1Et4GOvV1CqRYK+vtkIN3OWaFZ2SXTiDphCOh0txoChCQIPX44s+b0tJqHWe0xDuO2RchRLmu2IYWn2TbDCou5KPyb4c3g8JrQNk+gy5B0difkytsIJ1RCaefvtHIFs825MmaW0dkoV6TF5xA/srltZMD9JmdBS26SjoZoQgeGg5BUEdmDQCql0LFJYwBiyCSQTRxwcD96bnjRYTzaMiRHQEhW002/Ocn1Juet39k/BLZLKNWeeTqdNhnHmHWMJAhJEfr4UD1jLa2t7ERzttv2jBCpPcZh3KYKySLlrDVDCRlSyCxuLCSTOjo6DEFHZRJD3UgmvWlRQulNkVv7e9PwyJtezksfyKQI2nenfeeVnvTBYZtd5kTCCgb96Bck0abH4YPD9j3DyQRDJiEDL0gBPAnMyZ6GSmkACRj8UEXYMKjV0ggIbJ9QqkWBxEcWVhUsNIwmGUJyhKGaDNkyfpxM4IFwOJp3cxKThJOqltDnAj5lkrxQhtOTKg9ytwDleAGYcjzDhVjZQSYROw8UYExS5KDFwCZDYWvrSgmlWjR0ez8RUEJpP9Gvo9/eSUKp9rKLaGjj83dBME1KAcoJSkCZhSwELxcy9WTwQx3nxQWCyQy4zdiWOUqwsbpde7yG2EZHkaX6LzqBeM1tmmznkckrh+W5PxWIJABBWXIQmAWQ1cXt7TChgzzGdosSSttF8GB+v3pvrf4JrZ6iMerENv+sNuvxcTCvTs/qTRHYSUKp9hxIkty5c8eks6dyiQQJC027fT6fIZXOnTtnSBLr3uO6drv2eI2wzb83qzAswnpNNRd9kUggESuuuTDsjSTSyZMn5dSpU0adtFOeVEooWTVR/+vnd1X1WtieW/cWP+OY1XSdVv+t/yvWK2BvMR1DQo7FB7I0fU0i7ceks+/SjgDDcHmSIvT6ycHzJxmdwHYSx15BSFw3bCu60D+HR6c7bMLiakmRavtdvdt25GQO2kFW++bEwhS8ZghbPhczJuep+DS2kyCRbAajINTfPmBGs20SSztRlFDaCRT1GDuBgBJKO4HiITjGbhFKjC0uQqbNWZByKWMywpFkciD0hp5ABTzAHHhQMXbb4faLnUw+FsPo4z0qcBqpVPDwLubjZpaD2xn44OQhYeeMEVVJjMEm0daM+PWquTl9kYIg3lxmbUdaYL7POPedKEoo7QSK9XEMayDSwN2/+qiIfTzL3SKUmA2O6hqqlpjmnh5LJE7C4bAJ3yLBFAqFni1U3HDhe9b2PsKy4z9NP6REImFIImIzOTlpSKR4PG7USSSPmK2NxuZW1jZiRWVSIBAwuPD9rYa2rXchSiith0zjvK/te+PU5atXsnuEElXOxoMRKmZaVxSR0p4EUxb98yL67QyJM5O/VCmhX0pTaQeUNyxumnojwUcjlhIUgLx+Lhy/FKEQ5LoECwH6mhI3RlmQPCLh5sbigCqQ6i72363Jku1io4TSdhHU7+8UAkoo7RSSDX6c3SKUamFjA5yCiTB9gViykNkyY1kF8tEmMPyUiNoQ0sWwLkpFHa4wSCYw/YZgqZIsnHtjQ80G21pqf2O/tymHJVHEGQ0TjsRQI7yuvidVjykokWi2XcFn9EcimVRNEyxGKkujbac7Ig6otvyRIWzv3gNbCaW9vWOqSoVqaAL9CTZK9f26MzOKoxoVBP8udqoT87rf1s/rE4HdIpReRmN8fNwQKHyfZNLExAS8JgrmfqfqpnYhqUQyheQKF5p58++C97L1HtcHqfDvmNdjKY+4bS08T5JqVCFxzX0YFkjCjUQTC6/R8kXitQ8ODhrjbfPhLvyjhNIugLrGIdkm81lu+ig7EG5mQtkQQk1iUdv2NQA/NG/tHqG0FoQM4cok57BAMQ/lEksFIfUknryBdtNXJ7HigR8qSSUW9tPZhzeFfRsYe1cjDdBfh1rnoPkxVdAHZ3+dhX+zfE3yzPTNsU0Tcy6GZFsllqr7V6+HpBpDAr3BDkOqOTeZWdn84Bb+UUJpC2DprruKgBJKuwpv4xx8LwglokUShSocFpPBjNnLEApXgE9QHqnQi5CSFrhkEoaQ4UOKqU2djOdGKlwzCAeZRIM7lxfEC/yXDlIpY1Yjn1l4RiblcF28NotEY2a2HML++PAiieaEKssT7DFm5aYTCvURjbaZDa96rUgxv0NqpLVwUkJpLVR2771isTrw5C9wkOByrXbA3uAnOVAtlfj3tGLuFR5vOwTVG5yCfqXOENgrQonECZU5LFTjkGxhWBdVSzScrl34OT2WmMmMnkuW7xLvZ+s9rg/SgJohflaYGq/TClvj9fHvsZZQ4t8kVVjd3d0mSxvJJItQoi8Sr52vud6tooTSbiH7/Lhsj3kvFAp51KXdqM2ef7r1Ld5HmQwGtfhb8vvhZYO/By2HFYG9JZTMZOgq4bKC+5qFiqVUYgZ9DJtR7SRjUyYSjCodFjeUSoFwr9lmv90Jg2/2cdmPdVFlD1+hg1Ty8JosISqApQRVVgGvGb7GNb2R6F/Gc3e6fOY6uB9DAD0w2GZGPCbAsXxguR+X3ShKKO0GqnrMN0FACaU3Qe0QfmevCKWXoTVpNjkTADNhExa3umamBEM0Qc1EtVITOmgMY2YWOc4i2CktNfLSqvS2ibMjTg9mSGBEuYFJNTPOUZK6lWJMsvG7LxfOVpRwvoYgQ+fPyGGNJDaFc60K0OmORAUWz5vXQf8ozOVAiVU9V77nxIPYjRTuRn2FhxSvazdJpNrrUEKpFo3d356dnZEZLAw7i0RapL9/wJBA1ZltdmDogcHOCW+hFQxQKvicyqOqYoODFs6msVPHgThDaDiLzUErQ2VIUHGb3zWdQqyZeYj7a1EE9opQehlp3o8Mh1troZk31Tz0WmKYF/elWTVJGb5nLTwmB9V87feDiN/ApJqhY9xvK4UkEc/v5cK/Ob7Pv7eXr4OfWYWkWSaTMefF32fhmufKc6ESiVnbSBxx4Xt7RRIooWTV0u6t8/mcCXOcmHhqQhaHho6h3WZLz7a86qGFW/sZcVi9d6r9BLbP3Jf3l0XE8vXY2Cja+BiyJh43pOTzQSv2w72nbfvu1efBOvLeEkprXTvVOiRbWIyPEJRL7BubEDBMlPLepDUDX+NGNtvV+7XJKJfYL7fj82qUQbN57/n9bA777B++T7UTCanNFtMfR8iepTri96rv5czfFf8Gy0V8vjqhzfOkJYdVzN8eJrh5flWlFSMhMKGNUDYb1nyf28yCV7WdqP5tW9/frbUSSruFrB53qwgoobRVxA7p/vtFKG0Edzr+1ITIcR8qf6jyyaehYkKImCmmk8Y0qOhYIb7b5UXYBMiZtXyX+LDgg4TeTNxnK6UADyguJHmsDiK/bzI9MFOGeUA14fwwuIcsmIUPxGbMyFBdZbNXH0ZUU7mgtHJBJkx1Fb2j9rsoobQ3NVC9/1bkwYP7cu/+XQwEmqWvt08uv33FDJw5q817yxpscs0BBwepvJf4mioGkkc5DFzQ1QEJWzBhNNyHhZm1OHh1Y6Bdwqy2GQCD0LTj/nM5maHFZsimvbli/ZWDiMB+EUobYcEMcY8ePTK7kNShyoeLlfGMfwdcONDm3wAVTLzXGSr3crEG5Pw74H5bKfQ8Irn18t8JFSI8H65J1lJdReKIxfq7pILKIpFaWlrMb1vqKr7e76KE0u7XAMn9mZlpuX37FsIZu+Xq1ffRdjOcptqOW0SRdZ/wfuL9ynvKifa5qm6qhsvzPd7r165dk6mpSXn//fdh2N6J9xj6WZ1oKKKvQULJtO+YSOC9qKVREdh/QmktZAvIOlhV9FRVPVWFTxL9dRIz5JWqE1vcZqY4B9Q+/KMggcoQsRcJo9V9wbHyffqqVokcfvv1har/IjKvcW0VWk3wnFh4LsZeAn0oFqqLTEgetqsWG9UJCBeUVf5Qr/mcoXpUIzU3sw+/P0UJpf3BXX/1VQSUUHoVE31nDQQOIqFEVQ+N8VjMDJ/xIoIn0Wrcc6mYkiLC5JhxoYKZCc4mMN65YmYZXrxIhtqR8Kk+zLb2cOAsBh9GlPDWpk01CpBKAbMZPjwoQ0ZZxHNg4WuaaZvXIAQ4l0EVVdX3aXW9jw8pc5L4RwklC4ndXZPc4WB5ZGTYLBww0EPlzJlzcuPGdaHnTG9vj1E3VFUYftxzghnvGAYaFaNk4ACZx1lcWjSDWir2uru6JQ8yKpEA6QliKYhB9uDgoMRXDZKdLqcJlwiHwhjktm1ZtbG7qOjR9xqBg0goUYmUSlUnCazBNwfbXFioViKJQ4KJ2xxo817n9suFfx/cl8fZqu8Sv8uFSqJa9RPbfv4eiQB+RmWRdWzLQJuv+TfNwm2eI9fW9svnudevlVDafcSpPJ2EV9jTp+PmPjl69LiZAKC6jSGR1qRBW1s7uiFNkkwmTLvuhCrP7/PLAvaZBbna0hIx6tVwOCLffvO1USmdv3ABIZM9UCmFzDELmEzIgtTkfUlC6fz5C/je/hOXu4/yYf2Fg0koGd8hhsaBpKlu00OUSs7VcGf04YurfXi+X2bfHP0W9p1L2ObaKhWE75MQMu8Z0mlrvkskiBhWZ4Xg8bimj24mItzGSJxZpS0Si4SWFYbH90gesXD93AuK5BdtJ/ZGjWRO4KV/lFB6CRB9uW8IKKG0b9DX1w8fRELpdQhStVTMY2YEizUjUmbIHJaXCx94hVzqBTnsy/ts9JoPKWahswij/5+9swCUusr++KG7ux/d3Z0CCogtYLfr6uruuuv+jbW7cy1UxAJFRRSRECQEpLu7uzv8n8953McwzJsXzHu8N+9eHWbmFzfOb969537P95wTeG1sEHFlPmHJUCsMJZtmp8uiQFNaLx5QSp0nFBtzZZsF592ydbNZxticli1TTiZNmijr1q+TRspWAkzav3+fbkgK2QYVdwc222yQy5Quq7+rbMZo2rFTY7VosNbSusmAtbT/wH7Zp9dlzZrFNiMH9PMR3WwQ/LiAbkJwrwOwYkPiS8aVQFoElBJ6GvztwB7i5ZhBvDsQKvB+ACGuc2BU4LnEfGbjQLwjxyIJvAeQyQFI7jzgEmyotF48oJSyTwjQcfGSxbJ69SrdNGt8RDUiASrye+E3BeDPb5OSTQGgk3o9DKOTaixAt8iVM5fsVYAJlhPMVdht/K6mTpmida6WevXrKSOvoG6QCfiuhjarK5P9PQBktm7dRkqWLJmyg/S1n0cJpE1AKSGBABrhFkfBqEtYCOUhmVcB2dMc8BR7nkDYakDmR56MAihE2ItQ7v1ZcbfT8BIE0naAEhnZAg3EyWgyVW7xgFKqiNk3kggJeEApEULyl4ikR0Ap9rlh7rD/Tz3GcItRuHOJ+RWEs1IQ5yawjjO+BJ5IU589oJQ6j4NN7ooVK3TTAJMIP39lvKmbA5bpBQvmy6HDh+TCCy+SgwcOmlscbCTAIzbNWzZvNrCoXLkKaqUuaXFYYGfg8nZS68HVgRcb7927d6nbxWa1vGWxeDRsePNpQFfcg0qXLmOb5dQZsW8lLUogPQJKyJENe2AJ/p7Yc4HXxfc5nDU6+Fzw9/jqPN/HPaCUck+A3yKv33+fJMuWLZXy5csbm27VqlXGHCpTpoyBSxgLcGtbq2zUY8rGyJc/X6z7pM75uDDnzp1LGab5pUKFGJunMRTMmD5DiLvXrHlLMxysWbPagCcAq6JFihqghLGhZctWHlBKuUecBmpOn4BSrOAC5u5THwOOBMg29NGACxL5MbTubUfPOHXGl0TWnfqXeUAp9WXuWwwtAQ8ohZaLPxokgfQLKAUNxH9NkgQ8oJQkcSXrYjYbWJ4BlDREe1zg4RPHNSPQkaOyYOF8i9FSvXoNc7Vhg0BwYlgWO5WJBKjEBqJatWrGWiKeS3YFm3Llyq3MI9Kta3wktc7h+oZ7BW3t27fPmEwATViuK1asZHFdYCz5knElkF4BpYz7xCIzcg8oRUaOoWrBZZP5dvnyZTZfV6hQQQGl2PkephFuj8zLrAPMx8zBLv4dBoFsCjTlV/bRMWWUHjp80JhJGBRwcVu8aJG5ODdp0lSZHsfNnS6z1oGr2x5lPcFsoo3atet4l7dQDydqjqVnQClqHsJ5GYgHlM6L2H2jISTgAaUQQvGHzpaAB5TOlklGOOIBpZR/ygBEbCgIrsrmAlcGNheHD7MR2Stz58yRjRo7o3Tp0hp4tbhtDDgPC4kgwVi1c+rGoVKlSnLw0AHduCxXZlMec4EgDhMBt3GbAIBio8FmZceOnVY3bZOuvHLlKmfEfkn5UfsW0qIEPKCUFp9KyvfJA0opJ2PmaeJ7wQ49rsyjkhrXbv++/bJ+/XrLxAb7dPeu3dqBPy1hQvly5ew6zhtLVdeDwoWLqOFgn8Za2mYdxUW5cuXK5iINWFWtWnVbB8iGmFtdLw8riLV27VozKMA8hQUFG9WXaJWAB5Si9ckmNC4PKCUkIX8+tSTgAaXUknQ6b8cDSun8ASaz+x5QSqbgkngboBCADy4yLngvoBHHp06dqmnTt0jTps2MRRSbSly5TAoGHVcWE9dxD6wljpGemjgBWLuJ00GdkLeJy8G1vIixQd0UruFerk8vLjrWcf9PxCXgAaWIizRdVOgBpZR7TMzJzLW4qDH3Mt+SSAHm0q5dO80tTQ9L3nx5LaZSDjUqcN3Ro7HrQZYsZPHMemq+jw1Ez3fHUqVuF7OLNYS1gDZjA3JntfYwVLh1JeVG6ms+fxLwgNL5k/35bdkDSudX/r710xLwgNJpWfhPYSTgAaUwwoniUx5QOj8P14E9ADwEciXGErE38uXLbxsEesWmg40D7CbiI+HmhkWbjQabBw8OnZ9nl55b9YBSen56ye+7B5SSL7uk3unmbebugwd17lZgCYA/v87tBOkOLIBOuCrj7ka2NuZ2ACnAf1+8BE5LwANKp2WRsT55QCljPe+0PFoPKKXlp5OG+uYBpTT0MFKxKx5QSkVhn2qKjQZuEryzeWADAsAE8yhHjpxxWaM4RgDvLVu2mEsFsTfIQEUGOL/pSP3nFg0tekApGp5i0sfgAaWkyyw5dzCnn3Y9PmYx8ZQzajGWmL9JkBBYiJGHu9zBQwfVlU0zcmosJUAnGEe+eAmcloAHlE7LImN98oBSxnreaXm0HlBKy08nDfXNA0pp6GGkYlc8oJSKwj7VFGyjmTNnGOuI+BfETWKzQQwOXBsAjCgHDuzXDD+b9bpD5t5wRAN4AygRrJV4GX7TcUqg/i3REvCAUqJFFVUXekApdR4nc/u69WstftLWLVulefMWUqJEcUu6AFAEYBRY5s6do1k5N1p2t9y580gefRGDiTh7vngJnJaAB5ROyyJjffKAUsZ63ml5tB5QSstPJw31zQNKaehhpGJXPKCUisLWpnB92KvZeSZMHC8HNV00KaIJtp0/fwHdhKwzthIbC1wecJfYpMG6XSGAd161cJctW87c34izoR5zwj+ZNQscABNsJ9wocmng1ixZtQ5tI2fOHFa/q8e/Z1wJeEApYz57Dyil/HNn7iWA9uIli2TNmjWyTQNot23bTkpols0tWzZLEQ28TfBtWElkd8OI8MfUKbJh4wYpWaqkFMhf0OZ3MnfCVCWIN4UMn8TVY653bFZtytYI6mCu9+7PJqoo/scDSlH8cMMOzQNKYcXjT6aiBDyglIrCTs9NeUApPT+95PfdA0rJl11y7ty/f7+mgd4m8+fPN+ZR0SLFpEqVqsY4WrBgvlmyj6iVO5duFHT3oJl/9ltsjcwauBXGEswkLNiH1EXiqAX5zqzxlDJJdnWdY7OCm9y2bds0YxxZf3LL6jWrpUTxEpZWOjn99fdElwQ8oBRdzzOxo/GAUmIllfzrnLFg8eJFskvd2E5oQoVymtEti4JBZPgsp4aAYkWLaRKGKTZ3lytXXhbqnM98XUxZqiUVeCqq55nncXUmsDdAUVY1DOTJkzcuGPfBgwcNWAJIon7mep9wIfnPLX3c6QGl9PGcIt9LDyhFXqa+xuRJwANKyZNburmL1LHLli2TOnXqKLW6RLL77QGlZIsuXd/oAaXUfXwE4F62bKnFRcI9IquyjJo0aapW7BKC+8OOHTtsI1K5ShVzfyN+EhsH2Efbt2+3AK6ZdZNRokRJya2AEQyk2IxuxxVkOmwg1WGNz4TbXF51scDGXbp0aalcqXLqDtS3FlEJbNy4URYsWCA1a9ZUhlrZZNftAaVkiy5d3+gBpZR/fAA927ZtldmzZ8peZSplzZLNXJRJoEBihSpVKhv4M3fOHAOZqlWrLjNmTDf2UlkFhnBnzp4tu60BxMjj73zVqpWyHQNBmTJmLNi9a7dkUgNCNr0Ot7iKFSspy7WCT9KQ8o832S3s2rXLkm4UK1bMWGnJq8gDSsmTW/q/ywNK6f8ZJmcE48ePl+XLlwvzRrVq1aR69erJqSai93hAKaLiTHuVTZw4UX7++Wfp3r173A8OFgOvpBQPKCVFWtFzrQeUUudZ4qrAa968OTJ7zizJmjmrBm89bgykpk2bGeizcNEC2bNnj7qvZZJmGnuDDcaqVats4wCotGHDBtmh7hL7dbNStWo1KVSokOxR97k/NRAsoNLy5Sts45I7V05zqYDlVLly7CaGRcmX9CuBmTNnyqBBg6RLly5Sv359GwjuLkmNteIBpfT7GziXnntA6Vykl7h7Ca69Ud3X5s+fa5ndcF0+qSylEzo/E6y7Ro0aEhNTQVboPI1+Vqt2HZk8+XfZqDGUcHsGRMJdGVc57q1Ro6bMnTNb1qxdY+c5t0mB5dx6L+dz5c5lhoKYmIrGZPJub4l7Tql9Fe6PvIih5V6s7azpiS8eUEq8rKLrSg8oRdfzTOxo+vfvL+hr6HiNGjWSNm3a2J6AuYN5BENFahcPKKW2xFO5vR9//FE++ugj22TARKA0bdpUGjRokKSeeEApSeKKmos9oJQ6j5INxVFNDb1kyWKzOlevXsNYR7g75MypiqWCTVu2bjGGEQtFo0aNdSHJp4roanN3yKUg0SbdeDh3hwPKTKI+NhG4wBUpUkQZTnMVpDpqrhVr160xkKlt2/bmSuEDeKfOc06pVsaOHStvvPGGui7WNkYC7dSrV0+D/jZPUpMeUEqSuKLmYg8opfyjZC6HRXrw4H4DfHBBhkFO/CQMBQBKMIpgqQIGswZMm/aHnSeWXiygdFQZStRxUOd2jZ+k/2VTdmrBggVtvqceNhNce1xdnssrO6l8+Qq2DqT8CH0LyZEAYNLs2bPl66+/NmCxbdu20r59e6lVq1YSqvOAUhKEFVWXekApqh5nogczbdo0A5S++eYbi82HUbhdu3b2Yv4ggU9qFw8opbbEU7k9GErfffedBe/du3evtd65c2cNBtnWPhctWlStYjEJ9soDSgmKKCov8IBS6jxWl056q1qfd+3aacG4AXnYILg004fUVe348WPGUGKjQGBWNhe8s4HYs2e3gUSZM2exwK7EUcqaNZtSYotr/KTCZgWlHbLGAT4BLtWpU1c3IPn9hiN1HnOKtTJjxgwZPHiwsdRgQlBat24tF1xwgX1mw1mxYkWLpWIH4vnHA0rxCCbKD3tAKeUfMHM5rm3EtINBBPBDUgWCcO/bt1+zc5a0uZo5PXv2HAb0Ay5xHwYBkizANCWGEvUAKlFHPjUsGICk8fFgKbGRwOjA/M68D3DlS9qVAG7sixcvlhdeeEFWrFhhBgGMAQBK6Oa8iIUVvnhAKbx8ovesB5Si99mGGxl7hSlTpsgzzzxjMVeZ+2GnuxesVjd/JJWpHq7dcOc8oBROOlFwDjeYefPm2WI1btw4c6vp2LGjbTYYHkyl3r1720hhM6CIhKJGe0ApCn4MyRiCB5SSIbTk3HLK5Q23t5P6Iogqxb4rCMR7XOG8ZfXJZHEz3N8sYBGF77CTCMDN5oUMQGxG+E6hbj7/+edJA5xC/b3bhf6fdCMBYmktXbpUXnrpJRk2bJj9Xlq0aGEucAwC9gPzPJvNcPO8B5TSzSOPaEc9oBRRcYasjPmZl5uv+TtkHnbHmZd58d39jQIgMfdzjyuxa8IJMzRgdMimRoOTOpcTEI9VInY+j3Whjm3r9L2uDv+etiQAe+3ll1+Wn376SRYuXGi/gVKlSknPnj2lV69e0rVrV/sN8PsI/C2cHoUHlE7LImN98oBSxnregaNdtGiRPPHEEzJp0iRZt25d4Cnp1KmTzR8XX3xxbPKHU3NH7PpwxqUR++IBpYiJMm1WhBULJBPrB4sVwVthJbmYKQ0bNhR+cBSON26MK03eswbjAaWzRJIhDnhAKRUfs24cHGzkJn0HJLl31xvO8wo+znmOxwJGf9pnvqOEumtj7wOkigWfXJ3+Pf1KgADuMFABlHCdgPmALz2ZoSiBgFKBAgVsnifGVnDxgFKwRDLGdw8opfxzdvMvLTEHUzjmjrtjdkL/iZ2nY88Hn+MeB05hNGAuj68E3xvfdf74+ZMA2VrHjBlj3gRffPGFgYXEUCLwOq/y5cvbnI1+zitHjhxBnfWAUpBAMsxXDyhlmEd91kAxJP7yyy8yZMgQ+eGHH844j+7n5g9CIRBnibmDJA0pVTyglFKSTUP1stn4+OOP5fvvv5cJEyZotqdDcb2rotmiWrZsad/5oWHFhiaNJQTQCV9+igeUTAwZ7h8PKGW4R+4HnI4lMGDAAMGnHldn5/rGcNiQMM/DaMDlkXm+jGaGYrPJPO+MCB5QSscP/xy67gGlcxCev9VL4BwlgFs7DIOhQ4ea8ZfMb7iwuIJLY6tWreJexENl3uYVGyvFA0pOVhnt3QNKGe2Jnx4vhBHmjU8//dRiaLLXh9UaXNjnu/mDjO+OVMJeP5LFA0qRlGYarYsf2KxZs4QA3W+++abGaNkV11M2GC6bBJsOByiRZQSabcyp+EoeUIoTWYb64AGlDPW4/WDTuQTmaMrxkSNHmnKxfv36uNGwIWGeB0ACUIKVCqCE4YB5HgYTxQNKcSLLUB88oJShHrcfbBqTAIwz9PRRo0YZoLRkyRLZvHlzXC+Zt5m/eWHkJQYq8fGYu2OT7XhAKU5YGeyDB5Qy2AMPGC4sVeaNzz77TF588UXzQHKxkgMuM0Oimz+IreTmDkCmSJZM6gIVhiwbyaZ8XedLAixWZBfBav32228borlPU4sHF1whqlevbosWFmvAJX5wbDY2zf9Kdq2dJHkLVpB8RaraK/h+/z36JLB55VjZtWWBZC9UQ3IWqSO59JUWCgoWljle0L/57ouXQDgJODcR3Auw7ERjIcDrzJkzbZ4n0Gso5QJjAfM8AX2Jr8U8T3YQjjlgoXLlylK1alWb+/3fVjT+Us4cE/EVf/vtN0s/z3PntxA6VsuZ96XUN35zbJxx2/TFSyCxEiBYOVZ6GD/M9+mtED9p+PDhMnr0aMvKGl//2RTyN+pe6OjlSuaU3Fl3y46Nf0ihYpWlRNmkZXKOry1/PG1LAEBp3ZplMn78BNlzKK9kyhmTtjvsexdxCZAlEu+jnTt3nuGBFKohErS4eQNXOJK3VKtWzVhL56rrZdK4Oulv1g0lJX8sQQlg9cAdYvny5RZXKdwNKHNYPxySeWjDSDm2c64ULFJR8hf1gFI42UXTOQClLevmyKHMJeRI1nJyPHvK+d8mRW5sdgBA2XDwOteJMClt+2vTpwScNYeYciy80VpIRc48z+aEWErhCgwl5ng3zy9btkwWLFggAEooGWxU/N9WOAlGxzlYbSNGjDClkmDAuL+fL0CJ3xttE+Mrln0RHTL2o0h5CQCokxUPgwHzfXoruCnDLCU8xeTJkxPVfVxYmL87tKkrVSrkkWN7F0rRklU9oJQo6aX/iwCUFsyfJ+9/pGv+0i2yY09s8pX0PzI/gsRKABCdOQ9AnYQ84QrrK4ZEGEvEWLr77rsteQs637mu+ZmaNWvmAaVw0o+ic1jm2WDwwwv0zw41RBdDyflatqmTU5rVKixVqtaSoqVqeIZSKKFF4TEApZWLJ8m0hTtl/sqDsmT92f6552PYTHwg7QCf/Fb9pvd8PIX01SYWa164/IZiaKav0cTfW2LkMc8zxoTmef5uiMPh5nncnrF+AyZhxfKAUvxyjqYzAErffvutACiiJ6Bsnq85lbkd1ilzOyw6X7wEEisBNlPMfzAzXVbTxN6bFq6DWcXmEHe3wNAU4frG3whzeN3aVaRJ/bLSvklBqVStkQeUwgktis4BKK1csUR+HD5K9h7KLdnzpA2jbxSJOM0PhWzuZPnlhTdSuMLaTtgDsgB36NBB2rRpIxUrVrT19lzX/EyXXXbZWYASlbpN2rk2EG5g/lzqSoCFFsv8qlWrzAoS3DrPGuQSyw4bL5gf/PDKlSsnbevmkua1C0nFSjWkSEkPKAXLLlq/AyitWTZFFqw6KMs2/SlrtmVNE0Plt8qGg9gwvngJJEUCzIMJAS1JqS+tXcv4yOYJqAQbK7gEzvPM9czzAEpYq2CmoFx4QClYatH9HRcbssSgmLKpPZ+sT36fxHZkbkcf8cVLICkSIKZIemUowa5i3uaVEKDEHg0diGxOMRrrtFJMCalZuZA0qZVDYqo08IBSUn406fhaAKXNG1fJnFnTJFveylKkTPN0PBrf9aRIAF2PoNwzZswwRuPq1avPSMbi6sJAQ6gD5gle6HhNmjSxrG+wgDkXiZJp5cqVZwFKTFTEJuH9XClQkeikryMyEmBzQXDuzz//3AJ0B9fqaHAolGw0sFDjX9mrVy8peGKu5P1zreQr5GMoBcstmr8DKO3cPF+yFqgm2QrWlByFakXzcP3YvATSvQTYjBDcFZCAuHnBhXUdKxUWfIA15nllKts8zyaGVLSOpeQZSsHSi87vY8eOFV4omy5+Fr8TX7wEvARSTwKEpXBz99y5c8M2zCYRY2/Hjh3lqquuio2hlG2P7N48QwoX9zGUwgovik4CKO3bvUF2blkuhUo3k9JVukfR6PxQwkkAw+GwYcPMGATL2LHwg+8hmxvGQuaJzp07G/McMBp8BwNOpEompTefBSjRgAOTItlYpDrt60meBKDDfffdd6Jxs+L8swGRsAZCFWaBIvMPm4hatWrZO8olSuaBtcPl6I7ZPih38kSfbu/aooDSrm2LJE+xOpK3RAPJpy9fvAS8BNKmBNiEEHuDjJ4E5QZcorCeM89jLGDOZ56HhURQRuZ70sqicHD/vHnz4kAFDyilzecc6V4R0BPw0QXkrlmzpv1mIt2Or89LwEsgfgkQvw79nBesg+CCIYDYYg0aNJCGDRvavI2Ozitbpt1y/MBaH5Q7WGhR/h1AaT+A0tYVUrgMgNKFUT5iPzwnAQCloUOH2uuXX35xh+2dGLPoeU2bNrX9PHMEeh5MdMKFpITBKJMiWmcBSq5XWDBRQKGPQiMNVQCcUFChJwNIOCAq1LUcox7qhKpFQcnlvkDXFdgxxH/gWo7DluK6wEIdzl/atc01gYwqZ4HlOuoic1nwNYF1OlcI6g4UiwPVaMe1xTjd8cA6gj/TLlZg6nZKvWN/cS3neNFHxp2YwhgZBzQ16qSvge3QR87TTqA8SCn9/vvvWzR4ArbSHgsUPy7e8cNmA9GyZUvzrwRIgvpOWT/nc5/lLTEPJ8qu2bJqrOzZtljyl6ovBUs3kQKlG0fZCP1wvASiRwJYq5yCgXszaxTzPGssGxHmeaxVzPOwkvCfB0jiGOXXX381QArlw2d5i57fRUIjcdn9XNwsgEZ0C1+8BLwEUl4C7FVgh06fPt3m7/Hjx1tSBVp2e44iRYoIAfPRy2El4T3A51h3lT/lwO41snf7Yg8opfzjSlMteEApTT2OVOsMAfyJeYi+N2bMGJk6dart+8E5CGFAPEwMQwTsr1u3rul5Kd25sIASoA5ZE8gKRudDFQALAAnACNAwJjeU1/gKwfIIGrVixQoDQkqUKGGIGZMlBeUXcIXUx0ywHEfhZSJ1BQAFZRnrK/GAUIZB3Yj3g8LsCkAYGW8IcIdvcv369S1rCBN0MBhEner+Z7GFaBeAxhWuZZy0wzjpC+MEtEmoUBftM17uwd+Zvrpgk2R0IG4B7mgAS4kpyJd+1KtXz3yo3WIEWkk7buGhnUB5OEBpypQpArWW4H9ci3tDBw3O1bx5c3N/4MfonqNTKj2glJgnE33XeEAp+p6pH1H0SiAQUGKtZY1inscwwDzftm1badWqlc3zrJesQ1yDUYjiAaXo/W2EG5kHlMJJx5/zEkhZCRAIn7n3559/tg0i+y1ndGffgWvbRRddZMZemKUcY+PIXiDWaOwBpZR9Qmm3dg8opd1nk5I9++233wQ3N2IfrtbYSeAdYBMwF5kr8DIiVhK6H+5ticErzrW/YQElABuAh+HDhxswzDyM7QAAQABJREFU45RO1yhABgAQnXWgEvQqgBu+hxoAzBhQ+GnTphlwBIp24YUXSqNGjaxagB1S3w0YMMAo+1hVu3XrZmi8a5drAJyoA1QO4IT7iVoeCDwB5DBBL1q0yMCpm2++2QJRMY5QgBK+y4AtAGiwlByYwhh5MYFDIwOEIVVn48aNbWIPBG1cH3mnn26s9JX7WQx69Ohhyj3X/PHHHzYGwB42AIkp9IH2+/XrZ8ASGwbqd20BWnGedgDsXHGAErRaADlkDwUOazUWSTYcbDIA3IKLB5SCJZIxvntAKWM8Zz/K9C2Bbdu22bqFcsHGhDme9Zf1kHkexhHsE+Z5mEfM86EMPx5QSt+/g+T23gNKyZWcv89L4NwlgO7vmKW8s6dgjkY3R0dn/majyDvH3d7kdMseUDoti4z1yQNKGet5u9HiFgs2Q+xD5gvmCvbwsJKYK9D9wGFSs4QFlIi5g6Lx+uuvWzo6OsdE5tyoAF1g1ThgCdDlhhtukGuuucbQMYCPwALAQmyHr776SqB0gqih7P7f//2fXHHFFQbyAPQwuT700EOmGAP+3HfffXLjjTfGgUC0Qx3ff/+9IXQIkUBTXIPC7AoxJJ577jkDW2jrjTfekJ49e8bV467jnTpxBxsyZIiBPIzR9R+2EqAN1/CiAHIxVsAzHpyTiZ089Q/XAoyRjpcYBTx0WEX//e9/zdLAPQBe/DAIoOrS/XEfsqXPjB/Fn3fXBgtKu3bt5OGHHzYwDWsG7WCdph1AJOiwtMMmwt03f/58+fjjjy0DEHU6II8NRkLFA0oJSSg6z3tAKTqfqx9VdEkAYwEbEdZX4iABJrG2Ylhgnse9jXmedSRc8YBSOOlE7zkPKEXvs/UjS9sSQNfHwMvcTRwU3FfYU7C30CzcZiyHaRC+eEApvHyi96wHlKL32YYaGfgAmAsEGFhKkHTAFUiehY4H4eV8lUQDSgBJffv2tYnOAS0MDLAFVysYMgR8xlcPsOXaa681upUbmBPCu+++K2+//bZgUcW1DQX3kUcesethI8GOgaH0v//9z4AWLK0PPPCA3H333XYOcARhvvjiizJ48OA4FhNB6qgHlhKF9mbPnm1gFEANKP+//vUvo/y7PgW+cz2AEko5beJ3yGROcePE/Q+3OJRu6KgAN3fddZe0b9/ewCcH3Lh7GN/jjz9u/aQPAGosFE8++aR06dLFYlqQUQcmGO+Ac1wDoEZAvk8++cSAOdwUAMoc2khsJNzSoLSxceDeRx991H5gtEM/2EjQDiwqdx/XkeWNZ8kxmEzIHOZUQsUDSglJKDrPe0ApOp+rH1V0ScABSrBUWT9wX2bNgBHLPI+LBO5twczcYCl4QClYIhnjuweUMsZz9qNMexJgv4GnBTo/ewbnOYChnDAi6OiEoAhfPKAUXj7Re9YDStH7bEONjPA9hMrBA4uwROh1YBFgCy6EQaj7UuNYogEllFIYMY4u7zoHuAMgMmLECGMDobCClj322GMGLrnrYPgAdsAS+uCDD4y6yTHc0e655x5jNUHVAtzgOMAO9H1YSDCUuAalGDAEMOfBBx+0a/jOJMyk+8ILL1iwOgAXQCnc17iP7127djUXMfoWqjhACSsBbn533HGH3H///XYpIA/nsSIQBAtGEYo32XD+8Y9/yCWXXGIATqCLHw8a0AyZcS2AFnLixwCwhTtaqEwqtIOcoLI5AKxPnz7GSOIZBBfqg0kGowtZ0g4ue4yZ+ztobCQ2FRTkyhiQsQu2HVxffN89oBSfZKL7uAeUovv5+tGlbwmwXrDWsC6xKYGtigs6gBIbklBrRrgRe0ApnHSi95wHlKL32fqRpW0JACgRwoNYquxxmLsJ45E0poEHlNL2U0653nlAKeVkmxZrdoASuAReT4DO7PfTQjlnQIlBACpNmjTJAB3ADSbCN9980+IVuUECksCOweUK966//vWvBq689dZbFkCqd+/e5o5GsGkooMQWAlCCqQTb6ZZbbjFgBACJugBLUIJg7wCgMBk//fTT0r17d0Pr+I5bHcydGM2EgBseTKL4qKPhACU3Bq7BDY26+/fvb+AYQNXFF18sgD6BTJ81a9bYeBkfzCDGizsagBXMJ8YLqBQcryipgJJzS0Te/Lhgcg0cONDYWbQDDY4+UhwwBoMpIUu1G7N794CSk0TGeveAUsZ63n606UsCsFoBk2DPsm6yvmGtwrgR6Cad2FF5QCmxkoqu6zygFF3P048m/UgALw+M4uj+6ObsCdjnBHo8JDwaDyglLKPovMIDStH5XOMbFfMEL/bz7OOZK5K6n4+v7nM9fs6AEoNiMsSfD5YMn6HaA+Tg/uYKoM8333xjoAoAC3GToOa/9NJL5n7VpEkT+fvf/24Z3RAW2dkAlGA6AYjgbkdcICZffAZhI8H4+dvf/mZBqYh2zmdAGnyPYQ/RJ9zriB9x7733xmUwc30KfKdNXN5CMZQCrwM8A1QCtHnllVcsaxzxm2BROVdArgcQY7xYjTn+n//8R8aNG2f3ofDjFsg9gECBhX4khaHEBgAWF+3AeKIdwC5iM9HOlVdeaWyrc/3BeUAp8CllnM8eUMo4z9qPNP1JgPUQ1qnLEJpYF+b4RuoBpfgkE93HPaAU3c/Xjy7aJeABpWh/wvGNzwNK8UnGH09tCSQaUAIUAbDBAuqomIBJKLTQ7FFECYBNEGjAkuuvvz6ODQQIA6UTEAhLKr5+//znP80tDcCH4NkEmuZ+wCisq7is4VqGS5nLWHbppZcavZ+2vv76a7sOQIrYTR9++KGBSQBKpMwj8jn3E2Sb7wSohk4aDOA4gScWUHLXUy/sI9wNoKgSr4j6kQnjpe2XX37ZrA1EXGe8sLiIiwS4BjjGeIllFMhSSiyg5Nr57LPPjPVFHR07djR5ff755yYf2iHYOWN3gb1d/5P67gGlpEosOq73gFJ0PEc/Ci+BxEjAA0qJkVL0XeMBpeh7pn5EGUkCHlDKSE87cKweUAqUhv98PiWQaEAJ0AjgBNCEGA0U2EgAP6tXrza2EDGDcC2DTQRbxsXpgYlENHJYSeXKlTPACTcxrKowaQCE9u/fb/GGCKqNTyCgDMotrCfaa9Sokdx5550WlwgQheDYFSpUsHvIigCIAjgDqHLbbbcZoAJzh8DcV111lYEqgC7x0UiTCigR4wgmEGAYAcHJhEegbPoNyPTFF19Y3wjuDaDFeLmW+8j6hhuei0nFfa4kFlDCvYF2ALVgVsHicu3g6geghVxxCcQ9kEB/Lji3aysp7x5QSoq0oudaDyhFz7P0I/ESSEgCHlBKSELRed4DStH5XP2oMooEPKCUUZ508Dg9oBQsEf/9fEkg0YASbmqwh2AquQBQAEKAGsTxgXkEa+b22283dhIBQYkpxDGCXAMcwVCCrUNsH9zhYDcRSBqACBe3m266ycAmXNQouI0B1ABYwYoiYxrXkeENRhPXEVsJ9hPgCYBN06ZNzU2O2EsE9qZ9ACXYVeFKUgElgpDDNiJ+BYG+YUrRR9zhGO+XX35pxwDYSNvMeJEhfR0wYIDJhvES1wnwzZXEAkoE5qIdApyT7Y44U4BptLNixQqZPHmytQNjDLYYwBIgVnKLB5SSK7n0fZ8HlNL38/O99xJIigQ8oJQUaUXPtR5Qip5n6UeSESXgAaWM+NQZsweUMuqTT3vjTjSgBEMJAAfQxDGUYMnALALYAPQhjV2/fv0M3CAmEmwmABLAJMAdYgoB+MCkgb0E2AMghfsaoBTgCuAPcX8oAETcA9tm165d8u677xqAA+MGxk/Pnj0NgIKtBEsJgAdw5p133pFnn33W2ED0gyxsuH6FK0kFlOgTAcbpFyAZTCriVxDPwrGuYCJdffXV5t7GeAHgiPsE2ITsGK8DglzfEgsorVu3ztqhDcAj2oEpRTuAWgBdtEOfOnXqZKBS48aNXTNJfveAUpJFFhU3eEApKh6jH4SXQKIk4AGlRIkp6i7ygFLUPVI/oAwlAQ8oZajHHTBYDygFCMN/PK8SSDSgROwh2EC4TgEUUXDvAhhZv369BdsG0AHAIY4RwBAuabCQYBkBGs2dO1fI4sZxFzeI+4n1A2CFO9zNN99scYCIXL5x40bL5AajZ/78+XYchhJxl2AcXX755cYOIoj1jBkzDEQC7CLuEmAPgbnpB5nfYOiEK4kFlADBuPbTTz81BhIxpZybHWAOsmC8v/zyi/W5atWqlrqZuFDIC7AH8Ix6SA36wAMPGBhERh4CZycWUEIetEPmuFWrVgnt4DqHXJE5DCba4blVqVLFXP5wv0tuRHgPKIX79UTvOQ8oRe+z9SPzEgiWgAeUgiWSMb57QCljPGc/ymiVgAeUovXJJjQuDyglJCF/PrUkkGhAqWTJknExf3A3cwUABPACFzBiAhGnh1hLZFUDbCF+EkGhYe0A9gBGBcfygeUDKIRLGAwnx/Y5fPiwxUp67bXXjG1EsG8YQGRLe+qppyxWE33hOhg5ZDijDgAeYjYB3hAMu0OHDlKtWjXX5ZDviQWUYBnRV+In0S/c2WBKwZgCrIFVxXgXLFhg4wXkwfXPFUAlxkC8KfqKzHB9Qy6AQYkBlBgXrCTa2bp1q+TJk8fApMCA4wB1uCHSDtc/88wzxtSCsUQ/k1qSAigd1bYPHTosx46fMBAtuC2As8yZM0l2Ha+9soeObXXg4CHhpeib/BlciX539eRQsA7ZZc8GKJdZXyEuPnUIsO3osePWv0OHj9hvh7qzaLpW6smZM7sFMM+ZM4dkDSGnw3rP/gMH5aT2KWvWLJJXf9O8h4rNxbM8evSYHD5y1IDXvHlya93Z7VrqOHjwsLYcemyhRkD/cuTIZv2MHcMhOX4iNoVkqOuDj2VT+dgYtQ+J/Q14QClYiv67l0D0SiClACUMKMRcZK0+dEjnLZ2HmR+Zh5i7SRrB+sXn4IykNmfrvaxpnEOPcPMX6zHHuYb7nTt+qCdE+7y4FgMO11JPcHuB91K/uwejEP1kDXd9YlwJldh1KrMlEaFNvlMH8Sd5D1UH1/By8qG/CfU1oX6EO+8BpXDS8ee8BNK6BM4/oMQ8dvKk9gPdVuf4w4d1rtX5Df0dfZpXLp3/sqsOm03ns3CFuk7o+nBE62Avga7OvoJ5l3vRo3lRX+7csXNqYH3cf0z1/COqex/SNYfrTKdXXZ15NVzhvsM279Oe9j+osHfJkjmLtq97Dl0T0P8TqjOoioh+9YBSRMXpKzsHCZwzoETbKEVkMCNGEuASDCQCcJO2HvYM4A8spD59+ghBt2vUqHFGl4mjBNPmE2U44VZH8G3iEgF+4FL36KOPynvvvRfHjEIpfeONN6w+FFAmD9hMsH0mTpxodQPaEMeJeEu42VFXuJJYQAmQhjaIW4QbHzGjevfubSAabRL3ifGi9Do3NFhdrqCgAja5GEwwsgDRGG++fPkSBSitWbPGXPxoB1kSkwq3u0CgDyCPdugjLwA+suQRYwmlOKklKYDSjp27Zc36jco626cLC6DJmSVrFpTrrPo8C0qxIoWkaJHCBnSceZXIshVrZPmqtSYTfcRnFatHJ/Vien9RradIoYLxgjvu5r379st27d/adRtl3fpNsm7jFv39nJScujiVLF5MSpcqHvsqWVzy5c3jbot7X6/XL1m20kCp/PnySrUqMZI/X56Q/Wcx26a/l01btsvOXXulRtWKUqJ4Ebt2ybJVsmrNeluAQwwtrr3ADyWKFda/qaJSslhRHcMuWb1ug/59HDLQKvC6+D4XKphPimsdpUuWkDy5c8V32RnHPaB0hjj8Fy+BqJZASgFKbAQwbuDyDcsYV3eAGgAW1mbWLgxQfA4G57mWdRfDE6AK1znjCUYZ1l2u4TiGr/iUe9rHGMS1sIlhCLMWokPEV6if+9BDMPqQoRYgiPWVdtF9Eir0h3YIF4AuwPiog1iHvKN7BBfuYawYozDAEbuSMXMsJYoHlFJCqr5OL4HUksD5B5SYx47onL5kSaxuu2nTNtm3P3Z+K1O6hJQtU1Ln3JJSolgRnX/zxjtPIzHmVYAg6lizdqOgd2/bvlPQ3wsXLGB6dMkSxaRc2VJSMabMWWD7CTW07lSvl82bt6vXyCZrl/bR6QHnw5Xdu/fKhk1bda1gXTlw1qUYwXMpiFVSdfGiRQtrnRiVw9d5ViURPOABpQgK01d1ThKICKBED6ZOnWouWMT2wa3tscceM0Vt7Nix5h7GZMMxsrWh9AUWlEwyk8HWgdED24e4RwSURhEFqCJ+EmAVoAuKIywm2EFOeURRhDEEEwqACuSYmEHcC4jC93DFAUo//PCDATHEccLFj8I5JjjaIF7TOGVI4dpG38goR4wiFE0CbgMU4Q4HQASDKNBFkLq4Z8OGDRYb6pFHHjH2lBsvcqEt2iEbHLGicNUDiGvXrl2c3GifGE64AnLvfffdZ+2gJLsC6EY7MKlefvlluw7gC7kGMqbc9Qm9JwVQWrhkhYwe97usUDBoq07KwSUzyrKi+oAaRQsXkuoKtNStVU3q6Itz7pl+/f0I+f6n0QYYhgJduBbrQB5l/hQskF+KKqDUtFFdqV2rquQPWjhgOm3avE2mzpgj02fNl1279+hrr+zes08XIwW4WCRy5VRwKK+CUwWlUf3a1qcaVSvp7zjWHZFx/DZpmnw55CezmhQuVMDaa6zXMobgsnvPXpm/aJlMnT5HFi1dKX0v72H1FiiQT774epgMHzXexhZ8X3zfGzeoLU0a1hHaW7B4uYwcO0mf8WbZq4t2YkrVyjHSoG4NadWsoYJnpzMLhrvXA0rhpOPPeQlElwRSAlAClFmtMRYxcLBu4t7OespaRwFUYu0iuytM4vr165/BQuKehQsXmgs3wAwZTZ3xhDWXGI4YWXBtx3gUH5MH4xbX0g/AIXQR1uf4jE0YqlhraQNACaNNB2U7MxYY0fQJdlRCBQAJQIikJugKbD4wgJGFlriT8RXuQ2/BOMX9pUuXNl2G/jpALb57k3rcA0pJlZi/3ksgLUng/AFKsJAOHDgki5eslBmqWy9dtlo2KAC0Z+9+2++gz8POB0QqWDC/VK9WUerUrCoNG9Q0gCfYgLB//0EFkDbLhEnTdZ5dIxsV3Nm9d5/p3MzJ6OM5dR2gvvIKKNWoXkmaNKojlSqW0/kyluGKZ8DS5atk2vR58uu4qdKxfXNp27qJglolTM8P9+RWrFwnv0+ZJXPnLTajc/C1mRXUpx3AKfYKMRXK6p6jitSrU83m9uDxBN8f6e8eUIq0RH19yZVAkgAlABDi8ThlLrDR6dOnC5nVAHMALGDPYMUDXCG+EYobMX9gDQWjuShl3E9cJECjOnXqWBykVq1amTXvww8/tJhIKIIoVShl1113nbGCXB+4b8iQIcbGAYzhOkAY2E30OaHiACWyxc2ePVtoG8CKgvKLNRXLKook5xkPrnXEaAKwYqIjgPhXX31l40W5ffXVV00hDLQqch3jJZg24wVEAjT6+9//LpUrV7Z6wgFK3A9IhDKKzAC0ANewsga2w3gAr2B2AdQhA/pEfCmUaQfaJCQXdz4pgNL436fJBwO+lmmz5snGzVulkFoUAH6sKDLEGOgfNFZcsFhcel/UWfpd2dNoqY4O+9hzb8nzr39gFNdcuXIYcOT64+rC9ey4UlQptHHtVRfLZb0uUOZQRVvEOM7isk4XqKnTZss3w0Ya2JVHlXQos9n0Ht6RBy5oBxV4os5WzRvJBR1aycUXdlLmE9bhnFQln371vTz05KtmeWFcLZrWl6svvUgu6tpeXeSy6u/1NJ12y9btMnbCH/KttjlhynR58sF7pUe3DmahefbV96X/wG+szlBg2Z8qn2P6/LCQQPWlMC7kdEGH1jJ24lR57+NBsnjpCusLi2tmdfcLVxrVryUd2jSXXt07Skz5MuEujTvnAaU4UfgPXgJRL4FIAkpunmf9h4HMOywjACTctFmzcMd2bmuAJIBJMHtZv53hA50CF3bcvAFXYDBjVKJgQAIMmTNnjtx9991mOKHeUOsbMQVZM3/88UcDsACHYEzHxMRYXYH/sD6xTpNFFSMRaynGGzKmUgdtjlOwiXYYT7hNBPoO7CR0ir59+9q4Abaee+45A6c4z9gDmVLIjoLuwYu1nTFjEIKVHGyUC+x7cj57QCk5UvP3eAmkFQmcH0CJeQpjLSDM8BG/ydffjlA2/h7TuV14BozH6NbOda1mjUrSrk1TuaFfbwVjysTp9dQFswhD9OSps6X/J9/IylXr7BgADjo4bCDq2aegE+8YZ8uXKy3X9u0lnTq0UPZ9cQN72FtM0TqG/jhG+g8YIjddd5lc26eX1KxRWUkJZ3seBD7F6TPn2zhGjp5k4Bi6NSAWuj2z8p/q1sf6cET3FTm0X1XVS+HCbm3lysu6SbGiReL2HYF1puRnDyilpHR93UmRQJIBJYI/w0AKLih0n3zyiSmOsGMAMWAewSwCgGrdurW5XaEIBSt7TCQoWAAw06ZNMyDq+eeft2xwKGsogIBFI0eONEDqmmuuMVAJBpMrKKZTpkwxoAYlkODgACg33XSTUdvddfG9M0G8//771g59QMFz46R/vLAMAsZAQccSikJKIHFYUyh99B8AjftgA91zzz2maAaPl7ZgZMGoAqBCPowXVhMWyfgAJa5DsQXYQ8mlHbLEoeTSRqh2YFwRxBwLLso67UD1T4ixFSyn5AJK+C3fdUs/nehjfzP4WOOfDBUWptC8BUuNxdSpbXO57YarpKKi/TB/KABKr7zziZQvU8qAm+5d2p4xxhPq3wwtdp2ydObMXyzjJv4htapXlg5tW8jN11wmFXShQda4zk2YPEOZRT+q+9k2U9y7dWqtQFY1c28jVhJyxVVvsoJO4/VafsPc30VBpc7tWhqzhz4FAkosLoWUGXVDv0vl+qt7Syml4OYOcCULByjNXbhElqgFRX9WIQvAFlaawd/9LMtXrrVr7rn9Wrnq0gt1jFVkxJgJ8v4ng+wcVpd+V/SS3KdAr5AV6sGiRQtJGXV3iylf1tz04rsu8LgHlAKl4T97CUS3BCIJKGGEwagEm5YkFbCLAEVgDrOOssYy78JqZv0n0QTXALy0bNlSatWqZcKOFKAEmEVdGKhgHKE/kNiD7KjBBVc01uGBAwca+5p+d+nSxdhRsLFx8QdQ4l7GA9AVbChzdbIuM1Z0H/QnwCcHKOHKB3jGmDFSuYK+gWxgc8FigiWFqx5ZbOkHGWIjWTygFElp+rq8BFJbAucHUGLfA+jz/keDZeLvM2XV6vXSplVjZQzVlto1q5g+jM6/dfsOWbhohbL15+q+cKsBQb17dpZOyhxq2riuCQsQCFb/wM+HyvfDxhiwVKVSeenQrpnUqFZJXcyKKXif3QzRW7fuiGURzV+q+v1qqVe7urGQbrzuUnNFA+yJBKDE/uLavhfbXgA3NxT2Q4eOGPtqsXodLFm6Slav2WBtMo5rFLRq1KDWGfuUlP4leEAppSXs60+sBMICSigyWPUALwBRiMFDXKRA1yrXEEohsYVQClHGsOahLDkQCLAExhDgS6hCnAIUNDKzAUTdcMMNBgqhYEItR6EC6EEpg6EEm8cBPtSHNZE+EMOI/mLFg9JOTKbgIOCh2keBQ5nmfuI9YTUNLrSN8gcgQ/0ovI4VxMQKuwlLKiwsAC3GG18hfgLXEsQbRRRQCKUVoAfFERbUl19+aUovyjXtOeAK0Ao50w4WVsCt+ArXAV7xHHl2yBW3wtQClHCtevOFR6RyRZRlRfZVzkc1thBBqf+YMU9dyP6QYSPG6uJTVW7se6k0b1JPaaylbTgASq+/96kBKL2VKXTbjVeZS5wbKwHziFMEC2qc1gPjh2O1alSRpx66V2rrO99/+PlXa2P4qN8Et6/2rZsaUAT4hD83Cj/KOxTdmXMWmlvbyLETzR2uUkxZueXaK6TXhR2NTfXZ4B/k4adeM9YQzCcWwa4KTl3a8wIFnlpI2dKnAdNwgBKgGvfyuwssfD2pMZ0WqKvcxCkzDVBikUV+gGRdO7UxN8EfRvyqgNJgWaNxlBrWqymP/+ce/X2cDv4eWKf7TNBy2FiAtKECjrvrAt89oBQoDf/ZSyC6JRBJQAnQhjWZGH6s7azHJOxgPUOHYB4C8EfPAGBxLmAAK7169YpbPyMFKKEjYFgBUMJ1nTWQGIZt2rQxI0OgQQY3PdodNmyYsYgAcAB90GMwXKHrMCZYzLxwSQu3pgIiocsALNGOA5SQEW5+GKAcgMYvjHUBnQJADt0IwxBrOboCehjMaOoJ7PO5/DI9oHQu0vP3egmcbwmcH0AJd7Sp0+bIq298YoZhQJ8rLulq7mVVq1QwfZM5nhiiS5evFtg/3/8w2oCnurWrGQDT58qLbB7brMbeOfOWGDNp/MTpxl4CcOp5UUfVf8uZQZT9FkGzCVkxY9YCdWebIj/8NFYwLuN29q+/32IhL2AzRQJQgpn0xCP3WJ3GbFL9nCQ7eA7ApJqjbnEjRk6UzVu2G1vp/vtulu4XtFXyQQHdG2ZOlR9FagBKPEP2pRA3MBTBHoZlzJoXjp2bKgLwjZyzBEiUgpcXegdMafSZQMZ0YhsICyhROT8kFBsUF/6Y41NinALE9RSudcf4wblXfAqQu5b7+Yzi5MAajrlXuH64Ouiva4/3+NoMFhL3uXaCz/HdjZ13V3/gdYAS3O/Ou/4HXuM+u3Z4pzBe6qQwDo7HJ/fAdmjD3Wc3B/3j6qFO+kU7vCe1JJehBAX1vVcfNyCHNg0+0b5QNmzaIpP/mC1Pvfw/i13U+8LO0kNdx2oq0EMBUHrj/YFmfbi8V1f56639QvadsU2aOkveeHegzFmw2Op668VHpFG9WuY29sTzb8u3P44ydtKdN/eRe267VqmpGodCNzSBsqAe3My2bNsh3DPy14lG3/33vbfKrddfoa5vheSrb3+SRxRQyqkLFgsblheCgdfX2EQP/eNOjXFUN24hCQco8cxoL7hgzaEPMKE++myIrFy9zlhXNyjY1lrd8KpWrmB9HqJudB8MGCzrlZ3VomkDeenJf0uB/KHB2jPbYBNy5pFw3zygFE46/pyXQHRJIJKAEgaluXPnyqhRowwMIXkEBhAAlMA1i3kQZRX3bAxHrGm4hvXo0cOEGylAicrIioq7OcYpYirddddd0rlzZwO4AtdrmMPEf4SNhHGJ/sDwhSUcCCgxJtzQYC+HA5RoO3CtcYASihysI5hSxFgKVVjDBw0aZADWao3fxLUwrwN1hlD3JeWYB5SSIi1/rZdAWpPA+QGUftOQDri6DRoyQmATXXV5d2MKVdbPwXM8xl88Ex598k35TkEl9jf3/OVa+b9/3W5z/uy5i+WLwcNkzNgpsm/vAbnt5iukc0f1DtBQDYGxVZE8awbzIqyojz/7Vqb+McdCY9x+81XGaKqsenIkAKWcGmrjhaful3p1q9u+wj11VHeS+azfsEU+HzRMRo6eqADXQrnnzmvkkl5d1PBQ3eI8uetT8j01ACWMMayJxP6DNRujbuIk34KskRzgISXl4etOugQwoEHc4W8S4grGrfjIP+FqDwsohbvRn8tYEjgnQOm1J6RqpQpnCWzBouUWC+idD78wC8RN114uTTXodDl1caM4QKm+0lkvv7hbvIASIMyY3ybL48+/ZSAVgfpeffZBqVShnIJIW+Xpl961wNjlypWS69Q17apLLrSsboEbCNc529zoojfo2+Hy08jf5NcJU+SGPpfINVf2MuYTQcIfefp1C2pNZrkCamlfvXa97FPG1W0KOnVq19KYUWweEgKUXJuB7wQO/33aLPlh+K8ad2mGlC1VQl34mss1V/Q0ym8B9eemBAJKLQGUnnogkYBSYGsJf/aAUsIy8lekjATU0VhOHj8mx/bvlP0bNADy/l2qxZ2QPKVrSM4i5SRbrvyS6RQIr9v1lOlEBqs1koASLmYoKbi7wfwFTILlA3M32LKJwgr4hGLDHAzIAgOXEklACSscIBGsXVhGV1xxhXTo0MFc0WAQUWifeE+fffaZsadg9JKgA3c1+h0MKMEYSgygZJWf+icUoETsyODiNk6wqsYpIwrGEglDiCHJhi0QpAq+NynfPaCUFGn5a89FAkf3bZeDO9bK4e3r5M/jRyV7weKSu1glndPL6izu5/Hkyfb8AEoDvxiq8YZ+kZmzF0i3Lm3kH/feaNncQhk3TygARLzT3yZOU/e35eY61qxpXWmv8ZSYx0b9+rs89vRb6tmy24Jt//sft5rrXBHVs+MruJtNU0+H9/sPNsZQzws7yMU9OklrdbuLBKBE7NYXnv6XBtxWQOmU7h3Ylz2a1Ge6MqUGfTNcPvvyBwWTOkuvizrpq4OyeMLHagqs51w+pzSgBHAHiEQoGdY+PJDwwHGu6cQH9CVyEiAJCfGiMRghW7yTYHOnZCFk0ddff23sMzyw0DFINJbU4gGlpEosg16fXEAJ9s7Tj/w9Lgg0CjILCxuImbMXWswi3N5aNmsod99+jcVLImMbxQAldXnDHe6Si7rI7eryFqhAM9HBEsJ9jqxyz776nv0RNqhbUx594K9SUBk7C5Ysl5fe/FhTj64XYjD11no6tGkW9iliSSG+E25lsIAu7NJOAa2u0q5VU83M9pv895k3LNZTrRpVpUXjejJK2/5NA5HDILrogthr2XiQdjS+oNyB1hs6g1yw3syet0gGDhoqs5RKu1czW/Ts1kn73Ua6tG95hsUHQOl97dvatRuMHfXI/Xcpohx+AcuvLnG8Mmnwbl2/E1U8oJQoMfmLUkACAEpHdm+RA5uWyc6F4+TIrk0aEPO4FKjSXPJXbCj5ytaUzNmUZWhtJ/IHnQL9jKYqIwkowTrCxYwkGeMUDMHlOtD1nbhDzJPu5eZ25kKsns7yGUlAidh49Gn06NEWLxH3O+I7AnJB46dtGEkATiQZQZHDWnfjjbpRUkWLdSsQUOrWrZvwCufyxrgYK4CVG5MDlFDOieUEyymUyxvuBVyDmzvBwLEaci0spUgWDyhFUpq+rpAS0L+tkyeOyb4Ni2TXkklycONSOXH0kOQqVl4KVG0uBSo1kazZ80jmLNm8fSCkAMMdPD+A0guv9JfPvxqm4SL2yXX9LpZHH/yrsY3cXA7jgRehLmLdE8T0XLLCHdSg2gUL5tMQDgXt/Lffj5K77ntCihQuIG0VEPq/f98RMntyoBQICE4Q8AceeknGjp9q8ZiuubqnXKzxmVIDUCJhDgBY/wHfyNPPvSvNm9WXHgpq3XbjFTq201m3A/sc6c8pDSix/pCQ6j//+Y8Zh1iTCCVDtlWYsjExMWfsyyI9voxWH8Y3WNToCyTTwv0/MWF7zkVOhN955ZVXTPfBcEaSMGfQS0q9HlBKirQy8LXJBZRYTHBjK6zAEhtEMiSQFnTrjp1mUdi5c48Fs+7do4vcct3lxhwCmaUAKL32vwECfZaMa30v76mMhNMbx4O6KO1UX+oly1YaA2nk2EnqclbH4gz1uewiRVuPy7SZ8+S9T74yn2sCVwPMNFQKbbiCy9nylWss9tILr38obVo2lou7d7Jx0IYDlNq0aGyMJ2JADRw81MbVpUNLeeifd5obHABRYgElsltMnz1fRmn9n389zBZlAhHeccPVNiZANt2XxBUApfc0KPeSZatsQe6tVhFSqYYrzZs0kBZN6uum5rR7ZbjrOecBpYQk5M+nlATQQXcuGie7Fk2Q/WsXyfGDe+1vIGuegpK/chMp2e46yZ63UCxTI6U6kcHqjSSgBPiCMkpSDQJzEy8IIB1QBHCGeIRYwYhNCNiEOxmgjmPeuE1JJAEljBDEgYA1RRKOMmXKmLW1T58+Figcd3Lc4gDAPtEkI4A8MKsIhA1TCWU6EFACDOIaYiO5dSv4JwNghpWRtlyGVQcowZhCIUc5R3l0hX4iO+JLAYChZALQEYcKRhVAWCSLB5QiKU1fVygJACYd2bdNdi0YL1smfysnjx3SgJEaIiJrdilQTWOd1moj+crUkux5CuMfGqoKfyxeCZwfQOmhx14zZg5sfYJX33d3bIIg10104P36OqqGX3R/UCUMyui7eBbkz59HmfV5ja1EbKX7/+8FqVY1xlzd7rjlaouj5OoK9c7+An39rnuf0FhKv2rw7opy0/WXSz8FlVIDUAIoY51794Ov5IGHX5JaGoj8om7t5e/33KDAWMFQXY74sZQGlFarmzXGDJJOsfaxNhG/GFCJbO4YiYIN5BEfZAaqEAMc4A46Bev9X//6V9ONUlIEHlBKSen6us+SQHIBJRaUxvVr60Yht1komIABlLZs227BtEn9SWY3glrfrC5vZE0joB4FQOmlt/obGFVFXeYa1KlxhuUKJhGWjo2bt1hQPFzMrr68h1yhbKL6ei2B8sjuNuDL7zTF51HLIgcIVFOBmnCFQN5kWBv68xh58oV3pJmykHp262AsqdG//R4HKHXUbHJ/ubmvzNW4TYBKw0eNt2x216uLHCBUAWUDJQZQwspChjnc7GBawarCja1n947SsU1zdQE8Hejb9dsApY8HyUK9Notu0uqqW2C2U0Ccuyb4/bJeF8hlGosqpwbmDuXuF3w93z2gFEoq/lhKSwCmCBPG5slfy/ZZPys7aav8eUwTJehGI1PmLJKrdFUp0riX5CtfS3InyVWCel3xmxYnCfceSUCJZwhAQzDpWbNmCYopYA30ecAiLHC4isHuwQIHoATQBLDCd1g9lEgCSvQJhRh3N5JeANJgibv11lsN3OKcS2QBEAbQQxIQQCPArmBACYAIQAzmUXxKNeMg8DegEiAaY3eAEglIkAFWwUDXAfoBUwrAiWxzxKMC0CLZSd26dS1+hXtmkXj3gFIkpOjrCCeB44f3yd61cxVQ+k12zB5zhnNbzuIVJG9MPSneuIfkLl7J5vhwdcWe83P5aRmlLqDE/HRcwZz/KIjy5eDhUl2BHEAcYhgFFtzRCMS9Tdn6hw8fDTxln+vWqWZZ0TKrofiXURPlocde1+81LbA1GdPKqu6bUGFO/8u9j8u3Q0eZq9ytN10hN1x7aaoASvSN9j/QLHcPPPyyzstl1PWvtfz777fqfB4dgBJrA0khWA9Zi2LUAMI6zrr95JNPmnEjcO1yzwu5ALaxxrJ+8ZthnWS9453zMIYxxLDeB66frH0YfnCb5zPX0x5rMPdQF8UFBmddxh0coxV9oU4MMrQN6Ihe4fQJruXczp07Fcg8ZDoKRi6nh7A3csYsNxbaoz/cwzt953rah8VMO1xDshH66vZXHKN9dB7WcvqIgcm1R5+4nvaQFfJ1mdnRjwDr0E2IO4ncXL+ol75QJ2NmvNTFNfTJ1en6797pO32lP4yB67gHwJBs8MjaM5SctPx7ikkguYDS3n37FQiqqT/y2M0BHQRE2qk/6G3bdyn9db8BIRd0bC039LtUalatJMU18xoFQOn51z+wiQawJHt2pUIHFZu0dNPC+bz6B3XvX66Xa65SiqD+YS/VdKJjJ0yVL775Uf94TsrdGoy7uTJ0qljGuaCKAr4yAWzQzHE/DB9jfQBQ6tFVASVlUY0JApQIFH7i5AmZO3+JPKMudwTpI17UXXocUGvC79PlOw0IPmHKdHnywXulhwJTZJZzkyf9B7yau3CpBhVXtwZ1tStVvJhltLtR5ZE7d66QQJEDlBYvXWHWH0AnN4kFDOWMj9f36S28mAB9lrczROO/pDEJ8Pf6p/5drR/zoWybNkyt2aqM6t8KMTb0jGRRZhKgUvGG3aRwzTa60KoScMYWJXZAsVuOUxsPvV9N4qdGqler6+cZCPWpMxn5LZKAkpOjUyrJaEoGVYJhO3DJKVzMg8xLxE7q3r27uYHB6KFEElByfSJGwZgxYyw4NwrY7bffbpljmUPJTDt58mQLEE6soosuuihOCQ4GlLAiolii0Lk53bXh3qkfhhPKYbly5ew6ByiRbY42UexC3c9axIt2iLFEllaCoTrl2LVxru8eUDpXCfr7E5LAUWUnbZv5k+xZ9ofsX7c4YL7WeT2LZqAtWELKXHCbuTNnzRk6wQgsd4rN9awR9l/sd92T2ZmMOaenLqCEoYBMxYAoX2tA7kYNawvZ2m5UICewfKoxloiztGz5GmEvQDmp7CSMtriLXXFpN73nEmVuFpTxk6bL40+9JS2aN5Ae3dvbudKligdWF/Iza8c9/3hKvlNAqWTJYnLrTVfKjdelLqD08cBv5ZHHXxf620m9FP6t2eaiAVBiff7mm28sYQZMWYw+rM+4jOMGd99999naFhz/j/tY9wGSuI/1ju+sWxiMnHs55wFhuJ81kGfJbwtghVhCrI+AH9zHuodOwHeuYc0lIyxgFMdWrFhhegXGH3QJjDUbNmywOll/YVWxltImx8l8TjsAVNQLUEbfAHu4H/CG/vACtCEgOboI99M+12NMAsAimy3XAfwwHsAgZACAQ9/QeZAD7aIPwMxmPLxzP2PnWmI3wlAinhHjw9iFyxtu+RiSHPBEf5Ap8iHuJO1hcKL/gGcOVHM6BeOmz8iUfqxW4x7HkGvlypVNdp9//rkdYwze5S3kVOMPRkoCyQWU8mlgun/97VYpW/q0pYEfMovJNs2QtlRTif74y1jJp8gzrJwrL+luQAz9BlB6+e2P1SWuqB1r11qD9wUMCBot8ZMWLVkhy1eskVVrY+Mk4Z7WUQNZs4BNnTHX4iDtU1bULcqAIg5SbaWlhivHtF7AqB9+/lXjL/W3QNuX9uxi7nIjxkw4g6EEoJRXwTIy1g348nuZqIG0SSd6m7qqtWxaX9au22jMpVCAEnKAnTT6t8kyULO6zVmwRPKrHADEYCYBSGXJqln8dGILLhZD6ZPBFhAcgOyOm/pIHgWfwpUK5XXSLFfaNjAO6Q53Pec8QykhCfnzKSGBkxqs9fjRg7JhzEeyfcbwU2CSbhUUBILlmCmrWoE0KHeJFpdKsSY9NPaGpmPPnPWsruilutADTmkGTnW5OGksJ61Hr82i92TW98T+LZxVeRQeSAlACcUKZQbLGIqQe2GtwwKJooZChqKDUoZCBBOnffv2NlcBREHJBuRBAbrzzjulYsWKJv2ff/5ZAEMIKnn33XfbfShnCT1T2iRg+NChQ83K17t3b2nQoIEBR5+oq9u8efPMWnfttddaFjgH+AQDSi4GE0ooCmCownFc+lB8AYbomwOUtm3bZko6bcNecgU50BbKIsof/UUR7dixo7kaoDRHsnhAKZLS9HWFksCR3Ztl0+9fyL6VszQg98Y4XU6nZ/ubyJorj+St0kgKVm8lRWp3CslSipvPmdOZz4/rS98BpGLXANgFkQtWH2ocafNY6gJKzE/orwBKXwz6UTel5eWaq3vJX27rc4Z4yNw2R+OBEtoCLwHwwA1qQF26bLX8oeylC7u2k5uvu0yB9pIarHu6/PvBFy2jGgG+r7+mt5QrGz4wsNtLACgNHzFeM2VWlev79TYwKjVc3pADLncwlB589DVp3rSejemm6y+TggVCg6JnCCgCX1LK5Y01GyYPwbhff/11Y640bdrU1sP+/ftbFlTWadZOQI/AwroOiEIsINZmGE3oARhPAJNYC1nPOI5b1wMPPGBADO2xNrLeA6ygKwBEcR+GG8AaZM47YIyLPUhbuNXzAnjhevQG1loAE4Av1mAAHRhAJOagbcbINazRgGUAOGSXZZzoGvQZFhD3oH8AQjmGEv0HuOE+6qU/xJQCkGF8yGDChAkycOBAA5VYzwF46D/1Uj9AGmPAdZ7f8ptvvinoYOgm9AtZUS9JQagbWaCbDBs2zLLu0S6sIuoFVIIx3bBhQ0s2AmAF+4gCuIY8YJmRSRc50w/3PKgDXYT7Gzdu7AGlwB+z/xx5CSQXUCpdsri8F0+WNwL5zV+0VF7/36eyWoEXwKcH7r1NOrdvYT90AKXX3x0g1apUtGDXN/S91P7I3Oj44wIomrdQJ6BJ04QMbNWqxGjQ7eZy+w1XGaNp/qJl8uo7nxhzCIYRQbNbNW/oqgj5juVl0pSZ5sYGSIQ73tWXXShNG9WVH9W1zcVQwuUNQAlfaYCtSVNn2vkvv/1JOuk5goPnVve9CZOny+9/zDqDocRksUcBr7kKIg39aYzGTfrBmFktmzaUO2682rLehcqU4ToMoETA8PUbNhsQ57O8Ocn492iQAO4Rh/dsls3jv5Kdc8fq5kIkW97CZsU+vGOjHD9EPKVMUrBmWylct5PkLVdLz+viqRfaRuOoUpn1mqP798gxYi+dOKqbj6NyQjcglCw5c5trRfZ8So/OGT6YfTTIM7FjiCSgBJ0cpc0pUihGKFEUlBmUGAcoYWlDYeMdhQ0gB0WL60lXHGlACUWVvn388cfGmkIJI1YSDKJ3333XLHkxaoFEYW7evHmc+IIBpcsuu0zOJcsbIJtTYlEqXUE+tIUiiOWV8aPwcY1zw3PXRuLdA0qRkKKvI34JqHvLzg2yYdxHsm/1XDm+d7dkzZ3PgKATOg+Q7Q32aJZ8haSQzuml21+vgL/OFboxVAuCGgLUzeWIxuLZt1PndXVj0fn9T53LmeuP6yuzxmHKliuv5C5ZWXLkL3ZKTzzbEBd//9L7mdQFlJy0Hn3qTWUg/SC5cuaQa/r2kn/dd4s+ssxxbMtdu/fqZlrXYZ3LTuhz1InfkvHARho6bIzFSrrlhsstbhLH7v3nM1KmdHFp16aJ/O2u6yx+qmNZuDYD3zEab9263Vzlfp8yS9q1bSpXXdZduioglRqA0tGj6qak8WD7Dxgiz774vlyiwcB7aZa5nprljf1MapSUApRYIzFmEGvwo48+EuIMwk4idhLxlAYNGmQsm6uuukruuece27Ohk7F2zZ492wCnwYMHGwsIBhCsH0ATXLWccQn2DnUCUAESYTgZMmSIsYeJ14ThCJCDOgF2nJsXx3Ah/8tf/mLrNgAMhiD6ybqNgYf9IcYp1vabb77Z9Ar0G4Aq9AwYS9SDkYd6nctcv379pGfPnrbW0k9YSfQPYAx3NfrJWNz1XMPaDLv60UcfNYAMQAk3fwC1d955x+REv2ARoffAcsK1HjAKXeeCCy4wg9KAAQOM/YULGmAP9QCI0Sf0IRjeo0aNMpAKEAxQC6ANuVMvRjmAM3SSzp07S/369Q00IwYjcsXVHxkjF+7lb4s4jTwHQCb6iHu+Zyilxl9uBm4jJQClk7rArF2/UfoP/Npc05atXCsvP/WAxvm5QBeonPL482/LG+8NlHq1q1nsn7/c0vcMto7OMeZutnfvfvlJs689+uybitJmt5hN//33X6Vk8SLKWtqg9byl2dMWS9MGdeTaqy8217VwjxJwiMDYP/4yToGqP5TZdIW5ilWtHCPfKpATClACceY+WE3PvPKeIdDFixbWzG+NDTQj4HagyxtjX7lmnbz9weeWIW7l6nXaxiUW/LuFMpvy2h97/AqRB5TCPUF/Lr1KABeGTPp3fWTvFtm7Yb7snDFS9i2bIX/qgpkP63Wd9rJj2k9ycP1imwvI8pZTswSV7XaH5C5XWzTtm5w4tEeO7tog+9bNk31rFqh7xVLJzIYFq/YpwWQrUEKKNukp+TVuR26N3+FLrAQiCShBrx47dqwplChiWP5QWFxBSWTeRMlEmYFtBKiEAofyBJiDwoX1MdKAEu2yySGTG4orShlpkAFsUOqwXBI7CeUZGrkrkQaUAM9QRAGmatfW329QgY6PYo+VGKUQBRPZcH0kiweUIilNX1egBJhzcVQ+vGOdrBv5ns7J8+XE4YOSp3x1A5WO7d4ux/buMOBfJ3ApUL2FlO58g2TLX0Iy58hjLKRjalw4sm2V7F76h2aHWybHd+/QWjWgt6pIJ3QeyZwtu9aVR++7xRhOWf7UE5yM40EF9igaP58fQOnVNweYS9uatRulX5+e8tSj95oRFUYnhXk2NsNb7MqLzj5yzCT56edxFvOoU4cWcqtmRKujzKJJk2eq69rTes8JqV+vhjz92H0aG7SauQPF98RWr9mgMZo08c6Hg2XVmvVy6cVdLMtac9WhUwNQwig+a/ZC+err4TLwyx9sLJf06iwtmjWIiwUbX98jdTylACWABvQB3K/GaZKKhx56yJhIgDwwaQBvACcAml566SVjyACCsK4D7rBm4RbXpEkTA5xwD2P9ZI2HSYRrOb8PGE4ANvxmAKLIJgdjGXc2gCAMPVwH24dkGqyDXAtQFAwoAX4BtAA2wZrCGASbF/CINgkiztrOmn799dcbQwiQB1YUrB/0AfQA3Nz79u1rugcsZpg9gEiAP7CXGAsgFjoLsRgxngHeOEAJthDy4TxubHfddZdceeWVxjaifZhFyJM6qI9xAmKhD8CGevnllw3ogr3FvbCN0AXQTRgHwBByR3aOkcXz4rkARtFXWFm47AN4ffHFF/Lggw+aHHC9J0sshiz0MmTKc6ZO5ILe4wGlSP11+npCSiBlAKWTmk1trbyibm3TZunmb98Bee6xf0ovdVnLqq5eBii9P1Dqa8Dpyy/uZmwgkNjAwuQF5XT0uMnyxAtvW/pSAng/999/CO87d+2W5zQO05jfphjdtt+VPaXflb00jpEi0/pHF1yweKxdv0ne+uAzmTJtjvmJ33VLP80w10MprPnlyyE/hgSU3OZo1txF8p0ypcZNnGrubuXKltaA27vM/S4QUJqnMZPGa3ylwd//bEBUOXUJ7HtFT2nXsomUUCCMSTFc8YBSOOn4c+lVArFqp8ZZ083DriUTZM+iKXJgvQJCqkAUrttRire8XHaoC9ze5dPV4r1Z/6ZPSFa1TOfXLEHZ8mu8Bd1InFRXOWMn7VV2zG596WYlkyokWEfZZ4Aq5ShcWkq0uUrjddSXXBrUO3bjcebckl5leC79jiSghLVsxIgRRhPHeoZyA8Uby1hwQVnC8oZSgwIGYIKyhLKHNTHSgBLtA2R99913MmnSJGMkYQlEcRs/frwpjCiPMTExRmt3/Y00oIQiCqCEgodsggt9xNKKcops+I71EWUyksUDSpGUpq/rtASY0WPjkBzevlbWDn9TAf6FOm2fUOComeQqUdHYRXtXzpF9K2bbbTmKlJI8Feoqc1QzPirz6KRee0IZq8cP7FZQar0cU5bSn0c0Qxz16pQNSJFZN0bZcudXw8JdxlolTIDFWTrdkSj/dH4ApW+/HylDNHbRr+OmSLMmdeW2m6/UoNq1LZZQsMAtbpICCu9++JWCSaNl3oKlFisJQIng3MRZevu9L2SOusllyZpZ7ri1j3RQxlGtGqcBfVcnAMNhTcozWVlJuNz9PnWW6fP333eTtFQPBGIppTSgRLiKVavXy5DvfpHRv04W3Pse/PftclnvrsqsKSvZVWdJjZJSgBLuXc7gApP4iSeekG7duhn7B+YNQBMGo3bt2hkIBNAEMwi2CwGeP1FQiQDPMGpZ+zkHmIKh6bPPPjPmE4YkwBsAJVg7rL2AUxhOrrjiCgM3cCHjecNUBoyCQQxbCbAlGFCCcQyAhLs8ayrrOe0SKwlGFUANAFeHDh1Mx4CR7BhK6Cqvvfaa9RGQ5vHHHzddBJAGow6AERnXAGLQYagTnQWQB0AKAMwBSrRJjEYXcwkZABxxH6ARutFjjz1m7mfIjXHA9KJ8//338swzzxg7m3v++c9/mg4CCMUzAFADuCNYN0Y3GEnsi5EJcZAA6nBrIwQAOgz38bwYG/3gGfIOKAZDCdYTgBnPDCYZz9MDSqnxl5uB20guoFS8aBF55en/SKWYcnHSc+ALE/JCjX+EWxsZ2UoWLyoP3HebxixqYdfi8vZGAoCSqxS3shff+MhYPyWLaZvP/J8ym6orIq7K+OdD1B1ujMZTmiNdOrTSLHDd7FxxBZWY9PljhDF0XCnUq9dukFnzlOI48BvZsnWHNKxXy+lhW94AAEAASURBVLLP4SpH+VRjHYViKLl+bNuxS2AbvfX+Z/Lz6PFyUAOQMxkWKpjfGErdOreR/DrZDPlhpLGdZsxZIBU1ttFFXTtI53bNpWqVGFfVWe/0FUSZ4OQE+n5fXd6I0UQWvSceulfrPXujFlgJgbgBqqAnMyElpvgYSomRkr8mkhIgbPaBDYtk+8xhsl8ZRri4ZVO3tKKNL5LSHa6X3YsnKdg0WXYtnmrgERliMunfhu0uThAv6QRbDcWIYrcUhiEBJvHS/zJnySa5lNVUsl0/zRJXW3B7wzIeCypFciTpr65IAkqOoYQSyOerr77alDliBbmYRDwTlEysaIBG06ZNMyUMZRBlCeYQCk9iACXiDECfZ44L5SbBMc5hPeQzbdMegBLKH4olABZxi5z1E3o7c64rwYASrCte9DPwOnd94DvnsRyy3rgYSgkBStxPP1HAUbZRYgHbUNAjWTygFElp+rpOSwBASVkqJ47LoS2rZO1Pb+rcvsTAnsINu0j+Kk0kR9GysnPOr7J9+s+ayfOw/t71ev0byaIvgCEYLqSch19qf9dWJd+Y42Nbwt05pxoGSra9RvJX1libevzUqdNdiepP5wdQgp0zeuxk+WTgd8bIadmigfRWl6+6darH6Zk8i2MahHvPnr2yddsOef3tgTJi5AQNV3HAwBcHKGFQHq9xlAZ9M1wWLFoubVo1Vte11nJBp1Y6b+bQNUPjHmbOYqD64cNHZLO6upEZ7v3+gy3jXIP6NeSJh+8xHZqfSCCg1OfKHnKlBgCvVjVG49KcThDkfhJoCrjq5dFzAFpffztCRo6eZG0+9tDdClJUsfimgJj8Hk+onrFx01aLDzXw86ECQyu7ekc8/MCdclG3duoWpWCorjGpUVICUMKIAdPl4YcfNrc3XMMANogZSGHdHKesJcAPDDGsRx0UpAHcgJUECAPgBKABUwjWS6A8AGFefPFFYyJxDkDJMX4ARWAGP/LII+aa5eIAAT4Bct1///3GHIJpEwwosU4CRGGMuvDCC21NxzUNIxWA0ocffmjncDGDvRRo3GJM3I8rGu75MKwAzACWMPawzsMWQidwhVhMuPUBRlGXA5SIrQSzmvUaAAm9gnhI6A8APzC7MBIxHmQG+AMjihIKUOJeADWAHu6hP+hTbdu2dV2xulnH0eFgW6EPAVIROwngi+DquCbClEK/ceEH2J/CiiKOFUAesveAUpxY/YeUkEByASXAj1uvu1JKamBtVwh6zYKwbOUaS3uPO1qMgirdNNNbb41zVKdmVbs0KYASForX/jdAs6UtMSbROy89qmBQTQNzZs9fLD+rS9w7/b+0Sa1ihbIaZ6mZ1KquEfFLlbDA1wBPm7dus1hH+HJvV2CoZvXKGjDwcmmmsZMqx5S3PiUEKDERH9KxAUgR04kYTgBnDlAiyxx+5Z8N1jScGoycRbSeLr4XXdBeihTSQHVhAmuXLVtSyOZWrnQp+XHkOHnvk0Ea3HCVBTy/7ureRjV2Mg71XkCDBJJBr0bViiajUNcEH/OAUrBE/PdISgDFDyVNPe9PVcsGIpPsW6uBHKd8pe4NK+W4xkHKXqCIFGnYXUq26SPH9mwz14cNYwfK8YOkoNdbM6nyRhWq7GXSlx0EWAAwViX05BEFdom5oeeyFywmeRVIKtW6j+QqHmMAU0bbfpwS9llvkQSUUJyI/4P1CzAECx6WPyjsLnYBYBJKFxY7gB1o2yhPsHBQ+gCAAF8SAygRM4Dg1oDlwUxWBkq9tBsTE2PKH78FFDssfp9++qmBWihZuNmRVQUFDxAoUBEOBpRoD0spyiR9DVXoC33CIohbG/UlFVBCGUa5RU4ohFDkQ40xVPuJOeYBpcRIyV+TkASYgg3IsQ/8Q9F4YAd2yn51U9445hM5tHmlAkVZpHibK6VgrdYKBJWRPStnyM4F4+TgmkVyfN8um8qtHrtfVwf9kkn/brIoG5Vy4sA+A56Y55nfC1RurC7MvSR3qSqSnRhKdlVG+uf8AEq4fAHAvPT6x7J4yUrTt9sqENRYs77VqF5JgXZNVqBzH/r03Hk6j0+cpgl01srGzdss2/Pll3Q1NzEYSrk03iiA01v/+1y+1/hKAIvVVFdt3qy+VFcgqIxmUMujCXD27j2grIvNxkqaPWeRLFi8Qrpf0MaAnB4XdpCiRQppAPBjZwBKLbSOlpo9rmzpEgZOBf8ymJPz58+nrmqxiXQcoIRBuN/VPaV8OY3/p/1jzThyJDZ266w5C21MGHXr1a1u7nYdzShcId41KLjdSHxPCUCJ2H2suTBiMAbBuAGAcYkjMLoAHMHAAXwB2ADAwGUcYAjXM1ypAGAAYlgjA9dR3LYAlTA2wRgCUALQAUwB3CArG4CTi1eEnGDn4gqHSxzrJ+s4CTrQJ2jzE2VE4X72t7/9zYxRrM2s37Cr0GuIIfTVV18ZCwcQB10gcM1GD4ENDRuJdRpGDzJ49tlnLR4RwBixjAJBKPqBbgMzCl3GAUq42FEf/WKM9BvdBhYWbGwY2+getA/jCaAnHKCE7ObOnSv//e9/DRxDl2H8jMMVgCHqJDYkbcNgos/cRx8BlZ5++mkbA7qIc0vlN41BjXFSYHh5QMlJ1b+niASSCyhhhWissYvy6ULgCj/844rw71KLBRZaFpLmjepJ9y5tdeGoJMQeoiQFUPpDs7m9+/FXltUti/7xPamMnZbqx1ysSGHZuXuPzFFQ6btho/R9iWzask0D/5UwRlQxbQvLBCAX7nHrdKHaum2n1KlVVdqq+1mv7oq6FysaF2Bv4KChFqupQrkylknOBeV2Y3Pv43+fJmSEG/TtzwZU5c+X1/oEa2rFynXyhbrOjRo7yS6vUK60gWiZdFOcKYwmRFBwXk1Untz7nmZ5W7h4ufWfAOBYcMIVMu0BosGSKp9A9gxXjweUnCT8e0pIwKzMVKyL2p8aOPuEBl49rC5q+9bMkV1zRmgspG3m8pCreDkpXL+LFG92qejKLQc2LpUtfwy192N7t2v8jPz2yoabhAZzJYvbyZNH1d1tmxzbvUWZTBr4VZvJpDGXClRtLAWqNZeCldVNLo8G8vYlTgKRBJScNY7YB7xQQgFssGiioMIUQkmEIo8CRGBMFEio5SivuIIBmqC0ohABenA/SiRKGIpQYJY3FCyU2/iAFpQv7kMBReGjYPVE4cJyieLMvbRNYEosp8FMzmBACcsjbTrGVZwgAz5QJ+cB07CcOpDsueees/UvnMsb1TBOXPOwCGNthIWFyxsKMYynSBQPKEVCir4Og5D090qxzJrqfnxMQf+DW3Wjpq5uu+dPMDfkTJmySpmut6gbcwdLtnBox1qd8+dqRs8RcmT7BouJlC1PAZvTM2fTbJw6p8MsPbx7oxzdo9mZ9iropICDJVdQEKlgjVZaV2fJqjGXcJPLeOX8AErMTTB1fvhprMZAmmEASw5lExUpXEDQa2EDZVbAb8+efQYWcW2F8qV1CT+hgNBs6arso5tvuExjKFWz5DaEr4C9NPrX32WmgkUHDhySnMr8AdABKGKvwLEdO0nFvs6MwaU1iHePbu2ldcuGUlE9IWAzYdSd+sdsA6YImI1Bu2yZEsriz3sGiOB+J7CcS6mb3F9u66uMksMy2BhKEzV781Y1+GrWLgXG0K/5acNOAjzAMHxE3e4KqvdBew0ifkmvLubqBzspNUtKAEowb1hbYem44NasdY7VAiiCwQhQifWNtRU2E+wW1ijYN6NHjzZwB5c21vRAQIlzgD/oGwA/AEoAL6xzBM3GLQv3NICTQOYv7lsASugEuKsFA0oARpxnncXdjnUXEAc3MOqGpcNxXLtgFQf2iWfKuPhNo6MAyGAMY52mP9QJ4ycQUAKAQla4BnKvA5TQYxgPRjJc1ZGR0yXQe+gXYBT7XwxYCTGU2DMT5PvJJ5+UBQsWmP7C+HkmgYX6GAcFPQEmEn1Ad+CFTK+55hpjIgWCaciHuukjeooHlAKl6j9HXAJJAZQm6sLy0effaFyk+eZCFtyZrFmy6qSfXUqXLCHVKmtU+ZaNpYUydxqr73VgefLFdzSW0edSt9apoNw394l3szBb3dQAeyZo24BYN/a7VLq0bxVX5yH9Y8dKgqvZEAWWVq5aa1nWsJ65Au0VoKlOzWpy07WXWp8KFSiok85plOfLb34U+lW2TClp37qp3Kl9glkUXPbrRmXq9LnyyDNvyNLlq2whfOL//qaAWUXzHf9++GiZOGVG8G1hv/fs2kF6dutowBsufh9++o0sWLJcx7Uz7H3uZM1qlaVN80Zyq2bAq6Xsq8QUDyglRkr+mqRKgEXbtDN1ZOBv8OTJTBpMe7duFjbKrhUzZf/a+XJI3d5OKkWYzUSestWlcB21Pjbopn+lCgAf2CMHt+hvf85otW7PkjylK0tujceRWxlH2QuU1OxB2eXwrk2ye9EE2b1gvMZQUncJdZvLouykUq2vkiJ1Op9SJk7/bSd1DNF4fSQBJScfgBosdSgt0LZxb7Pn7y7QdxQsAmkC5uDfH+hChoIKIEXwbNzS7rjjDolR8IiC0stxQCGUrnClYsWKprwS1BplzBUo5FDdUfCwHHIe0InYDYEKJ9cDKKFAoqQBcqFEJlRQJlGKO3bsaIEy+UxbWGBRABl3fEG5qRtZQamnPVIGoyQiIyyJUOsjUTygFAkpZvA69HcKyBP7t63B9tV97cjuzQr6L9HMbpqqer2yjzS720llcStiJDG97pUi9TrZXH1SM7Ud0fl63Zj+ckjBp2x58ks+nfOZ07NqcO5seYrqZie7bJo8SPYum6ZBvFXn0b+rHIVKSvHWV1osvJwaF0+3bfoQMuKcfn4AJX7xx9UocEAT0kz8fYYM/XGMTJw0UwNkb9AzTreOdT0vX76UNKhfU/qq+xmb2UeffFMaqpvatX0vltpqwAUwohzROXaN3g+oQ2yiP1SPRl04XV/selGsaCHp1L6F3HDtJermVkFjj57eXB8GUNIYqABdH3/6rcVCpYZwhbAc7771uDGRhmhsqFEaPHz+wmVn3ULiHzK41VY3uAbqBQEbC4YVuv35KCkBKBHEmbg7sGLJCEYsH9ZC1jJXcOViHYN9AwuI2EcwiwB9YOyw3sNQAlCChRS4lsJewrWNNY31DECJdRzQB/YS9Tz//PMGfLDmu4IugcsbOgHreShAieDTgD8EmOZ3hqGKvjAeXpwj8DbjCgSrmLecDoHBC0MPLCpYPbCfccEHjAHkcgV3fNZOgDd0BwcoMVaAKNZtrmG9JjYRQBVgFnUwZlzxkCmue+EYSvTNAUrIl+eBrgQ45grXBL5iVEcCAASgY/w8yxdeeMHGgN7gACXugRWGXHEvpF4PKDmp+vcUkUBSACVoq7izYUUg81lwiUVrM+vEncssBsQygklUpPCZwMzcBUtk8dKVZgGoULa00V9PT2dn1rpz1x6LXbRF2wZRJyB3qRLF4urEEk4QP+ipZH7boWykXcpc2q1WBlNMVMkvrJaGQoUKSNHChfT+8gJ7ycVYcq2RSWKuspxyq2sawbNZRHLovcEFSwsA1mwN0r1n336j/TaoW0MKKK0Wy8baDZvMYhN8X7jvMIyg7JZRNz3GuWzFGg1CvtfGFe4+d66AWk6IaQWIBxU5McUDSomRkr8mYQnEKpf8i+X6+EFNJazsoSOaje2IMoiO79+tQVf3WODVo/s1NbQGYD12cI9k0r/brHkKSv4ayiiq0VoKVWul2wV1i9Osbcc1UOvhnRs1SOsOtWQrtV7dIbIoQ+nE0cNyePt6BZJ+s4xAbGoyZ8+poFQNKfz/7J0HlF3FtaZ355ylTlJLLQkllBNRCYEkiygDMsEMGGPsZ4/tN295wIFZMx7by2tmrTfGxpgH2AaMbZ7fw4CwTRIooYiEchbKoYPUOUod5//q9pFarW5AqNV09z2lddU3nFOnqs69u6r+/e9/j51t8fobndq/ZXHUkUX55B71xiMuBaAECwhvJotBmEg89zxpLGpg2bDAgjWEpxNaPQs9bwHK8dC4Sc2LBw2gx1vUsbjifRa0LIw+rrBIhNUDmNTay4jGAp5GrsOCks9pC17G1gto6uZzrscDxpXnDfy461IHfYFmDgjEc66JVgPzEuAZ4YDoF3RU6CfXo5/0gTHieLydnVF8QKkzRjGY6mhlz/W06TSi2SVWi2i2kiFgk+sqZdOrZNPFUKqXTccJ0Cy7HSKHYpjsdc7cb1rqyOkClxSurN9VY12tA58aT1W1MJQSnT0PCY9xIFPVwU1WIeHuWtn2pvrTFpczwhKGTLCUEVOdPQ+P8ljwwWjTPz9ACbvLevfEiWI7qoQ2x/IKZR9LZE+rBCk1O2YPkg+pcrz2SUu2QbnMvaFubZyq9faQQTlujQ9QQ2nUd6G6qsY5o48fL5S+qkLcVRegFaFsCQlxTkIC1hDr4SFDBui9eKfZ5P0CsatFRaUu4mCf1smwij6pwKYiLI45hn1CXr6uy/6gTQlVREOE5i2YSbSffQv962pmkteszgSUmN+Y0wh/AnzBgQLThTDrtnMhjiFADoAK1g2wbAhTB5QALIENhHMGAAcwhnmP7wr1wyR68sknHdgC0MLxzIeASXwGawnNJkLovLAuQtEAkn74wx86XSfC0tpqKHFuW0CJed3TOnpBYXE4b+gTelCt1wGEk6MbxXUAXGgzoeY//vGPHXhF6B7sJ+ZrrxAuTz8BbQBvAJRYnwC28RwmFQASuk70kzUI6x3GlfA1QDSuhdj3xwFKgGqAd4888ogbMxhfhN9Rp1f4ziMxAICF4w6WNesNnF+MK+GEjCksK8aOOrnfrEUIB0RDibZSpw8oeaPq/70kI3AhgNIlaUAnVoqoHlRVMroBegG6R2th7ii1ost6yG0nXrLHVuUDSj321nWjhjsYSeFsXva1Iue5Pl2ap2xuR8QkOm6NCnNrqK12jKQQLehCwiMEAsVYmB5RyRmWNPJq6R6NsbjMYWf8z2e2NAAJ+g07Me6mRukvbdfG40Mr27pUm5gyM9UVkzXYkhXm1nfCzcoeFOd0N4LTk/3xX4tLASh5V2TxAqOHBRsLLoB/mEksxACIAJF82+uNVtf+9QGlrh3vnn012VvZ3CYcA7UK+1HIcYOcA3UKR6s+edjqxTSqV1haXaUAWoH7EFVCIgQQR0gMX8B+REJKgFk0eb6z6d5G1QHCYjhhywPvSfxYwBH1wzQt3fqurlHsNkFhcjKkjJ4mMOkasVIHK9TtLGugZ4/tZ2395wcotW0xm2V0Q0tKBCDqQ3RU+wh0IRTNcxK0Paej12ySASBKSiu0Xq+202Ie4QxNTUl0G2KyQQd76UxAiXkZRg+C2GjueMAFzJy2hXmc8CvYTE899ZQTwYaJAxMXxi/sHhg0sHsI0WaO5zeOUwmghrA4wB7AHQAl9H8Ap6gL0AZAB1AEphEgnwf4kOWNMPn2sry1ByjhvAJk4bMnnnjCsZMIZwcgItyMNQjtgC30+uuvu9e0+/7773djAKsHp9ikSZMcIAPoAhjDWC1TGBlMK8YBxhMgEu2lPsAnQgJhZyFaDlDDGoi2Hzp0yIF2W7ZscQ4sACUAItY/CGrDbqIgPA64gzMKp9pjjz3mMrgB2qGjiPA4ji9+J9QLeLR582YHKAECwvQC1AJMgkXFmMIY455QB78twCc+f/zxx50kAJ/5gFLbb7v/ulNHoDcBSgwMoFKTvBb8ECkhCmtDPJCFjLfAcR8E+X8+oBTkX4BO6j6eytoT+xXKtk1Z2tY6BlHDqVqBQBLK1gMmEpsUFqChMbEKc0izKGXtiekj2q7CHuKzhllkfJoDmc5vEmdp86HNS0OttBrW/Kc2IKuchxzvd0RSqqVfdbuEW6dYdLI0dqTp4HYt51cU9O9cSkCJwWVBxYOFJQ/P3rLR8J4H/U34HAbAB5Q+h0HvsZfUb1fAPQzRStnzkm3vSfdI2kbSNQJkEn1INBP+kolNlln2lqQKkSkZFpmWI3t+mSVkD5OjQNpjsWe9/YHh4IxAgVNyurzQire9a5X7NljNkd3S2Wu0yNRMSxg22ZKHX2MJOWOkoxMp2yGWU1CX7gMoYdex8R4rCLuOTumFgkne7aQ+1umNCltvVr2AC9TnzxeBEepMQAkmLCAH7CEYMbBmAC1IUtG2AEbAbkF/ENYQQApaQ48++qhj7ABgUF9ubq7dfPPNDqzgOwArh/kGAIf7CoMJQInPYDwBmsAYhiUM+AFbCacTmkSsTwBAYPp8WkCJ7yLgD9nYfvazn7lrDhw40LGnCDeH6btx40andQSIhsA4IBeJQWBEwUDiffo7Y8YMF24Goxg2EKH4sJMIdyN0D0AJDSKcZYSQAe4ABnmAEsdxLYAzxgAQCLYxgJIXTkd4GlpHiHhzHcIGAfZgNjHWhNExTrDBAMYYH9hitJXPCEEELIK9BajENQD9YETRFoAxsu/BxKZPsJcQ5aY9HgDoA0ptv+3+604dgd4GKHXq4PTiynxAqRff3C7qmtPV0EajeNtiK9m6WMDSIRfe1ixAFwgJr3VkYh+X7SdKOhjh2mSEI8iqR4RAJB6R8RLP18ZBaFA7rdYCVp7tmvyPHJBUuX+9S1HNQjQma6jFD5kY8GT3zbUwiXL7YFI7Q9jy1qUGlDq+sv/J5zkCPqD0eY5+T7s24H2NVR7bYRX71lvpjhWy5xUO0NcuX6LYEWKBxgo86icmksJXE9MDtlz2PCw2xdn6KGViCwuPcuFv7fWeeeGUhLqrju7QvLFEmeEOKbObsn2mKNPXgNES4J6lDJ2SG1DdIjT5ReNVXXbYKop2W3HeOkvpO8Qy+o/3xyUIRqAzASUAEHSMYMkAihA+ht4QAEzbwvqKY15++WX7+c9/7pjHgCqIO8NCAgACOCE8HHYSoV2AIoAfgBw8COMGFHnmmWccSERYPMAP8xHMGgAQAB/Yy4AxnAvrh1A1NI4efvhhJwTOsYSzIfTdNuSNdvIgnA2tIFg8gDUAOYhawzbiujCuALXIjAazh/pha6FbCIMHnUaAKZJw0BeYTzCXOA9wadCgQa7vsIoAPQF/6D/sKELPYDAB4MDS5lweCIYDAAFgedpOgGmMAewnQtzRS/LYRtwf1mj0AzYTTC7qZWwYZ8YdII4xBXCCHQVjkPFkbDifNgN6wWyiv9wD2E+0hXB6ACcfUGr7bfdfd+oI+IBSpw5nj6nMB5R6zK3qtg3Fm93UeMrylv3JCla/Ipc1vmexU+SMZqIPVYa2mOyhYhBNtKTBE7ThyAhk6xFrsDkENhHeyI67x+ajUdco3b7Ejr39tPQ8anSJBpcVKGXcbOtzxXyLSdamRhmAfDCp43HkEx9Q+vjx6a2f+oBSb72znd8vwfdigpYrIcIiK9v7gVUe2CpQJ8Askjl3YBKs0PhBEy0+d5wl5oy28Ehl3wyLkCnHkH88C5yasOnlu5db+a6VVrp3gwOsQrWBir9svNPSSxs9W+HQAefAx0wNnd/5blujDyh121tziRvWmYASIBChaOgZAbb85Cc/ccAKQFBHBWFtwr5gNgEAwVACrAG4AIgBwCEkDKYQwBKZVgGEeE2yDkCPX/3qVw44AmQhtA0whfAzgB7CxyiAIJwLKAI7DUbUAw884AAQQBtAGM75zne+48AUmFGtQ+ipJz8/34XjAfRQN0AMBWAF7SPC9WBkwX4CFIJBBYiFiDgsnuXLlzsgiDA5QCWANtoESwmABu0p2sl4AWDBbGIMYHIB7FAn1wF4A5iiPYBDgFGwwAizo2+cC6to/fr1bo0MS+m73/2uew47CdYUDK+DBw+6caQPtAnRb0LrYCBxDxhvCoARY8S9ZWwBxlh7o8HIOAJCAazRX1hRAHX8vdASokoDM8GFnukfH1Qj4ANKQXW7z3TWB5TODIX/5DOOgMdQyl/171a49jUBPgp1U0gEGwFmn+bQcAuVoGpCv8ssadAoi82+3KIkmh0RnyJCUkRLiBoXb3/rwOajqblRoReL7dibv5Fux2nVK2p8pNIXT1Kc/NULLDJGGxp5xDuqg9r94gNKwfod8AGlYL3zF95vB+Ar3K1kr0I2dq0R6LMqYMi1EcKeh2hzFibNpIjkDIvrp5Trw65Q6PJAi0wQmyhS4Wmy94KUdOGO7TnbkiJpJpUqsUL1YW1GawNC3cnSTUpScoaky67UNcRwcs1vv54L71lPPsMHlHry3buYtncmoAQjBgYQIAqsIESxCS8DcOmowGwhtA3QBIACgAXmksdEAlgCKKIA8AC8eGLenAugBKsIQIPjYNpQF+fzGlaPx8bhNdnf+AzwB1YP4AzXAJyBeQSQBEBCmBzgjFc8dhCMINrLsbCLeB8WFGAYYWCIgMP84VzqhUlFO2kT7CL6hn0CFGO8YCehz8T1fvOb37iwMdrLefSFa8ECou2EogHU8WCsuD6MJOpCzwlACNAJ8OuQdJZgHNE+QtEIz6N4wBiaU9RLuzgH8AgQCY0nWEvU7wFqAGeASFyL/gMwcU85h35zj6mDwn0ATOLvhRYfULrQEQvS431AKThvfO8DlLQcZtUrRsvHFk0mTpfBTUhnJ6WPPaeTPqR9eAqYuPBq8JyCB4JJHpHLwETZte367N1jzJusdPdKK97xvsvk0yAR7uYGaW0AKKm/cJaipbMR1zfLovoMkk6GUrqmZlmswtSikjO1cdCCptXi4Ny2AChJ7PCjtVbw/kt2uiTfGmsqnbB36ugZ1mfyTQqny7GImESd1lPG7NwedtUrn6HUVSPdva7TowEl/fbRVnHGpKNh9ew5v/8O7UhHJ1/8+9g4bDmPhha7R7aoSIHe2HUW8603Pxd/xUtXgwPwJZZdXbjfKg5sFOjzvjUoq1ujQB/sPDadYUaEO4oQtX7DnV4STgKYqJEJSlkdoYxszhS3Z48Dc3T5oc1iQK2zsu1LXf2hAqLiBo2xpOFXW9qY2Y4JFdBOaq+OS9f/7lmzDyh1z/ty6VvVmYDSxbbWreVkiwGMCBUDsACkIXyMtSufA9KQQQ7hboAfGDUwYrB/gDwrV650QAjgCuAIYVjYSMLPYE7BmqIeNIfQNPKAlk/bds4FYAGIAWQBsAFAAtQBFGpdAHVgUQEoAToRfkafAGpYl8Mgoi9kkQPMQdga1pJny73xoO1ck+vAXqI/FNb4AE0cT52AQB54R7u8R2DdL8mHVoW2A0gBrjF/AAB59bc67Jyn1Mf1aA/n0BbAJK7bGcUHlDpjFIOgDh9QCoKb3E4XexughIFvbpSHQQviDjcg0unBy0p6Y7yp+q+dken8t1iHu8W4FuUYfSaKYhn+OjFuWH0naCJjUktKlhaF24B0Tbs6o6f0DcHsGmUBylv7slUfkddZuhuhuh9aHThAiX1eYCKWhxv9pLRsy7ziNktVWujQEO4DB7RtjRs1d351wT4r3bPKKuQ1r83bp3A5s/j+wy1p2BRLHTXLouUlP+/0ttUF+WsfUArOL0BPBpRIRe9sugMzAvag9V10NgV7DjMGey6RaEARSoAp0/rozn/OnMPmo7w8oBtSVQnwonTqcgykpfVxHnsW9iQG6Yr2XGwPAyOnEZRTpko2t2TPaqvev8FOFRyQk6DB9c3FM3Mh5lI3n0qYW3pK6dcusMSBYy0mKaPFnrdnkblCIGFK9fE9dvStX0sT75DusVinUdGy51dYzuyHnbZeSNi5m6yL7VvPPd8HlHruvbu4lnc3QAlbhyYS4VUANDCJAIwAhgA0EI9+QXpHAEqIdZN5bP78+Q5wQbCa7GjYRzSA0DNCkwgAZt26dU50mtA2GDTf+973XHgZbJzPUtxeQNehMEcE1p7n1rRM4WFoRBEKCDD2yCOPONYW63DYQ+hNEa4HyITWFEwrQtnaFq7llbbX8T5r+753PJ+395l3nveXY9o7zqvH+8vxrev8NOd4537SXx9Q+qQR8j93I+ADSsH5RehNgBLe04ZT1VajRSpU+tYspTP2XuvbwBJXnBho+4mplqjsYFESGA1Tunk+DSz6mSDaWwx/tu+JZ+SJH98jgcHNmzfJW5PvJtlGvO+6HBsQPBAZoqjecMNsxWIPd16NzpwQPlvrP91ZTQpzIzMQm5A6pYJuPlVj5Ye3Wm3+PmuqEmNJn4dKNBsR7TCBP/WRiVZaL89JTKpdPgoRQWjIZ68VmKL5P3Av6mvKlRUo3wpX/9XK96wVaFgngW/pM6UPtMzp91nCgDEBHY+zVfjP2oyADyi1GZAgednTAKUzv30Z7op90vE5vE2sRAE1siGBz87eOGcyZDik1iamTF+Lzx5iUcocGSFB51DnLOCzgFU/e9bFP0MjBG/89u3b7O233pKDQDoap+vklRYApkaGCkCCocTm6NppUxUqIiHljMyLv3AX1QAo11CjMJCyfKsrP6FHoZ0qLbCavL1ujpW4h5lCmcOUcCG+/0hrTsqxncfLLS17kE2ccrVFCxwKb/HUn20yTDMsOuFzCHMftcL1C63qwBY7feKwAwNjFUaXPnmexUubKSo1R3NCz3GsnO1nZz/zAaXOHtGeUl93ApQYM363aBSRPQzNIV6PGjXKsWCwiYSJEQpG+NiDDz7oBKTR8QGIQhPo6aefdnpMhIzl5ua68DBYO4R3cR5MoqlTpzr9JELHeH2pCu1Bz4g2sTZHH4lrwgbC4Ut4IFnnCL1DWBu2FYyfYC0+oBSsd/4C++0DShc4YL3k8F4FKMmjWldVaiXbl1neot86r7Z3mwIe67NohQyjA5TIKpM6fo7FDxxjMX1zlJEsoMXDFqSzACUm3NraGivIL5DQ3oe2etVKWyXab75ipPFae9ehjUyeAEoPPPAVm3ndLHlNBpyhz3p96e5/m9RfvNuwCk7uXG4VBzdbc2m+C4Frks5RffY4q47qY2U1DVZYcNJtOubM/YJlpGec8cAwZixOGk6VSzOpxoWzEWIh6pblr3hJekpLra6kwHnMI+ISLXPmfZY09CqLkmfc34B0/A3xAaWOx6Y3f9KTAaWCVS9Z0cY3rb6sRBnrBda0vlEyn1hQmQuFxTaLpdjfkgePsbhcsWSyhlm0wmlDwyU4C4um9XkX+ZzQNsCkj/butffeXWQvPP+cNlDoiHhXkQ1ssWEDcwfZTfLUT58+w8ZLDyQmJtY5Ci6yCV12Ov2AUdRwutqqlZmtct8Gq/zoQ9l3pXqPiLGG+D7WlDbEihpi7L1Fi23IZUPt7rvv0VwW78JgaCh14PBpbpC+HuHoqjJE9rxeDqDKw1usbOcKq9i5yoU2Ryb1sYSBo5Tp7Xolcpgie97CXu2yHnfHC/mAUne8K13Rpu4GKNFnBK/JigYLCUFuwr0AjCiEbwGiA87cddddjoFEuBeOUcAmRL4BpACjAJ1gNVFgKcFygvE0c+ZM99cLD3MHXIL/uD56Q08++aStWLHChZgF7J0sntafrMcR537ooYdce9BIInogWIsPKAXrnb/AfvuA0gUOWC85vDcBSk1aqNZXlyob2DI7/s5vNSNoovLW9y33y9uM8BefNZlpwgVIxOeOtpRRUy02a4RFJqHp0+bEi7jfTEz75OX4i9J6btq0wQ7sP2DV8n4QX+1Ky6VoU5g8NVFRkTZUYonXXX+DPfjVr4q1lNziab+IRnTlqeoI4Bj/6mrKFAonZoFCENFBqdIm7LW33rX1GzbLI3REi43xohJfa7PUV+Lttepwmw8WJyxSKvevs9OFeyx12AQX0hYa20eMhQ8dQ6l0+3KxFiRYKE94/JCxyg50jaWNnqsNpB8m0dHt9gGljkamd7/f0wClgAVxuIMVrHzJigGUyksESNSdd6MIfQXzcDZdv/3QqBiLjEsWw+Vyy5h6TwBUkl09bzI4r6ZP9wYbjqKik85z/ec//tHWfbBWnvVCEWLP8qBoC1MIx6JfkZyS7EClm2+51TFPsek9q6Bj1WCN0odCS6mhtkL9bbLyiio7JqfA2+8ttlVrxSSrqrGbb7rVHlEmKDaIoS2bL7J0NtRr81gmJ0BtmcRFaiy8T66Fxae5JAvFG98S8/Q/lNDhlHMIwBbOmnqX9Zk4T8BTjPDA4N3EBb4nPqDUs34vndfa7ggoeYA6QtmIUiMEjWYRBRFowtTQR2JNByjjsewBj2D+wETiXFhB6P1QOBadIsAonsME8s5zB1yC/1ibsw6nLTwQwgZgwlkAuIWAN/3g4YFJl7pNl6CbnValDyh12lD27op8QKl339+OetdrASXHUFKmMRhA2kyExiiTRUyyFsENjvHSWK1Upcoc5pHpo1IzLa7/CEubcKPFK3QqTPpKeLXPL26roLdbUKBzDmjvs2Y3Ya5fv86efuop59FmQo2OjnGT1KjLL7fSslJH9z1y5LDV1tQ67/XI0aPsBsWYP/CVB6WrlNKzAKWWMWE0AiKueKeb3aJjh0QXX331Fdu8aaMVa1M278abtdG6xcWnp6amGeF/gSwVhVZZXmGxxVstseqgxabnWKRCK8KikxROd8JOnTxqVcoO1Hi6RpuWUIuQ4HfysKsta9p9Fsa95v61e4/OuWFB98IHlILulrsO9zRACTCaAkRTsPLPYii9YQ0VpY6hxO86TE6AEIVbkSWyQQzGRrFnDN082Q/OxH7HZl5mGdPvtXiFUEUl9NG7n9ZmB67M/2dL4FzsGODI2tWrlUr6DXt/+TI7ImBcOLgy9QyTYGuuA5COHz/mxF7ZQLEBIYTi9gV32oIvfckG5Q7WZokEAj2pOGuuBgcAf6FLGupm26Xw7YWvLRTrdoUAtr2WKKCMPj766Pd1bwJpuWFu7dq1044cOmAThg+wxKZyqz64yUIFJoXF4vEPt6pjO61833oHLrlQdY1Z2thZYinNsth+Iy08Rve7Jw1Xp7fVB5Q6fUh7SIXdEVBi6JwtlOOP9Sx6Q7B9KOgPkenNA4TaA2AAcTgeYAnhaQrncC4AlCdq7T7ogv8AlmgPYXg8eE77kaDwgKRLzZbqgm5e9CV8QOmihzA4KvABpeC4z2172ZsAJaj0dS0MpWMASjCUBDY4rSR5QyMzhmtDojSlFScDeg112oQ0ng7oi7Ij0AI4Z84/WeromTpHWRqcVzTAVWJxHCI2E1ucwOMs2OTCu3Rtuc9bhld1heh4vOICpVhML1u6xH7/29/ZSXk/0JXIlCeGOPF7773XpfrcuGGDLX7vXSspLrEogU3XzZpl191wveLPr3eCgAEtkLN3j8mcSbARgEwLewpUXCY9Hu1N4mfPbv8ZDK9AnQpXU/3UEagzUG/7Z53/LudSvL/UwwOa88KFC7UZW2l52nAx5Avuuttum3+7jRs3zvWztvaULVmy2LZv22plRcU2JqHMRsVXyCNerfvUJLBNnmr1s1m0hCYtShxgpXAM7hJaWP1ueEiZhzKcHpbLHHd+84L6HR9QCs7b3xMBJaxIiH7nBav+bCcFKNV7gJJsalTWZRaRkqU09XFWV1kkfR8xXyrl6a7TpkaOAkKaI/V56rhZsguTLF7hb4BTXglpsc8BnwHvn7XnHNPcqNC6JtmXM+fAZg1XSFaIy+T2/PO/tyd++bhYlHWOqYOdvFNAypy5c90mZM3qVY6RikA3n/VVOO+dX1pg87/4RUsW6IK2Uuvi2XPsL3YYE+rZX87n+YWWQJ0KS9Omj3qxkcxJAZt+YXMEdbW257SF1+8q3O8H33/USpUlieykOWIX3HHnAvvWf/2260N1dZXl5efZXyW0u2bVCnvkn79lQ2JrLH/pHzTGOHxCZdMjlGAhxDkTCKNTYzXuzQIEcy1x8HjrM+WLFq0McufeoQsdjZ5+vA8o9fQ7+Fnb310Bpc/aH/+8njsCPqDUc+9dl7bcB5S6dLi7zcV6O6AUosVquLQckkdMl1bSPG0StMCWR7tBDKWy7UusYu9aVsZuccyivc+Vt4mpNNKaoOULwAAQClUdiIPGDRinl1rcu21GYIFPfbVFR+x0aZ42NoWufjINhcelKZV9f4vtm2t/+9vr9o5EW/FmV4h1kyivxz2kRJ0504kZ4qGB+rtk8WK3+M/O7ieR6lE2aPAgJ+Lq4s/PbGwCC/mAV+ikHZbXl00LzJ4snZeZmeWyUHDOp/WoeJuF0pLiM0wpPDQs9Afm5ro6of9+ElDl1YP3yXvwRWcDQzaQN99801566SXbvXO7Yyc1aXy/+tDD8mjfZYOHDLZyeYZI4fr31xfabnm+icW/cUI/u254stXkH3ShFgjdgkQ5yEp9prg7oTdisy+z1MlzlGVIOiUCENlA+eXcEfABpXPHI1he9SZACfvqdO8ENkQmKeOOgB9CnauObreao7ut9thuZx8IZY7LGS5gQiLdaTmOmYquGyU6bYCzz6S4dxpLZ2wFc4FCc/N2y+bskT0XuKHXADxJueMtJD7TCk8W2Z//+KL97nfP6nPpNskBgBf7q1/7mt1623xntzyGEhpLNGbs+PEu/TUppyOUDKK1bcZuwmQ6efKE5QtoJ+SiTjY0VvPWgAEDXRgIDKcLAZYAkcgkWlhYYHnHjlpZebnMZqhC71JdNiPCUlxImgCdjopnz/lL+DFhLjynHR4otWTxe/bYj37gtFFgFoyVY+DWW2+ze798n8JGamzX7p326l9ftk0bN1mNwKXHvv89G5Fw2oqWveCAMw2EA5Ww59QNEMh4NYcIEExM0f0bYVkzHhRDdbADF8/cpo4a3Wvf9wGlXntrP6FjPqD0CQPkf9xlI+ADSl021D37Qj6g1LPv32dtfW8HlAKZ3JKlxXCzNBm+7IYJEKhJHugCiTuf+GCh9iPS99ECHAAiefwsi0zNstP5H2kDgsiqAAvpcsQPHGd9J8+3MGUpw6vqQRVN0vQo3bXCKo9uUwac4yIp1VtYZKzFCJRKHDBWjzH2vNKrvvmPf7hsQDU1Nc6D/V8eeMCuFwNpzNhxLsSN+POtW7a654BCfdOVrUgbCs8zzQahsqpSQEyRssMVOIpxQZ5i0A/td5RjPNCZ2YG49X79+kvYO8PS5RUnYwXAzPml2YE+xWIBQVcuKi6yE8qykZ93XCEchx3lN0yAUm5urmUrHj7TxZL3t3T9ZeMAYOUVrk1mIxeHrjZVVJRbjUL32IAI+7E0tWHSpMn2lkC155/7vR0/esQdw3nf/u4/O0ApOjrKiTsuFaiGYHlx8UnrrzSuC+ZeY/OuHG6VR3ZaXdkJawYMlJBrYx3MMrzu4Ev6X5uQGACliTdYYu5EAXnagHgN9P+eGQEfUDozFEH1pDcASl7IG0zRdOnrpFw+TYkUBgaYQwp5Kz+6w8p2rLCSDW85xgvaapHJsn8C9iOS0p1+jwuN052Pyx6u0ObRlpAzVpkik/ROwFo0CXBqFHO1ZMdSK929WmCVGDPYe80B6ZNusbC+w+3wkWP27y/9yV78wwsOpAEsB3D/xje/aXcs+JLFCvwBUMde79+334FOI0dd7uy5Zzexfdj0PNlbshuVlZYpaUOe9EiOOjsMoISo9QCF0JGYoW/fPgKWpOUhW+yBOW2/wIBS2Nx81VOoOaJYrCH0TY4DKAmsx06mKKwYjZL+/XOsj+pkrkG3xJtnvDrrNY8VKRyFkBQe1VXVApVOCQRqlj1Pk9MiW/NYoq1ZvcZ+8r//lxwlZS5cZdqMGTZXCRbmKCPS9u07bKUEeF95+T9cHYjbPvbYD2xMpjIobX7LAXwNmmPrayudxp4Ems6x2eFJqQKURlr2jAdaACVuU7BadR9Q8r6bwfbXB5SC7Y533/76gFL3vTfdqmU+oNStbkeXNSZoAKVJApSu/bJACIaW/5osf81f7cSHf7P6ylK3oAVQSpkw2yISUqx850r3PmFV6DAlDb9G4XDfcJuPMLKNtZRGLYjzlj1nZdp8nFY91tBoEXEpljJpriUPnWIJ/S4/D1CKEMADI4eF98Pf+CcH0BDSxiaE4nmAvUU+9H+8zXv37rZVq1bZO2+/YycLT1hFWbk2JYR9cQT7HoWCREugWhuRq6+9xqYpxenUqWJmaSHfdhnOOeXaBKxaucJWKzxj7Zo1jiFUI68yGiGuQuqUNxoAiQ0TWkcIhQ8ePNi957UP7zV1vak0sm+/9aZArkNWWVHpMvagbzRhwkT7nz/+ia3Q5uKZp//NYELRHzz///3RH9htCgM5sH+fvbtokS18daHbuKSmpdqEiePti7fdYjOnXmU1hUpVfeKQtJOOWPXx/VZXWmihaif9grTUrBCW+CETLeu6+y0mtZ9FaJPYts86NOiLDygF51eg9wFKX3KAEgxQACbCp+qqy6xk62I7vuhZhzsAAsFOjUzLtvCEvlZ7ZJfC5ood+yUmY6ALp0qfdJtFJWefASoaT1XKMXDMTq7/hxVvXhwApmLidEyaZU69zyL6jXP27aU/nwWUsLvY7K99/et21z33OOAnWmAWNhaQB2MK27M1K6lOADzOhYULX7OlCvHdu2uPmKaVsucSvhbQhD3HvlJvvLQ8SLs9e85cu/3OO12WONhFbe0b4WXFJUX2t9dft/eXLbNDcgwABDWqDQBYlDC1lZBrtEpGjx1jc1TnLbfKUaLrePac2QQG7HIxalcp8xFZSXl96pQ0qtSwSZMn2yw5Q9CM2rN7t/3i//2raztCujeLnTRtxnQbL0bWs888Y+9qrjp+VOHNIkL1H5hjj/7wRzZh9FCzynyrV+ZP7HkF96XspMS6Ky1MfQYzYuyi5CDApmdq7o5OFejlesD/bXvuPujl//mAUi+/wR12zweUOhwa/4MuHgEfUOriAe+plzu+7S9WemS1xcZnWULaZZbYd0RP7Yrf7gsYgYL9i6385G5LzpliSdmTLClz/AWc3b0OhXnUVkPpDEOpBVByLXYATLO0Of5iJ9a9bg015Y5ZBKCUNuUmaW9kWqVS3Z8+cVismJNu/UrGoPTJN8ljOkqL25yWaiTQKs/40bd/I5bSSnm2xWiSxkaUUlVnzviy27BEJaY7TaD3BJbAUiqVp5iNRXx8vFvQf2HejXbllVe5xXnrRb03siysDx48IPbONgf6kKJ1v7LE1SibTp2AnCbphVDcMpsNiJhDeMFzxO4ZNXq08xSPFQsqN3eQO47NAnXu2L7NNny43j5QZp69e/fIi33cTskD3SBQSx+7wgaDetmARAuoGjp0qE3UZuIWbRrY4JCpiI3KwYMHXerstWtWiWW1RcBUuQuR8ECuyVdMsf/zf/9Vm5yl9uSvfy0Rxkq30QqTHtKDX33IplxxpS1+913buHGDRMv3yQvfz8ZpQzL3C3Nt7JixNiCnn5IClbgwxfqaMolylyi8sFRhLmXWeEoZ5KSDFaEQw7isoRLmvsLCo+Ndprdg3HYE7lzH/y9Xqt41Ag/5fnA/Rym00ttIdnyW/0lPH4GVYv0BRo+WTbhciQBGjBjhQITu2i9np9S41hpK5zKUWgNK4bIB9bIJJVYMoPTe7wNgjELLwuKTlMFzvLJ3DlemuLestmC/M5aRialiKI2yfjO+YtECpSjYxdMlYvPsWm5le5SxTEAHJSqtn8UPHmt9xs6RDt8wB4iT3e23v31WNrjOAUAcN3b8OJexct6NN9mQIUMkMgvz6dwCWESI885dO2yFfoubt2y2fXs/EvO0WOwi2XOAH7XD2V7ZX9AVwKOU1BT9VkfblVddJTBntg0fNvwMQIUj4sSJQtumNN4rViy3XQobxiZjh2GOehp72EPHrlWdZJ5Lz0h3YP/U6TPcHJSbm+saC2uKOt544x+2ZfMmO6YMTjCfGuob3Nwwe+4cMbEWONBr6+bN9qcXX3TgGGF0C+6+29L7psvBUC7dwKW2d88eAVqNNl7OgWm6zg1z5lj/fsqiKi3DxtPKFicbfqq8yBqqZMuVsbOuOpDJL0QAXGymHBfZwyw+Y4iz6WdHMhgte7PVVByziqJddvLoGksVAzej/wT3/Tg7Lv6z3jgC1ZUFVlV23MqKj1hq9hTLGjK3N3bT2T6ck7AqybLWXmGNjFi292Ct669f2hupS/OeDyhdmnHtdbXm73jFAUqR0VLo7zPUktJH9bo++h06fwTyP1pkZQKU0gZNs2QBSgk9+L53DCglBULerr0XOEVRDPICa/F+QmmKiz78hwOCnBioFtrpV9+h0Kkhjg1TfXCL1R7d5bzU0RJ6Thg4SiKvX7CEQZMc0NKocLd6bWKOvvNvSmO/RottZY2LjLGY9FyJQz9s8Qp7Q3/p4IH9tlJMoN8/+6wdE3DDBoDNS5pYOIO18bhdIqbXXXf9mfA0b4LEu42WESLV77z9pkRNV7mNR7g2SgBSTldDoAzHo+UBIFQrrzeTMfUT0nDddbNs7rx5Nnt2YBHCpqVcIWl//9vr9sbf/y4P8x53fKQ2GHGxcQ44AuihsLmpUV2wiWgHYrGEoT344EM2ddp0GzFypN6vdUDXE7/6pWMZEboXJcFZNiywpdjAjB8/wX70Px6zRe+8Y796/HFXF/UDUl0n0XFCLvCqE2IRo/CRq8Su4v2blAEuMdFLHRtAudxGU30lVKK2XFojVcXWIFAvNqWfRSf2tchYZU/CHa4SjNsO1/GP+Q9g4YMPPnBpeQEFx44de2Zj+jGn+R/18BFYJsYK936yAGFARO49i/PuWtoDlDxR7tAwQt4AlKZKK22gs38A+6dOHFSo2gor+OB1x1oMVxa4iNQMSxklYe7BU+z44ues8tAmF8YWJpZonIS9+8/9lssGhy6T005S2FzB+3+wmoKDAqjIBCpx6AGXW9qkeS58OSolW8BKnb36yiv2/PPPOfYN7J1AaXYhafff/xW7VgkXhgu0g5nkjTM2uba2xvZ+tFdszHekw/RHgUvVTtQ7JkZh0jHRspuRAXuuYwGfsOU1NdUOgI+Tzc/IyFSY8HftejFFyRSH7Qegh2G6aNHbYni+6s7jmjBLscGRYtTqMGfP6zWnwISiTtrTNz3dhui78HUxZWGzAl59sHatax9zzrFjR137Y5kbxLrCqs676SYHKG3bvtXNSe+9s8g5EPoqHPq2+V90c8aaNatlz4s0fmZZ/bL1/nynLwWLiXmL9+V74Y+K+qp5idC32pJjLmtfWGS0xYppGiObjvZTwJpzdLBadX13xOqqKN5tJw4tt5Q+ApRyJgTGhpvrl147AlXleVZVftwqy/ItJWuKZQ6+oVf2lfVuaWmp1rtLZHeOnddHbB0AEjIO6bJbPHgO25L1pmdnzzvxAt7AJgbYmKfc+tStY1W3XwIj4ANK/jfhU41A4e6/W6k8H2FaWCWkDZXh6rlMlU/V4aA/SEt2rc/y9r5lZSd2W+bweZbUb6LFpV7WY0fmLKC03AJZ3updtraIBGkoTZhnmdfcpaxu8mQLhKgtPGDFW5ZY+UdKVSzgxBNe7Xf9Vyxh8EQdU2Jl25ZKuHu5W8OGEfag1PRZCntIGT3LLdBPlxVYtYRbC1e/ZlVHdug4CYlKfylO2hzZVy8QsDTILfgIRdgq7/Hzz/3OMXjy5IGhsHhnI0EIwdRp0+wL825ygtqwjLg56F4c2LfPXnnlr9IfekMLigoxkOShkag3x0+YMMFycwe5TQvhE5vlTd64Yb2tE2BQL28yk2GGFvl33X2Pfevb33HXPCr9IphCTNrr161zG4v4+AS36L/66mvEYBjrAB4OdiFxq1Y4QdXdu3ZqU9PoNinDhg2z+bffbvfed5/zXuOJfvqpp5wWE1nYcnNztUkZqg0VXvQwFwKCXtTLyvTzy1/8wm0+CL2I1YYHTxPhfvkF+S6sbsSIkS6s48orrxQglu4WEK7hrf4LgErKhiRAD80T7ntYeJRjJRGiF7ybjlaD1MFTwKT169c7kXRCFwEYWofidHCa/3YPHgEWyYsXL7b3FXI6XWGwY8aMUXp7aQ/pN9hdS4eAkpgyAEoZU++wlBHXSlg7R2CE9H3ELCrZusRzZVfyAAABzklEQVSqDu+w2pOyr9pjhyt0OS53jKWMnC6tpDF2fOnzsvcfiA0jgWp1PKbvAMu6XvZe9joiVmxLNhMHNolx+mvVVyj7EgD+k4ZfZdkz71f2SAlZK30988Xu3btcqPB//uUvLosnYbdcNEqgS5YAcrK93X3PvQ4AImSNj52+UV6evfjiC87BADOpsbHJkpKTpKU31iZOnKhsl+PdnACID1NoxYr3beOHH2ouKHVAEQLgd9xxpwt/myIbyT08evSo/fqJX0rPaLWyiBZqYxXuNlt8Djt12PDhFiFgC227Q2IuLVXG0Q0bPrT6unpnXxME2v+3f/kXMULnycnR1xa+9qq99Kc/2b59HznmUUxsjLMT2H36R1tJGvHaq68oXG+pm9PqdV8ArxARJ5yvsIB2hNplQ4fa7XfcoTluimPhoufX3vcO8fMmZWV1eoZyzJCFL1RAGDp+vj3nu2V2uqZIgNIeK9j/niVJFyy9/ziNMQBk9wWGAy33/7+YEagsPWKVApVqxeZLyZpk6QNnXkx13fZcnJaHDh2yn/70p26N0rahAEoUbAjOSJyqN954o8J25zhGKK8vpmDXAfFXKMx3l5LCwODG8cI6yS+BEfj/AAAA//9wJYA3AABAAElEQVTsnQeAVdXx/we294Wl1wUBARHFhoJdsXdjS9FfojGJiRpTNcYSjTFVE80/UWOJsScmRmNX7A0LoFRp0tsCu2zv+/9+5u2Fx7ogS91dzoG377377j333LnvzZnzne/MdGhQs9CCBL5AAqvmjbeiRROstrLIsvIGW5e+B37BEeHjtiyB+roaq6spt2VzxltJ4XzrM/Isy+65t6Vm9Wqzl9VQX2c1ZYW2ZurrtvjFv1lDfY11SEiwhJQ0y+yzh2UN3Nc6NNRZbcVaqypcZuXL5lrFqiWmjdYhKdU6pmVbn8PPt5xB+1ltdaWt+uhpK3j/KWuoq1U/HS0xOcV6H/1Nyxt1vHXo2NFKF06xwumv2dpZH1ml92OWkb+n5ex+oHUZfril5PZwWdbX19uyZUvtrTffsPHjX7Z3337bysvLraam1j/v0bOHDR8+3E486RQbNWofGzhokNXX1dnsWbPs6f/9z15/7VX75JPJlpiYZEOHDrODDz3E9h41ynbffaj16tXLEhISrbKy0vd/b8K79uLzz9nCBQttzZo1OibRzjn3PPvBj35saWlpNn3aNLvnb3fZJx9/bMuWL7WcnBwbPmKEHXzIobbniJG2m87dpUsXH1dpaYl9rP1efWW8/fvxf1l5WbmZphP6Ofvcc+17l19un86Y6eN76MEHrbi42Dp16mTHn3CC7bvffjZkyBDr0KGjpWdkWM+ePe0ff7/Pbr3lFqutqbGOkl9KSorV1tYa8klKTrb9DzhAMjjJRh94kPXvn69jO7TZ72JrHfjkyZNt0qRJVlFRYfn5+XbooYf6vWit4w3j2joJ8PtC17z++uv2/vvv2/HHH2977rmnde3atVXf9wbjH6q5gy1/+yErmPiM1RQXWn1NtfRCgmUPHGXpPQZaYkYnq6+ttJqSAiud/7FVF63UvFajYztYcl4vy9vnOMuR3k/r3NuWv/+EFX36rlUsnWNSsJac09Xy9tXng/a3zN7Dve+1cz+0xc/ebtXFq72PDimp1nn4odbnqAstITXDOiYmuw5cu3atLVq00P71z8fs7bffsnlzZltdXT0j9hu258iRduRRR9sRRx7pOjs1NdWWL1vmevfee++2KZ984vdl4MDdbPgee9iBBx1oI/YcaYMHD5ZeTLWqqiorKCjQPZtg777ztr31xhtWsHKlzzsHSE8edfQ46eDzbOnSpfr8HXvkoQdt9uxZfu69997b9tl3X9t3/wNs9yG7W7/+/X0eKC0t9XmI+eRN9cccwHUkaY44/+v/53p7xIi97GH1dfddd/r8kZKqOa9Xbzvx5JNtf/WXnJLs35309HS7/U9/spdffsmWLlnqejzS6XWau2p0D0bsOcLGHHywnX76Gda3Tz/Lys728YU/WyaB2upSK1kz25bMetoys/Xd7Tlc9yNL87++k6G1WwkUFsy20uLlhnrJ7b63dendPtdm2CSzZPNedtllbqN0797dBg4caN26dfN7i15hPkOPrZQuXLBgge21115uwxx33HGuO7E/t7TRf3V1td1zzz3Say97v2PHjrXRo0dvaZft7rgOAVBqd/d0u1xQ0eIJVrTkAytdOdMBpR67HbldzhM6bR0SwDipLF1uBQves8ryNdZvv69bdvcRlpjSdo2+5gAll7ZAkIa6Bq0h6mWQdxA4xCNBH8Wwdv4m5XSzlB6DrNfo0y1nwN7CTRpsxYT/aDHzqACocusgUClBoFKvYy/WIuQkLcaSrHDqy7birYetqmi1gNgY2NJp76Os897jLKvH7paUlhOtLxw0qaqussf/9U/7x/1/t6WLl1hJSYkPD9wkJzfXRu2zr5188il22mmnW7UM8jdk9P/yhhu0EJHBrvNnyIg//cwv2c+vucYSk5I0ngQtX9aDLlzHp5/OtOefe9Zefukl+0TgAWDNKaeeZt/57vccKJosMOH66661lcuXW3Jykg0ZurudfMqpduE3L3bwBxBnfY9ad+n4l1580a6//lpbXbDSKsorfNuZZ51ll17+fV8YvfPWW/aczsn19Ord267++TU29uBDrHPnzn59TNRVVRV215132p9uvVVAX73LNyZ90ziSLU8g1jkCqS7//hW+aAKIih+HdxT+bLUEPv30U5syZYrNnz/f+vbtaycI/ON7FFr7lABG+nL91idMmGAzZsywM88800YIQM4QyNuaAdvmAKXaRkAJpVpfW+d6hLsG2O96XbqdBpjEI73nYOt9zEWWIb2ekCB9Pfs9K5z5tq2d9qY7CRLSMyy9z+7WecQR1mXkcdLzxVY85wNb8tJdApQK1W+SJeV1t7wRh1ufQ7+mE3XkbH4O/gDiT5o00V544TkBOg85SNs4pfhugEg//slPHSTv1q2HffTBh66Xn3vuaVu8aJH26WBnnX2OnXDiSbbf/vtZVlbWBv2jH9euLXLg5ze/+pVNnz7NdW+PHj3tsMMPtx/KSfCSAJ0HHnjAFs3/zMq00NLEZJcL6D9D80RPAUHJAu3Xjzg2483/bJ69/957dsdf/2Jz58xxsOmwIw63o8aNsxNPPMUefvAB/6ysrMwdAaP22cfO/fJXbOzYg/07w9xYVLTGrvn5z31uqJIcmCeixufolK+ef76u7UQ5P/aREyJ9g3FE+4bnzZdAg5xhpWvm2qLpj1tKWobldt3N0jO7yxmTvvmdhD3bnAQKlk6x0pKVlpSaZ7nd9tRjZJu7hs0ZcDygtHjxYjvooIPsS1/6kh14YAxAA+wBTFq4cKFA/Lft0UcfFUC+zPLy8lznjZP+wlnStKGPaNFzNO9Fz9H+gFWM4efSa4888ojPlScLSMcJ03TfqK/oOfo8eo76bG/PAVBqb3d0O11PmSaq4uWTbeWsFy0ju7cBKCUkpVtHGVWhtT8JVJWvsuKCmVYqdlK9dbS++5xvGZ0Hten7vR5Qeq2RoSQGENa05hNX/MwrsJHYCIrDRx0Fysg4w+Pdda9jLaP7QEvO6qJDGqzw07dt1ScvWfnCGVZbukZS6mDdDjzdOu91lKXm9bPCKeNtySv3WW1VuRY4tdagBUf3MV+yrgecYinynCckpvg5/Dya1DC6P/vsM/t48iR74j//0cL+YysqLPSxAap06tTZjjn2ODvnnHMcVPnoww/tttv+ZGtWrxaTKNuOOe54GzfuWHmnj3Z2QXOT19KlS2yyFjmPPPywvfbqq1y4e8rPPe/LPilOnTrF/vGPv+u8RT4Rs1A48qijbL/99neZxC8+onF/LGDqkUcf0SLkXZsze7b3eerpp9u3vv0dX6i+++479vabb1llVaUzi67/xQ3ucWcRoZ218KqQR6nA7r/vPvubPN80vNmwp+oElHFvYCsdceRR9uWvfEUg11B5pbpbR1/A+e7hzzaSAAbYHC0iMcgA/ACUMjMzHdTbRqcI3bQiCcBAmTlzptgrs51xcsopp7gnN0mAdGtumwKURFoS0o1Sb7wC3kdAODpDYEbGwH0se/B+ljdkrPR5Z9f55WsWW+GMt2z5G49YQ02ldZTOTe4kpsfex1r3A88Rw2mSrRWDafXH4+UgKLWOYn9kDT3QOg8dY12GHtw4Z6zXkADlq6WbZ8yYLvD/dQNYnz5tamyu0ZBglB4phtLR445x0OjFF1+wx7QI+nTmDAejYOx855Lv2klatOTldbHm7glOCJhHf/zDH4z5oFCsU/Y9+JBD7Iof/kjzyL/tbjFOK+T06Nw5z4aItfqVr35VgNMRziRtDixmzMwRv/7VTTZTICN6eNS++9jhRxxhZ37pHGco3fGXv0g319mAgQPcOXDqaaf5HMGcwzy2evUqu+qnArRefMnnSuZUvw0C9dDnPEaJJQVD61wxqbp06arbkth4w8LTlkmgwcrXLrJl817Ud79a9zfHcvIGCFyS4yq0dieBhgY53sSkXL7wI7HDCy2n2wg5+4daZm5+u7tWLigeUIJ5CXv6vPPOE5A91q8XvRMxlACccIw99thj9qH0IvsAPl1wwQUbgD+A/oBQ2D2FsrVh68LAh6ELEAXoj/6DUYlenDdvnt1+++1yErzguhv9fZTs4x49ejibn4Fsbp8+6Hb2JwBK7eyGbq/Lqa5YY6UCGBZ//KgWF+mW12c/S8vqaUltmLGyvWTV1vtlosIwWbXoPRmHdZaS3dN6DDvD0nL6tOlLY/Kt1sRbODUeUJKZy9pDAAYPB2EUMuHe5/RcSxbw0zFbhtlu+1q3PQXUCEDtIJAJg7h02SxbO+8jWzP5JasqWOgGc86Q/S1XIW3Zg0db0fS3bMnL97gMhb5ax/Qs6zn2XOu2HwwmnaMZQIR+i4qK7F9iKr326nibNFHhcpVVVidAql6LpIPF7DlNxnuGFvksBP+uMLGSkrXWp08fu+IHP3bjnjC35luDrV61SoDBbC0y/mbPP/us74ZRf+aXznLPzicKtXjjjddkoJSpz752FWwieZ6ZXDfWmGQJmXn6qSft/Qnv+W6nivV00cUX26sCrd5RyMXHYj5xbYTMXX/DjQqP2N+91AifRe2sWZ/6YuoxeX64B9laTPXWNa1SWMeaNat98bK7gKRDFHpHeMUIeZqSk5KbleHGxhm2f7EEMK6WLFlizzzzjN8fDDG+T7liyIXWviSAAb5ixQp79913PRyVMCUM5H79+rX6C90AUHpLIW+TnrXatWsE3FcLuNfwpcOdMYRjgNfSv0kKSUtMy1IYXLblDBtrWfl7WXpuTw9TQzfVCUQi5G3xy3dbneYJdWYdtaDoss+J1lMMpFUfPGVFM9+xsmVzPPwtMaOzdZGDIHfw/pbVfUCjzDj5+ka/hBajI/8n/fjqK2KtihHGogNAnN/WoYcdZt+99DJ78r//tfvuu9fWSv+np6eJzdnHLr/iB/KAn7C+wyav5Iaw+XJCwOycIFbRMi20OktXjxkz1r532eX2TwH9d935V4mig0LnRsjpcIIdc8wx8tRvnMUA82iqFmPX/vxnNm3qVGe7EjoCSHWK2LGPSkfffdddrqeHKRT7GIWTjBMohvcf3Q3QVCC26k9+9AMbL4YU7C8WZSkC6Ji3AMG4RsZJ6N0F//d1D/vr3j0WAt7kEsPbFkigsmylrV76vlWVLtP3t9LyegwXS6mr2ywt6Cbs2gYkUFdbZTVVCu9a8omHYnXLP9zBpOS0GPO7DVxCi4YYDyjBqj1CAPdX5GA8RHqpaSMkGLvyDwLaYWjikMQRe91117lzDOAJAImwOJy4sJp4zzkAkwinAyQipG7AgAEOKBFu9/zzz7ttBFg1bNgwgej7OVMKOwkbfFN9EppHagf65IGDoDlAv+m1tKX3AVBqS3drJ46VxXjF2oW2ePJD8s4VWmp6nnXuJaqy2EqhtScJyLDWRFVc8KktnfW8ZXQZbLkCDzv1GW3J6bHcOW31ajcKKAkKqleOpLrkNBnECVpEKBeGvNZ5A/a3vP4jLSkrQ+FpWoikKtyP9Ql/ZMhXlayxsuVzbdkrD1j5khm+fknO7mwZfYZa19FnWPG8ybbstYd0QIMlZuVZWu/drdvex1mn3cfoPLjP6WfDBQiyxSAvKiq0V5Sb6C9/vt0XfaUlCldQYxI7UDmEmPCWaPHw3yf+I69KmU96N9x0sx1wgO6TDPfmW4OYQCtsxvQZdr+AKMLeWPCcLFbC/8mo/5/yMcEm+kyLnxrlIiFP0Y2/utnPh6dmY43J+D0tSv/z78fFRHrDPdSE3l3y3e/aU0895bmhZiqXEuEVQwUK/fza65QLapQvPgCUGBOMGPJBvagJm0XJsGHDDbbEu2I9ffSRQDV5jsijlKfJ/oorrnCvfraAPiZkBwE3NriwvUUSAGTAKAJQwiOHEcS9ys/Pb1E/YefWLwGMboAO7jW5JfZQrp4of1JrH/2mACVUaq3Y0w3kM+qYqPx3aZYgx0CO9HK2dHBO7yGWkJbpufM68rn0DQ1HSvEC5Y5751GrXD7fapUnCaZkl1HHWY/DvmKLX7pHIXHviL1UJSWtvG5ZXa33cRdb9m77yPEQzwLZUKejzwnH+OijD+2N11+zp578r+c2wpEB0ILO/smVVwpwesruV7gzrMwe0u/Dhu9hX//GRR6+trH7wZjnzZtjv//t7wTmT7BVchgQ8nagwkG+cdE37T+P/9Puu/duP/wggUz0Ry4mFj8bayyqAJSuvupKAUpTfD4Zq1xHo9Xn/hrrfx7/t7OUkBvhbjgjxowZY4OVE4+GNx+gEobSK8oJCPMIliNhywN3282dGrBaExMTBKj1NsZFbrzDjzhy3b3Y2NjC9k1LoKaqWDkv51rR8o+tvOgz6953b4EMfTR3punADb+Xm+4pfNraJUAqipLChcqftFJqLst6DTlR67Ju7RY8bAmg5A4C6V3AJMLTyPVJaNovf/lLZ16TzxNHJzbv+PHjXWdhS+JUYV7keMK+z1Lqhm9+85tu05Ji4sYbb3SHGw4BQCqcL8yZ3/ve95SzdHfv8+mnn/YcS+jBjfX5rW99y8dBvtH21AKg1J7u5na+lmqFQa2a96qVrJxmVcXLrGv/sZYtwIHQt+bYFtt5OKH77SABQJfy4kUClGbZmqUTLW+g8kfsdoSlZiq5swzzttw2BJTubkzKnajQhVRL6zPcMgbsI5NLLCUtRDoIVMro0t8yOum6U2KsJAyy9SZZg5JHV1nlmuW2dPw9VvKZ8hHVVCiMLclSOvewTiMOsYoVC231lDddZKnd+lmnkUdY7qADLKvXUK0loCvXC7yLJeSuUc4PctZEYBAT2pQpn9h/Ffr25ptveugB5x6iSWtfeXVzO+U6TfclhUkw0QL+XKdQstGjD7S0jEz9Hj9vPtInTCCOefGFFxRaF0vkfbY8N5d89xIlG7zXQazFAogAlPr27We/uOGXMvjHuGc5Wnit/w4QumA2W4yn8QKnXlCyb8IuYLWdfc65dpnyHT34wD/klX/FFsyfb9lK8A2ziLwhI0fu5d2wMFwoLxHAGPtxPG0/MZi+ceFFjSGAk+0DJQyGuZWSkuwhfXjExyn8j7winx+XdxH+bKEEoH2ToJnQN6jgLBbJq4Ox1d48alsoonZx2CLl6cHrSkgAQC9eVryzbcHI3QBQ8qTczyoptxhK0lsUREgbMMpSug2wpMzOWmypoEJKuqXldrdUHkq27TpDSnK9Po/d0rIV82y1CimUzH7fKpYofFctZ/fRKrQwzla++6SVLpgq/0CDwuHSLaVrP+s97iLL7LuHdSREUNurxb5Zs0YONwHwOQK8GUuknwBZJopxepuSVc9SWFtNdQ14ulg6+9gVP/6xPfv0/+whJbyGucR9GLjbIPvWd74jfTfOxxE/VtwRHAx7kwTet//xj84mqtRiaK+99laya0CaU+yfjz1if7/3Ht+bQgiENpM8e8DA3daNyz/0PzGplqm4wtRPpth11/zc+0xSLr1TTj1VSbz3t84Ku35GC6an//ekH3HgQWPtQgFX6PUIpKpSaDN645qrf+Y6HVAOzzyhyujt+ZoL/v3441ZWVmqJWsTxGXn8ThX7qbtekwswtC2TQH1dtVWrcM6apR9Y0YrJlpXb27JyellGTk/db3J8hdbmJSA9U1dfY6VFS2z1sumWkJxt6Tn9VShpjCJG4oHtNn+lG1xASwCl6EDAnf/IhoZZxPx2jfKLYmfDwv7rX/+qYjafuANtHwHjbIcZT7gcIeATJ050FhSA0oABA9zB9txzz9mzYvZPU/EanLvY4uRyOliAO+O74447HLzCKde0T+wpnKOHK78dgBI2FY7h9tQCoNSe7uZ2vhaqfpXJ+7H6szds1dxXpcBGW073YQp96yVPXuvOubCdRdMuuiepI7R/gKSyogUyeEutx/DTretuR7eP6xPQEQt5U5W3l1TlTZ5gFgJJ2bnWRYm0e479yucWGBu7cExvWk3pWlv6xoO2dvYEq1ZlOIz+xFQtXnr2t9qyEitfvtD3zOg73Lofeq5l9hhsiZl5ViZWUYVCCypkvDOp1ctIIEcQVdVYgNA7ibknaVJ75JGH7I3XXve+h+8x3A5QEsJ6eaZJ3PqOmD14S/D0wgiiGlu//IH6PQpQilswwTzhnIRFPPiP+z2vR4HyFmVp0fPVr33VvnfppT4ZPq8Jc45ycpBItWfPXvbDH/5YVeMO9fAzrjdaHAFO4R0v1yT6yScfe7gbfc+eNdu3f/mrX7MfKIfH/7v9TwKvXnQWUjeFNJCA9VJV6dhD4Rc05Egi6Ls0EX/4wQSFb8wTIGU2ZuzBAqS+7wDG3LnzlF/pXps3d65AvGr3HI1R6N8Pf/wT9xBRJS5+seUdhz9bLAE8axhVVHsjlJGqUYS89FZCdbxyobVtCaALoPxjMGM4Y/yS2BRDt620GPQhfUSVt3eo8iZAiZA3AKWEJOt+8NmWO/wQS++aHwtT3swLqyousJKlcqZ89KwVz3pPukxVK3sNtMz8EQKZJlp1wWIIp0rG3cvS+4+wHmPOtpQu/dzDXS6AhHx28+d/Ju9zF1+EZArwTk6O/WaQO7ruumuvUY6iSValAgYAtHup6trF3/2OhyD/67FHtS1RC5sc6yp2ICFvJK5OSoJJJXCq8Troq0bz14xpU+1t5WZ6mMTbmg9ggZ4gts9hCqPba+9R9oB0/b13/8319pAhu/sC6ViF0PEZ7KhIn9NtnUL8amqrvVrntKnT7SYVfCDnU4LmyK9feKEDVasVggzriJxQOA6Ys67QHIFDIwqLhjG7ePEiu+H66+31117zcxCufJB0OkxYFlYs5j4Ts4r+kPHRRx/t4XQHHjTGeghU6ohHJLQtlsCaZRNlx03Qd7VWIW9drHP33WO/gwAqbbFMW8uBOEarKott7er5VrBkinVSpEgnJePO6DRADs227fTdlIy3BFCCVQQARILukaqs+aMf/ciZRIS5/exnP/NoAIChryqvHJ/joAQsoorbHwXSDxgwwFlKhAnn5+e7rU1S7oeVg5ScTFFSbsb9nuzfq6++2udWHDT0id0U3+ef5Ezor6qaZ599toceD1IKiPbUAqDUnu7mdr4WFFldTZkVKrfOytkvuCctPae3gKUDFWePVykYAdv5FmzX7qsVylhRvNRWL/5QxmWd5fTaS+Fuoy2r67Dtet4d1fl6hlIjoCQvD2WetwRQYswsampVnaxQeTeKVB2oWAldRTvSgiZRoFKGUnDU6PMy7dlRSb33sd7HflPn6mZrSypEs33JPcswd0oUzjZo8CDPo9FHXpIksZz4JU2aOEnJsx+0D9//0MEUQKaDxo6x4044XmFr02MPTX5UfCPB9W6DB3sC1wsvusgXKniGaR30D9YJ4RavvfqKLwiKVB0INtQwATuUbYbaO14MIZhLzz3ztCoClTm4RfLWY5Uj46STT/IFTfQbJ4yDhcOHH37keZPeffdtW7RgoecLwaP9FQFK3//BD7Uo+YU9pwkdbzSLjv0FTlz0zW8ZCwyaeFrrqhRNmzZFycDXaJJvUF6Rw+3Kn13tCRIJvfqnDIIJ772jhLUzfSGEnA6Sx+nEk052EC0sQFyc2+QPi1VASnJ0vaYFIQtPWAR44giNil+EbpMThk52qASg+1NWGQOY39aQIUPcWwplv6207QEooV/rqiuspqzIlr7+kHLjvSDNWe9Ju2GdVqxa4g4ENH/27gdZ7h6HqeLnKCupavA8RujWTxRasbZ4reUPGCAP9b6e/Lq/FiLqyPPSwfz5pcImpk+dKkCmwborT8fIvUba8SedYC9J9/7vySf1+0rw/BqAQ+ShIyl3//79LFVM2kj/Vkifk/j68cf/Jf36jFie8wUG1TkL9DJVcTvqqKMFvGd6yPRf//JnB6mysrJdn14oj/txApU6de7kc03UJ+NesmSRJSoMEED5d7/+tTseqBj6/R/8wIZq4fX+uxMUhvyOrnOyA0HHqhDE1ddc54wqwtpohGvPmzfXfqvjAbvQF6MFWB4JaKSKoTU1te6pf+D+v8uJ8L5/TpjeiD1HqNrod21vgV0RCOcdhj8tlkB58WIrWf2prV05Rc6lBlV8G+S5lJKVSD60ti2BWjl9C1fNsfKSVcqhVG5d+x2ihNx7NEaKKF9cO21bAigxx5FA+/777/eQ7h/+8IfOxiWsDdYSNjDMJMK9AcTRVbB2X5EtfMsttzjr8nQVmDlJID15j7CLNgYokY9pU32ST5Q+yZsX9dmW5tzN+VoFQGlzpBT22UACZatnW9Hi9614xRR5QOqVS2mUWEoqQZvWaYP9wpu2IQEHCmsrnJVUsmqWWDOrLEUJ17sOPlZJS/srd9LGEzK3jSuMjfJzgFKdAKV1DKWTW8RQokcWNYBGZQULlID7DVv59j+d9UQypdiimz3kzVbYRY6SdPc64nzrkJIhY32p3XnHX+1dxXAT7gXwQ26JLwnU6dWnt6Wlplm9cnRMF2j0rCi7JCAE4EnLSHdw5wyV9qZ6D3mLlqlqW60WEnivE7Twh2lw9jlnW6piswGmaHxeWqKY8bffcjbRnDmzlVNB8d/ylBx/wkleLQN6LvlUxsv7TAWfQgE7HE9ibBIPUjkulkQw0RcSTMiAVMsVxkEloPeUe6lYSRABI3JyczzkjcXQdaIYk/ybEDryIuGlpsrQoEGDfWwwraABXyNv0Zw5s6xa4RLCqvx818tDTqJWzkX/sKcAu2rErkhNTbGuogufpxCOM844U4ujzvLOx/I8BVjbRbvVfwhbmaqFLywWcsDwPSBnAFVQQmt7EuC3iVEOWDBDv1nuL6FZhAJwX6nq11baBoASIW9Kyr0tGErIqEFMnaVvP2arJj5n9UrOjX5OSElT7sgyAU5K+i1GTZf9T/ZHaqcetnDxcpsgXUxSbUJ2azUneIiXALpDxBRCtoS+FStkd67YOey3WOzTBG0bo1CJPUcqXKxfX3vlpZc9HDkWmoQW62CHHn6og/ADBFBlpCu3n46p09xQIn1eIN378ssvCdT/wB1AhCjDPPra+ecrFGM/3++Bf/zd8+XBRuXea73kjCeYQITVpUhncj4Ya8UClFasWGb5+QM1/9TZbfLQEyINoHSVvPK7KQTvKY2dCnDkbaKwBGF1v1BekqxMmFjJ/vVZvnyZA1F/vu02+0B5nTgpTonjxbSiqAJAF0Dm3+68Q3n8XvT5zWWq8Zz35S97LiXC9jqKvUUL+tzF0KI/tWKXV5atsFWL37Xq8gKf77M79VOF5u6yE2L3vEUdhp1bhQRqqmG1r7bClSoMIEdlelYfy+2xt0Ia+7eK8W3PQWwJoERuTkCeBx980EPQAIPQx+hR2KIUIcG2gZXNM4AR9ja2N7kFB8tJe6rCfXnsJht9U4ASTF/AqJKSkmb7ZM4lBA9WEoV1yBEKk6k9tQAotae7uYOupZ7qAmKzLP74IStdOd2SU3M9QXdO91iVjx00jHCabSSBOoFJFSXLrXCZytQvn2pZ3YZ5Iu4uA49szJvUPky69YBSY5W3OoW8iU0TYyi1HFBySEkLkBqVkF4zVayn5yilrLwYEpeK6qiJG5SQaBmqJtRJHu2uex1tdQoNnTtnnt0kI/wjeWfLBRTREpSgNDUt1WO4ociSC4NE3OQNIrQgTQu/PvJSn3HmlxysuenGG8Qmet693jB6okYlnXQBTzmqykXOGxrebCZOFiHk+CC8rkfP3spTdIBdqlA3wB3AIhYVr7/2ql1z7c9tuRJ+12qShfkD+ylLoXhZ8kAT8lSnay7VpMn+hxx6mMLeyj2ZNhNyms7ZXxP2SZosTzvjDLtBVTXI2cSCgTLRJF49/fQztWjJ97HBhHv//Qn2U1GRCXdDpnjoj1F+pJtuvlmMGOVA0eRP5aF/K8HsbX+81c/NuVikkdvjdAFseyonE2EmLF4QvYvfzxD+bKkEMLIw4jDIMLAAHPZWeA55A2KA6Zb2HI7bGRLgN4OxTIgtCUkxkIcPH+4VF9taLrLtBShF96Vg6iu2epqqXS6YYnXlJa5XpMSknnRm6b8eh37Feow924GmKVOneUGBN8Tmo/iAjGrXTYkKU8vL6+x6mN9LUdFar6aH3uRBUupLlMx1TzGUFi1YpHxD4x30b6BMHSpdT+xDTisqoqHP0dMA7CxaAP1rpM9rQeDV/zHHHGcXXXSxL1hIgE176603ldvuec9xRxgaxSBg/6QLnOL3DKCII4KqnjCHOOcJJ5xo+XI2/O1vd9rcuXN1zhS75vrrrH9+f3vw/n94om7ASMCoU+W9v/FXv7IU7RPphM+kxyd+9KGHKU+eNNnHRp4+5q49lDeEcD4Yri+9+LwzYl/QPMZ8kqiqnd26d1MYySnKs3elA1lcV4xn65cT/my2BCiuUimG0lRbWzBNz9PFUhpouV0GWpqqviUkxMC/ze4u7NgqJFBcuMDWrppnZSUFApEGWI/dxql6ZSf9Vtp/3rEtAZQIXaMwzBNPPOEVTKn6xlyH/l0qG5dckW+JRUkeQYrLwN7FVsWxwD6wsjcXUMJG3Zw+cfoGQKlV/JzCIFqDBMidUq/JqmjJh1asahJlBTMtRSyWDLFZMjvvJoCJZJSJrWGoYQxfIIHqiliYW5ESrddUl4uxk6rKZiqp3H2EpYp11kFeyPbSPgcoyRO9NQwll4smH0CkIuVQWvLq/Va9dqWq9ZZhB6vJGFZIXd4+J1iuylRnK49Sg34XhJs88e8nPPRsgpg3GOJ4iTsmdHAvbwzcqXMmTo0Wgdk52TZgwAA7VlUqqAiUnz9AzJ+rReV9XkZjnU+AXitb5wQA6pjQ0YEfFgq0Ok2MgAOxvnKUY6m/5yg6SAlVqeBFSXjGwCRKbDleY0LyPpLnu1aLDJLE4qXGA03OjwaFalSLcQS4dO555zno8OCDDzgAlSsACLYTuZz23X8/+8PvfmsstBDHoYTPnXCCHaW8G716xapD1kh2HwhQuuonP/GwEQ1DoFSmQjKOt+uu/4UDbO5BF/hH3hHGBkCFJ4hx5Q/I99CSr55/gVdFSlO5bSAlzhfa1kmA7wMPwCS8eVC6yfHFdxEwAoo44XChtX4JUEIZMIlyx5SxZ0HPbx/KPZX80DltqX0OUJr4jJJyF3oOpY7KodRtC3MoRTIoXjzNCue8b4WTXrSaopVS5TGN0kEL8Y7p2dbzoDOt+wGnSOEmWkHBKrH4ZtlD8oK/qZxjsEmRb0d5FdCROAtoVVVKmFxdI31d76DP6ANHO2uHULQ3lZMIMH+i2JoASppWXK9zWkAl+knSb80ZSvpNEuZMnjvCi7t27ebhv7B/DhYDNEuJZaOqnMuWLfWqnv/612M2SX0vFaMVXZ8oR4ePTfocYB49n5yS7EzPMWPGWjexhf71z0dtwcJF+m4ki4V0o/UVi+rOv/xVYcczPKytc14XO1nJtK9S3pBYmDa5/xpcT8N0hU06W3oa2V1wwf/Z2eeeK92xm1d8Y9EGO5eqog8+cL/NV+g3DhTGvbfmj1NPO8OBTpi7IZw5+la27Nntnco1Vlo4zwplpzfUVfg8DlMpLSNPdrqq1obWJiQAM6lMhZBK1y6zyooSgYK9tNYarFC3EQ4O7grrrZYCSuiY++67z/MdAYwDDP1aYbjoP+xHwuDI5waIBLiObUNlNxJzM0eSzBs7Z3MAJcAnGEib0yehcwFQahM/uzDIHSYB/Viry1dbScEMJel+1WoETHQU+JDbY6SlZ/e1lLRcGRKhpPcOux8tPBG0/joxzTA2StfMs5I1n3mYW05PsWn6HmRpORsvK9zCU7Wa3SNAac1UGEp3i9YvBo5AEhhK3VqYlDv+ojCiSxZPt5VKDFumKkBVq5S4lZWAFgVUxutx1AXWSYBSaraqC2kBUibG0MzpMwQojbcnn3xC3qZSZ/ngeSYEDDiE/Bl4pql401fMJJL7na7QLnJNwDYCUHrpxRd9gcFEyKIEpzagUWVlhS9eWNQAALFwwFDn0Vfsob1G7S1vzVGeq4KFpI9VxzIBM2mvWlXgpa2fV9W2osIiLZBEn9fihVAzwCQWNiw+umjRwUKhQgyle++5xz06bDv44EOUm2m4J1f9hyZ0gCnOQQ6NY447wfbRQjZPixEaSWAnKYTi1zf9SkllF/riIbdznpK9Hin21GXuSedYrq1Qk/z8BfN1rrvtfcXGExaIkLsp9O1b377EDhg9WjlJuutc65PXco7Qtk4CgBGESU1Q+Aq0br5TfB/z8/M9pxKgEgvd0FqfBNAB/HbxvmJUAwxiNEO1JwlpVJmr9Y180yOKB5SWNYa8VRfFknJ3VKguSbk7bUFS7uislSrFXSx20orXH7LKVQt9M8m4EzI7WWqvIdZt1DGWN+xg4fiEi6nYg5hCDyox9svSyYsWLVb4b5GYoRXS5wpH5p9+HzCMYAbB4sTzfdIpJwnQG+q/qX8+9pjyDVHNc5oApGRV1cwS0N9Ji8dy18nodMLQ0IPoc9hB6HOYS+Tfo0IahQ6aVg1Cp/Obffrp/9l777xtUwUoouMrKyr9ewG4hb5MUQgxoaz5A/K1iBrk/b/26niFwK0QIJasfHZXeRjf3+68U06HeTq+wnr17m1HH3Os53kCoOI6uS8UZ3juuWdtovQ+gJYMQc+pd7oYq8xfqQrppvHd/PTTmcoT+JBXNCWpuGZND3MeOmwPhTKfYQdKTuiWaI7yA8OfFkmgqqzAipVPqXjVTCWCF7MlS85fVX3LzO7ZCEa0H6dhiwTT6nfWr0m/X3ImVZSusiLlTcJe6piYaXm99tU9zJcjf9cJP28JoMScB7v/NoXdPibdCiuJRNhXXXWVYc+QI+nKK690m5UQtCNlb8LWRX+yL4DTT3/6U9eJXwQoHadw3qhP+sd5CxAV9dlDefLok9QB9Al4FQClVv/jCwPc0RIAlKipXGuVSgC4ZqFyqMgLkqgqA5mdB1qnnqoiosV0x0Ct3dG3ZbPOBzOpvHiRwtw+Uaz9akuX1yq3936ehDtRiRvb433j+1qlhKurFZ62EEBJuS46yPuanN3Juu93kvU++Dw3aDFqW9Ya9BugOtCntvqDZ6xkDgAKUIfYQsmZ1veESwQoHWyJyWLP6AMMafIPkbMIMOWjDz70yhIAKoBKhEr06dPXdtNEN1yJUEdq8T5ETILuYhJUVlb54v43N98kj/Zr3h9hZ4ApLDhWiP30mfolJAEKbobC1KjONSA/3wYPGeKLhQHykJBcmSSqTQ11wusIfWAhsOCz+Z5zaZYWoYx19WqFWAhUIoyDRIb0x6TJ4uT558mTVOtsp1HyMLM4YRFFnqcFAoFYbOy7375iLR1gvZWUkIUVrUb3AFbUf+UNWi0gi2O6dOnqZaiPUHgcrKhojJyb0AyS306fLhq/DAPyiZCslrEQTrG3wCo82tExLbuPYe/mJBB9X1lcUgGFvEqAElQrgY2GR49FbmitTwJ4X1moE+YGw4zcPoBJsJMAOKK8N61v5JseUQQoweZZ9s6jDuZXFa4WQ6nKOpD77ZCzrbMDSv01l8WKHGy6xw0/pdpp2bLZtuilO6182RwS0XkoW2qPQZZ3wGmW3W+EZXSR00W6hkUfYcTzpcfIJzdhwnv28eTJSmr/qXLCaTxiKuEcIKn1iD33tL0E5KGv+P0QTox+vffeezxB9SIBf+jOfZQDibxDn6oP8hihI0vkeAAAQp+T/27AgAF+LwcNGuygekZmhiVrPmva8J4THkcfAEosbObNnecAfo0YU3wHyCsySPlC9hixh7PVfH4SAInzgqpz5O3LVW48wl8LNMfUiTEKOESo8aHKEwUrFh3PrDdl6hTp/fcUNr3EQ/OYBw8/4ggHh7Ll+IjYcMgNHT5nzmyV2pa8FC5IS5aTI1VyOXrcOP+eMr4AWLtotuhPvYqP8H0uXjVDibpnWfnaBXL4ZllOXj/l4Okh51BI1L1Fgt3OB/Fbx+lZpBC3UrGTqiqKnZWU3XUPJVjvZUm6b7sCMykS8+YCSugVHChUeKO6Gzk6D1auOhJhnydGPfYLeuzWW2/1EH62A/DjXEE3Fajy5DsKCb/++uudvbs5gBLMX/qkMhyOGsDwpn2+K1uYPtHvAVCK7mp4DhKIk4AzXWrKrUQx2sUrPrGy1XM9FCU9u7eYSr0tNaOrFtJauIq9FNrOlwD3q7J8lZUXKV541Wzlw6lRDHaugKT9LbPrUCXhzt/5g9wuI8Dbo7hoVWUr1QJhzcx3xLaR91iMoUQZr9l997Dc3fbVmWNmccuGILaekreWr1pgK9/5j61V39jWCRmdLDmvv/U+9DzLGagkozpX1NyYVhLUlStWeqJWJsBVq1S1QwALDBAYPD179nBgqW/fPg6ysJ1wuZkKOSDh6bvyOAOcnKNJ8jR5qGENETawQn3ila5SgusUebHzxPghrKWngBwSsUaVujYGurBYY6EBM2nhwgWq/LNUfS73BQ3gAt4WJkU8L/kD8j1cgkUKYBTeZ85D0mzAHoCpEi1qaWwn1C1TC59ELfpohFRRFQjmBLmeGBMgGGEcLHK45qjhnQc0Y2HMooYqc/X1Db7YSBfAAeDGQos+NnZtUV/huWUS4L4DdiJ77hWMJWQMsIghxncBgDKEwLVMrttrb35X6BPApChRKPdmTwEaUO65b227oaVgVSo30WcfWcmi6VZbUWYNAD8CpXMH7WOZPXbzgggwp1vaWMiVL59ji57/iwNL3q8WKpl997Se475p6d36ad7UQhwMRY2xwNohVILE2/MVwsVvBBCc30mKdDO/E0Ck/HyYfetzK02ePMluv/02myrQb/Wq1R5aBphy/gVf95wcS5cskaNghQP3zBsA+jBB8aZTMaiL5ooEOSEIAd5UA7zB0YBOXrFcCZv1/QBs4nvBvEB/vXv3cr2Nh58k3XjbYTANHTbUWUtcG2AT42AeYF7hu4TMo8ZcsUihcuhnjkdIVLrj+puCQ3wOaEUo3rJlyyNxelc4VLi+eBZtdI7w3HIJkKS7fO1C5VSaYbXVa/V9qbes3D4ClbrJdsjWPKrfib6roe1cCWCnEj1QXVms33yhwKQV/ptMSe9mWQpzy+w0UL93EvSvtyd37oh3zNnjASX0K86sE5Xon2cacx76BNsXG4XcSIDo2JBfVSGYww8/3Oc/QtOeU4GX3//+9/4ecOcwgeLoQJyw5FWiItt/VYAAfX280i8AEOGIwQ66WiG+hLbhTD1BKRxOVhVO5llYT/Q5Qo5NQKpDDz3U9WN8n0+qiif6kj7PFEi/xx57tCubKSTl3jG/hXZ/FnIqVZYut5WfPmulqz4Vc6nIclRuPks5ldIVPhWrLBEmrJ3zRYiBKSQTra0ps7UrpokCPdtKV38mIGlfhbiNtk59DrBEGRXttzkc4QsQvMn18rDGOEQxGwrA0x9u0rbUqFJOCzGUypfPspXvP2NFsz4wWWuW1mt3yxxyoHWTpzyjW36zosUwp8UWR6ow1PgmYtk0BUZg+0xSLqH7FGJG4lM+//Z3vmNfv/BCp9LCFInl4Ij1G398/Gs/6Wb8WTe+xnFGh9BXfH/sF72PjmHfaBuvo+3x29je0rapfuLH0dJ+w/5fLAESO5MQ+M033/T8A7ymEgq5eFgwwlzCgNvae/zFIwl7NJUA330eGL3cJ9hkGM+AvdD68Zxi7JIzrd00qTkS+xNapovXZfHooO8gYVKxB+9b2uprKsRMEnD6/B3S63NjocgCr7IG7GP9TrrcUnIVWivmTnMtug/+3DgehuA6XS+a/jY++OB9+41ye8BUApQaPGSQnXTyKR7GG+1LX1GLtkXP0fbNfY76ip45LuqL52h7tI33G3sdf2z8+eOPid/e3OuN7dt0HM0dG7a1TAK1ysVTWjjHilSheW3BdDl9u6rgRk8BS/0aIwoUuuigUst/My0bSdj78xJo1N8CkyoripyVVFJEzrNEr6Ldpc8YhbjJQb8LJOD+vGxUXEa6EefIZZdd5iyjiCGNg4QGmMQ+8+bN8/Bu5r38/HwbM2aMF58BEILpSOJsknXDFsK5SpLso5WOgXkRhy3V3agOB1OJvseOHWvnKv8bBUmwr6+99lq76667bIhYpkeIeQkgBQN1slipv/jFL7yf0YoYGCenAP3D7G6uz3NUqIACJ9hMkX5t7rrb0rYAKLWlu9WKx9ogg66eWF+Fv8FWWrv0I7FBSmREJSjWV14QJeyGsZSQqGoguxiyvrNvG1XcqmAlrV2sMLclCvta48m3U3U/cnqNsswuQy0pTdW0FBrQfltkkDNprwc3uF63n9YZ+ptjSNGH9mNXeZPEJ7fSRVNs1UdPW+mS2Va5Rp5WnSNbYW55o0+zTIFJKcq9sammHmNrobidmk4yGNhMqDCTyLlB+AILp8uvuMK+efG3PKdGjNHz+UVBXLdb9DIy7qODm44t2h6e27cEIi8ghhdeQgALQCUMNRhlGHk8k98lsJV27HcBEAnWCcwYGI+UZud3S/J0AD9AJcIT22qY24bSjOlz/6trbKo/0U8xHbU5+rxxPohNBLyxyoK5VjJ/oq1472mrWrPUT90xM8eyBx1g/Y660JIz86KJY8NhNb6L15eM0UfhU8aG4+H39K7CK2644RexogQ698hRe9kJJ55k55//f/67osv4/raV7t0efTZefnhqpRLwNBXVytkoplLJmtmyBVfIuUay7lSFUXXRo6tAi06yKz4fOtlKL6ldDAtWEoz5ijLZ6SUrlVdTxV1gXyttSFanQVpD9bdUhbm5Y34LGJftQUiARYBEVCZ+T3naAGKi1A1cH7qUxhxHXlEAIgCb/fff35lIUfEZ+sEpe6fywWG/wGiCncm8CDMTxxjh4EvEDPWoAQFVMJwAiGAUPajiCw8//LCztWE1cY6zzjrLj9/cPpmrv/a1r3mfsIbbx5yseU6TSmxm9lsR/gQJbI0EWGjXW4XCqdYum2SlBbOsqnSFG0WpSh6Xlt3LUhQCl6wQqySFwTWu5LfmhOHYjUjAAT6xcGqrih1MKhOYBKhEtQiYSOmd8lXJTbHYos+mZHTbSC/tcXOk7uIN+3Um/2ZcsNhN8iDVlq9VeEWVcmtUW01poZUs+NhWTXpByelLhS8RJpBgnUcdZz0P/5olK19Bgsoqb21DVU9T/DfVgKDsMrkmq8rPZZd/374hhlIseen60IOtPV84PkhgYxLAeMODB7UcjyAAE947QiHJ8UIoDMYeYTEh/8nGpLj127kPhC0B6gEgQb3HI0roFV5TDGUYZBjJGL/tp8X0+IaaO9LpG27d9DXLZtE8iU6vq5BO1/xYL3mWqcpb8fxPbO38aVZbVuwhXekD97Lc3Q+ybiOPscRU2S/boLGweEfe8F/eeIMvYFL1GzpozEE27thjVV3o9PDb2QYyDl18XgLViiColG1eWqQE66XLFF5VpNDCZIXIZ3kIXIoqwMGE6SgWHky/0LaPBLDp6hTdQYXlajngSb5dKT1E9d5kOXkpcJTVeZBSh3TXvRDIF4He22c4rbpXdCXsIkAb2LfNNRyqzHU8cGwBAJEgGwdXzNkaOwqw6HVV5Pzggw8cVKJv7BT2g9E0YMAAt2lw4OI4O1b6mO2wfCdOnOjhdDwz/xKWS24mnunzww8/9Mq4LekzAErN3c2wLUhAEsALUl9XbeVUD1O8dtGSD6y6VIi7DLecbkMtu8sQy8ob4iFGQWDbRwI+SQlMKl4pBsGaufJILVEVN1Ub6Lp7rIobFOfGpH6AH6FtngTwhNeWKrxt8WSrK1lldaWiJit5a0XBUgGpaxxQbZAHqSElQ5XjTrQ+ApRIarotZIzxQfJSqsOxCFmiyTVdi8YLL/qmnasJbb1XfvOuJewVJLA1EiC0CjADIw+ja/p0VToUsIQHEEMOijm0cICm0LaPBMhrRQ6amTNnrsttBYiHQUx4G4Y1nlzy0ARgr7l7QF69UquVLq9aNMmqVy9ULqYSK1ky38oKlimcTpUt5STrKGZ1jyP/T5XjDpVjjGqdWz9nos/Jr0Gy1lv+8Htbpd9OlrzrRx09zhNdk0h2W7GRmrvysG3XlYAzYogqkJ0OsFRcMM1KCud6Fbg0MZSoAped21eJnzM9qmDXldT2vXLyTpaXKD+l7POSNYs9QDZJDt/sLsMsI3egAKU+0tsqKiCwQ2jS9h1MK+/dwTfZHMx3sdxszQ8YZjTgEc/Mezw31aPYLrCRcMSQWw5nDKAORSuYL3nNPjhmeOAgg/XEZwBF2DgcB6DEOajchp2zOX3CiOJ8OHhgTdFn0/E1f2Wtf2tgKLX+e9RmR0gepWqxYirFjikD1FBp+joh8dBrna2kiQsUnoeHwgVgY6vuNaFtGMdVFWtkJGhhJ0OhTrkgMH6TxBBL7zzAMpTTKk0hiIkpOdrefA6IrRpEOz7Ywyo05Vdp4i+c9rJVLv/MqgtXWHXJauUMk2dbzKR6eZASteDIHX6wdRp8oOUM2FuTRVQBZ+uEw4S6UslZWbyziCdpdqIms5GqtDNMFYTay6S0dVIKR+9oCbAopkQvzJgo3AqDD28fbCVYSxhcPGDNxHsKd/RY28P5MFqROYYuAJ7rAr3HAAZMwlOKdxYjGPo/8g66YWN3XgUIysXWWL3YiiY+YxWq1Fkn1mm1WEk1FeWxNVx6riV07m19Dj7XOqlwQ0Li+sqTG+t1c7cDCJKQGk85i5QULWT65w/wxK38dsJ921xJhv22SAKyKcirWVWmIhclS6yiZJnVVK1R/FCNgIwEMWM6W6q+/1QUS1L4FXZ6aFsjAXLc1YgRViI5y1bXM1WWa1WMpUNCinIl9fJHqhJwJ6V2crlvzdnCsZuWAA4xbBUKDTBPRozqSO+in5lvAYsAjiLbBVuc43hmX0CryGGzpX1ueqRt49MAKLWN+9TmRwmgVLz8Y7GVJjpbqYN+vKnpeYoL7uYofFJqjiarNM/jQ/WCmAdw10bkv/imk1xaIAYPGQDVqghRVVbgRkGFAKWqcoU9ZAtxzxtsOb33VR6rfpaspH6hbYkEgJMIpWiwipXzbcX7/7XS+VOVa0NeJb6mPGSAJaTnWHqfodbrkHMso+sAhbqlbTO/EpMXLTYOf+l/lC0k9rwL06HXSyO82pkSWL58uef5gpIOwISnL6oICFuGMDhAJbZHnsTIeNuZ427t58Z45YF3FPCO3A6xil3L/BkZAyINHz7cASXyJoX2xRJAo1aXrrHyFfNs+asPWOlChVJInTZIl2KjJCSnW6Jy4CX3U3W3PQ6z7B4Dt5k+Z3To9Kb6nGmG30T4XXzx/Qt7bDsJ1Cjkqqp8par/zvQcSzgkUxSun5KWI1u9kz8nC1jCPgdsIhwuZvhsuzG0x56cDUbhAI/cEIChsNpy2elVSpsAoFQnMAnwKFt2elbe7r4eao9yCNfU/iUQAKX2f49bxRXClKmtWmuVondWFC0QY2mOVRUvlRewSJNTkoAOea8FfoDQpyrPEgBTiN3e9K3zJH4lCrWSV4lHpRL6UcUjQQyw5Iwuliq6bFbX4ZbWGN7WMTE1Foe96W7DpxuTAMa/Su2WFyywFR8944BSRcHC2AJE8e11yRnWY+SR1kV5NtK6wgITlRVwdGP9he1BAu1MAnj08PYBeAAuwViCRQMIgocPQAnmBY+IRg6wFNqmJQALCQCJZ4A65AkDDAYSYBLVaJAp9PnIm7rpHsOnSIA0rjUClMpWfmbL3nhYxRWma4uKGgjQ6YhzIH+U5Q4YaZ36D/dE3IkCmII+R3KhtTcJxFJV1DhjqVLJusvWLlCEQYHYNIWKLIjZleRWSs2QUyAjz9Jks3sof3BkbfSrAJhUq7VPdUWxVZSvtspyOX31mpQUicnZnr80LbOnHOs9/HViUggx3KgwwwetXgIBUGr1t6gdDVAL8rpaJZ+jkoEmq8q1S61KABNhcQ311Q4goVCTBSalaMJKTM7SQx5CTw6Y4uyldiSNFl8KoJyHtdWUO3CE/o/xagAAQABJREFUR4n4d55hKKkkhMCkDEtVrqRUgXMASoS34f0IbRtIQJ5jccLk0V5txQunKExCgGiJ6OH4mCX7OgF5XQbtZ9m9d3fvnQOieJq3walDF0ECbUkCAEvkGAAEAQAhgTe5A6CDw06CWk5OAsAQQJHMzExnLkVgyK7MzoBiT/gTwByhbcXFxetAJBhKsFoA4cjBACjHg+Tb5GMIrWUSgB1UW6WQn+LVtnb2+1ZVuMw7gLnUUYm3U3oOtczu/cUc6Kkt6PKgzVsm4bB3W5RAbbVsS9nlAEoUcyEsq162e0MDoXAdPPwtRXZ6Ykr6ulA4wuEIB92VWUs4ebHFaxU2W6eq1zWASZUKn60qtxqlpBC+JPEkal0j3aI0FKkqiMMjSYWKWOfsyrJri7+TMOYNJRAApQ3lEd7tQAk4eq/E0SUrp1rJiil6TBNAUuDlM1Pk/UhXWXtyLaVmqqSj8iwRx+0G3Tqbbt2LHTjqHXUqTFq1dU/K3aM4dwAkqMjlaxd5om3yPSSl5Xqy7azuIyyry1BLFYiU4JNTrIvwd9tIwG+FWwQwlRrvzboXeq9tHqqgF4qs9pN24KD2/DX1qwx/ggQ2LgEAEECSOXPmrHsAMAE6AYrArIly/pBnCYApykdAr+0ZXIrCWCPp8Z6EnYBwMLyo2kbONORHKWMq1vCAkQSIxLbQtlQCwEms8HiWZdEYu8w96ODb9YlCeyIFjhoPqnxLZR2Oa6sSoAJiVcVqD4MrUVW4ssLPBJAU+68hPUu5OTMFjMhe97A4gUxS2HE6e1f4xcSMdPRGrBhOmSq1FVmFQLhyOR+rlKNNVHWBRtmWparKmUq2nalnQKWQx7St/irCuJuTQACUmpNK2LaDJBDLAUTy7hrl/+FRqdCtqhIlOlYsd52S1tWLGtrBmTdpXnHCkwOqCgLKOUmJpR1kIqyonZQ2Jc66TgwkJuzayrXOPqrW65pKVaKhpHF9leRBbocMeYdyVbmtp6UIcEshTDBNSfw0oQMmhYlqe32FG42HqPvY29g72U4x82lXMKIiAYTnIIEvlgAJo2HaUFWFZwAlgBNYTDBxYN7AuiG/EuwlQCUYTNGD93weDzR98Vlb7x7IAxYSskAG0TOvYSUBIJEAFDYXMoHJRV6kCHBDRoS8hXDBrb3HgElxLe4NboGGOLsiaPU4OYWXu4wEGqgGJ1CJ5N2w4WuUuqKawi/KA1RXI3Z8LXZpnXSz7FKxlJJkmyYpsiDJ2UuyU5VHkkI8sbyo7UFs0gsCj2pUYAibvMbtdV7LbvcogiqvaE2SbXJoJiXnKqVHnhhJstFJbi4giegLclFJKO1BIOEaggRcAgFQCl+E1iMBKWkotpXKrVRWOE/PS6xKyaWpXEZ8dwdRbUncHZugNGGJJposdk4sJE6VVxqTBRLX7blrNMExifn7VqC4mYTgvDY01PoEDD2W62LCjqiyTpN1iqxANgFJnntK1NlaPTokENKmhLa65lTYW7n9VbltoCarLj6RR3BG67mhYSRBAkECQQKfl0CUWHrJkiXOxAFgAlgiJA6QBOYN+YAIhQNUIvcS2wiJ43PAlqbPbGsNgBN6nnLCgEZcT/wzr0muDWDUFEQCSOIBI4vr5LoJZ6OUMSwuACUApvbM2Pr8NyVsCRIIEmg9EhCYIru1WqCS5+0slQNYzHneY7ti2xL2lhg95NyMwKUEASxuj3dU1Vu30TtaR55lm3dgmwlcaQ35mKS/iZ6oxy7HXpcuj9noPGu7iuBQqa2mWuXrFS5bK6d3bY1C3GopjlPv18M6BTsdEIm8sDh8U9JCoYTW8z0OI9keEgiA0vaQauhziyXgiQEVg9ygUK4YW6dCoNJyf1TyDINJIFO16KQo91hC707KuyTGkudckkcED0AKXoDG15rUOipp8s5ufj3y9NQxEelRu+6hks/ydFQ7IykWb80Em5CU4on6nIFEXqSs3kq2Tby1QkJIsC3mVgddV8zTEfynO/v+hvMHCQQJbJ4EAFYicAXQBYYSjCWSefPMY82aNf7gc8AiABXyBEU5lyLACdCJRwQ4bd4Itt9eXBfhfKWlpf4AJIp/TS4pmEhsowEewTziwTUSBshzfIJtwDMeAUzafvct9BwkECSwORIAVBKwgp3ulcsAU0g8rQgDkngrPA4GE8m86x1kEntJAFOyGEvJsstxisJYonhMkuzYRHcSxwrGtAYWk1djk51e40BRpQNlJNb2cLbqSoFn2OrFDqxhp8M6Sk7tLABJgL8eAEfkR2LNEQPQktxGbw3Xtjl3N+wTJLClEgiA0pZKLhy3QySAN6SWkC9CwOQFiYXG6RnwRaFytaLgktDb5E0QwuQMoBiHXf4OMXo6Ou1U1FM9d0zkvQCYRhAmVqGi0TsSeUpgMuExiR6aMITayHsCYBPzXLjXAs+FHjq5/vPc6M1o3O77aOz1dQLGGh91gEl61NfxiE3GLsTGczXgpemYHJtwFbqWTKI+gDI9R48ETchcU3sJ8dshX6JwkiCBIIFWLQFYPfHAC6FxUXgcz4Av7MMDUIVnGowkgBZAGULAeIbFEz1TWS5iLrEvj6bv47dHgA2e5ohlFL1u+gxwFO0DIAaIxDPsI17zgI3Egxb1zdg5J+MECIsAMsLYogdgEmNnv9CCBIIEggRarQSkz2LOUoV8uZO0pNFZKvYOIXIKlasnIbXYSx2wk8lP5vobXY5OVihzAqxT7HN0Hs9sk8M0ssM9L1OMwRSzfcnThJ0ee9YLfy8tKzFFdnoUERB777Z642ecf50d3wiO1dUpcsAfYhrJZq9zwAy7vlHyOocZOdX00JqAyAic10nuvKaAkF7jzKZSm5zZsXE2HhueggR2AQkEQGkXuMnt7hIF2jCBeZLq4sUeGleteO4aJcKLAU0Cn8g3JNCGSYRJxycsvCKNIXOAMmzroIoLeA6I/14fJrfhdmcCybBvqGcSisLVeFa42rqwtdhrYsnXhbDp/FTGwLtByFpdTZV/BmBFn8SbJ6YqproRNEoWLTZZTKQ0MZFSMmEiheps7e67Gy4oSCBIYLMkAPACaEN43MqVK/0Ba4lQsQhwAoQCsAHYQc8DwsBUih6ATBGoFB8iF/8agIn30bbovPTL+ZsLW2NbtJ39CNeLqrIBKLENMIg+I+AoAosI34OBRDgbrCRC20ILEggSCBJobxKAhU84XJXsc2cuibVEBbkY8FQu+1hVK7Gj9S+y0xO9Whz5h/SIS1nhYXE4d6VXHUzyz3DCyn53cInwuZizwcPV3BZnrRA5e/WsecIdwXGfxcAwckRVS6fLRvfPYuNhTZAAi8qjHYh4yHZHr1doUzhbsmx0UlEE8Ki9fXPD9WyJBAKgtCVSC8fsZAngeWCxIaYPQI2oqbB+GgBwmJxgBGmiAlRi8qrzh8LKBO7UKXEeib4jhlBsgqk1bfCJJppwYuwjnUcTFP941pznEx/njm2KeUWc6bTBJMekpwfeFk1GUHw7ypuRkBjzaCSKIos3w5NnA2q5hwavDCwqHtB/AbySdrKcw+mDBIIEggR2ngQAdwBn4hk/EZjD9ogRFAE6JLqO9uU5An02xi5iO+dgIRI9eE+LQCpf6Ei/xzOZotc8A0hFrCiYUTxIpB2BWryOACueAbii/XnNI7QggSCBIIH2JoFYCguYP7DyYeuLmS+nLKANQA+2OOFyFKKp1bO/r4vZ8yQC53j9idnmURSA62zsdfQ0Rjn2eGSnN26K246xvg6EWsd4ApQS0wg73e3vmM2dkIDTOWazw0DCAR2llXCbnn2dQUWkQ8xGZ37wBUF7u3nheoIEWiiBACi1UGBh9zYgAU0wsIRIaE2+Is9VVFPqeYqoHEe1CiarGKiE1yI2wcU8E9F7JrFGkEkTmk9aXPq6CYmJiEVGDDwSChR77R6URpBIceMJSRmximyN+ZwSoMTqNdsBj0ILEggSCBIIEtgyCcAgAlQCUAJMavrMZxEAxb4be7A4icAlRhKBSFF4HEBQBB7xmu3Rg/eARtEjHkiKwvC27OrCUUECQQJBAu1XAtjg9QKQYqCSklsDLuH4bcxZhJM4Zodjl4tthE0uIEoH6XUj22jdcyPABIAEyNNoqxOehu52FpGzmWK2eyw6Qba6HLfOQhJ4BICEAzg+kgEgKQBG7fc7GK5s20kgAErbTpahp1YnAbwX/G+caHjy1zzFtq4fsn+4/i27aNIiP5NPenrNhBSL944l22PC+nzDWxFr7riAyuR0JrbhRYk9qzN/Ff4ECQQJBAkECWy5BCJG0cae43uO9onfBpAE6ATjiWcWH4BEEXDE+6Yt5pVevzV6v7Hn9XuGV0ECQQJBAkEC6yXgRnqjnc7W2Pt1tnrjjust9PWvYna8gCXlPnLHsACnWAW5GJNIynz9afxVZIPHb260xf0pstD1HPc+fu/wOkggSKB5CQRAqXm5hK1BAjHQqZGl5Awln2NiMdsxQCg2+QRRBQkECQQJBAm0TQlE7KSIoQQoxCPm1W70drfNSwujDhIIEggSaMcSiIFLsRQVMJb0Hv1tjYyk4Lhtx/c+XFprk0AAlFrbHQnjCRIIEggSCBIIEggSCBIIEggSCBIIEggSCBIIEggSaOUSCIBSK79BYXhBAkECQQJBAkECQQJBAkECQQJBAkECQQJBAkECQQKtTQIBUGptdySMJ0ggSCBIIEggSCBIIEggSCBIIEggSCBIIEggSCBIoJVLIABKrfwGheEFCQQJBAkECQQJtDYJkK8iyj/kuSs2Y4BRbqJoV6qukasoyldEP2yjRfvy3N4a10kCcK6tPV9ne7tv4XqCBIIEggSCBIIEggQ+L4EAKH1eJmFLkECQQJBAkECQQJDAJiRQUVFha9assdWrV1tJSckm9lz/UWZmpnXr1s0rqFVXV9vSpUstOzvbevfubampqVZeXm6LFi0yEmTznu3p6enrO2gnr5DXzJkzLSEhwbp27Wp5eXnt8jrbye0KlxEkECQQJBAkECQQJLAJCQRAaRPCCR8FCQQJBAkECQQJBAl8XgIFBQUOikydOtU+++yzz+/QzJa+ffvavvvu6+BJcXGxvfXWWzZgwAA75JBDHFRZvny5vfrqq1ZTU+PvDz30UAdcAJgAnwCccnJyLCsryzIyMpo5Q9vYBGj2yCOPOGg2cuRIGz58uANtbWP0YZRBAkECQQJBAkECQQJBAuslEACl9bIIr4IEggSCBIIEggSCBDZDAnPnzrUXX3zRnnrqKXvnnXc24whzMOm8886zzp0727Jly+yOO+6wAw880L73ve9Zfn6+zZgxw2655RaD/QTQdOmll9puu+1msJmeeOIJZy+NGDHChg0bZgMHDtysc7bGnSZNmmTf/e53HRg79dRTbdy4cTZ48ODWONQwpiCBIIEggSCBIIEggSCBTUogAEqbFE/4MEggSCBIIEggSCBIoKkEZs2aZc8++6z95z//sSlTptiYMWOsT58+DpI03Td6D0Npv/32s+TkZIPhBCA1ZMgQO/74452hM3HiRPv1r3/tTKRBgwbZD37wAwdaYCbdfPPNNm3aNDvyyCMN5tI+++wTddvmnj/88EO78MILPdzvzDPP9Ovffffd29x1hAEHCQQJBAkECQQJBAkECQRAKXwHggSCBIIEggSCBIIEWiSBeEBp4cKF9v3vf99Gjx5tPXr02Gg/KSkpRh6lqqoqKyoqMlhO5A+CnUOupAkTJqwDlGAmASj179/fczVdccUVBuAEo+eEE06wgw8+2IEp8hDRCIsjoTdsJhJe8z4pKWndI0qAzb5R8m9C63jNuNif43jQZ1pamifM5vPoM/rmHPSVmJjo5+eZ9801+uIcPGj0C5g2efJku+iiiwKg1JzQwrYggSCBHSKBeL2GnmuuodvQWzwiXbcxfdfc8dtqG2NFj6J/GSs59hhTaEECQQKtQwIBUGod9yGMIkggSCBIIEggSKDNSCAeUFqyZIlde+21ngupZ8+eG70GqrmxCCgrK/Nk3gsWLPDwN8LdAJTee++9dYASIW2XXXaZM55gJt1666326aefOjvpiCOOsLFjx1q/fv3WMaIIkyssLDT6JFk4rKbu3btbr169PLk3oBHnpwFoMQbGDehDeB3Hk2CcPE6dOnWyUaNG+f4sYOiLED1yH5FQm4UVfZM0nKTa0UKr6YXDwiL308qVK30RRP4nWFzz58+3b3/725abm2uBodRUauF9kECQwPaWAKAMenDVqlUO7Eegd/x5AY4A5Smc0KVLF9fV6NGdAeSgr1esWOG6HZ09dOhQ15/x4w2vgwSCBHaeBAKgtPNkH84cJBAkECQQJBAk0CYlEA8oAbbccMMNdthhhzmA80UXBMjC8W+88YbnQuI4mEofffTROkAJkOniiy/2BQRhdewLMAPQRLjbQQcdZMccc4yHypHgG9YPwBNsKd6zQALAAeCC7bTnnnv6sTCE+JwxjB8/3vskLxNgFIARwNJee+1lX/7yl62ystL3gxk1Z84cB6DYBoBE3wBRsKvoG2CJxRcLNfpnfxKWT58+3ftmO+wsQLDS0lL729/+5uyrACh90bclfB4kECSwrSWAPkLnEa785JNPOsDe3DnQaRRAAGRHlwK0o8PQfzuSqQTQ/8EHH7iOB+A///zzjbDo0IIEggRahwQCoNQ67kMYRZBAkECQQJBAkECbkUA8oAQ4c+ONNzp7CEbQphqLkE8++cReeuklu+222zx0jdA2gCIAmCiHEouWr33tax4GB/uJBRAPjs8X2HTAAQfYT37yEyMv0+zZsz3B9zPPPOMMIjzoAEeAP4A4AD+EmH3pS1/yhRDAFOf6/e9/byTIptIabCWq1RGyd9ZZZ9mvfvUrW7x4sVei+3//7/95RTu85ITC0egbthE5oUgqzkKLRRahGcjmwQcf9GtkEUSLFl8AT3j58bbvv//+gaHk0gl/ggSCBHakBNBT6Lynn37arrnmGgfuOX+kp+LHgt5Fn6IbL7/8cjvuuOM8992OZCrNnDnT/vnPf9pzzz3nTNJ7773X5474cYbXQQJBAjtPAgFQ2nmyD2cOEggSCBIIEggSaJMSiAeUeH3GGWd49TU82U0bjB4YSIBEJOHGK/5FgBIgEJXQCFN799137R//+IcDPgA45E+CoUS1N859zz33OOADK4lQOMApzgfjCODozTffdPbUiSee6Em9CZmIACU+Y8wcw9iGDx/u1ejo/+GHH/YqdpwDEIuKdCyqWGABNjEu2FnkdTr22GP9HDCk3n77bQe4YCrRN2MmZCQ6L+eeN2+eM60CQ6nptyW8DxIIEtjeEmgKKEXsI/Qfobg0csYR4kvo7vvvv+9sSwoioO8A+wGZdlQDgIcpCuMThhIMUpinoQUJBAm0DgkEQKl13IcwiiCBIIEggSCBIIE2I4F4QAmWzx577OHhZ4RHNG0sPAgNg1V01FFHedjCFwFKUZU3nlnUXHLJJUZ1NACYk046yavKkdj7v//9r1133XUOIO29996+0CEEDQCHfErPP/+8/eEPf/BFEknDo7xMEaD01ltv+bF43U8++eR1uTlYcN100032v//9z0M9SAR+9tlne0gfgBJ933HHHe7hB4yC/QQARmgeXv+///3vRuU2jqMyHfmWALy4bqrbvfbaaw5eBUCp6bclvA8SCBLY3hJoCigBep922mmunyOWKSzMtWvXetjvY489Zv/617+c8Yme/OUvf+lsTXLMwdyE2QTzkhC5eOZS9Dnnw7EQ7RNdH9s5D6HGAEURu5SceswbHENjDoBRBbsUPYqux2mALiaEGLCeRN00zkl/bKPBKuUz+ovy6PkHjX/oD/CMY3hNn+zPcYy3uWM4B8dw7VGxBo7hwRy4qWMYL+fh2umf83BMc+yw+HGG10ECrVkCAVBqzXcnjC1IIEggSCBIIEigFUogHlCCqUPi1sgAbzpcthMSBovnvPPO2yaAEuFiM2bMsH//+992yy23eBgGCx3yKpEwm4UJRjuJvm+//XZnRWVlZRnha4A7EaBEKAUg1ymnnGJHH320G/gk5yYBOCF5gGWnn36693/44Yevy5NE34BGsJioVgcw9Mc//tHuvvtuI+cTLCWuFQCL8xF6FwFRgE4333yzA1UBUGr6bQnvgwSCBLa3BJoCSrAvYZmiPyNACX0FcIKuQ6fdf//9rnPJeYceBfQBHEFXAiShdwHy2R41QBo+JwE4+pe+IwYU/QPGwPYk3Bg9yrGEBeNI6Natm88r9AVwAxuUJOIARTgwohBj5gHYoOhZQBmAKfrD4cD7fLFLCY2Owo2jsUXP5JICqOIYADSuFzYtx9Bnc0wszsFYmD9gcPGea6MqKc4TgKKmjWvgPBzDHINMOIbxcUwEnjU9LrwPEmgLEgiAUlu4S2GMQQJBAkECQQJBAq1IAvGAEsmwAWNg6mDkN20sNjDMCSnDswyYs7UMJRJzv/POO77QAcSBlUQybRYi8QsaQtAAcGAUsaC466673OhnEUIOJRYz3/jGNxxUok8aCwv6vu+++zzMAu89VYUIw4tvhIGQI4kcUoRgsMj67W9/a0888YR707/1rW/Zj370Ix9PtFjA0w7I9f3vf9+rJgVAKV6i4XWQQJDAjpBAc4ASLMt4QIlxsB+gEjnhKCQA+ALjEkAc0B4Q6KGHHnKwCFAKPQywFDUAlAceeMDBHYCTQw45xEPVAFMIYUMXAhQBsADmAADhgCAED0YrIXYAUJx3woQJ7hgAmEFnM9/QD0AXYdSEwAFgER4H2MNr+uvcubMDNscff7wfg/ODBgjFvIAOx3HAGDiG6+UYcuQxp1C0AbYpfTFG5hQKSDDvcR764TjmPgAl5hEcKMx3NKqOcgznYd7hGOYBxs4xXAf78whhfC6y8KcNSiAASm3wpoUhBwkECQQJBAkECexMCcQDSi2t8rY5Sbm/KOQNYOqFF17wCkWPPvqohwzAAiLkID7cAA84XnS84fRJ+BvgFuMHUGIR8dOf/tQIh8vXgoeGB5mwNMI8WARg9ANSNfU645VmIUGDjURCccLvCJNjUUKy7iuuuMI/j/6wHSAKsIl+A6AUSSY8BwkECewoCTQFlADNYXjC1iRPHA2dCVsHAAdQiAfMHYAZdBuACIDQD3/4Q2cmoQM5Hj0bNXLFAZ5TpQ2ghepsPAM0kVgbgB+diG4FOAJoiULCCG3+zne+48AMehp9HJ+UG8CJscECRecCxkTMIZwYEQOKbYz7yiuv9Dx37Mc5cRwwhzz11FNefAEgi+OYPwjDA3hinoG5RTggcwvHMDfgNCAEG+CJxv7Ig2uAPcV1chx9kfeJ83AMwBfHMDaO4QGri2MuvPBCD5HmGMCr0IIE2pIEAqDUlu5WGGuQQJBAkECQQJBAK5BAawCUMOzJoQSgRAgc1doIk2BREDUMd0IkeMZwZ9GEZx3QCEAJ7/FVV13l3nAWHTRCNFgAUFWI1yT6BmwiZ0d8Y1HCg4Z3mYUWFZMow81C7NJLL/XFVvwxeLMJEaSyHQuLACjFSye8DhIIEtgREmgKKMHehF1EUm6AbhpADGFj5C6CWQPzh2TcFDcYM2aMgzlbAigB6KAD0a/jx4+3c8891/UvrCT0Med6/PHHXV8DUAHmALJsClDiM/IQ4Rg4XKHJsElxJkTOAQAtAC/GTsgeLCEKMtx6661+nVz/EUcc4ccRmgcDCdYSLCT6g4EK4whnCBVA0e84JphPOBbHAs6Hjz/+2McPOITTAEcEbFyOgaXKPEJ4NWAVwFl0DOMEeLvgggv8s4jRuiO+C+EcQQLbQgIBUNoWUgx9bBcJQC3F+GYh0FwDwWdhECXC45ltAdlvTlphW5BAkECQwLaTwM4GlPByv/766+71/btyGQHmEHaHpxemUtSYQwhrwxPMQoFFA4spvMYRoPSzn/3MFzTkzKARxkGYHJXlZs+e7TmUAKwIe4hvLFJYZLG4ICSOcA4WDuQbwQNPIvEf//jHnoODuYpGiAXjvvHGG50JEACleImG10ECQQI7QgJNAaUoLBmQJAoZhv0DM2j+/PkOLJFL6KKLLnIQZWsAJfTsM88847obQAWGEcUL0N2wfGA1kQAcQAhgiIIJjHdTgBK59HAmnHXWWc4OwjmAXkZ///nPf3bwiOqgsIZ4APxQPOFPf/qTOyIAmqKwbeYPPsdh8Ze//MUZV4BafA6gxHhxBgBewaBC9wMAAUDBPiV/HmOmGh6y5FpgdAEmMUdwDK9ZqxD2Fx1DyCHzGIBevFNkR3wfwjmCBLZWAgFQ2loJhuO3mwQw+PEO4wFuDlRCgUOThZ7LRIKXIKKrbrdBhY6DBIIEggSCBDxk7Nlnn3XwZGeEvBGigdHPQoJFAQsCjH4MeZhIUcPzC2MI8Aev8Ne//nV3QkRJufGINwWU8MjTNzmRWEBg6NM/YFR8Y8EBOITzg/wheO85hjHh4cZLDaAEswmHB40FFJXnyEdCvo0AKMVLNLwOEggS2BESaAooYWNjR6M7o9BeAB10G/oQNg2gOKAMRQrQo4D0W8JQIjcRYWboZY4HTAJIIX8TIWOwkQDk6R/QBRufMWwKUILpRL4lKnFGjCbkyHUShgwbCnAqApzQ0ZwfYIvwNMB/QCjAJM4JGEUevcsvv9zXHzgU0OeEvAEI0WBzARQddNBBfizyImSPuaZTp06u9+mLHFPf/va33aGBI4RqoPvuu6/naIpkjGMC2TNXIH9kEFqQQFuSQACU2tLd2sXGinf4kUcecWXeHKCEwmWCwwMAoo8yZkJhocGkFBD+XewLEy43SCBIYIdJYEcxlKh+Q+gF4QOAN3h4ya0BuIPRDzhz0003uf4neSohCOTwYE7Asw6AA/BFOAVG/DnnnONzw6YAJRZPLGh+97vfec4OKvEQJhGBVZyXhcXLL7/sOTEIhWAxxGKFhQ35PFhEkH+DxQ0LDhZrhN6xkGI8eKUZbwCUdthXNpwoSCBIoFECTQGlfDFm0FOE7kZ5gdgHxhD6EAcvIDsAPMwcQnYJMSMk7ItyKAG6ALKQ8wjwBiCG/ghrI68QIA76EUCHhN685sGYCI/DnofZuSlAifA15gX07bhx4za4z7BGAZRwOqNvAcMA9AmXBjRCDzM3MI4o1Iw1ByAWTgO2Ixeume3kfSJ/EuwtwgQByFh/ME8wzwCAAV7B9qLBdr3zzjtdfgBOhGazH+NpegzvWdsARIUWJNCWJBAApbZ0t3axsZKLgokAzy4TCgo7vqHYmfCIXQblx8gnFhs6K5UZojjw+GPC6yCBIIEggSCBrZcAoQQAI3h6YSgRwgXogqH8RQ3WD2AMzCI83hjqVLoB5CGxNTqdhQTbCTNjUcNrErKy0DhcOS1YNGDMs6C57bbbbM6cOc5mJd8RgBLzBf3xOUxXAChYRhwLsLMpQIl5BWbsHXfc4YsewCMWN7CQWDzgOSe5KuwnxkpoA4ASDg0WPiwgbr/9dt+PRQV5QFgoME8BigEmEYbHIgVvP975puF0XyTD8HmQQJBAkMCWSqApoIRua67KG/1ja8MkQt8TvgVggj4GNKHC5cYAJY5DL8PoKSgocMAKQAm2DyBVVFQB4J+cRuhVQCpYOuh/QB5ALl5z/KYAJYAhnAXoeOaU+IZjAPCKkGfWB1SIY+4hNBmQjLmCa2oK4jBPEPbH58OGDXMWE4AX+pu5CJkwZvajMTcwjwFQMW4cCiT6XrRokR8DG4oQN+YM5heAI+YHnCbRMcxprHmiEOn46wivgwRaswQCoNSa784uPjYAJSYCFDQLFSa7eIUPgITnGmOfcqJMdiwkWDjgEeG40IIEggSCBIIEtr0EIkAJo5xFRUsAJcAYEpVGgBILEhYn8YASupxFC/kpMNjx8BKiwAIA0ApvN6EDEXCEBxovNcY6xjieZuYHQg/wCJMIlbkB7zuLE4Am5pfmQt6QFoshvOhvvfWWL2QAigC2yCPCZyw0AIHw1rNIYcHBudiHRRQsJdhKeLJxiHAciziuC1YtCwuYTVG4R1RietvfqdBjkECQQJDAhhJoCaDEkQDg5AjCyYtehY0JeA9IvjFACb0N6A6gBJsHwB1ACbAFQIWE3zBB0a3Y8ehNHrwvLCx05wF5lTgeHbopQAlwh6TbgPPkd4pvzQFKOCEiQIl5AQdF0zAz9DxyQl/DJgJ0Y74BDMOJAlBEvj3GzoPXjJu5B/kAcKHvCWGDmcQ8uXDhQs8RRZ4ojuGZsEKOIWSauYRjANZCCxJoSxIIgFJbulu72FgBlG655RZP1IeSZVKJB5SYkDDeiT1+9dVXfcHBRMcC5De/+Y0vIqIJgn2Z+JjAUN7RwgAWE14LJgz2ZQJhPxYZHMN2FHuU/wJvBJMJ52HRwgKChUJEk2U756AftvN59NkudvvC5QYJBAm0YwkAykRhECS+BhjBECZP0Rc1DGtC5mDrAPxHQA9hEQBNLEQw3GET4RHGqCcn0eTJk/2cGOiER3BOPMvodKoG8Tl9A/bQB/obrzGAEqxVPN3oecbLguCVV15xXc5igv7Q1/GN/Vg0ACqxWGB8ODLoA88zoRv0S/941aP5hvHAigJMYkyMh7mL8bBA4trwynMMQBQPmFehBQkECQQJ7AgJtBRQAuQhfBhwJooGALjBJr7iiis8IoBwMnRyxLbEFsYBQB45dCn6HEAJNg76FPAfvYg+RF9HIA26k7kB257UFdjz6G5YRjCDAKfuvfdedyqgW0mSDaBEJTbCkr8IUCIX0j333OPhdiTQBvzhWPR/lD8K+bAOwMmBLc88g+6mMXfxnv05P+wqxk51OhwFjJ1xEDEBS4m1BMcwFzE/cgzzJ3MVxzBPwGrFaQ4IBVDH3BBakEBbkkAAlNrS3drFxgqgRElPDHYS7TFpxANK8eLAM/2HP/zBjXcUNt5scikxGTFRAfQwCTGJYchj8AMkEcZAxQkWLbwHCAIwwhPDZEeYAp/jnaDhTcGrwDOTDAsKFD8LBRoTBBMQCws8KnwefeY7hD9BAkECQQJBAlskgUiXczCAfnxoAAsAFjcY6ixe0N/obRhJ6PYI7GnpiZkTeLA4YuHA/ICTgL5xSGxKv0cOCIAo5i5AI8YSOShaOpawf5BAkECQwLaQQFNACaYl4bdUMsPujVqk/wDGAeAffvhhB1KIAgAYwq6+9NJL3R6GHUQfbKdhawP0RyBUBCgR5kX+IkAYbHQAHUB1dDrn4zjyFBEWDROW0GPAHPItkTNvawElKtXRF4xXmKSsLwCZYIlit9PQ3bBYAa4AmbDluS7yKiGDI4880h0hrCEiNhGfAXixdmHdArhGeB9rBnLqwZIl2oJiDDgkonvAWK699lpncBE+TR7AzQkd94GGP0ECrUQCAVBqJTciDOPzEthcQAmlTOK8q6++2icoFDxlQvEMMDkB8BASx2QIEMRCgwUBCwweLAqYrKDLMtExkTABMgkQz0xMNpMtjckRLwm0XI4jASB5MAjXYByc449//KN73Yn/Jklg8DR8/t6GLUECQQJBAi2VAPocUIkGQMMCJHIy8FnEWsWDzmuAm4hBGu3X0nOyP33TJ8xWzk9fLDJYDG2KgcoY2J85hcZ42J9xhxYkECQQJLCzJBCBGU8//bQDINiwhKJht0Y2K/ug8wjjgiFK7iBYQ+QoonIaoAd2MqHJhHLB2oGlhE1MImvYP9jEHAewHwFK2OiEA/MAtOEYWEWwVdGXMJSolgkDFt1LpAJ5hsjftC0YShR44LzkNPr9739vjIdrAuzBgcycgVOZccM2AhRijIBe5P+jCARsI9YYsIk4Hkc2MmItcv/99zsodMEFF/i4kQMh4RyPbDgXxwMqcQzXRBGir371q/aVr3zF+2V9EVqQQFuSQACU2tLd2sXGGh/yhteDSSDey8zEw2SH55gwCUAgPAUwk0D7CX0jfO3RRx/1iQNKLEoa7wvKH2CJyRGvAtt+8pOf+LEY/T/60Y+c3gvARJ4OJhMaE9rNN9/sMd54m6OYbc4JC4qqdMST470AiGLc0HlDCxIIEggSCBIIEggSCBIIEggS2NkSaAooAW4AjBD6G7EuAXOwobFtyaEE+xPQ59hjj7WLL77Y7W0AJZyohGwRFgfAAtMHG5uIAHIoYWMDNpGDiJA3bHMcvdjLsIQAZmAAETINcM+5AFkA3tkOG4rwMvLkkSt1UwwlWFIAY/GNtUF8Um7SZ7BuIJE3uZSILADox45nnDgLCNWbL6YU48GWx9YHBIKpRTQEbFX2AyBiO2sLcgMChpEXCWAIQAkmKxEUAFewW1mjcAxrC+QcHYMckSlhckRM0HdoQQJtSQIBUGpLd2sXGyuAEkqYSYYcF8Q4x3uZUc4o9YiBRB4lkH+UPxRaFDag0ZVXXunUWTwk0En5nMmOY/FS3H333e5dwTvARIkXAY8IFSiYIK+//npX9HibKTVKvDhgFv3jcWGioYoPkyDgFZ4b6LPQaPFsEOIQWpBAkECQQJBAkECQQJBAkECQwM6WAIASQAoMpZ///OfrEkMD4sQ7bgE2YCzhdCWPEeFYACK8Z1/yDBEBgO374IMPOhCCUxaAClua/QCVAE94D6AEcEOSagAlQsoYRxQ5EMmFMWCPA8oQakaaighQwnaPcigBdhFyh8MYEIfcRV8EKF1yySXrws0YO45imEUAaKwxogfgGtdLGCBgGKATTCxy6hGyB/MIwI3GeHkNgETBCIAhQt6QEcAaoBKhbbCeAKlonOf/t3cfcJYVdfr/z+Z12TUHXFBGRYKCAZEkSJIoWUBAQECyCAgOQWBBQHISyUGQAQQlKCAGGCQKIigKSjChouvuyoLrrm7eX7+//mv+l6Znpnvo6e7b/dTrdenue8+pU+e5Q9WpTz3fb/m9bTKh/eYSzumd69TB+U8UmOAKBChN8C9oKjcPULKFtJhmMcdWKnpLWznhMjLAGNgMPjpyx4JGjjHIWTUAgAAesc0GBuex1FpdkRhPQjwhao4xcBloOZ8AKYCIG4qVFTCygmCQ1bZddtmlzpWMzyoIq662A1RWLrLS0Put5fcoEAWiQBSIAlEgCkSB8VIAPLEoK30DdxGgM1QR1stVw4EDlki4zZ0vLAz08FwslYSFXc/A6vS+4z3/Wsj1fO6Z2+/gEIBigdaCrnNsfOD5XRtcD3zi7JeKQgie52yfeU7n/gGRwBqwCpDxnA5Kee7noPKs31tAI3MAbeaeWmaZZepj9ZgHCGPTFqF9wpPBNm0V/mbDhWkDzi3OJQUIkxPP8eqUB6qFNNPJvXFgabswQgUMcw43kpxQzjE3oZNztLedA2KlRIF+VCBAqR+/tSnSZlBGrLJBwAADEPUWA6JByUDjd8dJ3A3kNMsoJxFoxCIrpls9AI/OnH338QFLq5UOdlP5kDiYWHblSmLF5UiymgFSGXysMABGBjkDgcHB6giQJVmgmGwgisXWe67Vu9rT2/78HgWiQBSIAlEgCkSBKBAF+lkBEMbzNjDkdyFqnsm5bWZXPLc7x/M5mGMzBe4mrn7wissJiJrfRRtAIXMCO7CZV5hDtHsYyi3kHh0LhpkbKCCUc8C0oZ771Qu4cTkBcY5xDmDmnKGuM7/vPfVHgdFSIEBptJRMPaOuAKB0wgkn1CqHpNjsr70drg7ZACTW2WoBW+3aa69dOymIo7aioNPXeVuFsYICAIFIBgKDABglvhtsakBJYj6hbiytRwyEu3EusdE6h9UVNJJTCSyy2wP3EojF1WS1xUoEVxM4ZcDobfOoi5QKo0AUiAJRIApEgSgQBaLAOCkADnm1cC5OI8++c3v+dY4FXlDHyzMziOT8sQr90gZzBe0AffwNhmnDUGCIxI5xbHM0ec/x2u411H3P7px2njpSokC/KhCg1K/f3BRoN6Ak+Z24a3HMwE1vJ23gQvs5kOwkIR5bjPfqq69eibTZTQ0QciGJrwaVQCHnGagAISsg3/zmN+u9BpScr17biQJDQuDEjLeVBbAJQDKYHH300QWOtM8uDVZa2GN32GGH2gJ0CnxNucUoEAWiQBSIAlEgCkSBKBAFokAUmIIKBChNwS+9X24ZUDr11FMr55EE18LZeoGS+2i20+uuu66bPn16rQwIRxMqJ1Za7LIk2sLQhLsJZ1tllVUqNlr8NVvrgQceWMn1GlCSFE8Rl33wwQdXriT2W24oqxZiu7XHLhHC3STg46CSX4lVV5JuScTFiqdEgSgQBaJAFIgCUSAKRIEoEAWiQBSYjAoEKE3Gb3WS3NNwgBILKZss+HPEQHia+G0uJbvDgUDC4CT25k6yUwOYJCGf/EcNRkmybeeFwUCJc+mcc86pJIAS9wmRk/QPLFKXRIOHHHJIXR+sknAPzPrIRz5SMAmwSokCUSAKRIEoEAWiQBSIAlEgCkSBKDAZFQhQmozf6iS5p+EApXardqlo4MgOFGeccUYlupPT6BOf+ETBH2FqwtmWXnrpCoWTTA8EuuCCCwo42eFN3iPASNy0fEs33nhjhb59/etfr3PkUpKk+y1veUvtDnHKKad0DzzwQPfEE0/U5xtttFF3zDHH1C4Y8jKlRIEoEAUmmwLCfeWwA9nlkBBaDNALJZYPArAXTiysuNdVCv47z/EKR+dYJF3tB/1bTkB6SEw7t4S2/XBPaWMUiAJRIApEgSgw+RUIUJr833Hf3uFIgJJk2Q3u2C3B7my23+RM+tjHPlZOpTXWWKOSdnMR2c3BTm4SbwNHAJLPuZTe/e5310TIMbYT5VJyHDeUcDZOKAm/Jd++8sora3e3++67ryZHdoOzw1t2d+vbf3ZpeBSIAnNQQD8IJHFtPvbYY7Wpgb4SWAKRXvKSl9TW0nLYCSkGmFoRNmzLZNtM63NtyQwqpXSly/33318LIdyttp+mZ0oUiAJRIApEgSgQBSayAgFKE/nbmeJtGwlQ+sY3vtGdffbZHSeRFfEjjzyyws+s8nIocTCZCC2yyCK1a9xvf/vbmgBJ0G2C0/Ij2SXODm7C5qwUmzRJvC3htod7ybb9LcTNJOqOO+7oLrvssm7mzJkVDie30v777z/HrVKn+Nea248CUaBPFbAxgX7vrrvuql0zuTxt92yzA/2rPhNMB9wXXXTR2tBgiSWWKLjvlm1oIJSYcxRQ2m233SqfXZ/KMarNBpPOPPPM7rWvfW3l5LPwYUvplCgQBaJAFIgCUSAKTGQFApQm8rczxdt2/PHHd+edd173xje+sRNKNniXt155OIm4hQAlsEh422qrrVbnXnPNNd2XvvSlgj8mRCY+JjPC1uzO9stf/rKcTFxGdnQDlFZcccXOKrEQjaOOOqoSbr/whS/sttlmm9r5zbUl5eaAApvsJPfOd76zW2+99crlpP6UKBAFosBkUECf6fWTn/ykAz4uvPDCgkLC3EAkLiQgSX8JLv3+978vhw1Ar+/m/nTcQw89VG5PmygIj1OP/r03LG4y6DUv92DjCGMckLTpppt266+/frfQQgvNS1U5JwpEgSgQBaJAFIgCY6ZAgNKYSZ0LjVQBoWiPP/549/znP79WvLmLZlc4jOQxkpTbpOZVr3pV7cYmnIIDCTTyAoGEZtipTTiGB3aTH+//7Gc/q0Te3EnyMHEkmUQ9+uijnZV4k6aFF164e/3rX1/N4G4yeXKeEI5Wp9X5TJBm903l/SgQBfpNAX0qGP+5z32uwon1qfpPwEh/qM8D0fWjv/jFL7pbb721wuH0n+CIUGDOG/258OEApWf/CwhQerYmeScKRIEoEAWiQBSY+AoEKE387ygtHAUFWhJZkyLJT4USAEbNSQQOgVJW0b3vZ/tsFC6fKqJAFIgCfavAb37zm+573/teOTUvuuiichVxgG6++eYV2gbAg0f6ULnlbr755nrdcsst3corr9wJBbYzJuA/J6DE8QRecZmC9ZJ364sl+bbJwZxy01kokNvJufp7UN85wpN7+3pfgkUEx3FJqV9otHOND8aClljc+RJkDy6za6drtXNmN364Ly/Xc4z6nUOzXXbZJQ6lwWLn7ygQBeabAvpKfZ6+T580uOhHWz+lr9IH6zMnazE2GO/cs3HBorRxIiUKRIE5KxCgNGd98ukkUsCER/HTIDnYRdQ+H/z+JJIgtxIFokAUGLECnEVyxQkdFl78wQ9+sMKF3/rWtz4D8uhDTVDkShIGLN8ceC8c2O6YQMycgBKAZGLzox/9qMLrOJ7AFo5TDifgymRmqD6aS5RLVaJwEyPHSQzuXOHLIFE7j8OKAxZoUr9wZi5U1wWavDdt2rTKpceJNbjMrp0crM3hOrt20oaenFwmLJytzrn33nu7PfbYo1t22WUT8jZY8PwdBaLAfFEAiNfPCmfWJw0uDay87GUvqzBm/ZV+s/Wlg4/v979FMlg8MV4Yuzhw3W9KFIgCc1YgQGnO+uTTKBAFokAUiAJTWgG5j+yWCSaBRoceemi37rrrFgwx4RhcQBlwhkPJgzmos8IKK1Ro8FBASZ2SfbuODQ6EET/55JMFp4AZD/Sgi7x3qw04o+wkZ6VccR1Jwr///e8XyAKkuJy0i2PIBEi49Oqrr16wxvty7X3mM5+plec2Mfr1r39d7QOLgB6h1nI/veMd7ygXFpcUIKadJhzaCQ4N1c43v/nN1U7X1k73B1hJSC5XnzBq7dQW9dLHBhDXX399wbfkUBr8Lyp/R4EoMD8UAJP0oRYL7JY8uOgfOXT0wfpEgN3unKuuumqB+MkGW+z+PGPGjOqXF1tssYL7+vGUKBAF5qxAgNKc9cmnUSAKRIEoEAWmrAIgChDCYQR62L3tiCOOKGAyJ1GEFpusOB8UesELXtA98sgjQzqUHGunTq6mz372swWSwCATmBaODEwtvfTS3c4771whd/I2+ezWgXxNdvLk+hFKZiW9QRztdYywhb322qs2azABArXsBGp1XvsAJG0EeAAlIQ8cTxJjSyq+wQYbVL0+620ncKWd6ve7kD/tlGhc+NpSSy1VEzCOKROViy++uHvwwQdLR64o1wSbXBdg4hBYa6214lCa0z+sfBYFosCoKaCP/M53vlMb4HzhC18oWK8/a6BI/9RSRuj/9Fk2DrBBDXAO1gNODcyPWsPGqSKhx6eeemqNPcDZjjvuWDkCx6k5uWwU6BsFApT65qtKQ6NAFIgCUSAKjK0CYA8YIszNhMJOmPvss09tbT+nlgA1JiImJCYbJiJgymCH0hJLLNE99dRT3UknnVSuH7/Lt+TFuQO02E2Towjk4YwCeYTRcQdde+213d/93d91b3jDG6pNqw04mITGATwmB7fffnuFk+222261i5rwN6vxHFcmUxxCVts5kQAgIQ933HFHd/nll9emDXJA7bffftUWgEw7b7rppmqzNq655prdq1/96lmhetopj1Rrp3qF4XEfnXnmmTU5AZy4n0AlEEw7QTvHqTMOpTn9y8pnUSAKjJYCvUDpa1/7WsHz5ZZbrtMvKw3oCyfmrHQMcG5DG2PCZpttViHC+vfJUJrj1aKERQvwTAh0ShSIAnNWIEBpzvrk0ygQBaJAFIgCU1YBQEeI2N57711QCHyxvf0yyywzYk2EzA0GSgDPj3/848q3JGwNGNpkk03KqSPUgIsI5DnllFMqtI1riUvJyrEk38I0hCh48F9++eU7eZ2ssDsPxGmvnXbaqdotdO6rX/1qOZSEuVlh33333SskT94kdQrVO/vsswtYcWSdcMIJ5TSSZ+Soo46q0DztBH44ilo75Wayug1IaSedtt566+7GG2/srP7bJc85G2+8cWfS5hjuJcdzZ9EGKAtQGvE/rZwQBaLAPCjQC5SEDusnQW39qWJRQB+lrxTi++Uvf7lcmtymO+ywQ+3gyamkL2uluVM5PY0fFhUk9HaMvEQgfisWHhzjGvpskB3MsbDgfXU5x7nO87f3fW6Bw2KFEGifuwa3Zyuu6+V4EMyCQGsLxyxQxInV666yGACcAWTaYrxwDvDv2hyoL3rRi8rFqj7vO1bbtMPP3jZoCw21lYba4XdtNU45p7nBWrvzMwr0owIBSv34raXNUSAKRIEoEAXGQAGTAhOND3/4w/XgC6Bst912lUdjTpdvD/N+Kh6yh3IoebCWkPr000+vh/Otttqq8h0JN2jFA/m5555bwOWBBx7opk+fXq4kkxAQh4OJm8mKsslICz+zmm4CdMMNN3Tbb799QSgr7xxGQt482Js4HXfccbXi3iYW2iM8TTidSceFF15YEwXhbp/85CdrUqCdXEa97TQ56m0nZ9O+++5b53zxi1/stJ0zCmgySTI5cY5JDPB1yCGHFGgKUGrffH5GgSgwPxXoBUoWDsD19dZbr5yog68L+MgBxxUKuIPiwoLf9773Vf/peI4m4ITb0kKBxQB9HAgD3gPxNi8QZqy/dTxQpR/nQAXwgRxQRwgwaKPPtikDVxTgLx9dy0Mn3G7JJZcs8KP/b/W2tti1zfEWA7THeKQtNmzQDm5WY1DbyU07wDKQyHGAEggkr59rGw8k6uZkMu7QDxBybQ5X41CDVK5l7AKdnCv33uMDodnq0//Tg1vVucaCNv4M1j1/R4F+UCBAqR++pbQxCkSBKBAFosA4KAC63HPPPZ2QMUUImN/tRjan4kFeAmuTEA/KnEgewgc7lEw2OII+/elP10O7CYWJgwfuVjyYg1EmBVamDzrooO6www6rej3QmwCYlJg4mBBICg42+czfJiZyGnE19QIlD/4mRQcffHDtYNSu961vfatC7DiZACpASWntdK2h2ukY7TRx0c4DDjigwkKOOeaYglMmFUcM5J96//vfXxMfkM290Qr0kucpu7xRMSUKRIGxUGAkQAkcAYv04foxLh+bLQDhIAs4xG0JTAmTBk68p48DbEATGys4Z5111ilgo5+2wQGnqbBfkIdzRx8KJjmf+wh8EW4N4gAz6rZwYGzh8uFMtdDhOHntfCY3FFcoiGMs0v72AoYcqy1eYJCiHZ/61KcKHBkrtthiixqXLE5on/FQ328MEAZofHNvrmlxQoize1O/fv3hhx8uPYQ1A0vu14sWwJn+fpVVVqnQaTAsJQr0qwIBSv36zaXdUSAKRIEoEAXGQAGr0mCHnEV2vjnwwAMLLA229remgETgDgDjodqDs1A55w8GSh7IuYiuvPLKenC3wtvCF1p9fnoIN7lQgCEuH39bqXadH/zgBwWOTDRc30TDpALYMaFoYXK9QAm0WnHFFSsnlN2LWuEkMhGRa8lKNaDkWv7WTpMJEx8TKqvbvaW3nUJC5Hs6/PDDy+WlPZxRJj6tmGwJpQCUJD4PUGrK5GcUiALzW4GRACVt0bcK4bXTJ7hkPDjttNMKsujfL7roooLnnEk2SGj9KjjkPeBFiNyuu+5a54IxNmIQEizsVz46iw/6XdcCcPTtxhpuUOFrFgyEGes7OWjdw7SBcGULA/pP1/Se/vrEE0+sc41BnEDGBXUAVgp3E8AvF5TPrrvuunK/Oh7A4jA1xlx11VXVPuPL4osvXgsN2qSNdHBvFkLk1LOQoH0WENwbYGZRhtvJ+/p7n9HEGOQceQld032nRIF+VCBAqR+/tbQ5CkSBKBAFosAYKcB1c8TAirQVXw/dElMLi5idTd8D82233VahaR76rUoL//IAPhgoORZQuuKKK2q1V70mFVade4t6vBQTC6ETnEcmANrjQd0Du1Vi53tQB3eEqQFCwjJ6HUpyITnH6rT8UEIfWpkdUGrtVK92WuGeWztf+cpXlpvKyr3JkeuawLRiQmJyASh95CMfSchbEyY/o0AUmO8KjBQoaZC+XU4744E+VPgbeMQ5ZMdN4WFcN8LhAHuFi5TLB+SxiCAEWcgwt08vUNKvc/lsuOGGBezBGv27sGsOnpVWWqkAjAUKbiNj02WXXVZ9KBeqOgEfLimQCuCSs05ePuMG5xCnkC/d0oEAAEAASURBVA0ShD4bQz760Y9W32t8mhtQskCins0337zaafy6dSA0ui00GOuEb4NLHEwWX7iqpg0AL/es/caB+++/vxZCLIZo77HHHlvhctqXEgX6UYEApX781sa5zah6s49KQOeBeSpTdasyJgRWWlh1DbAmXSlRIApEgcmggFAzIWls+yYGH/rQh+qBf+mlly6o1HuPAInk2iYOJ598cjl55F0CUTxIDwZKHuLtxHbBBRcUAJI/COSx8t2KOh966KF6QPdAb8IhxMHERn2XXHJJPeCDPEIvQB6TD+0QtgYobbvttkMCJRMe9zM3oGSMa+20wt3aaTLQCuClndxZ2mnyYIIkqbfJC2eTHEoS31qpN2ZwLdFUDiXHaU9yKDVF8zMKRIH5qcC8ACWwBkTiugFAzjnnnII7gPs111xTOYQ4e/Tjch8p5gxCnj/+8Y9XLjmJv4WTAU+9QOm9731v9573vKcWBtRtvsHhCbhzI7XNFfTzgBJnkMUOGz6o793vfndtzqDvF7psQWG1gZ0/9cXNoaQeQEmf6zghe9xN+mPv2TV0dg4leZUsTAj9Nkbpv+Xc0z73bxzRj1vccM92wnMNjtY99tijFiLULW8e59W3v/3tCv3bYIMNahEkCbrn57/21D0/FQhQmp/qTtK6JdsTAoHMg0l2pfFwPFmLSYJBg80WKJJTw2SlQTSrNFZmvG8Vwu5HAUqT9V9D7isKTD0FrBKbRAgD8+CszweJPAQLT9Mf6vP0k0CKB2vhCwCUCcOWW25Z56hnMFByPkeQFW+Tm7XXXrtWtk1GOKBMGqwoSwSrr/W31Wtt+MxnPlMTANBITqUdBkLMGtDXX2uHZNheHEo+B3i06+ijj65jhwuUTAK00y5uJjGtnc5v7eRc0k7HaafJjcnMxQMJvk1UAClOLSvVJhjC5azW3zqwwk1XLi16BShNvf/HcsdRYDwUmBegJD/SeeedV7DGIqqNCjh95B4CdiSa1k9ycLaQYM/R+kRhvVxAYAwwAx71AiUwR44+/a1+VZ8KKBk3QBjgRx9qzLHQIBRZInHuJwsKQtfAKgm+Hc8lJITOuGB8Up8w6KuvvroWJOQ4akDJM/3cgJLxw1jFgdTmPeZExkcbMhgH3QMNjIVcp/Ry/8Yg4yZd2m5w2kMjYXrmEG1eMR7/FnLNKPBcFAhQei7qTdFzrTxb8UX5xULr4Afb/ieTNAZBg5M4aKvpLLpWH9o9X3755TU4mRiZ5FiJd1xKFIgCUWAyKMBZxIXJ1s9J5EHZQzr4IQcFOOLhv61CAzbyTugH2+5qHuityA4GSnbbAWiEgkmI6uEarFl99dXroZ0DFLAHqLQBaBLCsPzyyxcwUp8JiX4XiNE3cxC5lvZaodYuK99bb711hZRxNlkp16bhAiX1SvAtB5Lwtd520sIkpbUTOFOv/ElWsrXByr0Jh5Vykwp5M0ya5OQwhhhfaOb9AKXJ8H9N7iEKTHwF5gUo6T+5T8EaOe9sOiD0DETSn+mbhXCBJL3PwgAQOCQUDWBpee16gZIdN7l6jCfONdYYGywagEc+cx5w0xZ75WPSfzagZPwAauRJ0vdy2HKNAkzeB5bct/HEYoU2mccMByiZ8+jHhVRzNCnql7AbWNNG+aWEvgFExiALGkLbLMALDTRXAJXMJYA1Llcv95zF6In//0xaOLQCAUpD65J356CAzl+iOw/NHu4l5GuJ9+ZwWt9+ZIAwOREbbsAxiXLf0wbcSIrBEWRjz7VjkNjq3kG0Dsp/okAUiAJ9rIDJgFVYThoWf5DdKqsJhf7fw7XwBCvV4IrP5DPi0gGHfG7SMRgoWfEFgEAVkwYhAFZ/hUoIH7BwYWJgouKBHGzR/wJRwss8rFsZd7wHdHCHe9b4pI3a44HfdcAdbinnWWX2cK+uoULeJGGVfFafbwHFirPJh3aCW4PbqX1COvwUWtHaacJgImNCoR73alWfNsYMDiXntddqA44mDiz5R+iQEgWiQBSYXwqMBCgBOPpWz7tCd0F1jvz999+/wt+EeoE1npGbA7S33c7n3pkTUAKqbADRwAqgpC4OJM/V3EttUwNjkgVfQMkixrrrrjvLoaTPN07pq41H6nF9ziagx/igXwaaAKDhAiX3a1HFhgytPD6w6YPwOnMhiy9yMjnOojMHFNhkEUI7jA/GEeOK/t88QvJvO8MZ77yXEgX6UYEApX781sa5zVMNKBlADRZWRgxELLUmSSYoiomAAcXqgomE2O42GI7zV5XLR4EoEAVGTQGruyCNcAGTCo4i/WNv8dAvYarVYvBGn6jfVIRDmEwIeXBcAzUmBtw/Jg1Wf4UQcBW14liTBSF2QiQ8qOtjTRKcc8YZZxQkAo8UoQgezk08TCCMWSYOVpVNTkwmXBtQ4iQygXF8K0LrhPf1AiX5okxetPPWgRA17eQo6m2nNmmn8cHCAgdUW8W2KGHSI0zP5KIV2nAsabOcJBYlTC7oF6DUVMrPKBAF5ocCIwFK+j9QRN8olAs00U9xoXItAUoWYIF7riX9X28BdORWMgZYhJAPiWu016EEKAH8rfQCJRAGPJIPT5kdUAK0jDGu4yWJNmjDXcQZZBzwTC8E2XHTp08fEVAydnAZteL5fyigxLmrGCOFYINLXKwtv5NxxoKCRQ1hfPTUvpQo0I8KBCj147c2zm0eCih5MNcxssAqHvitVFiNtQpgkDEYmFwYZND9wdDF4ODh3MM+K6oHbAnwPOiry/vovZfPTDIUg5xVbA/6Vsi1oyXHNmh5YHftwcVA5TxtNkiqr11P+53nuhKp2mGCFRc0EpLgJSms+3G+yYrPtNXKuXszeHq1VXL3RAfHaZeX65nwtGLlwn0oru8+vSckxH1pI/1cZ/Bg3erIzygQBaLA/FBAf6gfenzgAdpOPvo+fS7QpM/jStK3AyF2Wps2sPoqyWiDKvpZ53k5XnJtfaB+Uh36PgmqgSH9vWvpBz28cx9xIanTe0oDPB7UtUV4nHFE/29Mco7rcDgZW/wuLNkxAI8Vdn2psD2/t6Kvdo/qdI4JUm87jWmu2dppwqAf722niYE6na9YmdaPuz91081YoF735Vht1K/Tz2RE/58SBaJAFJhfCgwXKOn7PS+D4iAMBycXJnDOgWpx4ayzzqodzcB3cMkY0PrVBlWAKHV4fpZTiBNztIGSkLvjjz++rqOvBryEHwNJ5g+eo1sommf7gw46aNSBkoVl8w4hd8YrIXCuS0d9v3kFsOTefQ6SWVgAv1KiQD8qEKDUj9/aOLd5KKAEwJgACFkwCQBVPEB7z+SBDdTDswFGrLDBxOTDe4qBysCmg/XwD8KYFDRA43wdcJtUeNjWWRuk1O8cq8WuBxSZ1Ah9mDYw+XAO8NMGNnWZuIBAXup1nkmNh3lt1Km33eusvEjuahA1MVpqqaVqVVsuDC+r6UIoDAruWyiDusA0ExITCJMPkyntNahov0kEl5PryKWhmKC07aXVZ0LhPC4oYMn1HS/8QhvdZ7uvqiD/iQJRIAqMgQJgjv5M/6Sv06/pswES/bq/R1r0m17GAy+QSf+mTuNFL3wfXHcLJQCLGtgCc9TnPW3UXn2mehroGVzPcP5+Lu00PurLjTn6ePemn29j4XCun2OiQBSIAqOhQC9Q8uzJ1QkQASCKvk5fr3/1vCwXnE0H9F/y1nGMyi/HocO5JMQMuDnggANmPUerwzO959iTTjqpnonBKKG9yy677KgDJW4kIWzCjC3iHnjggQWvPD/rfy08SCqurT/84Q/rcy4lix9cqXPa5Y2LaDgOJXMBcxHhccYaeZ2WWGKJevY3/gBdHLvAl3Fum222qWOa7qPx3aaOKDCWCgQojaXak+RaQwElD+nAilhkg468ESBPcyd5oNep6kjZUdleexNbi3UGbAxoOngU34TEg7YcHSCQejfZZJOy2FrZ9gAODNnOmnXV9UwYDF4GDoODgW2XXXYp8q8e7xvYZsyY0d06ELbAfqoe53jI10ZwRwJX1zAoCKdwvAFV0SZAR1iCMDi7QghjoMEaa6xR19NeIMl21uKnxXOb5NCB9VU7rEJLLuscYEq5//77a8DVRoO4wc91Tdr8rX1AmgG/5ehIWERJl/9EgSgwhgroM730S/o1Rb/mpZ96LkWdrV7jgDr9nFO97XjXbee0NminNvo5Gu1r9c5LO5tmznU/w7m3dr38jAJRIAqMpgK9QIlzSLgyh5Hnc8WzODBiwVYOPM/ZILjnYzCJexMYtzBr92e5Ri3ycoJ6RhbOpe8FoeTfs+OZhQfAx2eet0fboaTe008/vfLrWez1nL7FFlvUnEDbPGd7bveZOYP5iDA7C8833XTTqAAlGoJZ8ikBadMGFrdFNgBorkNP8x3h46IVQC+LxHmeH81/3alrLBUIUBpLtSfJtYYCSqz+3EU6ZZ00p48OlBOHy8hqMyAkkan3xUE3YAOeGGiAIQ/bBisupmYN5fIxCDw+ECaA4sthpGPm5mGztSqiDo4fHbW2GCQALgMggGV1wHnq9744bZ08Z5Vr+Qnc+Mz7XE0G1q222qrC3axacCl5+BceYcDSfoPmxQNbQksKa2Bk3zU40QLkAqJMbrSN8wnkAq60ix60kXPDSo9B1qBrxwlQDZSilfPAsLZCZND2t/ZZTYpFdpL8j5XbiAJRIApEgSgQBaLAGCng2dlz5/nnn1+QxbOl59LmmtcMQMjzKEDCMWpBVXgWaOJ4xfOpkF6LqDZv4ALy3GtR1nO353jPveYE8sQJ8fJ8q27P8HIdecYeKoeSHTktAHv+tkA8uxxK8jlZaPVcLlpCnj/gyDO7Z3qLxxZpLeoC+mAal5CoAs/hcv5p42CHknmBED/tG45D6ZBDDimHlwV0DiV6mL+4X5ET5ih0N68xV6GHuZPogyTlrn9O+U8fKhCg1Idf2ng3eW5AiSNHRyrRqRUMYV0GE7HK55xzToUeWLkQey18DCDh8AFfxDlLvGpg0NECK1dccUWdK2xMAj8DBlePAQbIMQAYuPbcc8/q7BF+AOvaa6/tzjzzzBpA2jamIJXr2dLU4MSJZGBkRWU7NQg5T3vZZm0RbRACwmaXlNs1BgMlA6R6JIx917ve1e2xxx41qHFMaYP4bTparVltYFcfqzUGXgMXoGSQc5xVFQletdFg7XhbkxqsDT522gCWUqJAFIgCUSAKRIEoEAWiwHAVELrGqX/ppZfWwu7g8zwncyCBIZ6TW8oKz9SejXtdo4CT53yhZACM53DASGmu0R133LGe8y2EcvsLRQZ9wBrPy0cccUQl627tAIC4njz7aotFZfMKRd3AkHA1C7jmBRZ1ASULttJVmFcAN/IWaWtLo8Hlr73mF2CYhVvhZ6IB5H8C1ISfAVgWmS16ax+IZodQC8CtuJZ5iDA6dVpUNrcRtSDxNteTOUHLN+g8erh/bTXfseCd9BVN0fzsRwUClPrxWxvnNs8NKOlcDRZ2cNDB63hZZhF65F8yVJ2tgUXnDCbZ+tkONwCOwQIssaphsDMoGHB0yICSMDHuIFDGNp0GCIMDoOR3nTIYo74Gdbx/1FFH1cAoFM2AYZXCDj+u56d2WrFg6QVsJHUViqYdIwVKrkUnqzoSD+69995VfwuvA4xmzpzZnX322bWrAy1cy6oFoGQAs4rBBgsYab+BFVSzkiRE0OAEZhmMUqJAFIgCUSAKRIEoEAWiwHAV8Iza3O9SVAwuIAz4IWVD2xQHbBFJ4P3eAvDY0EAqCs/7NhnwnC1Ng+dr51g45dIBWwAiz+qu69nb8z5o1bvTGWDUnsm1hSPK+Ypnc0VUhHM9swsfEyFhzuE9MEk0g+dlAEcbfO7l2upuufpAMnWao2iz+9QWn2uj+/Fcbt7i81Zci4bumQbCBR3neR9Uc2/mRRaqzS0UelpgVn+7p8F6tvrzMwr0gwIBSv3wLU2wNs4NKBlAOJC4f7h8WtG5201B8j7AaPfddy+wdOqpp9aqBpgCEHEgtY61xW5bRTjxxBMrBI1jx8qBlQf2WJ23EDTvW0lpRd4i1xKnDMjI72Qg0g7x1dxAQtDAKQDMMW0HOZ29MDjtNOgMFyixzbKufvjDH67khXZ6EM5mlaO3aIPdHziTADC5obizrNYASgYgbT1iYLWGHbYV9+S+reZoP2eU81KiQBSIAlEgCkSBKBAFosB4KgACceqAOJ5pwRfP1gCNZ/v2fD9WbQS5QCHP+6CSn0prJ6gGJHnu7wVFo9U+dQNNnusBJkU7QCfXFNGREgX6XYEApX7/Bseh/XMDSgYSoVqcM0h+K8i8EC0hcTpSYWBisb3HNQSscDDJd9SKDt+gxI673377FVDyOYjEoSRhtlUOnTPa3ztQyVWk89Yecc+2K/XTdS4eyHvElgvqGEAMMFYurI6AVWyoQvVAHUAJmBpOyJvwNvmh9t9//wqf87fQvsHQRzifuHWuKoOZ4ziZXAtQ0nb36J7f/OY3NzlqtYX+HF0stgFKs6TJL1EgCkSBKBAFokAUiALjrACI0l6cRe01Hs3qbYfra0srPmul9/323mj+BJXa9Zoe8/uao9n+1BUF5qRAgNKc1MlnQyowN6AEAklmDfwARq1YJeC4kcOI/bUXKElizR4KLnH5tAKwNKAE0rR65UzSDjmZxD77W9K93tUF54I1yrSB+G/tYbe1IiB0jMNHaBk7LDur9nFE6fAdDyq5HtjUdorggBLrzA0FOCm9OZQkC29ASdz07IASeywd3JMi7huEE9YGKGmHnfKEyvUm3WbfFfonnjtAqaTLf6JAFIgCUSAKRIEoEAWiQBSIAlFgHBQIUBoH0fv9knMDSii8xHlgSoMu7nkooCSXkgTZHEBgit8l5eY6Qu4BIcmoL7/88u6www4rwCOcTmJAuZcAJTs0CFuTR6nXOsoFxOnjJV6b8wjIUq/3FMeLl24vCfSAGjZdQOnoo4+umGzgabgOJaF8nEV2mJCbCZQS/tdb3JOdHwA2VmB5nEAl4YKAkrYDSsLnel1eAUq9Kub3KBAFxlMB8F1fpe/WV4P4XsC+BQL9K0dobyjyeLZ3ol2bVhy0tOOutdjR67KdaO1Ne6JAFIgCUSAKRIEoMFiBAKXBiuTvuSowmkAJ5DnrrLO6W265pZLjyZMErgiJ82AN7Nx///3lynGcpNyA07LLLtt9+tOfrrxKHDwcQ7vtttus2Gg3IQkeZ5HQMtDGlqAmPhLnSYrN2cRt1JxMXEGAkpxLHEDyJ8n5JA+S2OfhACVhflxFcigJyZMgUP4kuz70FtDKPQvZk5BPUm5QrCXlDlDqVSu/R4EoMNEUAJMsHuhP5XaTiNWigTBjAF+CVFtEc4/6mfJsBbhvuWNpJ2zbeBj49myd8k4UiAJRIApEgSgwcRUIUJq4382EbdloAiU7m4E3n//85yvn0HbbbVehaZxNgJJdFTh9br311sp3BChJYL3yyit3X/jCFwrImNS89a1v7XbYYYeCRFZ5TWyAJHBIHcLh9tprrwJKYA7HkwSBwsyEt9nxwaq6nEqud+ONN1Zdcjo5l6NIiJ6VZGFt2iAfE1Blpza5jNTHZQQeSTQuNM2uDhtuuGFBpQUXXLBW68Gir371q5VYm0sJSBL6JhyPUyoOpQn7Tz8NiwJTXgEgST8oVFhfasvpH/7wh7XdMijPccOdpB/Wr8pLx2UJ/Pt7ojpwbBdtrDB2WNDQ7vndVjsMGafs2kkb4dKunRIFokAUiAJRIApEgX5RIECpX76pCdTO0QRKa621VkGUyy67rHIRSYJt4uF9D/OAzFVXXVUTFk4ioXRcRaCO5N5cQF/72tcKBgl5s6scZ5Ek33feeWeBKMBI/iRJuYW7cSfZ8c1Oa3ZQE9q25JJL1sowAHX99ddXfiWhdMcff3zV58FfAm2ryY7lolpllVUKAp1//vnPAko333xzgbJrrrmmjhGmp20Sh1uVdr+gkomXZNxyRwFaJhYBShPoH3uaEgWiwDMUkCNP36mvvPDCCysfnX5R/yXfHMguRxy4pM/mUNLPAvLAvxC4iVjk1bObJ0imzXbn7A2hnh9tlkfP4oXFB+MUPe02mhIFokAUiAJRIApEgX5RIECpX76pCdTOOQEl4V4thxLoM7ccSsLX5A26++67C+QIObNCzO0jj5JJCgjDIQQgcTABSquuumqd5+Hfw7ifwuOcZ1JjQmMVHbDhENIWQAekEgon95JrCjUQmiFEw2dWqO1GJ/QA1OKIMkFyzic+8YlZ53An+Vx7wCEOJbvEcSjts88+1V6TE8BLOIicTS95yUtqgqJdrqFtEpDLNQVqgV0cUg0oyRPFVZUcShPoH3+aEgWmsALcSfpZ+eu+/OUvV58MhMiFp5/Sl4Iw+lGhcNw3+k5gyW6X+kyu1Pnt/JmXr8h4APJzw9pZ87jjjqtFBv3y/CoBSvNL2dQbBaJAFIgCUSAKjJUCAUpjpfQkus7tt9/eXX311QVthAXIXST/g4TRwr9MOlZbbbWCMvIUtQIcgS92V3O8vEcrrLBCTTZ++tOfFhQCVIRPmLSASSCNyQrHkZxJQgKEqVnxttLN7cMN5Dw7xVkVt4LuXPmLhKvJa2SCICG3iQzYZNIg3AykEoLmHBMHkAdcAnok1DZJUhcAxAnlOqCX8DVt2HbbbcsJ9ZWvfKXqB6023njjgmpgleu4hlxOQBJtXANckptpo402qgTj/lbc56WXXlphI/KOgGEmbK2YqHEGcDIBVXI10TAlCkSBKDC/FdCHA0RgCweoPtOigL4chNeP6WOFj+mf9H0cn2ANCC9U2Hih6A/11/pD4XFtIwafWZQAoVxPfRYJHKfIgyesTp+tT3es4xTHWADQZ+tr9e2uAej7W13GHvXJVaT9ruMYOe2EURtPuFOFLVvMcKz6HKuO1u7f/e53s8aNVqdjBxfnaKt2a4ffWzuMC64Xh9Jg1fJ3FIgCUSAKRIEo0C8KBCj1yzc1gdrpwRjw8SBvNVrOh/ZgDtYobWcfD+KtON55JgOO9xDucw/ZzjMpaNDHw7q6fQ4aAVjCwqZPn15hb2CMa6jTZEAi2Jb/wt/qkZMCVDJZUZeHeKWdY9IjCTZHlDaY0ABYVtlNjExMnKetbUKgna7VJi6uYdKiveo3SXG9NonQFu0HpLRPPYCV+k1WXENdrq2YrNDI+e5dXb0atnb4DkyE1DVRQ0jqhvKfKBAFJo0Ccrzdc889tXAg7I1TtDlG9X2tH9PH6hf16RYZzj333OrTAKVTTjmlPtPvWoTQD8ofpx9r0MgYoZ999NFH6z1wXd+sX7RBgv5U/Vyc+kzhavpp/aFFDv2mNujfATC7dOovXWORRRbpFlpooRob9Nn6fqHVwI78eVxDwprBegsSjm2QSp36cfmjADP9u/5ZnRZPHDu4OEefLixQO5zjPqcNLBRw3lqkCFAarFr+jgJRIApEgSgQBfpFgQClfvmmJmk7gRgP5h7iveRBkkMJCPLQbULCGWTlWJjFMccc022//fYFfdrkgzQmCyCL+kxGTG4AK6/ZFce1c0xKTC6sMJuMqLsBqN7zAZ0GxHxuMmEiM6fieJMfExeTC5Oa3hXyOZ2bz6JAFIgCE0UBrk59sZfwYiHOyy+/fPe6173uWU1sUN05d911V/XNb3zjGwtAgTxy2XF2eo9TE8hv/bV+n1PV5glgjrBgiwjq5M6086dxA/jRd3OnglKcqMLqQB/uKEAK/AGnnAt4qY/DFNBZbcBJq7+/7bbbCihxfwI/gD+XEveVcGQ7cVoY0CbOLE5SCxL6duMA2AU+cWl5Od777kN93E+SlwNIzmmLF8Yt9bof+aWSQ+lZ/4zyRhSIAn2kgD5Nv8eh7zncgjPQb3G2n4tnd+NIW/w2hlhQTokCUeAPCgQo5V/CuCpg4JH/6IorruguueSSmmysscYas0LNrEbLQ/Stb32rHsY//vGPd+9973troBoK+IzrzeTiUSAKRIFJrIDwNfniwH/gX1gY91ADQUPdOkcOmA7em2CANfLLyVfEvQTq2DCBy8fEQ+F+AoQ++tGP1vG77LJLgStQyI6g1113XYXRLbbYYgVnjBN2/gSehN8JsbNZQnMEAT4gjskOZ5QFA8mvDz744HI0SYw9c+bMcl9ZlNBOn+8wsHOosGOwChBynNfjA/mhuGAtKGiTcyyCgGMWPOzcCVS1sL/zzjuvzrf4oG5jFz38rV3aZNwLUBrqX1DeiwJRoB8U0Bfq7/WPwLu+3gYHFhz6ffdKCwEWFGzQo1833lg8SIkCUeAPCgQo5V/CuCrQVjPshnbGGWfMWvH1sO5hm7PHCq8BSS4ku6XJa+SBfG7OoHG9sVw8CkSBKDDJFAD+bU4g550H6k9+8pO1SguKzK5wdXpZ4dVvgzkWCJ4rUOJ6EmYmxE1+Ji8uJg4kbtbTTz+9AI+8dnbkBHgsYLRceADRYYcdVhspaJfcgGARGGUziYMOOqhAEsgFGAlLA4ZaWB14xVVlDGuuKfn1dt5553I2gUsSl8+YMaMWTUyuuKe0UVu4qky6uKJMVoxvAUqz+1eU96NAFJjoCgBK4PitA7lDTz755ApJBsptimMH534uxgCLDl7GkP3337825ck8pJ+/1bR9NBUIUBpNNVPXPClgELJiLfwB+QeQPPh7yLea6+HbZMEDtwmEnBspUSAKRIEoMLYK2BjhpJNOKuu/8GRwSejbSAugpL9/Lg4lDiZQS0jaagMuJ2ODVXD5ioCha6+9tj63acGyyy5bYwnnE5eVF9hz6KGHdltuuWUtWABUzvniF79YbihwR2iyMAfjk80ShODZdMFunu4fJALLuGztfup+5ImyqYM2eU/+KPXY3e79739/N20g1M7fVrqFDtqoQoie+gKURvovKcdHgSgwURSwaKAv04cC8hZ/9Zf6RP1zPxfjSgv35pA9/vjjK+Q7QKmfv9W0fTQVCFAaTTVT13NSwGAkdEGCVKEKYq7BI6EQYpW5llKiQBSIAlFgfBQQ7uZBGkTh0LHb23gBJQ4joXIWGriBLEBwC3nwl6PJOMIN9MpXvrJC8uRaslgh+TagdMMNN3QHHnhg7RrK5STX01BAST1XXXVVHQ9i2Rxi0003rVC/FvJm7ALbJPLmbrJDqFA553lf8nKTKkCpN5eIJOA0lZhb/qcApfH5d52rRoEo8NwVCFB67hqmhijQrwoEKPXrNzcJ282pJK+EfBu9DiUhDJxKvUm4J+Ht55aiQBSIAhNaAfnshCYLeZMn6Mwzz5yrY1R/DvJIZmpDAmFiHD3AzuwcSi2pthxKFhOGyqH02GOPlVtq7bXXrjZYKTahAZXsHudziWG97PYmZMG4IjG2zyXrHg5Q4pqVj+mmm26qdnMaCcHmnG2r08YuIWzC5kAsjii5nKzUy/m0zTbbFGAS8gZCtSLkDXQCluSDClBqyuRnFIgC/abAaAAlixXyMOm37eapz7aYbHFZnjr5+tpcoO0U6m/zBIsHvcCefvpmfb1jnSufHmepYpGBA9V441qurZ7enZ7rwIH/xKHUlMjPKDC0AgFKQ+uSd6NAFIgCUSAKRIEeBQCS5qixKxmgZLebwQ/xPaeU29SuaECOB34hag8//HDtfDY7oGQycc8993RHHHFEPdwPBZQkSL3gggvKKdVyOJkQWJSwg5wQNtcBj9pkweTCpMfkAmQaDlByHaF98maAVJLMtglJ732anIBWdngDh+RuAorkitpjjz0qr5L3Wlud6x5bknGQKkCpV9H8HgWiQD8p0AuU9K02bhhuyFtbDAB/JPW2Q6dxwC6YXLA2SRAurJ/Ux1qc0DfL12QRAWwSNgwYcasqctOBU/LUiXpw/uKLL179M5BkTDI2GSNER6hH2PRCCy1UxzjedQErCyMJeeunf41p61grEKA01ornelEgCkSBKBAF+lABD++SU8t/JBRZ+JcHdCu6sytXX3115QkCYyTHtlOn3wGa2QEl+YVMAk444YSCUEMBJRMEAEboXXMKATrC3STlBr5MBgAguTxMOKx0O8Z9OGa4QEmCb+3Vrve97321u0+btLT7brDKhESOJJ9zHwFKu+22WwGl5Zdf/hlA6ZZbbilttEeoXIBSUzM/o0AU6DcFngtQsgEPN5J+2cKFvtbfFglAeFEK+m+7PG+++eYFlYQKW9RwrPHI2MIh2hY4wCiw6KyzzqqNE4Qhc4nKq+dcCbb10RYYwCR9uGsBSJyoEopvtNFGNb4ZNwKU+u1fZNo7lgoEKI2l2rlWFIgCUSAKRIE+VUDeIvAD+LD6u8UWW9TOm0K8AJQGdtyeCYIHei6iiy66qO54gw026I4++ugCSh7m7RIndG7fffetiUDbcEHSbiFmzjVRmB1QAo3sINSuK3QBiBKaJ0+ShNurDSTHBr2sXJswWPmWVPWSSy4ZFlCyWu46wJD7lyfJNbW1QSWTHmGAdnkDrjiY7AYniTegZgJkYiIMrjfkzWTmtNNOqzaZ5AQo9en/GGl2FIgC5f5sSblH6lDSf3Js2vH5gQceqB027QxnsYLrlHPpvvvu65ZaaqkCPZtttlm5iuw8aqwAkThajUVtRzl9N6fqxRdfXNBpv/32q/x2+mjvGcu4lIwxFh4sBDz11FN1rPGLQ2mHHXaoBQmhcAFK+UceBWavQIDS7LXJJ1EgCkSBKBAFosD/p4DJghCBY445pvIJeeDefvvtK6yh5bYAdwAWq77gDRgjrIs75z3veU+5dTiU5FA65ZRTKixi5513rp/C50AfsAkQslItYfZwgZJJiRVuu7wJe5M0XMgFwKNe7be7W6t7+vTpBcWWXHLJ7u677652StZtUnLOOefUirhQCMebTMh5BCiBQ9plEmNVXjgEt9GMGTNqwiNJOMeRv8E0oW5Wx01OhGrQCJADzI488shaiZcLKkAp/6tFgSjQrwrMq0NJ32xTBE6i+++/v0D9nnvuOWsxQP49fa/xQhiccULfzoFqB05OV8DpAx/4QDlW7QqtWJiwOydwpJx44omdMQtE0u/KewfkGyM4l4TWyZnHjWoxwK6gNlLwmTEiQKlkzH+iwJAKBCgNKUvejAJRIApEgSgQBXoVsGorH5Gdy6wKg0tWjAGTt7zlLfWgDywBNx7WuXr8tMK89957d+uvv34dZ7c1CawPO+ywqt7566yzTj3sO9aDO/DjOKEHwwVKJhvyFtmtzaTApES98m5oE4cR9xInkRxKQtGsdLu+iQmAZYXcpMMK+6KLLlqJXE0ywCEACBhbeeWVK1+H8DbtNQkyIQKltttuu27dddctoORa5513XoXZmeQAZwsvvHC5lGinnQCYcAvaBCj1/mvL71EgCvSTAvMClMAkfSiQbxMG44cdL+WdA+Y5g/SP+kt9s8UGoOeoo47q5PFz/sEHH1z9L+co1yx4ry0WLYAj4xaXqj5drjvwX7/r3A9+8IPVpwuVa7mSLCJwO+nTOWg5TIVWByj107/GtHWsFQhQGmvFc70oEAWiQBSIAn2qgIdz4ASwAW/kueC6AZasGDegJHfFQw89VKFmchjttNNOHagiFIyjB8A59thjy8Xk4R+oAVv8zsHkZdV5xRVXHDZQEmIHFgkzM/kAuSTIlsRVKAPgJAxCniWr1GCViQLnlEmE+xIKYQJjcuJlcsOJxPXEbWW13Eq2yYzJDj3sWufaQuB23HHHjtvIvQi/0w7wTKib60lM7neQSu4PP11baF6AUp/+T5FmR4EoME8hb83NKvyXY9QYos8VHsyJ1Io+0pjBqWRRw2KEJNz62UMPPbSAlLGFCxS4N8YIbQapgCl9ud02JfK+7LLLyrUkL9O2227bvfrVr65xybVAJmPQueeeW9cDoriUgKoApfZt5GcUeLYCAUrP1iTvRIEoEAWiQBSIAkMo0FaUhbNxIAkHk/tCMtOWU8gxYAunz6abbtptsskm9eAvqapwL5+DOhJ8AzVCEqwOg1FgjZAzuTNMCDzQ77rrrt1yyy1X57Vd0STlHpxDCQiyvTPnDzgD2DTQo25gyWozd5J67PQDhFmNdj2QSSjFN7/5zZpUcDBttdVWFe4ARgFO3FkcSa6luB+ACBDjdlp11VULYtHDxOcHP/hBhWSYCHFcKY7XHrDLy4p5knKXNPlPFIgCfaoAEMMJyuk53BxKQn9BfosAXEcAPdAjR11Lrk0OLiZ9OYcR6AQ+AfdC0ThHASn9NpgEIhlfACD9uVx6W2+9dY0rcioJkZOnySKDcGhjj368t7gP73G3cshyngYo9SqU36PAMxUIUHqmHvkrCkSBKBAFokAUmIMCJg4e7rmQOIlMCDiVTAaAFqFgkmB78AeEWugYkNIK8AMKAS7Aj110TCBe+tKXFnwCpKwmqwf0kUhVcY7jwSDuIqvLrQBVru8YriGTCsdpL1BlxdsExOq1dgM+3pcjo+0AB465LxMYoXDcVdpk+2mr5BxQXEVtZyDgyKREUldQyJbTVsoVkx/XN3lxnxxXVuTdJ4ClPep2PffpfoCmlCgQBaJAvykwr0BJfwoo2bABSJIkWwjaAgssMEsC/ab+VB+vzxbKbFzQ3wLyQuY4j4QOA0DGgNtuu60WLeS94xw1hgiDk6tJP67vtpOb6wwGSq5lvNJPWySwoBGgNOvryC9R4FkKBCg9S5K8EQWiQBSIAlEgCgxHAQ/64AvAAgp5EAdJQBWhcM21NLu6ACAgSihZgzN+PtdicgPmaJM2moT0OqS81wubGuyyYu4e3JOJRkui3dqjveCZPB6O1VbgDACz0j1U0RYAzTl+b0DJSvzc9BmqvrwXBaJAFJhoCswLUNKfAv+A0uGHH14gSaJsIcBgTiv6Wn25xQB9pnBm4W7GGUAKKBJCDeqDSnIuWTSwKCHHks0j9PFy851//vnlZlK/HErCkPXFCmDlZbHBOKB+iyKuFaDUvo38jALPViBA6dma5J0oEAWiQBSIAlFgGAp4+DaRMDHw0wtY8fA+HFjSzgd4WvjY4NXiYTRjyENam1xDe3pBlfd8rvisXbO1x304fvA9+FxbTXD87jz369hWx1CN6T1Hnc4ZXPdQ5+W9KBAFokA/KKDPHGnIm3OAfeHP++23X7mTOIKEOU8bCJluBYyXk8/unULVhLGBR4AP96hQNmF2YD13k80g9MdCittObf6Wz+6KK64oAMUV6hw5lpoDVj9tXBA2LaybW0oeP8cEKLVvIz+jwLMVCFB6tiZ5JwpEgSgQBaJAFIgCUSAKRIEoEAWGocBgoAQIrbLKKpU8mwtoqALEc7QKNT7hhBPKhcQNBAK96U1vqs+4X7mNhLA98cQT5Rrda6+96vPnPe95BfaFOJ900knlSOJ2la8OWJI7SVib8DiFc8lmCfIuAVM2ZGjAyMICZxLHkxA6ufbkaXIPwFSA0lDfYN6LAn9QIEAp/xKiQBSIAlEgCkSBKBAFokAUiAJRYJ4UGAyUhAyDOtw9Qo6HKnLGCW8TEgzi2D0UDLKDm9A3OexAoHvvvbc2gVDP2972tkrK7bNW5KGziQPoI/yNG0luvCMGNlzQBtBK4YYSYmdnOGCJM8m13vGOd3TgFHA1c+bM+ik3nvxLgJPjApSa2vkZBZ6tQIDSszXJO1EgCkSBKBAFokAUiAJRIApEgSgwDAUAJaFpdnk74IADKhRN3jphaULRhirCznbffffaLIGzCLQBeuRKApsAJBBITjshxuDPuuuuW0myGyRSL7eRkLiLLrqou+SSS2qjhA033LD72Mc+VjCp5UgSqiwHnt1Jb7rppu7rX/96gSTt4JaSp4lLiaMJSNp4441nbfwQoDTUN5j3osAfFAhQyr+EKBAFokAUiAJRIApEgSgQBaJAFJgnBQAf8Ieb6MILL6yNFuZWkR1Bt912226ZZZap3UHlOLrzzju7733vewWJACChaIDPa17zmtoJc+WVV64NFno3QbCxg9A4oIhTCWxynLptrNBbgC+7wN13330Fv+zeCSRpP/CkTcLkVlpppXJXAVuA1t13310v4Xk77bRTwaY55c3rvWZ+jwKTXYEApcn+Def+okAUiAJRIApEgSgQBaJAFIgC81EBsAZ84Tby+9yKjQm4mNqOlxJst100OYWefvrp+vzFL35xt+CCC9bvbffQXpgDBkmo3bsTnBC2trPn4Ha0XeO0E1ByLeeDSfI9cUYJ2dMu11G/+2ovx/k8JQpEgT8oEKCUfwlRIApEgSgQBaJAFIgCUSAKRIEoMK4KADvADbjkJ6gDIgE4o7kzJkgEegmvA6L83hxKQ+3wOa6i5OJRYIIrEKA0wb+gNC8KRIEoEAWiQBSIAlEgCkSBKBAFokAUiAITTYEApYn2jaQ9USAKRIEoEAWiQBSIAlEgCkSBKBAFokAUmOAKBChN8C8ozYsCUSAKRIEoEAWiQBSIAlEgCkSBKBAFosBEUyBAaaJ9I2lPFIgCUSAKRIEoEAWiQBSIAlEgCkSBKBAFJrgCAUoT/AtK86JAFIgCUSAKRIEoEAWiQBSIAlEgCkSBKDDRFAhQmmjfSNoTBaJAFIgCUSAKRIEoEAWiQBSIAlEgCkSBCa5AgNIE/4LSvCgQBaJAFIgCUSAKRIEoEAWiQBSIAlEgCkw0BQKUJto3kvZEgSgQBaJAFIgCUSAKRIEoEAWiQBSIAlFggisQoDTBv6A0LwpEgSgQBaJAFIgCUSAKRIEoMFwF/u///q/7n//5n+6///u/uz/6oz/q/viP/7j70z/90/p9uHXkuCgQBaLAcBQIUBqOSjkmCkSBKBAFokAUiAJRIApEgSgwwRUAk/793/+9+6d/+qfuZz/7WYGkF7zgBd20adO65z3veRO89WleFIgC/aZAgFK/fWNpbxSIAlEgCkSBKBAFokAUiAJRYAgF/uu//qtA0ne/+93u7rvvLnfSq1/96m7DDTfs/vZv/7b7kz/5kyHOylvzosB//ud/dr///e+7f/zHf+yAvFe84hUF7f78z/98XqrLOVGgLxUIUOrLry2NjgJRIApEgSgQBaJAFIgCUSAKPFOBf/u3f+tmzpzZXX/99d3nPve5DmBaeumlu5NPPrl761vf2v3VX/3VM0/IX/OswFNPPdU98cQT3e233146r7nmmt3CCy/cvehFL5rnOnNiFOg3BQKU+u0bS3ujQBSIAlEgCkSBKBAFokAUiAJDKPDP//zP3VlnndXdcMMN3X333Ve5lBZbbLFu+vTp3WqrrdYtuuiiQ5yVt+ZFgb//+7/vHnnkkW7GjBndf/zHf3Q777xzt+SSS3YLLrjgvFSXc6JAXyoQoNSXX1saHQWiQBSIAlEgCkSBKBAFokAU+P8V4Eb6xS9+0R1yyCHdHXfcUTDpN7/5TffCF76w22KLLboNNtig46KZXZHEWxiXlxCuP/uzP+uEb0no3d7zu7A5ib4Vx3kBKo6RDNx5Xo793//933LvtL+dp52OlTBcXY6T98n7rteuqV5tUrfP1O1Yn//FX/xFtUEdg4trtvP8dE3Xd446fK6oy6u3NA1c03Hqd167J3+3dv3kJz8paAfgaf/+++/fve1tb+sWWWSROr5ppE7tV6frK+p0H+od6h7aNZou6nCsc+TCcs5Q5/XeS36PAmOhQIDSWKica0SBKBAFokAUiAJRIApEgSgQBeajAhJxf+973+s+9rGPVVJujqQ777yz++lPf9q95S1v6d73vveVi2Z2TWghXP/wD/9Q8ONlL3tZ5V16yUte0v3yl78sGAJO/c3f/M2sBN+gCzgErvzqV7/q/uVf/qVz3itf+coCWXIMqc/fQsEAEX9z94A56lL/D3/4w+7Xv/51hYy9/OUvr/dAFG1St3v713/916pDXaDNX/7lX1Z9g+/nd7/7XZ3385//vOPYchzXkHA07QN2wJgXv/jF1cbe85988sm6j8cff7yO00bnOV+7ADDtAuoefPDB0veqq64qDbbZZptuueWWK5cSDVoSdG1wz9ojJFFRp5xW7qWBp952AFDt3mml3dorHxaXGR0Hw7De8/N7FBgrBQKUxkrpXCcKRIEoEAWiQBSIAlEgCkSBKDCfFAA4br311u78888v8LL33nt3X/rSlwp6gCBbb711hb4BHdwurYA+jz76aAGS73znOwUyHP/85z9/FuABpfy9zDLLdELogBDQ40c/+lH3wAMPVOgX8AHm2FXupS99aSWpVjfX1DrrrFPngkrf/OY3y0EF6jSHkvq5d1ZfffVZYWPf/va3u4ceeqj7wQ9+UGCIW+ev//qvq27XX2GFFbolllii2tVAD6j18MMPd9/4xjcKDP32t78t+NLaow4gBhh7+9vf3r35zW8uGbTRtYAtu+OBWzQAe7QZUAJz5KECgkAuWgstpLu2g3bveMc7upVXXrl+1yb1ul9tAsVcX9Ge17zmNd1SSy1V97DQQgvVtXwOVn39618vOAhE+ZuO8l857vWvf323/PLL10/3EqdSSZr/jJMCAUrjJHwuGwWiQBSIAlEgCkSBKBAFokAUGC0FwKMrr7yyQMeyyy7bnXrqqd1Xv/rVgh4SRwt5O/TQQwuOcAYpHEagxSWXXNJ9+ctfLvjUIIWwq+bi4a4BMric3vWud3VveMMbyjXz+c9/vjv33HPLBfX0008XFHGeOrh0ABKQ5/DDD+84eECZz372s90555xTQIrzxi5pXE6vetWrut12261AD+By5plndl/5ylcKygA24I66/QRr9tlnn27zzTevdnEhgS4cWdr06U9/uoCQ4xQ/tcnLPbmXHXbYoc6nATgkdA0c48ZaYIEFZl2Pq8jf2r7vvvt2a621Vvetb32ru/rqq7tLL7207sM1QLo11lijdtRbf/31y410yy23dFdccUUBrqarY12TS2mllVYq0Oc853NIAWhHHnlkd/PNNxcMEx7nXPfnPul64IEHdptttlm1q92jelOiwFgrEKA01ornelEgCkSBKBAFokAUiAJRIApEgVFSoOXbueCCCwrUgA+gx8EHH9xxHIFKAMsb3/jGgiggBjiicNCAKGeffXaBH04czh0uHIBICJ3PhYC97nWvmwWUOGXAm+uuu65cUBwzdpN77WtfW+4eTh8uG84jLqHBQAks4mhShJJx6nD/aJsQMa6eG2+8sc7l+BHm5TgOqPvvv7/74he/2C2++OLdagNhfZJhcxypD0RzXcf5jGsIvOGkAoHAGuVNb3pTt+OOO3abbrppOYCuueaa7qijjipd1Ct0TZ1cWOr77ne/2z322GMd19dWW21VgIo2QJS2OG6TTTYp1xTYxgUmj9UnP/nJgmDazr30ile8ouCQ74Vr6cc//nG35ZZb1rmuq84vfOEL3U033VTX2HbbbcvNBKj5DiRad8099tijYBiHVnbuq680/xknBQKUxkn4XDYKRIEoEAWiQBSIAlEgCkSBKPBcFZATiLPljDPOqHA34GKjjTbqwAiQhTvpmGOOKXeLkLLtttuu4I3r3nvvveUCApzAju23377AB/cMsMNhI6zLccLMmkOJw4kzCVQSIrbnnnt26623Xjl/OJ4AkwsvvLAAiL8HAyWgBXQCsLh5VlxxxYJK3DcAGAcTpxCI9cEPfrAAkGO5hTh32udA08c//vGCP2DREUccUZBslVVWKeBCC0BJOBsQAxxxRAnd22mnnQrkCG/j7qLfqquu2r3zne8sDYTuAVMAz/XXX186aAtnE3BGc2F5p5xySjmxPvrRj1a9ckJ9//vfLyfWSSedVHBv3XXX7bzoCvgBQ+o977zzyvEFRgkL9D7Y5l64qNxPy5lEZ/fA8UQz3yUQxz2VEgXGS4EApfFSPteNAlEgCkSBKBAFokAUiAJRIAo8RwWADQDn4osvLrcMx86GG25Ybhl5gDh69ttvv+6JJ54oB45wKmFrcu987nOfK0ABDHE1feITnyhAIekzV0wDMZ/61Kcq/KoBJed++MMfLleTXEDCz0AcYVvOA7JaGB2Hz+yAEkfScccdV44orh6hb5xWEosvueSSBVm4cYAmoV0NDgnPA4e4sxyrvdw9IBZnkR3X5EcCcBRuK0AG9AGBGlDiUOKgkhOJC8k1p02bVnmT1O28FjYolG7XXXft3v/+95c7CnAbCigBPGAR95afwtPkrwKhmptI+JrPPvKRj1SCcSBLuJ/vEaDihuISA+q4v0AlmoNfXE1CAr2E7wFUKVFgvBQIUBov5XPdKBAFokAUiAJRIApEgSgQBaLAc1QADJHPh5MIPAKLwBQ5iRRhZ5dddlnlSpJgGlCSTwmMuOiii7oZM2YUAAKhTjzxxAIXLdEzMCTkTTgYJxSgBH4I8dprr73qp5A0bp+3ve1ts+7EDmXyH1177bUFrQYDJfmKwBoum6OPProSeYNf3EOSinMdASpCukCntmOaC8jJ1JKIgyogEfgDCNGBq+n4448veCaRuKK92jR9+vTu7rvvrsTinEbvec97CmJxQ6lTAmztAou4k+wsR19uKp/vvvvus4CS+oYCSnIeAXBC4e666676PoTzaUvLdwSMCXkDnYQPgnHgkutzQ3nRQhghKMadxSHG/cQ5BTDRR06loXaJq5vOf6LAGCgQoDQGIucSUSAKRIEoEAWiQBSIAlEgCkSB0VYAmOBqEVol7xAAxGEDPAAbijAxIVRgBaABXHDmyPUjbE24m7Lxxht3hx12WP3e/uNcMIUbyfmAEsADLn3oQx8qZ5Dwqy222KLgRzsPiNEeDijhaYOBklAvbZGMGuQBjAAc8Abk4tLRfru6uZcGYtTv2upXACcOJu2UI0nomvxIQuq4mpoGjuUKOuiggyq3EUgjvA9QAptcV1ifOjiduJm0h9uKxm33NSFvzaE0O6DEMXT66adXW0AuMAjIG1y4sdwHoMSFRGPQid6AFNcY95TjQCN5r4TBCXMDoPzshVSD68/fUWAsFAhQGguVc40oEAWiQBSIAlEgCkSBKBAFosAoKwBISP4sAbdt6QEGIWjCvppzBTABg4RKASV2B5NjiSMJvBEqB9LI48OJ1FsADeFXIJQd2QAljiSAhUMJ6JH7R0gXV1QrzgNoACXwaCig1HZFE57WgJLE09okuTZYJAQNOOkFQwAP0KOARmCMe5NfCFCSfPy0004rkNPrbAKIwCt6LbLIIgWG6ADCOQ/4Eq7G9cTlpG65ooAoLi3up1122WWuQMl9CR0Ulgf20dWue+37aBq1+/CdcZPJ3eR3cIwOnGV++s783hKcO3/ttdcu5xO3mO86JQqMlwIBSuOlfK4bBaJAFIgCUSAKRIEoEAWiQBSYRwWEeXGzCC079thjaxc07iEwpBcyABfCyYAUO6cttthilSDajmXyEMl1JOTr3e9+d+Uzko+o5eXxvrAuYWmcMr0hb9w6gBZYAi5JrN0K9w6gIu8QqDQUUHIdIW8NKIFa4I4cSkLWhImBLMLzOJVacU3wzAswknibwwhQcj9gkWTW7hMcUrRdGNsBBxxQu7aBVTsMhLxJlH3PPfd0V111VYEvbiu7w4FSkpSrX93yKAFjH/jAB+YKlMAvYXu0Fl5HG9oKVWu6+k60n3OsASUhg6CX79Sxwtl8b46T/8r7bZc3u9ABeXaq44BKiQLjpUCA0ngpn+tGgSgQBaJAFIgCUSAKRIEoEAXmUQFACbSRb+ezn/1s7bIm/Mv28/IjDS6cP8AQ9xBQw0Vz2223VVLub3zjG92aa65ZoXPCs1ryaCFbM2fOLNcQ5w2gJEeTa0sYDXIAGgAQONOKnd1AFc4fUGU4QInriDvn7LPP7g455JAKoQNiJBTvDRnj2uF+kuxbridQhXvKPQjfA5/kOgLXhIgpABeHj3xLwtpaUm7w6NJLL638U+5T6KBQOEAO/OFOuummmwqM2V1NwvO5hbzRDkTzvbh/Sbm32WabynsEEilcY9pLI/rJlUR/8M73BNK9/e1vL0hVFuXQAAALPUlEQVQHatGbPurlFgPKgDQhfABaShQYLwUClMZL+Vw3CkSBKBAFokAUiAJRIApEgSgwjwoADHIFSXz9yCOPFOho8KU3RKxVDz6BFXIbgRCgDUeMsCwgRrgXhw6YIceQsDbAidNG2JtQugaUhIJJrH377bdXuNmWW25ZkEqyaOF1jhciBkhx2AwHKIEmHDlcRmeccUadJxRsq622qtA3EIVjSuLxW265pVxHnEZ2mHO/NODU4ijiMAJogCOfaQ8ABRoBag0oOUYyczuuua68UEIC5aECt4TSuQ/n/uhHP+q22267Cu/jJgKb5FsC0wC0bbfdtnIb2c3Nsb4XoXfC0oAroYLyQbnPBx98sJxR7oPTiO4Aku/Gd0QH9w7S0Z1jSZJuji/XA5PWW2+9agsnVUoUGC8FApTGS/lcNwpEgSgQBaJAFIgCUSAKRIEoMA8KcLiAQYceemjtJsYVY0t74VVcO22Xtt6q5QHitrHjG6hhZzZABpjiChJ+xYUkJxGYASg99NBD5egRLgbSgCYgjB3GhNDZyUzIHZcNkCIhNqAk7w9o8otf/KL+FoIGRgFV3FTCx4AeIW8gWG+uI1BFvcLM2nUlELfLGVgE4nAZuZbz3QdHkXA5ybxBLo4kOZ3cn7q1B9wCpITaOZezSS4iYWSA0sUDuaRAH7AIUAKeHh9wQwFYwNKvf/3rgkMgD+eUeoWi2ZHOvQJx2rPCCitUe8A4jif6ysckJBAUo717VDdnFU0lB3dNbQS2fC5MT10gHRCl7ZxZAB8tJVb3XQmZS4kC46VAgNJ4KZ/rRoEoEAWiQBSIAlEgCkSBKBAF5kEBwAQkOfLIIwt4CGGz05pE27MrgAQYc8wxxxQg4ZpxDrcO587NN99cL+dLIA0uCRkDl3z28pe/vFxQzpOfCDgCla677roCHYAOyCLkDOABSFzzrrvuqlA7EAQUuvLKK2cBJbu82d2sFyg9/fTTBWouv/zy7mtf+1pBJIBMe0AWxwIzQMxaa61VIAuc4hgCmpyjTU8++WRBN/cCZAFegBTA43ftAYZAK1AMVOMCAupAJy+wBiQC14SvuYZzJUEHpYTFgWUAmGOacwiocix9ACLt0n5tcS8cSOrRfq/mpPrVr37Vff/73+/cu9xONJb43HVARG3iDuOk8l0LBVRvShQYLwUClMZL+Vw3CkSBKBAFokAUiAJRIApEgSgwDwoIxwJCgCAQghOHg6jlDBqqSudw2XApASdAESjip1xIwrT8dBzgAdyASCCGHdCAIg4ooVm2sHccl83DDz9cPwEcsAbw4JiSeJr7R+iXXdvkJgJohNhx2oAkEohzBfVCEdcGZ5zLIaVN3EJgEnDE7eP63DnAlmtx/fgc1HIf2uRetRHE4aACsz7zmc+UXu5BaBu3FVDDnSWsTZ4l96Ht7sP9gz3q12660cXObYAQbTipfOY879GUOwoIAtSAIZAIKNNGQAkIcu/cUM5pYWtgFljIoQT+aQ8wRVf5l9y772uVVVapMEC6DeVGG+r7z3tRYH4oEKA0P1RNnVEgCkSBKBAFokAUiAJRIApEgQmugJArAAOcAozACkAHpAAw5AYCS4466qj6/LDDDquk38AQeAOAKICN850LFNmJjauJU8gOaoAUoNQcOsOVxc5vXDrap06QR8JxYKW3ADU+B3CUBsIAH9AFIHKv++67b8Em4WJyF9ktrbfQArwCcOQtAn5oASipAxTSJm0At3zmfe85z3uAEw3cq0ITbaMlUKaAW+rXvtkBIecIqVMv6OV4oW/g0+zOqcrznygwhgoEKI2h2LlUFIgCUSAKRIEoEAWiQBSIAlFgoijAzWNnMTuSCSPbeOONyzHTcv20kDbhXksttVR38sknFwzh/OF0Esol9M4uZnIEAS2gidAyO5jJ2wTSAFIgzkhBCFgDpgBGDVaBMMBNb2nwRW4mTiGgSP4hzi1A6fEBJxXXD7ClfXbDE55mR7ze0q4DIDnPtVrxnrZok/cbMGqwSfu8x5nkPtu9+txnrutcBaxTf6ujXaP3p3O4k/x0XmtP2ymu99j8HgXGS4EApfFSPteNAlEgCkSBKBAFokAUiAJRIAqMowJgENBy+umnF7QBhYRiAUpAhs/uvvvugiRyCe2///4VtgYSyVUkmbWQLyBKUmrOIK4l9corBK4I69p6662f5QYazdt2TW6e4447rsLktMN1ASNtAJQkvPZTuBygBDY5LiUKRIF5VyBAad61y5lRIApEgSgQBaJAFIgCUSAKRIG+VUBolzw9J554YmdXMr8DMJwzzVmzwAIL1A5yEljLPSSci5OHE8gW9yCO4n3hXj7z4uJxzvTp02tXOOFj86toq9AwCbBvuOGGSrLtveYWcp8cQ3Imrb/++t3mm29eIWRzcgjNr7am3igwmRQIUJpM32buJQpEgSgQBaJAFIgCUSAKRIEoMAIFgBgJsB977LFyFklmLTxLaJW8PXL2CB+T8FvuImBGCBZo9OCDD1Yya+fILyT0TDiafErOEya30korFWjqDR8bQfOGfahwNCF8jz76aCXBlrNI/iXtBcXkH5IwmzNp0UUXfUY427AvkgOjQBR4hgIBSs+QI39EgSgQBaJAFIgCUSAKRIEoEAWmngLyInEd/fznPy+3DygkJAwYspOaHD6DS3Mx2WnOyy5oEmcLmZN4Wh1DnTe4ntH8G+hqYXfaAyhxR0kc7icXVUoUiAKjo0CA0ujomFqiQBSIAlEgCkSBKBAFokAUiAJ9q4CwsJY82u/CxbiKAKEWOjbUzYFKLczNT6FvLYH0nM4bqq7ReE97tN/Oa9qjtPb07r42GtdKHVFgqisQoDTV/wXk/qNAFIgCUSAKRIEoEAWiQBSIAlEgCkSBKDBCBQKURihYDo8CUSAKRIEoEAWiQBSIAlEgCkSBKBAFosBUVyBAaar/C8j9R4EoEAWiQBSIAlEgCkSBKBAFokAUiAJRYIQKBCiNULAcHgWiQBSIAlEgCkSBKBAFokAUiAJRIApEgamuQIDSVP8XkPuPAlEgCkSBKBAFokAUiAJRIApEgSgQBaLACBUIUBqhYDk8CkSBKBAFokAUiAJRIApEgSgQBaJAFIgCU12BAKWp/i8g9x8FokAUiAJRIApEgSgQBaJAFIgCUSAKRIERKhCgNELBcngUiAJRIApEgSgQBaJAFIgCUSAKRIEoEAWmugIBSlP9X0DuPwpEgSgQBaJAFIgCUSAKRIEoEAWiQBSIAiNUIEBphILl8CgQBaJAFIgCUSAKRIEoEAWiQBSIAlEgCkx1BQKUpvq/gNx/FIgCUSAKRIEoEAWiQBSIAlEgCkSBKBAFRqhAgNIIBcvhUSAKRIEoEAWiQBSIAlEgCkSBKBAFokAUmOoKBChN9X8Buf8oEAWiQBSIAlEgCkSBKBAFokAUiAJRIAqMUIEApREKlsOjQBSIAlEgCkSBKBAFokAUiAJRIApEgSgw1RUIUJrq/wJy/1EgCkSBKBAFokAUiAJRIApEgSgQBaJAFBihAgFKIxQsh0eBKBAFokAUiAJRIApEgSgQBaJAFIgCUWCqKxCgNNX/BeT+o0AUiAJRIApEgSgQBaJAFIgCUSAKRIEoMEIFApRGKFgOjwJRIApEgSgQBaJAFIgCUSAKRIEoEAWiwFRXIEBpqv8LyP1HgSgQBaJAFIgCUSAKRIEoEAWiQBSIAlFghAoEKI1QsBweBaJAFIgCUSAKRIEoEAWiQBSIAlEgCkSBqa5AgNJU/xeQ+48CUSAKRIEoEAWiQBSIAlEgCkSBKBAFosAIFQhQGqFgOTwKRIEoEAWiQBSIAlEgCkSBKBAFokAUiAJTXYH/B9yiXOpdYil2AAAAAElFTkSuQmCC;fontStyle=1" vertex="1" parent="1">
          <mxGeometry x="187" y="541" width="435" height="135.1" as="geometry" />
        </mxCell>
        <mxCell id="S_jD0EZDXr-HNpG7lVB_-32" value="&lt;b&gt;&lt;font style=&quot;font-size: 21px;&quot;&gt;TransferRoom Data Stack&lt;/font&gt;&lt;/b&gt;" style="text;html=1;align=center;verticalAlign=middle;resizable=0;points=[];autosize=1;strokeColor=none;fillColor=none;" vertex="1" parent="1">
          <mxGeometry x="269.5" y="164" width="274" height="37" as="geometry" />
        </mxCell>
      </root>
    </mxGraphModel>
  </diagram>
</mxfile>
